<svg xmlns="http://www.w3.org/2000/svg" width="802" height="463" viewBox="0 0 802 463">
  <g id="c2" transform="translate(-603 -9663)">
    <rect id="Rectángulo_298656" data-name="Rectángulo 298656" width="802" height="463" transform="translate(603 9663)" fill="#fff"/>
    <g id="Grupo_175198" data-name="Grupo 175198" transform="translate(619.137 9677.109)">
      <g id="Grupo_175164" data-name="Grupo 175164" transform="translate(461.148 96.979)">
        <path id="Trazado_254806" data-name="Trazado 254806" d="M968.072,1299.98v6.856l-6.042-3.428Z" transform="translate(-962.03 -1299.98)" fill="#a7c3ce"/>
        <rect id="Rectángulo_298599" data-name="Rectángulo 298599" width="19.491" height="0.762" transform="translate(23.162 3.902) rotate(180)" fill="#a7c3ce"/>
        <rect id="Rectángulo_298600" data-name="Rectángulo 298600" width="103.32" height="0.967" transform="translate(23.162 3.901) rotate(90)" fill="#a7c3ce"/>
      </g>
      <g id="Grupo_175167" data-name="Grupo 175167" transform="translate(461.148 59.305)">
        <path id="Trazado_254809" data-name="Trazado 254809" d="M968.072,1228.33v6.857l-6.042-3.428Z" transform="translate(-962.03 -1228.33)" fill="#a7c3ce"/>
        <rect id="Rectángulo_298604" data-name="Rectángulo 298604" width="67.923" height="0.762" transform="translate(71.593 3.901) rotate(180)" fill="#a7c3ce"/>
      </g>
      <g id="Grupo_175168" data-name="Grupo 175168" transform="translate(408.44 268.6)">
        <path id="Trazado_254810" data-name="Trazado 254810" d="M986.47,1626.38v6.857l6.042-3.428Z" transform="translate(-920.913 -1626.38)" fill="#a7c3ce"/>
        <rect id="Rectángulo_298605" data-name="Rectángulo 298605" width="67.923" height="0.762" transform="translate(0 3.139)" fill="#a7c3ce"/>
      </g>
      <g id="Grupo_175169" data-name="Grupo 175169" transform="translate(288.973 260.319)">
        <path id="Trazado_254811" data-name="Trazado 254811" d="M640.621,1610.63v6.857l-6.041-3.428Z" transform="translate(-634.58 -1610.63)" fill="#a7c3ce"/>
        <rect id="Rectángulo_298606" data-name="Rectángulo 298606" width="67.923" height="0.762" transform="translate(71.598 3.907) rotate(180)" fill="#a7c3ce"/>
      </g>
      <g id="Grupo_175170" data-name="Grupo 175170" transform="translate(184.229 273.039)">
        <path id="Trazado_254812" data-name="Trazado 254812" d="M435.37,1640.861h6.856l-3.428-6.042Z" transform="translate(-435.37 -1634.82)" fill="#a7c3ce"/>
        <rect id="Rectángulo_298607" data-name="Rectángulo 298607" width="67.923" height="0.762" transform="translate(3.144 71.598) rotate(-90)" fill="#a7c3ce"/>
      </g>
      <g id="Grupo_175171" data-name="Grupo 175171" transform="translate(400.928 140.564)">
        <path id="Trazado_254813" data-name="Trazado 254813" d="M847.5,1388.912h6.856l-3.428-6.042Z" transform="translate(-847.5 -1382.87)" fill="#a7c3ce"/>
        <rect id="Rectángulo_298608" data-name="Rectángulo 298608" width="67.923" height="0.762" transform="translate(3.139 71.598) rotate(-90)" fill="#a7c3ce"/>
      </g>
      <g id="Grupo_175172" data-name="Grupo 175172" transform="translate(400.928 238.793)">
        <path id="Trazado_254814" data-name="Trazado 254814" d="M847.5,1575.731h6.856l-3.428-6.042Z" transform="translate(-847.5 -1569.69)" fill="#a7c3ce"/>
        <rect id="Rectángulo_298609" data-name="Rectángulo 298609" width="67.923" height="0.762" transform="translate(3.139 71.593) rotate(-90)" fill="#a7c3ce"/>
      </g>
      <g id="Grupo_175173" data-name="Grupo 175173" transform="translate(529.312 304.157)">
        <path id="Trazado_254815" data-name="Trazado 254815" d="M1091.67,1718.942h6.857l-3.428-6.041Z" transform="translate(-1091.67 -1712.9)" fill="#a7c3ce"/>
        <rect id="Rectángulo_298610" data-name="Rectángulo 298610" width="67.923" height="0.762" transform="translate(3.144 71.593) rotate(-90)" fill="#a7c3ce"/>
      </g>
      <g id="Grupo_175174" data-name="Grupo 175174" transform="translate(276.406 344.637)">
        <path id="Trazado_254816" data-name="Trazado 254816" d="M1004.68,1718.942h6.856l-3.428-6.041Z" transform="translate(-797.515 -1752.714)" fill="#a7c3ce"/>
        <rect id="Rectángulo_298611" data-name="Rectángulo 298611" width="137.676" height="0.762" transform="translate(210.305 101.532) rotate(-90)" fill="#a7c3ce"/>
        <rect id="Rectángulo_298612" data-name="Rectángulo 298612" width="97.862" height="0.762" transform="translate(0 101.532) rotate(-90)" fill="#a7c3ce"/>
        <rect id="Rectángulo_298613" data-name="Rectángulo 298613" width="210.484" height="0.762" transform="translate(0.384 101.148)" fill="#a7c3ce"/>
      </g>
      <g id="Grupo_175175" data-name="Grupo 175175" transform="translate(199.194 78.029)">
        <path id="Trazado_254817" data-name="Trazado 254817" d="M714.72,1263.94v6.857l6.042-3.428Z" transform="translate(-595.184 -1263.94)" fill="#a7c3ce"/>
        <rect id="Rectángulo_298614" data-name="Rectángulo 298614" width="121.907" height="0.762" transform="translate(0.005 3.139)" fill="#a7c3ce"/>
        <rect id="Rectángulo_298615" data-name="Rectángulo 298615" width="38.883" height="0.663" transform="translate(0.663 3.907) rotate(90)" fill="#a7c3ce"/>
      </g>
      <g id="Grupo_175176" data-name="Grupo 175176" transform="translate(120.666 60.156)">
        <path id="Trazado_254818" data-name="Trazado 254818" d="M707.54,1229.95v6.857l9.817-3.428Z" transform="translate(-513.251 -1229.95)" fill="#a7c3ce"/>
        <rect id="Rectángulo_298616" data-name="Rectángulo 298616" width="198.138" height="0.762" transform="translate(0 3.139)" fill="#a7c3ce"/>
        <rect id="Rectángulo_298617" data-name="Rectángulo 298617" width="38.883" height="1.073" transform="translate(1.078 3.907) rotate(90)" fill="#a7c3ce"/>
      </g>
      <g id="Grupo_175177" data-name="Grupo 175177" transform="translate(461.148 11.715)">
        <path id="Trazado_254819" data-name="Trazado 254819" d="M971.847,1137.82v6.857l-9.817-3.428Z" transform="translate(-962.03 -1137.82)" fill="#a7c3ce"/>
        <rect id="Rectángulo_298618" data-name="Rectángulo 298618" width="198.138" height="0.762" transform="translate(204.101 3.901) rotate(180)" fill="#a7c3ce"/>
        <rect id="Rectángulo_298619" data-name="Rectángulo 298619" width="38.883" height="1.073" transform="translate(204.106 3.901) rotate(90)" fill="#a7c3ce"/>
      </g>
      <g id="Grupo_175178" data-name="Grupo 175178" transform="translate(131.449 175.722)">
        <path id="Trazado_254820" data-name="Trazado 254820" d="M367.55,1449.74v6.857l6.042-3.428Z" transform="translate(-350.43 -1449.74)" fill="#a7c3ce"/>
        <rect id="Rectángulo_298620" data-name="Rectángulo 298620" width="19.491" height="0.762" transform="translate(0 3.139)" fill="#a7c3ce"/>
        <rect id="Rectángulo_298621" data-name="Rectángulo 298621" width="103.32" height="0.967" transform="translate(0.967 3.901) rotate(90)" fill="#a7c3ce"/>
      </g>
      <g id="Grupo_175180" data-name="Grupo 175180" transform="translate(12.117 0.474)">
        <rect id="Rectángulo_298622" data-name="Rectángulo 298622" width="145.771" height="130.925" transform="translate(-14.32)" fill="#179bd8"/>
        <rect id="Rectángulo_298623" data-name="Rectángulo 298623" width="145.771" height="21.558" transform="translate(-14.32)" fill="#fff" opacity="0.31"/>
        <rect id="Rectángulo_298624" data-name="Rectángulo 298624" width="9.464" height="130.925" transform="translate(-14.32 0)" fill="#fff" opacity="0.1"/>
        <text id="DIM_TIEMPO" transform="translate(-0.435 14.278)" fill="#1d1d1b" font-size="10" font-family="Roboto-Bold, Roboto" font-weight="700"><tspan x="0" y="0">DIM_TIEMPO</tspan></text>
      </g>
      <rect id="Rectángulo_298625" data-name="Rectángulo 298625" width="153.534" height="111.302" transform="translate(491.612 27.795)" fill="#179bd8"/>
      <rect id="Rectángulo_298626" data-name="Rectángulo 298626" width="153.534" height="21.558" transform="translate(491.612 27.795)" fill="#fff" opacity="0.31"/>
      <rect id="Rectángulo_298627" data-name="Rectángulo 298627" width="9.464" height="111.302" transform="translate(491.612 27.795)" fill="#fff" opacity="0.1"/>
      <text id="DIM_PRODUCTO" transform="translate(508.437 40.239)" fill="#1d1d1b" font-size="10" font-family="Roboto-Bold, Roboto" font-weight="700"><tspan x="0" y="0">DIM_PRODU</tspan><tspan y="0" letter-spacing="-0.01em">CT</tspan><tspan y="0">O</tspan></text>
      <text id="Sk_Producto_INTEGER_Id_Producto_INTEGER_Nombre_VARCHAR_50_Descripcion_YARCHAR_50_ld_Marca_INTEGER_Nombre_Marca_VARCHAR_50_" data-name="Sk_Producto INTEGER
Id_Producto INTEGER
Nombre VARCHAR(50)
Descripcion YARCHAR(50)
ld_Marca INTEGER
Nombre_Marca
VARCHAR(50)" transform="translate(508.437 63.459)" fill="#1d1d1b" font-size="10" font-family="Roboto-Regular, Roboto"><tspan x="0" y="0">Sk_Producto INTEGER</tspan><tspan x="0" y="12">Id_Producto INTEGER</tspan><tspan x="0" y="24">Nombre VARCHAR(50)</tspan><tspan x="0" y="36">Descripcion YARCHAR(50)</tspan><tspan x="0" y="48">ld_Marca INTEGER</tspan><tspan x="0" y="60">Nombre_Marca</tspan><tspan x="0" y="72">VARCHAR(50)</tspan></text>
      <g id="Grupo_175182" data-name="Grupo 175182" transform="translate(157.239 92.805)">
        <rect id="Rectángulo_298628" data-name="Rectángulo 298628" width="143.318" height="178.288" transform="translate(0 0)" fill="#179bd8"/>
        <rect id="Rectángulo_298629" data-name="Rectángulo 298629" width="143.318" height="23.504" transform="translate(0 0)" fill="#fff" opacity="0.31"/>
        <rect id="Rectángulo_298630" data-name="Rectángulo 298630" width="10.319" height="178.288" transform="translate(0 0)" fill="#fff" opacity="0.1"/>
        <text id="DIM_CLIENTE" transform="translate(18.345 15.86)" fill="#12263f" font-size="10" font-family="Roboto-Bold, Roboto" font-weight="700"><tspan x="0" y="0">DIM_CLIENTE</tspan></text>
      </g>
      <g id="Grupo_175184" data-name="Grupo 175184" transform="translate(338.63 0.474)">
        <rect id="Rectángulo_298631" data-name="Rectángulo 298631" width="134.824" height="139.427" transform="translate(-12.833)" fill="#f2b15a"/>
        <rect id="Rectángulo_298632" data-name="Rectángulo 298632" width="134.824" height="21.558" transform="translate(-12.833)" fill="#fff" opacity="0.31"/>
        <rect id="Rectángulo_298633" data-name="Rectángulo 298633" width="9.464" height="139.427" transform="translate(-12.833)" fill="#fff" opacity="0.1"/>
        <text id="HECHOS_VENTAS" transform="translate(5.826 14.278)" fill="#1d1d1b" font-size="10" font-family="Roboto-Bold, Roboto" font-weight="700"><tspan x="0" y="0">HECHOS_VEN</tspan><tspan y="0" letter-spacing="-0.06em">T</tspan><tspan y="0">AS</tspan></text>
      </g>
      <g id="Grupo_175186" data-name="Grupo 175186" transform="translate(307.418 255.86)">
        <rect id="Rectángulo_298634" data-name="Rectángulo 298634" width="153.534" height="185.23" fill="#179bd8"/>
        <rect id="Rectángulo_298635" data-name="Rectángulo 298635" width="153.534" height="21.558" transform="translate(0 0)" fill="#fff" opacity="0.31"/>
        <rect id="Rectángulo_298636" data-name="Rectángulo 298636" width="9.464" height="185.23" fill="#fff" opacity="0.1"/>
        <text id="DIM_CIUDAD" transform="translate(16.826 14.445)" fill="#1d1d1b" font-size="10" font-family="Roboto-Bold, Roboto" font-weight="700"><tspan x="0" y="0">DIM_CIUDAD</tspan></text>
      </g>
      <g id="Grupo_175188" data-name="Grupo 175188" transform="translate(0 219.58)">
        <rect id="Rectángulo_298638" data-name="Rectángulo 298638" width="148.127" height="87.378" fill="#179bd8"/>
        <rect id="Rectángulo_298639" data-name="Rectángulo 298639" width="148.127" height="22.717" transform="translate(0 0)" fill="#fff" opacity="0.31"/>
        <rect id="Rectángulo_298640" data-name="Rectángulo 298640" width="9.973" height="87.378" fill="#fff" opacity="0.1"/>
        <text id="DIM__PROFESION" data-name="DIM _PROFESION" transform="translate(13.973 16.576)" fill="#1d1d1b" font-size="10" font-family="Roboto-Bold, Roboto" font-weight="700"><tspan x="0" y="0">DIM _PROFESION</tspan></text>
      </g>
      <g id="Grupo_175190" data-name="Grupo 175190" transform="translate(307.418 150.59)">
        <rect id="Rectángulo_298641" data-name="Rectángulo 298641" width="153.534" height="93.632" fill="#179bd8"/>
        <rect id="Rectángulo_298642" data-name="Rectángulo 298642" width="153.534" height="21.558" transform="translate(0 0)" fill="#fff" opacity="0.31"/>
        <rect id="Rectángulo_298643" data-name="Rectángulo 298643" width="9.464" height="93.632" fill="#fff" opacity="0.1"/>
        <text id="DIM_SUCURSAL" transform="translate(16.826 14.445)" fill="#1d1d1b" font-size="10" font-family="Roboto-Bold, Roboto" font-weight="700"><tspan x="0" y="0">DIM_SUCURSAL</tspan></text>
      </g>
      <g id="Grupo_175192" data-name="Grupo 175192" transform="translate(157.239 296.041)">
        <rect id="Rectángulo_298644" data-name="Rectángulo 298644" width="137.587" height="89.583" fill="#179bd8"/>
        <rect id="Rectángulo_298645" data-name="Rectángulo 298645" width="137.587" height="23.635" transform="translate(0 0)" fill="#fff" opacity="0.31"/>
        <rect id="Rectángulo_298646" data-name="Rectángulo 298646" width="10.377" height="89.583" fill="#fff" opacity="0.1"/>
        <text id="DIM_SEXO" transform="translate(17.447 15.888)" fill="#1d1d1b" font-size="10" font-family="Roboto-Bold, Roboto" font-weight="700"><tspan x="0" y="0">DIM_SE</tspan><tspan y="0" letter-spacing="-0.01em">X</tspan><tspan y="0">O</tspan></text>
      </g>
      <g id="Grupo_175194" data-name="Grupo 175194" transform="translate(513.049 326.467)">
        <rect id="Rectángulo_298647" data-name="Rectángulo 298647" width="125.493" height="80.021" transform="translate(-5)" fill="#179bd8"/>
        <rect id="Rectángulo_298648" data-name="Rectángulo 298648" width="125.493" height="21.558" transform="translate(-5 0)" fill="#fff" opacity="0.31"/>
        <rect id="Rectángulo_298649" data-name="Rectángulo 298649" width="9.464" height="80.021" transform="translate(-5)" fill="#fff" opacity="0.1"/>
        <text id="DIM_CARGO" transform="translate(8.592 15.445)" fill="#1d1d1b" font-size="10" font-family="Roboto-Bold, Roboto" font-weight="700"><tspan x="0" y="0">DIM_CARGO</tspan></text>
      </g>
      <g id="Grupo_175195" data-name="Grupo 175195" transform="translate(654.752 0)">
        <rect id="Rectángulo_298650" data-name="Rectángulo 298650" width="125.493" height="83.091" fill="#179bd8"/>
        <rect id="Rectángulo_298651" data-name="Rectángulo 298651" width="125.493" height="21.558" transform="translate(0 0)" fill="#fff" opacity="0.31"/>
        <rect id="Rectángulo_298652" data-name="Rectángulo 298652" width="9.464" height="83.091" fill="#fff" opacity="0.1"/>
        <text id="DIM_RECIBO" transform="translate(16.826 12.445)" fill="#1d1d1b" font-size="10" font-family="Roboto-Bold, Roboto" font-weight="700"><tspan x="0" y="0">DIM_RECIBO</tspan></text>
      </g>
      <g id="Grupo_175197" data-name="Grupo 175197" transform="translate(479.687 149.376)">
        <rect id="Rectángulo_298653" data-name="Rectángulo 298653" width="153.534" height="154.781" fill="#179bd8"/>
        <rect id="Rectángulo_298654" data-name="Rectángulo 298654" width="9.464" height="154.781" fill="#fff" opacity="0.1"/>
        <rect id="Rectángulo_298655" data-name="Rectángulo 298655" width="153.534" height="21.558" transform="translate(0 0)" fill="#fff" opacity="0.31"/>
        <text id="DIM_EMPLEADO" transform="translate(16.826 12.445)" fill="#1d1d1b" font-size="10" font-family="Roboto-Bold, Roboto" font-weight="700"><tspan x="0" y="0">DIM_EMPLEADO</tspan></text>
      </g>
    </g>
    <text id="Sk_Fecha_INTEGER_Anio_INTEGER_Semestre_INTEGER_Mes_INTEGER_Nombre_mes_VARCHAR_10_Dia_integer_Nombre_dia_VARCHAR_10_" data-name="Sk_Fecha INTEGER
Anio INTEGER
Semestre INTEGER
Mes INTEGER
Nombre_mes VARCHAR(10)
Dia integer
Nombre_dia VARCHAR(10)" transform="translate(631 9705)" fill="#12263f" font-size="10" font-family="Roboto-Regular, Roboto"><tspan x="0" y="10">Sk_Fecha INTEGER</tspan><tspan x="0" y="23">Anio INTEGER</tspan><tspan x="0" y="36">Semestre INTEGER</tspan><tspan x="0" y="49">Mes INTEGER</tspan><tspan x="0" y="62">Nombre_mes VARCHAR(10)</tspan><tspan x="0" y="75">Dia integer</tspan><tspan x="0" y="88">Nombre_dia VARCHAR(10)</tspan></text>
    <text id="Sk_Profesion_INTEGER_Id_Profesion_INTEGER_Nombre_profesión_VARCHAR_50_" data-name="Sk_Profesion INTEGER
Id_Profesion INTEGER
Nombre_profesión
VARCHAR(50)" transform="translate(634 9926)" fill="#12263f" font-size="10" font-family="Roboto-Regular, Roboto"><tspan x="0" y="10">Sk_Profesion INTEGER</tspan><tspan x="0" y="23">Id_Profesion INTEGER</tspan><tspan x="0" y="36">Nombre_profesión</tspan><tspan x="0" y="49">VARCHAR(50)</tspan></text>
    <text id="Sk_Sexo_INTEGER_ld_Sexo_INTEGER_Descripcion_VARCHAR_20_" data-name="Sk_Sexo INTEGER
ld_Sexo INTEGER
Descripcion
VARCHAR(20)" transform="translate(794 10002)" fill="#12263f" font-size="10" font-family="Roboto-Regular, Roboto"><tspan x="0" y="10">Sk_Sexo INTEGER</tspan><tspan x="0" y="23">ld_Sexo INTEGER</tspan><tspan x="0" y="36">Descripcion</tspan><tspan x="0" y="49">VARCHAR(20)</tspan></text>
    <text id="Sk_Cliente_INTEGER_Sk_Profesion_INTEGER_Sk_Sexo_INTEGER_Sk_Ciudad_INTEGER_Id_Cliente_INTEGER_Nombres_VARCHAR_50_Apellidos_VARCHAR_50_Direccion_VARCHAR_100_Telefono_INTEGER_Correo_e_VARCHAR_50_" data-name="Sk_Cliente INTEGER
Sk_Profesion INTEGER
Sk_Sexo INTEGER
Sk_Ciudad INTEGER
Id_Cliente INTEGER
Nombres VARCHAR(50)
Apellidos VARCHAR(50)
Direccion VARCHAR(100)
Telefono INTEGER
Correo_e VARCHAR(50)" transform="translate(794 9800)" fill="#12263f" font-size="10" font-family="Roboto-Regular, Roboto"><tspan x="0" y="10">Sk_Cliente INTEGER</tspan><tspan x="0" y="23">Sk_Profesion INTEGER</tspan><tspan x="0" y="36">Sk_Sexo INTEGER</tspan><tspan x="0" y="49">Sk_Ciudad INTEGER</tspan><tspan x="0" y="62">Id_Cliente INTEGER</tspan><tspan x="0" y="75">Nombres VARCHAR(50)</tspan><tspan x="0" y="88">Apellidos VARCHAR(50)</tspan><tspan x="0" y="101">Direccion VARCHAR(100)</tspan><tspan x="0" y="114">Telefono INTEGER</tspan><tspan x="0" y="127">Correo_e VARCHAR(50)</tspan></text>
    <text id="Sk_Ciudad_INTEGER_ld_Ciudad_INTEGER_Nombre_ciudad_VARCHAR_50_Id_Departamento_INTEGER_Departamento_VARCHAR_50_ld_Region_INTEGER_Nombre_Region_VARCHAR_50_ld_Pais_INTEGER_Pais_VARCHAR_50_" data-name="Sk_Ciudad INTEGER
ld_Ciudad INTEGER
Nombre_ciudad VARCHAR(50)
Id_Departamento INTEGER
Departamento VARCHAR(50)
ld_Region INTEGER
Nombre_Region VARCHAR(50)
ld_Pais INTEGER
Pais VARCHAR(50)" transform="translate(943 9959)" fill="#12263f" font-size="10" font-family="Roboto-Regular, Roboto"><tspan x="0" y="10">Sk_Ciudad INTEGER</tspan><tspan x="0" y="22">ld_Ciudad INTEGER</tspan><tspan x="0" y="34">Nombre_ciudad </tspan><tspan x="0" y="46">VARCHAR(50)</tspan><tspan x="0" y="58">Id_Departamento </tspan><tspan x="0" y="70">INTEGER</tspan><tspan x="0" y="82">Departamento </tspan><tspan x="0" y="94">VARCHAR(50)</tspan><tspan x="0" y="106">ld_Region INTEGER</tspan><tspan x="0" y="118">Nombre_Region </tspan><tspan x="0" y="130">VARCHAR(50)</tspan><tspan x="0" y="142">ld_Pais INTEGER</tspan><tspan x="0" y="154">Pais VARCHAR(50)</tspan></text>
    <text id="Sk_Empleado_INTEGER_Sk_Cargo_INTEGER_Sk_Sexo_INTEGER_Sk_Ciudad_INTEGER_Id_Empleado_INTEGER_Nombres_VARCHAR_50_Apellidos_VARCHAR_50_Direccion_VARCHAR_50_Telefono_INTEGER_Correo_e_VARCHAR_50_" data-name="Sk_Empleado INTEGER
Sk_Cargo INTEGER
Sk_Sexo INTEGER
Sk_Ciudad INTEGER
Id_Empleado INTEGER
Nombres VARCHAR(50)
Apellidos VARCHAR(50)
Direccion VARCHAR(50)
Telefono INTEGER
Correo_e VARCHAR(50)" transform="translate(1116 9852)" fill="#12263f" font-size="10" font-family="Roboto-Regular, Roboto"><tspan x="0" y="10">Sk_Empleado INTEGER</tspan><tspan x="0" y="22">Sk_Cargo INTEGER</tspan><tspan x="0" y="34">Sk_Sexo INTEGER</tspan><tspan x="0" y="46">Sk_Ciudad INTEGER</tspan><tspan x="0" y="58">Id_Empleado INTEGER</tspan><tspan x="0" y="70">Nombres VARCHAR(50)</tspan><tspan x="0" y="82">Apellidos VARCHAR(50)</tspan><tspan x="0" y="94">Direccion VARCHAR(50)</tspan><tspan x="0" y="106">Telefono INTEGER</tspan><tspan x="0" y="118">Correo_e VARCHAR(50)</tspan></text>
    <text id="Sk_Recibo_INTEGER_Id_Recibo_INTEGER_Descripcion_VARCHAR_50_" data-name="Sk_Recibo INTEGER
Id_Recibo INTEGER
Descripcion
VARCHAR(50)" transform="translate(1292 9705)" fill="#12263f" font-size="10" font-family="Roboto-Regular, Roboto"><tspan x="0" y="10">Sk_Recibo INTEGER</tspan><tspan x="0" y="22">Id_Recibo INTEGER</tspan><tspan x="0" y="34">Descripcion</tspan><tspan x="0" y="46">VARCHAR(50)</tspan></text>
    <text id="Sk_Cargo_INTEGER_Id_Cargo_INTEGER_Nombre_cargo_VARCHAR_50_" data-name="Sk_Cargo INTEGER
Id_Cargo INTEGER
Nombre_cargo
VARCHAR(50)" transform="translate(1142 10030)" fill="#12263f" font-size="10" font-family="Roboto-Regular, Roboto"><tspan x="0" y="10">Sk_Cargo INTEGER</tspan><tspan x="0" y="22">Id_Cargo INTEGER</tspan><tspan x="0" y="34">Nombre_cargo</tspan><tspan x="0" y="46">VARCHAR(50)</tspan></text>
    <text id="Sk_Fecha_INTEGER_Sk_Sucursal_INTEGER_Sk_Empleado_INTEGER_Sk_Producto_INTEGER_Sk_Cliente_INTEGER_Sk_Recibo_INTEGER_Cantidad_vendida_INTEGER_Monto_venta_FLOAT" data-name="Sk_Fecha INTEGER
Sk_Sucursal INTEGER
Sk_Empleado INTEGER
Sk_Producto INTEGER
Sk_Cliente INTEGER
Sk_Recibo INTEGER
Cantidad_vendida INTEGER
Monto_venta FLOAT" transform="translate(963 9705)" fill="#12263f" font-size="10" font-family="Roboto-Regular, Roboto"><tspan x="0" y="10">Sk_Fecha INTEGER</tspan><tspan x="0" y="22">Sk_Sucursal INTEGER</tspan><tspan x="0" y="34">Sk_Empleado INTEGER</tspan><tspan x="0" y="46">Sk_Producto INTEGER</tspan><tspan x="0" y="58">Sk_Cliente INTEGER</tspan><tspan x="0" y="70">Sk_Recibo INTEGER</tspan><tspan x="0" y="82">Cantidad_vendida </tspan><tspan x="0" y="94">INTEGER</tspan><tspan x="0" y="106">Monto_venta FLOAT</tspan></text>
    <text id="Sk_Sucursal_INTEGER_Sk_Ciudad_INTEGER_Nombre_sucursal_VARCHAR_50_Direccion_VARCHAR_50_" data-name="Sk_Sucursal INTEGER
Sk_Ciudad INTEGER
Nombre_sucursal VARCHAR(50)
Direccion VARCHAR(50)" transform="translate(944 9855)" fill="#12263f" font-size="10" font-family="Roboto-Regular, Roboto"><tspan x="0" y="10">Sk_Sucursal INTEGER</tspan><tspan x="0" y="22">Sk_Ciudad INTEGER</tspan><tspan x="0" y="34">Nombre_sucursal </tspan><tspan x="0" y="46">VARCHAR(50)</tspan><tspan x="0" y="58">Direccion VARCHAR(50)</tspan></text>
  </g>
</svg>
