<svg xmlns="http://www.w3.org/2000/svg" xmlns:xlink="http://www.w3.org/1999/xlink" width="265.185" height="262.745" viewBox="0 0 265.185 262.745">
  <defs>
    <clipPath id="clip-path">
      <rect id="Rectángulo_296790" data-name="Rectángulo 296790" width="265.185" height="262.745" transform="translate(671 1824)" fill="none"/>
    </clipPath>
    <clipPath id="clip-path-2">
      <rect id="Rectángulo_296769" data-name="Rectángulo 296769" width="265.185" height="494.162" fill="none"/>
    </clipPath>
    <clipPath id="clip-path-3">
      <rect id="Rectángulo_296762" data-name="Rectángulo 296762" width="265.167" height="152.96" fill="none"/>
    </clipPath>
    <clipPath id="clip-path-4">
      <rect id="Rectángulo_296763" data-name="Rectángulo 296763" width="40.527" height="23.398" fill="none"/>
    </clipPath>
    <clipPath id="clip-path-6">
      <rect id="Rectángulo_296765" data-name="Rectángulo 296765" width="40.528" height="23.399" fill="none"/>
    </clipPath>
    <clipPath id="clip-path-7">
      <rect id="Rectángulo_296766" data-name="Rectángulo 296766" width="213.064" height="122.895" fill="none"/>
    </clipPath>
    <clipPath id="clip-path-8">
      <rect id="Rectángulo_296767" data-name="Rectángulo 296767" width="106.548" height="64.068" fill="none"/>
    </clipPath>
    <clipPath id="clip-path-9">
      <rect id="Rectángulo_296768" data-name="Rectángulo 296768" width="73.84" height="69.208" fill="none"/>
    </clipPath>
    <clipPath id="clip-path-10">
      <path id="Trazado_202434" data-name="Trazado 202434" d="M53.922,232.527h0L44.447,238a7.76,7.76,0,0,0-3.5,6.058V257.07a1.628,1.628,0,0,0,.962,1.339,5.129,5.129,0,0,0,4.641,0,1.624,1.624,0,0,0,.959-1.339v-12.8a.81.81,0,0,1,.4-.7l9.3-5.369.017-.01.024-.014,0,0a1.649,1.649,0,0,0,.65-1.48,5.133,5.133,0,0,0-2.32-4.021,2.093,2.093,0,0,0-1.034-.316,1.2,1.2,0,0,0-.627.167" transform="translate(-40.949 -232.36)" fill="none"/>
    </clipPath>
    <linearGradient id="linear-gradient" x1="-3.467" y1="5.994" x2="-3.383" y2="5.994" gradientUnits="objectBoundingBox">
      <stop offset="0" stop-color="#c8e2ff"/>
      <stop offset="0.178" stop-color="#c2ddfc"/>
      <stop offset="0.41" stop-color="#b1d0f4"/>
      <stop offset="0.673" stop-color="#96bbe6"/>
      <stop offset="0.956" stop-color="#719ed4"/>
      <stop offset="1" stop-color="#6b99d1"/>
    </linearGradient>
    <clipPath id="clip-path-11">
      <path id="Trazado_202435" data-name="Trazado 202435" d="M63.818,238.267h0l-9.473,5.469a7.765,7.765,0,0,0-3.5,6.059v13.015a1.628,1.628,0,0,0,.96,1.338,5.124,5.124,0,0,0,4.641,0,1.627,1.627,0,0,0,.96-1.339v-12.8a.808.808,0,0,1,.4-.7l9.3-5.37.017-.009.026-.014,0,0a1.644,1.644,0,0,0,.649-1.479,5.127,5.127,0,0,0-2.321-4.021,2.08,2.08,0,0,0-1.032-.316,1.184,1.184,0,0,0-.626.168" transform="translate(-50.845 -238.099)" fill="none"/>
    </clipPath>
    <linearGradient id="linear-gradient-2" x1="-4.306" y1="5.687" x2="-4.221" y2="5.687" xlink:href="#linear-gradient"/>
    <clipPath id="clip-path-12">
      <path id="Trazado_202436" data-name="Trazado 202436" d="M73.712,244.006v0l-9.473,5.472a7.762,7.762,0,0,0-3.5,6.059v13.012a1.631,1.631,0,0,0,.962,1.341,5.131,5.131,0,0,0,4.64,0,1.632,1.632,0,0,0,.96-1.341v-12.8a.808.808,0,0,1,.4-.7l9.3-5.369.019-.01.023-.014,0,0a1.647,1.647,0,0,0,.652-1.479,5.135,5.135,0,0,0-2.321-4.021,2.084,2.084,0,0,0-1.032-.316,1.2,1.2,0,0,0-.629.168" transform="translate(-60.74 -243.838)" fill="none"/>
    </clipPath>
    <linearGradient id="linear-gradient-3" x1="-5.143" y1="5.38" x2="-5.058" y2="5.38" xlink:href="#linear-gradient"/>
    <clipPath id="clip-path-13">
      <path id="Trazado_202437" data-name="Trazado 202437" d="M83.608,249.743h0l-9.473,5.472a7.756,7.756,0,0,0-3.5,6.058v13.015a1.628,1.628,0,0,0,.959,1.338,5.128,5.128,0,0,0,4.641,0,1.625,1.625,0,0,0,.96-1.341v-12.8a.809.809,0,0,1,.4-.7l9.3-5.37.017-.01.024-.013,0-.006a1.639,1.639,0,0,0,.65-1.476,5.129,5.129,0,0,0-2.321-4.022,2.089,2.089,0,0,0-1.034-.316,1.2,1.2,0,0,0-.626.166" transform="translate(-70.636 -249.577)" fill="none"/>
    </clipPath>
    <linearGradient id="linear-gradient-4" x1="-5.982" y1="5.072" x2="-5.897" y2="5.072" xlink:href="#linear-gradient"/>
    <clipPath id="clip-path-14">
      <path id="Trazado_202438" data-name="Trazado 202438" d="M134.311,232.676a5.127,5.127,0,0,0-2.321,4.021,1.649,1.649,0,0,0,.649,1.48l0,0,.024.014.019.01,9.3,5.369a.808.808,0,0,1,.4.7v12.8a1.625,1.625,0,0,0,.962,1.339,5.126,5.126,0,0,0,4.64,0,1.627,1.627,0,0,0,.959-1.339V244.055a7.758,7.758,0,0,0-3.5-6.058l-9.473-5.472h0a1.2,1.2,0,0,0-.626-.167,2.08,2.08,0,0,0-1.032.316" transform="translate(-131.99 -232.36)" fill="none"/>
    </clipPath>
    <linearGradient id="linear-gradient-5" x1="-11.178" y1="5.994" x2="-11.093" y2="5.994" xlink:href="#linear-gradient"/>
    <clipPath id="clip-path-15">
      <path id="Trazado_202439" data-name="Trazado 202439" d="M124.415,238.415a5.131,5.131,0,0,0-2.321,4.021,1.645,1.645,0,0,0,.65,1.479l0,0,.023.014.02.009,9.3,5.37a.806.806,0,0,1,.4.7v12.8a1.621,1.621,0,0,0,.96,1.339,5.121,5.121,0,0,0,4.64,0,1.625,1.625,0,0,0,.96-1.338V249.794a7.763,7.763,0,0,0-3.5-6.059l-9.473-5.469h0a1.189,1.189,0,0,0-.627-.168,2.089,2.089,0,0,0-1.032.316" transform="translate(-122.094 -238.099)" fill="none"/>
    </clipPath>
    <linearGradient id="linear-gradient-6" x1="-10.339" y1="5.687" x2="-10.254" y2="5.687" xlink:href="#linear-gradient"/>
    <clipPath id="clip-path-16">
      <path id="Trazado_202440" data-name="Trazado 202440" d="M114.52,244.154a5.127,5.127,0,0,0-2.321,4.021,1.649,1.649,0,0,0,.649,1.479v0l.024.014.017.01,9.3,5.369a.808.808,0,0,1,.4.7v12.8a1.629,1.629,0,0,0,.962,1.341,5.131,5.131,0,0,0,4.64,0,1.63,1.63,0,0,0,.959-1.341V255.535a7.761,7.761,0,0,0-3.5-6.059L116.18,244v0a1.188,1.188,0,0,0-.627-.168,2.08,2.08,0,0,0-1.031.316" transform="translate(-112.199 -243.838)" fill="none"/>
    </clipPath>
    <linearGradient id="linear-gradient-7" x1="-9.502" y1="5.38" x2="-9.417" y2="5.38" xlink:href="#linear-gradient"/>
    <clipPath id="clip-path-17">
      <path id="Trazado_202441" data-name="Trazado 202441" d="M104.624,249.893a5.129,5.129,0,0,0-2.321,4.022,1.643,1.643,0,0,0,.65,1.476v.006l.024.013.017.01,9.3,5.37a.808.808,0,0,1,.4.7v12.8a1.63,1.63,0,0,0,.96,1.341,5.125,5.125,0,0,0,4.64,0,1.628,1.628,0,0,0,.963-1.338V261.272a7.755,7.755,0,0,0-3.5-6.058l-9.473-5.472h0a1.2,1.2,0,0,0-.626-.166,2.094,2.094,0,0,0-1.034.316" transform="translate(-102.303 -249.577)" fill="none"/>
    </clipPath>
    <linearGradient id="linear-gradient-8" x1="-8.662" y1="5.072" x2="-8.577" y2="5.072" xlink:href="#linear-gradient"/>
    <clipPath id="clip-path-18">
      <rect id="Rectángulo_296789" data-name="Rectángulo 296789" width="265.185" height="444.745" fill="none"/>
    </clipPath>
    <clipPath id="clip-path-19">
      <rect id="Rectángulo_296784" data-name="Rectángulo 296784" width="8.552" height="16.425" fill="none"/>
    </clipPath>
    <clipPath id="clip-path-20">
      <rect id="Rectángulo_296785" data-name="Rectángulo 296785" width="11.404" height="6.538" fill="none"/>
    </clipPath>
    <clipPath id="clip-path-21">
      <rect id="Rectángulo_296786" data-name="Rectángulo 296786" width="11.634" height="17.017" fill="none"/>
    </clipPath>
    <clipPath id="clip-path-22">
      <rect id="Rectángulo_296787" data-name="Rectángulo 296787" width="30.724" height="89.149" fill="none"/>
    </clipPath>
    <clipPath id="clip-path-23">
      <rect id="Rectángulo_296788" data-name="Rectángulo 296788" width="10.595" height="5.462" fill="none"/>
    </clipPath>
  </defs>
  <g id="Enmascarar_grupo_127" data-name="Enmascarar grupo 127" transform="translate(-671 -1824)" clip-path="url(#clip-path)">
    <g id="Grupo_138135" data-name="Grupo 138135" transform="translate(671 1592.584)">
      <g id="Grupo_138134" data-name="Grupo 138134" clip-path="url(#clip-path-2)">
        <g id="Grupo_138115" data-name="Grupo 138115" transform="translate(0 306.281)" opacity="0.15" style="mix-blend-mode: multiply;isolation: isolate">
          <g id="Grupo_138114" data-name="Grupo 138114">
            <g id="Grupo_138113" data-name="Grupo 138113" clip-path="url(#clip-path-3)">
              <path id="Trazado_202416" data-name="Trazado 202416" d="M262.776,293.168l-124.4,71.764a12.853,12.853,0,0,1-11.6,0L2.409,293.178C.8,292.264,0,291.058,0,289.832a3.421,3.421,0,0,1,1.272-2.519,5.719,5.719,0,0,1,1.137-.825l124.4-71.743a12.8,12.8,0,0,1,11.6,0l124.37,71.733c3.19,1.85,3.19,4.862,0,6.691" transform="translate(0 -213.355)" fill="#6b99d1"/>
            </g>
          </g>
        </g>
        <g id="Grupo_138118" data-name="Grupo 138118" transform="translate(27.59 470.763)" opacity="0.15" style="mix-blend-mode: multiply;isolation: isolate">
          <g id="Grupo_138117" data-name="Grupo 138117">
            <g id="Grupo_138116" data-name="Grupo 138116" clip-path="url(#clip-path-4)">
              <path id="Trazado_202417" data-name="Trazado 202417" d="M53.292,337.5,43.168,331.66c-6.865-3.965-16.348-4.917-21.179-2.129s-3.181,8.264,3.685,12.228L35.8,347.6c6.866,3.965,16.348,4.918,21.179,2.129s3.181-8.264-3.685-12.228" transform="translate(-19.219 -327.933)" fill="#6b99d1"/>
            </g>
          </g>
        </g>
        <path id="Trazado_202418" data-name="Trazado 202418" d="M262.776,286.047l-124.4,71.743a11.723,11.723,0,0,1-5.8,1.382,11.868,11.868,0,0,1-5.777-1.361L2.409,286.057C.8,285.121,0,283.917,0,282.712c0-1.227.8-2.432,2.409-3.346l16.862-9.724L126.808,207.6a12.8,12.8,0,0,1,11.6,0l124.37,71.754c3.19,1.829,3.19,4.841,0,6.691" transform="translate(0 89.815)" fill="#dceeff"/>
        <path id="Trazado_202419" data-name="Trazado 202419" d="M132.579,318.9v24.178a11.89,11.89,0,0,1-5.778-1.361L2.407,269.965C.8,269.029,0,267.824,0,266.62V245.675a3.429,3.429,0,0,1,1.27-2.519l18,10.395Z" transform="translate(0 105.906)" fill="#a5cbfa"/>
        <path id="Trazado_202420" data-name="Trazado 202420" d="M92.354,318.907v24.177a11.877,11.877,0,0,0,5.774-1.361L222.55,269.957c1.606-.936,2.41-2.14,2.41-3.345V245.668a3.421,3.421,0,0,0-1.272-2.518l-18,10.393Z" transform="translate(40.225 105.904)" fill="#c8e2ff"/>
        <path id="Trazado_202421" data-name="Trazado 202421" d="M262.776,271.451l-124.4,71.765a12.853,12.853,0,0,1-11.6,0L2.409,271.461C.8,270.547,0,269.342,0,268.115A3.421,3.421,0,0,1,1.272,265.6a5.717,5.717,0,0,1,1.137-.825l124.4-71.743a12.809,12.809,0,0,1,11.6,0l124.37,71.733c3.19,1.85,3.19,4.862,0,6.691" transform="translate(0 83.468)" fill="#dceeff"/>
        <g id="Grupo_138121" data-name="Grupo 138121" transform="translate(27.59 470.763)" opacity="0.15" style="mix-blend-mode: multiply;isolation: isolate">
          <g id="Grupo_138120" data-name="Grupo 138120">
            <g id="Grupo_138119" data-name="Grupo 138119" clip-path="url(#clip-path-4)">
              <path id="Trazado_202422" data-name="Trazado 202422" d="M53.292,337.5,43.168,331.66c-6.865-3.965-16.348-4.917-21.179-2.129s-3.181,8.264,3.685,12.228L35.8,347.6c6.866,3.965,16.348,4.918,21.179,2.129s3.181-8.264-3.685-12.228" transform="translate(-19.219 -327.933)" fill="#6b99d1"/>
            </g>
          </g>
        </g>
        <g id="Grupo_138124" data-name="Grupo 138124" transform="translate(197.681 461.502)" opacity="0.15" style="mix-blend-mode: multiply;isolation: isolate">
          <g id="Grupo_138123" data-name="Grupo 138123">
            <g id="Grupo_138122" data-name="Grupo 138122" clip-path="url(#clip-path-6)">
              <path id="Trazado_202423" data-name="Trazado 202423" d="M144.16,331.052l10.122-5.844c6.866-3.964,16.348-4.917,21.18-2.128s3.18,8.263-3.686,12.228l-10.122,5.844c-6.868,3.965-16.348,4.917-21.179,2.129s-3.181-8.264,3.685-12.229" transform="translate(-137.704 -321.481)" fill="#6b99d1"/>
            </g>
          </g>
        </g>
        <path id="Trazado_202424" data-name="Trazado 202424" d="M132.6,193.075a10.536,10.536,0,0,1,5.09,1.2L262.055,266c1.068.619,1.68,1.39,1.677,2.115s-.61,1.482-1.674,2.092l-124.4,71.767a11.442,11.442,0,0,1-10.157,0L3.119,270.214c-1.085-.619-1.684-1.364-1.684-2.1a2.075,2.075,0,0,1,.813-1.467,4.34,4.34,0,0,1,.879-.634l124.4-71.744a10.43,10.43,0,0,1,5.07-1.194m0-1.436a11.791,11.791,0,0,0-5.791,1.388L2.409,264.77a5.758,5.758,0,0,0-1.137.826A3.421,3.421,0,0,0,0,268.115c0,1.227.8,2.432,2.409,3.346l124.37,71.754a12.853,12.853,0,0,0,11.6,0l124.4-71.764c3.19-1.829,3.19-4.841,0-6.691l-124.37-71.733a11.88,11.88,0,0,0-5.807-1.388" transform="translate(0 83.468)" fill="#fff"/>
        <g id="Grupo_138127" data-name="Grupo 138127" transform="translate(26.055 290.14)" style="isolation: isolate">
          <g id="Grupo_138126" data-name="Grupo 138126">
            <g id="Grupo_138125" data-name="Grupo 138125" clip-path="url(#clip-path-7)">
              <path id="Trazado_202425" data-name="Trazado 202425" d="M120.833,203.035l-101.084,58.3c-2.132,1.233-2.132,3.23,0,4.462l101.057,58.288a8.531,8.531,0,0,0,7.726,0l101.081-58.3c2.135-1.229,2.135-3.227,0-4.459L128.559,203.035a8.539,8.539,0,0,0-7.726,0" transform="translate(-18.15 -202.111)" fill="#063b75"/>
            </g>
          </g>
        </g>
        <path id="Trazado_202426" data-name="Trazado 202426" d="M197.287,261.323,96.233,203.034a7.922,7.922,0,0,0-3.864-.923v3.925L196.62,266.17l.668-.386c2.133-1.23,2.133-3.229,0-4.46" transform="translate(40.231 88.029)" fill="#1e3779"/>
        <g id="Grupo_138130" data-name="Grupo 138130" transform="translate(26.055 290.14)" style="isolation: isolate">
          <g id="Grupo_138129" data-name="Grupo 138129">
            <g id="Grupo_138128" data-name="Grupo 138128" clip-path="url(#clip-path-8)">
              <path id="Trazado_202427" data-name="Trazado 202427" d="M124.7,202.111a7.886,7.886,0,0,0-3.865.923L19.75,261.332c-2.133,1.233-2.133,3.23,0,4.462l.668.385L124.7,206.036Z" transform="translate(-18.149 -202.111)" fill="#042c58"/>
            </g>
          </g>
        </g>
        <path id="Trazado_202428" data-name="Trazado 202428" d="M102.622,237.1l29.924-17.221a.512.512,0,0,0,0-.97l-29.924-17.277a1.858,1.858,0,0,0-1.682,0L71.064,218.911a.513.513,0,0,0,0,.972L100.94,237.1A1.858,1.858,0,0,0,102.622,237.1Z" transform="translate(30.801 87.735)" fill="none" stroke="#fff" stroke-linecap="round" stroke-miterlimit="10" stroke-width="1"/>
        <g id="Grupo_138133" data-name="Grupo 138133" transform="translate(132.607 313.554)" style="isolation: isolate">
          <g id="Grupo_138132" data-name="Grupo 138132">
            <g id="Grupo_138131" data-name="Grupo 138131" clip-path="url(#clip-path-9)">
              <path id="Trazado_202429" data-name="Trazado 202429" d="M92.374,218.421v69.208a10.034,10.034,0,0,0,4.908-1.173l64.025-36.965a10.855,10.855,0,0,0,4.907-8.5v-22.57Z" transform="translate(-92.374 -218.421)" fill="#a6f4fe"/>
            </g>
          </g>
        </g>
        <path id="Trazado_202430" data-name="Trazado 202430" d="M40.936,218.421v22.57a10.846,10.846,0,0,0,4.907,8.5l64.028,36.967a10.029,10.029,0,0,0,4.907,1.173V218.421Z" transform="translate(17.83 95.133)" fill="#41e5c9"/>
        <path id="Trazado_202431" data-name="Trazado 202431" d="M109.847,272.828,42.969,234.19c-2.71-1.565-2.71-4.1,0-5.666l66.9-38.626a10.841,10.841,0,0,1,9.812,0l66.9,38.626c2.71,1.565,2.71,4.1,0,5.666L119.659,272.83a10.837,10.837,0,0,1-9.812,0" transform="translate(17.83 82.199)" fill="#abffef"/>
        <path id="Trazado_202432" data-name="Trazado 202432" d="M52.32,226.955l54.818-31.661a7.23,7.23,0,0,1,6.542,0l54.842,31.664c1.806,1.042,1.806,2.733,0,3.776L113.657,262.4a7.229,7.229,0,0,1-6.543,0l-54.795-31.66C50.513,229.689,50.514,228,52.32,226.955Z" transform="translate(22.198 84.719)" fill="none" stroke="#fff" stroke-linecap="round" stroke-miterlimit="10" stroke-width="1"/>
        <path id="Trazado_202433" data-name="Trazado 202433" d="M107.672,200.689l43.143,24.683a1,1,0,0,1,0,1.889l-43.143,24.712a3.619,3.619,0,0,1-3.272,0l-42.775-24.7a1,1,0,0,1,0-1.891L104.4,200.69A3.614,3.614,0,0,1,107.672,200.689Z" transform="translate(26.546 87.239)" fill="none" stroke="#fff" stroke-linecap="round" stroke-miterlimit="10" stroke-width="1"/>
      </g>
    </g>
    <g id="Grupo_138137" data-name="Grupo 138137" transform="translate(729.784 1926.148)">
      <g id="Grupo_138136" data-name="Grupo 138136" clip-path="url(#clip-path-10)">
        <rect id="Rectángulo_296770" data-name="Rectángulo 296770" width="16.954" height="26.79" transform="translate(0 0)" fill="url(#linear-gradient)"/>
      </g>
    </g>
    <g id="Grupo_138139" data-name="Grupo 138139" transform="translate(743.99 1934.386)">
      <g id="Grupo_138138" data-name="Grupo 138138" clip-path="url(#clip-path-11)">
        <rect id="Rectángulo_296771" data-name="Rectángulo 296771" width="16.952" height="26.789" fill="url(#linear-gradient-2)"/>
      </g>
    </g>
    <g id="Grupo_138141" data-name="Grupo 138141" transform="translate(758.196 1942.625)">
      <g id="Grupo_138140" data-name="Grupo 138140" clip-path="url(#clip-path-12)">
        <rect id="Rectángulo_296772" data-name="Rectángulo 296772" width="16.954" height="26.789" transform="translate(0 0)" fill="url(#linear-gradient-3)"/>
      </g>
    </g>
    <g id="Grupo_138143" data-name="Grupo 138143" transform="translate(772.402 1950.864)">
      <g id="Grupo_138142" data-name="Grupo 138142" clip-path="url(#clip-path-13)">
        <rect id="Rectángulo_296773" data-name="Rectángulo 296773" width="16.952" height="26.789" transform="translate(0)" fill="url(#linear-gradient-4)"/>
      </g>
    </g>
    <g id="Grupo_138145" data-name="Grupo 138145" transform="translate(860.479 1926.148)">
      <g id="Grupo_138144" data-name="Grupo 138144" clip-path="url(#clip-path-14)">
        <rect id="Rectángulo_296774" data-name="Rectángulo 296774" width="16.951" height="26.79" transform="translate(0 0)" fill="url(#linear-gradient-5)"/>
      </g>
    </g>
    <g id="Grupo_138147" data-name="Grupo 138147" transform="translate(846.271 1934.386)">
      <g id="Grupo_138146" data-name="Grupo 138146" clip-path="url(#clip-path-15)">
        <rect id="Rectángulo_296775" data-name="Rectángulo 296775" width="16.952" height="26.789" fill="url(#linear-gradient-6)"/>
      </g>
    </g>
    <g id="Grupo_138149" data-name="Grupo 138149" transform="translate(832.067 1942.625)">
      <g id="Grupo_138148" data-name="Grupo 138148" clip-path="url(#clip-path-16)">
        <rect id="Rectángulo_296776" data-name="Rectángulo 296776" width="16.951" height="26.789" transform="translate(0 0)" fill="url(#linear-gradient-7)"/>
      </g>
    </g>
    <g id="Grupo_138151" data-name="Grupo 138151" transform="translate(817.861 1950.864)">
      <g id="Grupo_138150" data-name="Grupo 138150" clip-path="url(#clip-path-17)">
        <rect id="Rectángulo_296777" data-name="Rectángulo 296777" width="16.955" height="26.789" fill="url(#linear-gradient-8)"/>
      </g>
    </g>
    <g id="Grupo_138184" data-name="Grupo 138184" transform="translate(671 1642)">
      <g id="Grupo_138183" data-name="Grupo 138183" transform="translate(0 0)" clip-path="url(#clip-path-18)">
        <path id="Trazado_202451" data-name="Trazado 202451" d="M169.563,256.5c.276,2.412,3.151,12.811,2.535,16.372s-10.441,9.522-10.441,9.522l-1.362-6.1,5.441-5.33-1.47-10.1Z" transform="translate(69.816 62.302)" fill="#ffa8a7"/>
        <g id="Grupo_138170" data-name="Grupo 138170" transform="translate(231.779 306.742)" style="isolation: isolate">
          <g id="Grupo_138169" data-name="Grupo 138169">
            <g id="Grupo_138168" data-name="Grupo 138168" clip-path="url(#clip-path-19)">
              <path id="Trazado_202452" data-name="Trazado 202452" d="M161.457,248.475a4.3,4.3,0,0,1,5.468,1.652c1.447,2.394,2.947,10.607,3.084,12.01,0,0-2.027,2.8-5.069,2.334Z" transform="translate(-161.457 -248.099)" fill="#cc8f08"/>
            </g>
          </g>
        </g>
        <path id="Trazado_202453" data-name="Trazado 202453" d="M165.466,327.469a20.46,20.46,0,0,0,.438,2.407c.254,1.042.309,2.4-.867,2.779a2.855,2.855,0,0,1-3.267-.762c-.939-1.268-1.428-2.845-2.789-4.077-1.306-1.18-2.923-2.518-3.392-4.4-.425-1.7-.154-2.763,1.008-2.933,1.467-.215,3.788,1.016,4.978,1.891.858.632,3.892,5.093,3.892,5.093" transform="translate(67.684 90.16)" fill="#2d2979"/>
        <path id="Trazado_202454" data-name="Trazado 202454" d="M158.838,329.032s.088,1.352.167,2.426.464,2.791.119,3.585-2.115,1.382-4.2,1.367a10.142,10.142,0,0,0-4.889,1.836,7.663,7.663,0,0,1-6.148,1.048c-1.792-.56-3.773-1.388-4.073-2.214s.633-1.233,5-3.234,7.585-3.378,9.278-5.686Z" transform="translate(60.874 93.513)" fill="#2d2979"/>
        <path id="Trazado_202455" data-name="Trazado 202455" d="M171.1,323.456a50.638,50.638,0,0,0-1.919-9.107s.573-7.857.858-15.307c.326-8.457,3.259-15.9.945-22.643l-26.087,5.8s1.579,33.707,1.927,37.788a76.739,76.739,0,0,0,1.17,9.465c1.191,6.543,3.127,22.109,3.127,22.109a5.78,5.78,0,0,0,5.484.014s.7-18.984.52-23.7c-.218-5.758-.393-5.317-.393-5.317l.863-14.341.564-7.133s.722,5.235,1.192,9.912c.411,4.076,1.4,7.765,2.495,15.355.953,6.585,3.441,20.149,3.441,20.149a4.431,4.431,0,0,0,4.759.158s1.8-17.492,1.057-23.2" transform="translate(63.109 70.969)" fill="#c4d9ff"/>
        <path id="Trazado_202456" data-name="Trazado 202456" d="M154.133,296.948s.722,5.235,1.191,9.912c.2,1.964.528,3.843.942,6.107,0-.006-.367-8.711-.228-12.828s.556-8.576.556-8.576c5.478-2.327,6.614-5.665,6.614-5.665a22.618,22.618,0,0,1-8.356,4.536Z" transform="translate(67.132 75.107)" fill="#9ebce8"/>
        <path id="Trazado_202457" data-name="Trazado 202457" d="M166.03,255.235c-1.987.1-3.465.609-3.714.024a25.744,25.744,0,0,1-.452-3.107c.228-.577.423-1.2.423-1.2a9.736,9.736,0,0,0-4.094-18c-5.046-.525-8.758,3.022-9.749,7.89-.533,2.4-1.253,7.505.182,11.461.8,2.208,1.5,3.181,2.532,3.523a20.745,20.745,0,0,0,2.983-.037l0,0s.267,1.489.451,2.445.112,1.464-1.793,2.639,2.881,3.585,6.008,3.346,6.644-2.125,7.608-4.144c1.075-2.257.98-4.914-.383-4.848" transform="translate(64.367 52.026)" fill="#ffa8a7"/>
        <path id="Trazado_202458" data-name="Trazado 202458" d="M151.9,255.882a.963.963,0,0,0-.156.131l2.723.933,8.069-1.243,1.878-4.815s-.072-.231-.182-.577c-1.519.159-2.6.442-2.812-.05a19.065,19.065,0,0,1-.411-2.7c-1.448.256-3.164.561-3.577.574-.742.027-3.319-3.755-3.319-3.755a28.858,28.858,0,0,1-.7,4.048c-.343.871-2.693,2.244-3.556,2.224a2.246,2.246,0,0,0,.408.182,20.37,20.37,0,0,0,2.984-.039l0,0s.267,1.49.451,2.446.112,1.464-1.793,2.637" transform="translate(65.267 57.023)" fill="#f28f8f"/>
        <path id="Trazado_202459" data-name="Trazado 202459" d="M167.163,238.1c-.238-1.166-1.057-2.676-7.339-4.437-6-1.684-10.7-2.393-11.852-1.624s-1.436,6.71,4.229,9.526a3.377,3.377,0,0,1,.372,1.618,24.391,24.391,0,0,0,0,2.653,1.782,1.782,0,0,0,1.665,1.517s.009-.824.009-2.518a1.84,1.84,0,0,1,3.325.162,4.3,4.3,0,0,1-.191,3.984c-.666,1.247-1.776,1.354-2.159.91a7.875,7.875,0,0,0,1.869,5.337,5.9,5.9,0,0,0,5.145-1.127,25.636,25.636,0,0,1,1.906-3.3c1.167-1.858,2.373-3.065,3.02-6.06a14.212,14.212,0,0,0,0-6.647" transform="translate(64.156 51.513)" fill="#3a2c6d"/>
        <path id="Trazado_202460" data-name="Trazado 202460" d="M164.475,248.807c.55,1.372-.848,3.051-4.579,4.223s-4.067-.336-4.067-.336a73.465,73.465,0,0,0-7.252,3.737c-2.241,1.565-3.233,6.1-3.534,13.744-.349,8.85-.38,21.98-.086,24.245,0,0,4.185,4.173,9.542,3.732s14.367-5.179,16.553-8.84c-.06-7.759-.968-9.022.289-13.494,2.875-10.235,4.391-14.424,2.993-21.225-1.153-5.606-2.768-6.3-4.983-6.247a45.9,45.9,0,0,0-4.875.461" transform="translate(63.048 58.749)" fill="#ffb30b"/>
        <g id="Grupo_138173" data-name="Grupo 138173" transform="translate(217.204 306.536)" style="isolation: isolate">
          <g id="Grupo_138172" data-name="Grupo 138172">
            <g id="Grupo_138171" data-name="Grupo 138171" clip-path="url(#clip-path-20)">
              <path id="Trazado_202461" data-name="Trazado 202461" d="M160.664,248.215a10.614,10.614,0,0,1-7.653,3.229c-.807-.135-1.249,1.427-1.708,2.2,0,0,1.883,1.537,6.058.478s5.652-4.142,5.3-5.287c0,0-1.334-1.456-1.993-.619" transform="translate(-151.304 -247.956)" fill="#cc8f08"/>
            </g>
          </g>
        </g>
        <path id="Trazado_202462" data-name="Trazado 202462" d="M145.552,276.6c4.394,1.107,5.428-1.664,6.006-3.959,1.4-5.556,2.152-10.574,3.193-13.727,1.227-3.721,2.515-4.312,4.322-5.037,2.12-.851,3.948.942,3.241,5.676a94.835,94.835,0,0,1-4.028,16.158c-.547,1.73-1.773,4.806-3.61,6.291-2.267,1.833-5.683,1.754-10.85.469-2.2-.55-4.621-1.866-8.79-3.81-1.12-.523-1.99-.87-4.137-1.869a14.661,14.661,0,0,1-5.51-4.3c-1.127-1.631-1.276-2.4-1.045-2.768.289-.467.8-.363,1.4.323a12.039,12.039,0,0,0,3.163,2.926s-1.388-1.433-2.14-2.366a11.957,11.957,0,0,1-1.662-2.716c-.4-.95.422-2.241,1.042-1.565s.92,1.368,2.057,2.73A11.89,11.89,0,0,0,130.238,271a22.384,22.384,0,0,1-1.876-3.019,4.969,4.969,0,0,1-.683-2.729c.03-.5.732-1.087,1.391-.146a18.037,18.037,0,0,0,2.36,3.606c1,1.044,1.858,1.641,1.883,1.352s-.609-.86-.968-2.072c-.343-1.157.009-2.5.672-2.637s.541-.1,1.079,1.032a33.161,33.161,0,0,1,2,3.631,7.487,7.487,0,0,0,1.807,3.112c1.082,1.147,3.473,2.418,7.651,3.47" transform="translate(54.118 61.072)" fill="#ffa8a7"/>
        <g id="Grupo_138176" data-name="Grupo 138176" transform="translate(206.311 314.116)" style="isolation: isolate">
          <g id="Grupo_138175" data-name="Grupo 138175">
            <g id="Grupo_138174" data-name="Grupo 138174" clip-path="url(#clip-path-21)">
              <path id="Trazado_202463" data-name="Trazado 202463" d="M152.225,253.314c-2.936-.434-5.009.889-6.306,5.336s-2.2,8.1-2.2,8.1a7.986,7.986,0,0,0,4.917,3.267c3.511.85,4.775-.827,4.775-.827s.975-4.661,1.582-7.834.866-7.5-2.765-8.039" transform="translate(-143.716 -253.235)" fill="#cc8f08"/>
            </g>
          </g>
        </g>
        <path id="Trazado_202464" data-name="Trazado 202464" d="M29.329,335.884s-.445.78-2.85-.231a6.351,6.351,0,0,1-3.082-2.212s.626-4.829,2.115-3.615,3.817,6.058,3.817,6.058" transform="translate(10.191 94.154)" fill="#291d51"/>
        <path id="Trazado_202465" data-name="Trazado 202465" d="M23.9,322.215c.042,2.534.1,4.47-.858,5.828A5.242,5.242,0,0,0,22,330.323,7.222,7.222,0,0,1,26.31,332.7c1.453,1.968,1.372,3.936,2.72,4.262s3.6-1.223,3.6-1.223a2.351,2.351,0,0,1-1.984-1.846c-.557-1.789-1.99-5.614-2.044-6.621s0-4.889,0-4.889Z" transform="translate(9.58 90.924)" fill="#ffa8a7"/>
        <path id="Trazado_202466" data-name="Trazado 202466" d="M24.041,326.734a5.5,5.5,0,0,1,3.788,2.91c.636,1.441,1.687,3.467,2.5,3.922s2.244-.208,3.467-.217,2.087.56,2.156,1.451l-5.09,2.412c-1.174.557-2.165.573-3.086-1.865s-1.272-3.81-2-2.153a23.3,23.3,0,0,0-1.036,5.389,1.183,1.183,0,0,1-1.481-.62,24.336,24.336,0,0,0-.179-3.254c-.21-1.5-1.57-3.386-1.467-5.192s1.085-2.867,2.436-2.782" transform="translate(9.407 92.89)" fill="#2d2979"/>
        <path id="Trazado_202467" data-name="Trazado 202467" d="M42.6,342.759s-.459.807-2.947-.238a6.566,6.566,0,0,1-3.187-2.288s.647-4.993,2.186-3.737,3.948,6.263,3.948,6.263" transform="translate(15.882 97.056)" fill="#291d51"/>
        <path id="Trazado_202468" data-name="Trazado 202468" d="M36.983,328.625c.043,2.618.108,4.624-.887,6.026a5.426,5.426,0,0,0-1.08,2.359,7.47,7.47,0,0,1,4.462,2.453c1.5,2.036,1.42,4.071,2.814,4.409s3.721-1.265,3.721-1.265a2.436,2.436,0,0,1-2.051-1.911c-.577-1.85-2.059-5.805-2.113-6.846s-.247-5.225-.247-5.225Z" transform="translate(15.251 93.716)" fill="#ffa8a7"/>
        <path id="Trazado_202469" data-name="Trazado 202469" d="M37.131,333.3a5.692,5.692,0,0,1,3.919,3.012c.657,1.49,1.744,3.586,2.581,4.054s2.321-.215,3.585-.222,2.159.578,2.231,1.5c0,0-4.051,1.918-5.264,2.493s-2.239.594-3.193-1.928-1.315-3.941-2.071-2.228a24.161,24.161,0,0,0-1.072,5.573,1.223,1.223,0,0,1-1.532-.639,25.169,25.169,0,0,0-.185-3.368c-.217-1.55-1.625-3.5-1.517-5.368s1.123-2.966,2.519-2.88" transform="translate(15.073 95.749)" fill="#2d2979"/>
        <path id="Trazado_202470" data-name="Trazado 202470" d="M25.319,249.865c-2.285.66-3.595,3.193-5.6,8.6s-4.1,13.306-3.834,15.392c.646,5.1,3.816,9.46,9.279,13.076l2.438-4.467s-5.356-4.312-5.87-9.414c-.289-2.867,3.432-12.62,3.432-12.881s.158-10.31.158-10.31" transform="translate(6.907 59.412)" fill="#ffa8a7"/>
        <g id="Grupo_138179" data-name="Grupo 138179" transform="translate(26.946 338.605)" style="isolation: isolate">
          <g id="Grupo_138178" data-name="Grupo 138178">
            <g id="Grupo_138177" data-name="Grupo 138177" clip-path="url(#clip-path-22)">
              <path id="Trazado_202471" data-name="Trazado 202471" d="M22.328,329.55a26.511,26.511,0,0,1,1.072-7.832s-1.957-9.625-2.677-17.046c-1.061-10.945-3-13.566-1.252-20.047,1.608-5.969,4.152-10.135,5.85-14.33L43.185,271.7s1.552,5.063,3.559,15.149,2.918,21.99,2.725,37.878c-.05,4.094-.082,7.749-.323,17.953-.161,6.86-.237,16.1-.237,16.1a4.664,4.664,0,0,1-5.083-.215S39.6,338.218,38.92,333.548a14.741,14.741,0,0,1,.623-7.71s-1.341-6.385-2.337-11.407c-1.213-6.123-4.215-19.354-4.215-19.354s-.088,20.244-.375,24.33-.121,7.349-.876,12.8c-.916,6.589-1.736,17.68-1.736,17.68a6.139,6.139,0,0,1-4.885-.863s-2.792-13.707-2.792-19.469" transform="translate(-18.771 -270.294)" fill="#063b75"/>
            </g>
          </g>
        </g>
        <path id="Trazado_202472" data-name="Trazado 202472" d="M31.76,288.535s-.089,20.243-.375,24.328c-.036.512-.069.966-.1,1.387l0,.034c-.006.075-.013.145-.019.22l-2.082-23.676c-5.754-1.657-7.58-5.514-7.58-5.514,3.88,3.9,10.161,3.221,10.161,3.221" transform="translate(9.407 74.852)" fill="#597bc6"/>
        <path id="Trazado_202473" data-name="Trazado 202473" d="M23.555,257.144c3.8-.23,4.169.4,4.475-.947.108-.482.32-3.831.32-3.831a11.552,11.552,0,0,1-.95-1.407,9.733,9.733,0,0,1,4.094-17.995c5.045-.528,8.757,3.018,9.749,7.887.533,2.4,1.085,7.314-.406,11.247-.846,2.228-1.628,3.787-3.643,3.707a12.053,12.053,0,0,1-1.987-.35,18.231,18.231,0,0,0-.111,2.794c.053.972-.112,1.46,1.794,2.634s-2.881,3.587-6.008,3.349-6.644-2.125-7.608-4.147c-1.075-2.254-1.51-2.831.281-2.94" transform="translate(9.73 52.028)" fill="#ffa8a7"/>
        <path id="Trazado_202474" data-name="Trazado 202474" d="M23.274,255.708c-1.075-2.255-1.51-2.832.281-2.94,3.8-.23,4.169.4,4.475-.947.108-.484.32-3.833.32-3.833a11.573,11.573,0,0,1-.95-1.405,9.818,9.818,0,0,1-3.333-3.409c.132-.122.227-.212.227-.212l8.127,4.192,1.507-.33,1.206-1.358a19.829,19.829,0,0,0,.56,3.417c.366,1.062,2.815,2.284,2.835,2.3a2.778,2.778,0,0,1-1.335.253,12.1,12.1,0,0,1-1.987-.352,18.249,18.249,0,0,0-.111,2.794c.053.972-.112,1.461,1.794,2.636s-2.881,3.586-6.008,3.348-6.644-2.123-7.608-4.146" transform="translate(9.73 56.405)" fill="#f28f8f"/>
        <path id="Trazado_202475" data-name="Trazado 202475" d="M26.216,251.289c-2.448-2.238-3.22-4.456-3.547-7.6a9.771,9.771,0,0,1,8.7-10.731,8.417,8.417,0,0,1,8.076,3.814,5.346,5.346,0,0,1-.913,1.269,2.3,2.3,0,0,1-.347,2.13,2.9,2.9,0,0,0-.606,2.373,13.111,13.111,0,0,1,.146,3.051,2.773,2.773,0,0,1-1.469,2.059,13.153,13.153,0,0,0-.731-3.332,1.84,1.84,0,0,0-3.325.161,4.261,4.261,0,0,0,.326,4.262,2.083,2.083,0,0,0,2.481,1.091,2.668,2.668,0,0,1-2.14,2.987,7.322,7.322,0,0,1-5.185-.518,9.372,9.372,0,0,1-1.47-1.021" transform="translate(9.85 52.028)" fill="#543354"/>
        <path id="Trazado_202476" data-name="Trazado 202476" d="M32.668,233.92c1.328-.255,5.088.507,5.047,4.416a6.4,6.4,0,0,1-4.891,6.206Z" transform="translate(14.228 52.448)" fill="#543354"/>
        <path id="Trazado_202477" data-name="Trazado 202477" d="M28.175,249.759c-.7.874-.781,1.978,1.937,2.663a8.56,8.56,0,0,0,5.939-.458,39.966,39.966,0,0,1,6.148,3.257c6.071,4.215,7.535,11.537,1.413,14.06-.373,2.751-.828,9.832-.945,11.443-5.178,3.618-15.7,2.383-18.055-1.451a31.071,31.071,0,0,0-.359-3.829c-2.472-9.16-4.4-11.593-3.712-18.5.395-3.954.7-5.942,2.8-7a18.184,18.184,0,0,1,4.835-.185" transform="translate(8.885 59.333)" fill="#ffb30b"/>
        <g id="Grupo_138182" data-name="Grupo 138182" transform="translate(35.612 307.306)" style="isolation: isolate">
          <g id="Grupo_138181" data-name="Grupo 138181">
            <g id="Grupo_138180" data-name="Grupo 138180" clip-path="url(#clip-path-23)">
              <path id="Trazado_202478" data-name="Trazado 202478" d="M35.4,253.05s-.632-1.71-.775-2.119a.793.793,0,0,0-.62-.468s-.7.87-2.983.639-4.093-1.27-4.017-2.079l.052-.52a1.319,1.319,0,0,0-1.11.378c-.464.49-1.128,1.384-1.128,1.384s-.375,1.876,2.684,3.015a10.326,10.326,0,0,0,7.9-.23" transform="translate(-24.807 -248.492)" fill="#cc8f08"/>
            </g>
          </g>
        </g>
        <path id="Trazado_202479" data-name="Trazado 202479" d="M60.79,295.979c-1.243-.184-2.25-.808-4.02-.929a13.135,13.135,0,0,1-3.941-.715c-1.37-.488-2.974-2.215-5.482-5.676a41.671,41.671,0,0,1-5.818-12.9,98.179,98.179,0,0,1-1.872-17.116c.007-3.477-1.573-4.856-3.4-5.535-2.142-.8-3.632-.055-3.47,4.729s.968,13.59,2.848,19.839a42.342,42.342,0,0,0,6.331,12.96,36.319,36.319,0,0,0,7.034,7.8c.926.814,1.411,1.648,2.995,3.411a14.661,14.661,0,0,0,5.719,4.018c1.888.6,2.666.521,2.954.194.36-.413.112-.871-.718-1.245a12.035,12.035,0,0,1-3.722-2.172s1.779.909,2.887,1.358a11.966,11.966,0,0,0,3.084.8c1.025.1,2.02-1.058,1.193-1.454s-1.576-.481-3.211-1.17a11.849,11.849,0,0,1-2.452-1.381,22.275,22.275,0,0,0,3.434.913,4.987,4.987,0,0,0,2.809-.139c.468-.175.827-1.016-.266-1.374a18.089,18.089,0,0,1-4.137-1.209c-1.291-.655-2.11-1.3-1.84-1.405s1,.332,2.262.322c1.206-.009,2.384-.736,2.326-1.413s-.289-.322-1.529-.507" transform="translate(14.276 60.705)" fill="#ffa8a7"/>
      </g>
    </g>
  </g>
</svg>
