<svg xmlns="http://www.w3.org/2000/svg" xmlns:xlink="http://www.w3.org/1999/xlink" width="610" height="251.501" viewBox="0 0 610 251.501">
  <defs>
    <radialGradient id="radial-gradient" cx="0.5" cy="0.5" r="0.5" gradientUnits="objectBoundingBox">
      <stop offset="0" stop-color="#ffb30b"/>
      <stop offset="1" stop-color="#cc8f08"/>
    </radialGradient>
    <radialGradient id="radial-gradient-2" cx="0.5" cy="0.5" r="0.5" gradientUnits="objectBoundingBox">
      <stop offset="0" stop-color="#b9ddfc"/>
      <stop offset="1" stop-color="#94b0c9"/>
    </radialGradient>
    <linearGradient id="linear-gradient" y1="0.5" x2="1" y2="0.5" gradientUnits="objectBoundingBox">
      <stop offset="0" stop-color="#ffb30b"/>
      <stop offset="1" stop-color="#996b06"/>
    </linearGradient>
    <linearGradient id="linear-gradient-2" y1="0.5" x2="1" y2="0.5" gradientUnits="objectBoundingBox">
      <stop offset="0" stop-color="#97afc8"/>
      <stop offset="1" stop-color="#042c58"/>
    </linearGradient>
    <linearGradient id="linear-gradient-3" y1="0.5" x2="1" y2="0.5" gradientUnits="objectBoundingBox">
      <stop offset="0" stop-color="#00defc"/>
      <stop offset="1" stop-color="#008597"/>
    </linearGradient>
  </defs>
  <g id="Grupo_175152" data-name="Grupo 175152" transform="translate(-705 -4866)">
    <path id="Trazado_204752" data-name="Trazado 204752" d="M600,31.981a8.009,8.009,0,0,1,8,8v30a8.009,8.009,0,0,1-8,8H490a8.009,8.009,0,0,1-8-8v-30a8.009,8.009,0,0,1,8-8Zm0-2H490a10,10,0,0,0-10,10v30a10,10,0,0,0,10,10H600a10,10,0,0,0,10-10v-30a10,10,0,0,0-10-10" transform="translate(705 4866)" fill="#084a93"/>
    <path id="Trazado_254822" data-name="Trazado 254822" d="M2.8,13,4.529,3.047l2.584.007a3.588,3.588,0,0,1,2.1.608A3.356,3.356,0,0,1,10.469,5.34a5.217,5.217,0,0,1,.226,2.4l-.068.5A5.628,5.628,0,0,1,8.938,11.7,4.91,4.91,0,0,1,5.452,13ZM5.623,4.12l-1.354,7.8,1.265.007a3.554,3.554,0,0,0,2.458-.9A4.284,4.284,0,0,0,9.3,8.55a8.051,8.051,0,0,0,.164-2.14,2.606,2.606,0,0,0-.7-1.658,2.28,2.28,0,0,0-1.613-.625ZM16.109,13a1.657,1.657,0,0,1-.048-.39l.021-.39a3.032,3.032,0,0,1-2.16.916,2.21,2.21,0,0,1-1.589-.619A1.872,1.872,0,0,1,11.775,11,2.277,2.277,0,0,1,12.8,9.168a4.38,4.38,0,0,1,2.526-.66l1.292.007.082-.588a1.352,1.352,0,0,0-.256-1.049,1.237,1.237,0,0,0-.974-.4,1.908,1.908,0,0,0-1.125.311,1.324,1.324,0,0,0-.6.858l-1.244.007A1.983,1.983,0,0,1,13.012,6.5a2.943,2.943,0,0,1,1.142-.779A3.688,3.688,0,0,1,15.6,5.46a2.452,2.452,0,0,1,1.8.7,2.173,2.173,0,0,1,.54,1.788l-.6,3.664-.034.526a2.58,2.58,0,0,0,.082.745L17.367,13Zm-1.941-.957a2.158,2.158,0,0,0,1.125-.284,2.847,2.847,0,0,0,.913-.824l.267-1.524L15.535,9.4a3.547,3.547,0,0,0-1.791.369,1.36,1.36,0,0,0-.7,1.046,1.059,1.059,0,0,0,.243.865A1.156,1.156,0,0,0,14.167,12.043Zm8.142-8.23L21.995,5.6h1.347l-.171.978h-1.34l-.772,4.6a1.6,1.6,0,0,0-.007.328.521.521,0,0,0,.581.533,3.544,3.544,0,0,0,.6-.068l-.1,1.032a3.366,3.366,0,0,1-.9.123,1.292,1.292,0,0,1-1.107-.543,2.1,2.1,0,0,1-.287-1.425l.752-4.58H19.288l.171-.978h1.306l.314-1.791ZM28.072,13a1.657,1.657,0,0,1-.048-.39l.021-.39a3.032,3.032,0,0,1-2.16.916,2.21,2.21,0,0,1-1.589-.619A1.872,1.872,0,0,1,23.738,11a2.277,2.277,0,0,1,1.029-1.835,4.38,4.38,0,0,1,2.526-.66l1.292.007.082-.588a1.352,1.352,0,0,0-.256-1.049,1.237,1.237,0,0,0-.974-.4,1.908,1.908,0,0,0-1.125.311,1.324,1.324,0,0,0-.6.858l-1.244.007A1.983,1.983,0,0,1,24.975,6.5a2.943,2.943,0,0,1,1.142-.779,3.688,3.688,0,0,1,1.442-.263,2.452,2.452,0,0,1,1.8.7,2.173,2.173,0,0,1,.54,1.788l-.6,3.664-.034.526a2.58,2.58,0,0,0,.082.745L29.33,13Zm-1.941-.957a2.158,2.158,0,0,0,1.125-.284,2.847,2.847,0,0,0,.913-.824l.267-1.524L27.5,9.4a3.547,3.547,0,0,0-1.791.369,1.36,1.36,0,0,0-.7,1.046,1.059,1.059,0,0,0,.243.865A1.156,1.156,0,0,0,26.13,12.043ZM37.273,9.931l-.027,1.2.465-1.176,2.974-6.911h1.087l.786,7,.068,1.135.431-1.374L45.6,3.047h1.319L43.022,13H41.853l-.861-7.308-.027-.684-.287.793L37.505,13H36.336l-.779-9.953h1.251ZM50.849,13a1.657,1.657,0,0,1-.048-.39l.021-.39a3.032,3.032,0,0,1-2.16.916,2.21,2.21,0,0,1-1.589-.619A1.872,1.872,0,0,1,46.515,11a2.277,2.277,0,0,1,1.029-1.835,4.38,4.38,0,0,1,2.526-.66l1.292.007.082-.588a1.352,1.352,0,0,0-.256-1.049,1.237,1.237,0,0,0-.974-.4,1.908,1.908,0,0,0-1.125.311,1.324,1.324,0,0,0-.6.858l-1.244.007A1.983,1.983,0,0,1,47.752,6.5a2.943,2.943,0,0,1,1.142-.779,3.688,3.688,0,0,1,1.442-.263,2.452,2.452,0,0,1,1.8.7,2.173,2.173,0,0,1,.54,1.788l-.6,3.664-.034.526a2.58,2.58,0,0,0,.082.745L52.107,13Zm-1.941-.957a2.158,2.158,0,0,0,1.125-.284,2.847,2.847,0,0,0,.913-.824l.267-1.524L50.275,9.4a3.547,3.547,0,0,0-1.791.369,1.36,1.36,0,0,0-.7,1.046,1.059,1.059,0,0,0,.243.865A1.156,1.156,0,0,0,48.908,12.043Zm9.475-5.312L57.8,6.67a2.117,2.117,0,0,0-1.873,1.073L55.019,13H53.782l1.285-7.4,1.2-.007-.185.861a2.211,2.211,0,0,1,1.853-1,2.27,2.27,0,0,1,.588.1Zm3.131,6.405a2.667,2.667,0,0,1-2.16-1.019A3.505,3.505,0,0,1,58.7,9.582l.034-.294a4.921,4.921,0,0,1,.653-2.01,3.8,3.8,0,0,1,1.309-1.371,3.054,3.054,0,0,1,1.668-.441,2.352,2.352,0,0,1,1.791.759,3.121,3.121,0,0,1,.711,1.982,5.793,5.793,0,0,1-.027.889l-.075.567H59.927a2.5,2.5,0,0,0,.332,1.709,1.57,1.57,0,0,0,1.357.731,2.631,2.631,0,0,0,2.023-.984l.711.6a3.253,3.253,0,0,1-1.2,1.049A3.4,3.4,0,0,1,61.513,13.137ZM62.3,6.5a1.807,1.807,0,0,0-1.336.52,3.693,3.693,0,0,0-.906,1.606l3.6.007.027-.109A2.024,2.024,0,0,0,63.4,7.09,1.3,1.3,0,0,0,62.3,6.5Zm5.585.007A2.866,2.866,0,0,1,70.12,5.474a1.8,1.8,0,0,1,1.542.714,2.815,2.815,0,0,1,.373,1.965L71.227,13H69.99L70.8,8.133a2.6,2.6,0,0,0,.007-.622,1.022,1.022,0,0,0-1.128-.978,2.276,2.276,0,0,0-1.955,1.189L66.811,13H65.574L67.4,2.5h1.237Zm9.345-1.039a2.666,2.666,0,0,1,1.593.506A2.874,2.874,0,0,1,79.8,7.33a4.2,4.2,0,0,1,.215,1.89L80,9.37a4.975,4.975,0,0,1-.643,1.952,3.77,3.77,0,0,1-1.326,1.357,3.234,3.234,0,0,1-1.784.458,2.671,2.671,0,0,1-1.589-.506,2.809,2.809,0,0,1-.974-1.34,4.315,4.315,0,0,1-.219-1.866,5.04,5.04,0,0,1,.622-2.064,3.858,3.858,0,0,1,1.336-1.418A3.2,3.2,0,0,1,77.229,5.467ZM74.713,9.432a4.2,4.2,0,0,0,0,.9,2.194,2.194,0,0,0,.482,1.285,1.447,1.447,0,0,0,1.1.5,1.971,1.971,0,0,0,1.135-.3,2.554,2.554,0,0,0,.875-.981,4.131,4.131,0,0,0,.458-1.456,6.557,6.557,0,0,0,.021-1.06A2.277,2.277,0,0,0,78.289,7,1.479,1.479,0,0,0,77.181,6.5a2.016,2.016,0,0,0-1.627.752,3.715,3.715,0,0,0-.827,2.023ZM85.63,12.269a2.856,2.856,0,0,1-2.208.868,1.843,1.843,0,0,1-1.569-.759,2.9,2.9,0,0,1-.379-2L82.267,5.6H83.5l-.8,4.8a3.187,3.187,0,0,0-.014.588,1.223,1.223,0,0,0,.294.772,1,1,0,0,0,.725.3A2.219,2.219,0,0,0,85.76,10.99L86.69,5.6h1.237L86.642,13H85.473ZM93.068,11q.1-.766-.841-1.08l-1.285-.376Q89.315,8.98,89.37,7.682a2.048,2.048,0,0,1,.892-1.6,3.177,3.177,0,0,1,1.986-.612,2.649,2.649,0,0,1,1.822.653,2.068,2.068,0,0,1,.673,1.665l-1.23-.007a1.154,1.154,0,0,0-.349-.9,1.379,1.379,0,0,0-.964-.362,1.8,1.8,0,0,0-1.107.314,1.151,1.151,0,0,0-.5.807q-.089.643.786.937L92,8.741a4.005,4.005,0,0,1,1.8.854A1.632,1.632,0,0,1,94.3,10.9a2.074,2.074,0,0,1-.451,1.2,2.58,2.58,0,0,1-1.094.783,3.658,3.658,0,0,1-1.456.25,2.885,2.885,0,0,1-1.941-.687,2.124,2.124,0,0,1-.738-1.733l1.237.007a1.311,1.311,0,0,0,.4,1,1.515,1.515,0,0,0,1.087.376,2.132,2.132,0,0,0,1.169-.284A1.091,1.091,0,0,0,93.068,11Zm5.688,2.14a2.667,2.667,0,0,1-2.16-1.019,3.505,3.505,0,0,1-.656-2.536l.034-.294a4.921,4.921,0,0,1,.653-2.01,3.8,3.8,0,0,1,1.309-1.371A3.054,3.054,0,0,1,99.6,5.467a2.352,2.352,0,0,1,1.791.759,3.121,3.121,0,0,1,.711,1.982,5.793,5.793,0,0,1-.027.889L102,9.664H97.169a2.5,2.5,0,0,0,.332,1.709,1.57,1.57,0,0,0,1.357.731,2.631,2.631,0,0,0,2.023-.984l.711.6a3.253,3.253,0,0,1-1.2,1.049A3.4,3.4,0,0,1,98.755,13.137ZM99.542,6.5a1.807,1.807,0,0,0-1.336.52A3.693,3.693,0,0,0,97.3,8.625l3.6.007.027-.109a2.024,2.024,0,0,0-.277-1.432A1.3,1.3,0,0,0,99.542,6.5ZM22.183,25.24a4.333,4.333,0,0,1,.807-2.738,2.745,2.745,0,0,1,4.17-.147V18.5h1.265V29H27.262l-.062-.793a2.575,2.575,0,0,1-2.112.93,2.526,2.526,0,0,1-2.1-1.053,4.382,4.382,0,0,1-.81-2.748Zm1.265.144a3.281,3.281,0,0,0,.52,1.969,1.68,1.68,0,0,0,1.436.711,1.845,1.845,0,0,0,1.757-1.08v-3.4a1.859,1.859,0,0,0-1.743-1.046,1.687,1.687,0,0,0-1.449.718A3.612,3.612,0,0,0,23.447,25.384Zm10.008,3.753a3.232,3.232,0,0,1-2.447-.988,3.666,3.666,0,0,1-.943-2.642v-.232a4.438,4.438,0,0,1,.42-1.965,3.28,3.28,0,0,1,1.176-1.354,2.956,2.956,0,0,1,1.637-.489,2.77,2.77,0,0,1,2.242.95,4.114,4.114,0,0,1,.8,2.721v.526H31.329a2.629,2.629,0,0,0,.639,1.767,2.009,2.009,0,0,0,1.555.673,2.2,2.2,0,0,0,1.135-.273,2.851,2.851,0,0,0,.813-.725l.772.6A3.106,3.106,0,0,1,33.455,29.137ZM33.3,22.506a1.687,1.687,0,0,0-1.285.557,2.708,2.708,0,0,0-.643,1.562h3.705v-.1a2.409,2.409,0,0,0-.52-1.494A1.588,1.588,0,0,0,33.3,22.506Zm11.464,4.751,2.844-8.21h1.436L45.35,29H44.188L40.5,19.047h1.429Zm8.183,1.88a3.232,3.232,0,0,1-2.447-.988,3.666,3.666,0,0,1-.943-2.642v-.232a4.438,4.438,0,0,1,.42-1.965,3.279,3.279,0,0,1,1.176-1.354,2.956,2.956,0,0,1,1.637-.489,2.77,2.77,0,0,1,2.242.95,4.114,4.114,0,0,1,.8,2.721v.526H50.818a2.629,2.629,0,0,0,.639,1.767,2.009,2.009,0,0,0,1.555.673,2.2,2.2,0,0,0,1.135-.273,2.851,2.851,0,0,0,.813-.725l.772.6A3.106,3.106,0,0,1,52.944,29.137Zm-.157-6.631a1.687,1.687,0,0,0-1.285.557,2.708,2.708,0,0,0-.643,1.562h3.705v-.1a2.409,2.409,0,0,0-.52-1.494A1.588,1.588,0,0,0,52.787,22.506Zm5.7-.9.041.93a2.7,2.7,0,0,1,2.215-1.066q2.345,0,2.365,2.646V29H61.845V24.105a1.7,1.7,0,0,0-.366-1.183,1.466,1.466,0,0,0-1.118-.383,1.825,1.825,0,0,0-1.08.328,2.228,2.228,0,0,0-.725.861V29H57.292V21.6Zm8.244-1.791V21.6h1.381v.978H66.732v4.593a1.027,1.027,0,0,0,.185.667.777.777,0,0,0,.629.222,3.062,3.062,0,0,0,.6-.082V29a3.688,3.688,0,0,1-.971.136,1.575,1.575,0,0,1-1.278-.513,2.2,2.2,0,0,1-.431-1.456V22.581H64.121V21.6h1.347V19.813ZM74.156,29a2.657,2.657,0,0,1-.178-.779,2.822,2.822,0,0,1-2.105.916,2.611,2.611,0,0,1-1.794-.619,2,2,0,0,1-.7-1.569,2.091,2.091,0,0,1,.878-1.794,4.141,4.141,0,0,1,2.471-.639h1.23v-.581a1.42,1.42,0,0,0-.4-1.056,1.593,1.593,0,0,0-1.169-.393,1.844,1.844,0,0,0-1.135.342,1.007,1.007,0,0,0-.458.827H69.528a1.745,1.745,0,0,1,.393-1.07,2.683,2.683,0,0,1,1.066-.817,3.588,3.588,0,0,1,1.48-.3,2.924,2.924,0,0,1,2,.639,2.306,2.306,0,0,1,.752,1.76v3.4a4.162,4.162,0,0,0,.26,1.62V29Zm-2.1-.964a2.223,2.223,0,0,0,1.128-.308,1.861,1.861,0,0,0,.772-.8V25.411h-.991q-2.324,0-2.324,1.36a1.151,1.151,0,0,0,.4.93A1.524,1.524,0,0,0,72.058,28.036Zm9.454-1a.931.931,0,0,0-.386-.8,3.718,3.718,0,0,0-1.347-.489,6.367,6.367,0,0,1-1.524-.492,2.169,2.169,0,0,1-.834-.684,1.635,1.635,0,0,1-.27-.943,1.919,1.919,0,0,1,.769-1.538,3,3,0,0,1,1.965-.629,3.091,3.091,0,0,1,2.041.649,2.063,2.063,0,0,1,.783,1.661H81.437a1.142,1.142,0,0,0-.441-.9,1.652,1.652,0,0,0-1.111-.376,1.729,1.729,0,0,0-1.08.3.947.947,0,0,0-.39.786.767.767,0,0,0,.362.69,4.458,4.458,0,0,0,1.309.444,6.821,6.821,0,0,1,1.535.506,2.239,2.239,0,0,1,.872.708,1.74,1.74,0,0,1,.284,1.008,1.893,1.893,0,0,1-.793,1.589,3.326,3.326,0,0,1-2.058.6,3.725,3.725,0,0,1-1.572-.314,2.557,2.557,0,0,1-1.07-.878,2.117,2.117,0,0,1-.386-1.22h1.265a1.309,1.309,0,0,0,.509,1.008,1.976,1.976,0,0,0,1.254.373,2.039,2.039,0,0,0,1.152-.291A.893.893,0,0,0,81.512,27.038Z" transform="translate(1197.833 4903.672)" fill="#12263f"/>
    <path id="Trazado_204750" data-name="Trazado 204750" d="M600,103a8.009,8.009,0,0,1,8,8v30a8.009,8.009,0,0,1-8,8H490a8.009,8.009,0,0,1-8-8V111a8.009,8.009,0,0,1,8-8Zm0-2H490a10,10,0,0,0-10,10v30a10,10,0,0,0,10,10H600a10,10,0,0,0,10-10V111a10,10,0,0,0-10-10" transform="translate(705 4866)" fill="#084a93"/>
    <path id="Trazado_254821" data-name="Trazado 254821" d="M22.545,13l1.729-9.953,2.584.007a3.588,3.588,0,0,1,2.1.608A3.356,3.356,0,0,1,30.215,5.34a5.217,5.217,0,0,1,.226,2.4l-.068.5A5.628,5.628,0,0,1,28.684,11.7,4.91,4.91,0,0,1,25.2,13Zm2.823-8.88-1.354,7.8,1.265.007a3.554,3.554,0,0,0,2.458-.9A4.284,4.284,0,0,0,29.046,8.55a8.051,8.051,0,0,0,.164-2.14,2.606,2.606,0,0,0-.7-1.658,2.28,2.28,0,0,0-1.613-.625ZM35.854,13a1.657,1.657,0,0,1-.048-.39l.021-.39a3.032,3.032,0,0,1-2.16.916,2.21,2.21,0,0,1-1.589-.619A1.872,1.872,0,0,1,31.521,11a2.277,2.277,0,0,1,1.029-1.835,4.38,4.38,0,0,1,2.526-.66l1.292.007.082-.588a1.352,1.352,0,0,0-.256-1.049,1.237,1.237,0,0,0-.974-.4,1.908,1.908,0,0,0-1.125.311,1.324,1.324,0,0,0-.6.858l-1.244.007A1.983,1.983,0,0,1,32.758,6.5,2.943,2.943,0,0,1,33.9,5.723a3.688,3.688,0,0,1,1.442-.263,2.452,2.452,0,0,1,1.8.7,2.173,2.173,0,0,1,.54,1.788l-.6,3.664-.034.526a2.58,2.58,0,0,0,.082.745L37.112,13Zm-1.941-.957a2.158,2.158,0,0,0,1.125-.284,2.847,2.847,0,0,0,.913-.824l.267-1.524L35.28,9.4a3.547,3.547,0,0,0-1.791.369,1.36,1.36,0,0,0-.7,1.046,1.059,1.059,0,0,0,.243.865A1.156,1.156,0,0,0,33.913,12.043Zm8.142-8.23L41.74,5.6h1.347l-.171.978h-1.34l-.772,4.6a1.6,1.6,0,0,0-.007.328.521.521,0,0,0,.581.533,3.544,3.544,0,0,0,.6-.068l-.1,1.032a3.366,3.366,0,0,1-.9.123,1.292,1.292,0,0,1-1.107-.543,2.1,2.1,0,0,1-.287-1.425l.752-4.58H39.033L39.2,5.6H40.51l.314-1.791ZM47.817,13a1.657,1.657,0,0,1-.048-.39l.021-.39a3.032,3.032,0,0,1-2.16.916,2.21,2.21,0,0,1-1.589-.619A1.872,1.872,0,0,1,43.483,11a2.277,2.277,0,0,1,1.029-1.835,4.38,4.38,0,0,1,2.526-.66l1.292.007.082-.588a1.352,1.352,0,0,0-.256-1.049,1.237,1.237,0,0,0-.974-.4,1.908,1.908,0,0,0-1.125.311,1.324,1.324,0,0,0-.6.858l-1.244.007A1.983,1.983,0,0,1,44.721,6.5a2.943,2.943,0,0,1,1.142-.779A3.688,3.688,0,0,1,47.3,5.46a2.452,2.452,0,0,1,1.8.7,2.173,2.173,0,0,1,.54,1.788l-.6,3.664-.034.526a2.58,2.58,0,0,0,.082.745L49.075,13Zm-1.941-.957A2.158,2.158,0,0,0,47,11.759a2.847,2.847,0,0,0,.913-.824l.267-1.524L47.243,9.4a3.547,3.547,0,0,0-1.791.369,1.36,1.36,0,0,0-.7,1.046,1.059,1.059,0,0,0,.243.865A1.156,1.156,0,0,0,45.876,12.043Zm11.847-9,1.743,8.107,4.566-8.107h1.688L63.991,13H62.713L63.4,9.063l.813-4.006L59.7,13h-.984L56.937,4.9l-.615,4.293L55.658,13H54.373L56.1,3.047ZM70.629,13a1.657,1.657,0,0,1-.048-.39l.021-.39a3.032,3.032,0,0,1-2.16.916,2.21,2.21,0,0,1-1.589-.619A1.872,1.872,0,0,1,66.295,11a2.277,2.277,0,0,1,1.029-1.835,4.38,4.38,0,0,1,2.526-.66l1.292.007.082-.588a1.352,1.352,0,0,0-.256-1.049,1.237,1.237,0,0,0-.974-.4,1.908,1.908,0,0,0-1.125.311,1.324,1.324,0,0,0-.6.858l-1.244.007A1.983,1.983,0,0,1,67.532,6.5a2.943,2.943,0,0,1,1.142-.779,3.688,3.688,0,0,1,1.442-.263,2.452,2.452,0,0,1,1.8.7,2.173,2.173,0,0,1,.54,1.788l-.6,3.664-.034.526a2.58,2.58,0,0,0,.082.745L71.887,13Zm-1.941-.957a2.158,2.158,0,0,0,1.125-.284,2.847,2.847,0,0,0,.913-.824l.267-1.524L70.055,9.4a3.547,3.547,0,0,0-1.791.369,1.36,1.36,0,0,0-.7,1.046,1.059,1.059,0,0,0,.243.865A1.156,1.156,0,0,0,68.688,12.043Zm9.475-5.312-.581-.062a2.117,2.117,0,0,0-1.873,1.073L74.8,13H73.562l1.285-7.4,1.2-.007-.185.861a2.211,2.211,0,0,1,1.853-1,2.27,2.27,0,0,1,.588.1Zm3.671-2.919L81.519,5.6h1.347l-.171.978h-1.34l-.772,4.6a1.6,1.6,0,0,0-.007.328.521.521,0,0,0,.581.533,3.544,3.544,0,0,0,.6-.068l-.1,1.032a3.366,3.366,0,0,1-.9.123,1.292,1.292,0,0,1-1.107-.543,2.1,2.1,0,0,1-.287-1.425l.752-4.58H78.812l.171-.978h1.306L80.6,3.813ZM13.142,25.24a4.333,4.333,0,0,1,.807-2.738,2.551,2.551,0,0,1,2.112-1.036,2.565,2.565,0,0,1,2.058.889V18.5h1.265V29H18.221l-.062-.793a2.575,2.575,0,0,1-2.112.93,2.526,2.526,0,0,1-2.1-1.053,4.382,4.382,0,0,1-.81-2.748Zm1.265.144a3.281,3.281,0,0,0,.52,1.969,1.68,1.68,0,0,0,1.436.711,1.845,1.845,0,0,0,1.757-1.08v-3.4a1.859,1.859,0,0,0-1.743-1.046,1.687,1.687,0,0,0-1.449.718A3.612,3.612,0,0,0,14.407,25.384Zm10.008,3.753a3.232,3.232,0,0,1-2.447-.988,3.666,3.666,0,0,1-.943-2.642v-.232a4.438,4.438,0,0,1,.42-1.965,3.28,3.28,0,0,1,1.176-1.354,2.956,2.956,0,0,1,1.637-.489,2.77,2.77,0,0,1,2.242.95,4.114,4.114,0,0,1,.8,2.721v.526H22.289a2.629,2.629,0,0,0,.639,1.767,2.009,2.009,0,0,0,1.555.673,2.2,2.2,0,0,0,1.135-.273,2.851,2.851,0,0,0,.813-.725l.772.6A3.106,3.106,0,0,1,24.415,29.137Zm-.157-6.631a1.687,1.687,0,0,0-1.285.557,2.708,2.708,0,0,0-.643,1.562h3.705v-.1a2.409,2.409,0,0,0-.52-1.494A1.588,1.588,0,0,0,24.257,22.506Zm10.767-3.459,1.743,8.107,4.566-8.107h1.688L41.292,29H40.014l.684-3.937.813-4.006L37,29h-.984l-1.777-8.1-.615,4.293L32.959,29H31.674L33.4,19.047ZM47.93,29a1.657,1.657,0,0,1-.048-.39l.021-.39a3.032,3.032,0,0,1-2.16.916,2.21,2.21,0,0,1-1.589-.619A1.872,1.872,0,0,1,43.6,27a2.277,2.277,0,0,1,1.029-1.835,4.38,4.38,0,0,1,2.526-.66l1.292.007.082-.588a1.352,1.352,0,0,0-.256-1.049,1.237,1.237,0,0,0-.974-.4,1.908,1.908,0,0,0-1.125.311,1.324,1.324,0,0,0-.6.858l-1.244.007a1.983,1.983,0,0,1,.506-1.152,2.943,2.943,0,0,1,1.142-.779,3.688,3.688,0,0,1,1.442-.263,2.452,2.452,0,0,1,1.8.7,2.173,2.173,0,0,1,.54,1.788l-.6,3.664-.034.526a2.58,2.58,0,0,0,.082.745L49.188,29Zm-1.941-.957a2.158,2.158,0,0,0,1.125-.284,2.847,2.847,0,0,0,.913-.824l.267-1.524-.937-.007a3.547,3.547,0,0,0-1.791.369,1.36,1.36,0,0,0-.7,1.046,1.059,1.059,0,0,0,.243.865A1.156,1.156,0,0,0,45.989,28.043Zm9.475-5.312-.581-.062a2.117,2.117,0,0,0-1.873,1.073L52.1,29H50.863l1.285-7.4,1.2-.007-.185.861a2.211,2.211,0,0,1,1.853-1,2.27,2.27,0,0,1,.588.1Zm2.714,2.857-.971.868L56.769,29H55.532l1.825-10.5h1.237L57.5,24.775l.759-.766L60.884,21.6h1.606l-3.4,3.151L61.431,29H60.078Zm7.362,3.548a2.667,2.667,0,0,1-2.16-1.019,3.505,3.505,0,0,1-.656-2.536l.034-.294a4.921,4.921,0,0,1,.653-2.01,3.8,3.8,0,0,1,1.309-1.371,3.054,3.054,0,0,1,1.668-.441,2.352,2.352,0,0,1,1.791.759,3.121,3.121,0,0,1,.711,1.982,5.793,5.793,0,0,1-.027.889l-.075.567H63.954a2.5,2.5,0,0,0,.332,1.709,1.57,1.57,0,0,0,1.357.731,2.631,2.631,0,0,0,2.023-.984l.711.6a3.253,3.253,0,0,1-1.2,1.049A3.4,3.4,0,0,1,65.54,29.137Zm.786-6.638a1.807,1.807,0,0,0-1.336.52,3.693,3.693,0,0,0-.906,1.606l3.6.007.027-.109a2.024,2.024,0,0,0-.277-1.432A1.3,1.3,0,0,0,66.326,22.5Zm6.542-2.687L72.553,21.6H73.9l-.171.978h-1.34l-.772,4.6a1.6,1.6,0,0,0-.007.328.521.521,0,0,0,.581.533,3.544,3.544,0,0,0,.6-.068l-.1,1.032a3.366,3.366,0,0,1-.9.123,1.292,1.292,0,0,1-1.107-.543,2.1,2.1,0,0,1-.287-1.425l.752-4.58H69.846l.171-.978h1.306l.314-1.791ZM75.445,29h-1.23L75.5,21.6h1.23Zm1.019-10.1a.677.677,0,0,1,.523.188.7.7,0,0,1,.208.53.73.73,0,0,1-.731.745.682.682,0,0,1-.526-.185.669.669,0,0,1-.2-.52.775.775,0,0,1,.205-.533A.723.723,0,0,1,76.463,18.9ZM79.922,21.6l-.178.937a2.916,2.916,0,0,1,2.27-1.066,1.835,1.835,0,0,1,1.545.725,2.815,2.815,0,0,1,.369,1.962L83.122,29H81.884l.813-4.862a2.592,2.592,0,0,0,.007-.621,1.022,1.022,0,0,0-1.128-.976,2.329,2.329,0,0,0-1.955,1.188L78.706,29H77.468l1.285-7.4Zm5.469,3.691a6.028,6.028,0,0,1,.653-2.1,3.414,3.414,0,0,1,1.189-1.319,2.757,2.757,0,0,1,1.535-.407,2.276,2.276,0,0,1,1.941.971l.246-.827H92.09l-1.23,7.239a3.6,3.6,0,0,1-1.148,2.266,3.235,3.235,0,0,1-2.345.81,3.329,3.329,0,0,1-1.439-.355,2.736,2.736,0,0,1-1.083-.937l.7-.759a2.219,2.219,0,0,0,3.264.526,2.54,2.54,0,0,0,.81-1.477l.137-.656a2.8,2.8,0,0,1-2.112.875,2.175,2.175,0,0,1-1.2-.373,2.265,2.265,0,0,1-.79-1.019,4.164,4.164,0,0,1-.308-1.487A7.64,7.64,0,0,1,85.391,25.288Zm1.2.7a2.6,2.6,0,0,0,.338,1.512,1.279,1.279,0,0,0,1.083.563,2.241,2.241,0,0,0,1.907-1.086l.581-3.393a1.554,1.554,0,0,0-1.483-1.051,1.919,1.919,0,0,0-1.651.819A4.269,4.269,0,0,0,86.6,25.64Z" transform="translate(1198 4976)" fill="#12263f"/>
    <path id="Trazado_204753" data-name="Trazado 204753" d="M461,126a59.5,59.5,0,1,1-59.5-59.5A59.5,59.5,0,0,1,461,126" transform="translate(705 4866.5)" opacity="0.35" fill="url(#radial-gradient)"/>
    <path id="Trazado_254819" data-name="Trazado 254819" d="M35.438,13V3.047h2.81a4.523,4.523,0,0,1,2.3.574,3.884,3.884,0,0,1,1.542,1.634,5.318,5.318,0,0,1,.55,2.434v.636a5.336,5.336,0,0,1-.543,2.468,3.823,3.823,0,0,1-1.552,1.627A4.811,4.811,0,0,1,38.192,13ZM36.75,4.12v7.807h1.381a3,3,0,0,0,2.362-.944,3.9,3.9,0,0,0,.844-2.689V7.712a3.963,3.963,0,0,0-.8-2.637,2.834,2.834,0,0,0-2.259-.954ZM48.986,13a2.657,2.657,0,0,1-.178-.779,2.822,2.822,0,0,1-2.105.916,2.611,2.611,0,0,1-1.794-.619,2,2,0,0,1-.7-1.569,2.091,2.091,0,0,1,.878-1.794,4.142,4.142,0,0,1,2.471-.639h1.23V7.935a1.42,1.42,0,0,0-.4-1.056,1.593,1.593,0,0,0-1.169-.393,1.844,1.844,0,0,0-1.135.342,1.007,1.007,0,0,0-.458.827H44.358a1.745,1.745,0,0,1,.393-1.07,2.683,2.683,0,0,1,1.066-.817,3.588,3.588,0,0,1,1.48-.3,2.924,2.924,0,0,1,2,.639,2.306,2.306,0,0,1,.752,1.76v3.4a4.162,4.162,0,0,0,.26,1.62V13Zm-2.1-.964a2.223,2.223,0,0,0,1.128-.308,1.861,1.861,0,0,0,.772-.8V9.411H47.8q-2.324,0-2.324,1.36a1.151,1.151,0,0,0,.4.93A1.524,1.524,0,0,0,46.888,12.036Zm6.863-8.224V5.6h1.381v.978H53.751v4.593a1.027,1.027,0,0,0,.185.667.777.777,0,0,0,.629.222,3.062,3.062,0,0,0,.6-.082V13a3.688,3.688,0,0,1-.971.136,1.575,1.575,0,0,1-1.278-.513,2.2,2.2,0,0,1-.431-1.456V6.581H51.14V5.6h1.347V3.813Zm2.386,5.421a4.369,4.369,0,0,1,.427-1.955,3.187,3.187,0,0,1,1.189-1.34,3.238,3.238,0,0,1,1.74-.472,3.119,3.119,0,0,1,2.444,1.046,4.024,4.024,0,0,1,.933,2.782v.089a4.407,4.407,0,0,1-.414,1.938,3.14,3.14,0,0,1-1.183,1.336,3.275,3.275,0,0,1-1.767.479,3.111,3.111,0,0,1-2.437-1.046,4,4,0,0,1-.933-2.769Zm1.271.15a3.164,3.164,0,0,0,.571,1.976,1.934,1.934,0,0,0,3.059-.01,3.46,3.46,0,0,0,.567-2.116,3.159,3.159,0,0,0-.578-1.972,1.836,1.836,0,0,0-1.535-.755,1.816,1.816,0,0,0-1.511.745A3.435,3.435,0,0,0,57.408,9.384Zm11.354,1.654a.931.931,0,0,0-.386-.8,3.718,3.718,0,0,0-1.347-.489,6.367,6.367,0,0,1-1.524-.492,2.169,2.169,0,0,1-.834-.684,1.635,1.635,0,0,1-.27-.943A1.919,1.919,0,0,1,65.17,6.1a3,3,0,0,1,1.965-.629,3.091,3.091,0,0,1,2.041.649,2.063,2.063,0,0,1,.783,1.661H68.688a1.142,1.142,0,0,0-.441-.9,1.652,1.652,0,0,0-1.111-.376,1.729,1.729,0,0,0-1.08.3.947.947,0,0,0-.39.786.767.767,0,0,0,.362.69,4.458,4.458,0,0,0,1.309.444,6.821,6.821,0,0,1,1.535.506,2.239,2.239,0,0,1,.872.708,1.74,1.74,0,0,1,.284,1.008,1.893,1.893,0,0,1-.793,1.589,3.326,3.326,0,0,1-2.058.6,3.725,3.725,0,0,1-1.572-.314,2.557,2.557,0,0,1-1.07-.878,2.117,2.117,0,0,1-.386-1.22h1.265a1.309,1.309,0,0,0,.509,1.008,1.976,1.976,0,0,0,1.254.373,2.039,2.039,0,0,0,1.152-.291A.893.893,0,0,0,68.763,11.038ZM22.463,24.4H18.149v3.527H23.16V29H16.837V19.047h6.255V20.12H18.149v3.206h4.313Zm3.329-2.8.041.93a2.7,2.7,0,0,1,2.215-1.066q2.345,0,2.365,2.646V29H29.148V24.105a1.7,1.7,0,0,0-.366-1.183,1.466,1.466,0,0,0-1.118-.383,1.825,1.825,0,0,0-1.08.328,2.228,2.228,0,0,0-.725.861V29H24.6V21.6Zm8.244-1.791V21.6h1.381v.978H34.036v4.593a1.027,1.027,0,0,0,.185.667.777.777,0,0,0,.629.222,3.062,3.062,0,0,0,.6-.082V29a3.688,3.688,0,0,1-.971.136,1.575,1.575,0,0,1-1.278-.513,2.2,2.2,0,0,1-.431-1.456V22.581H31.425V21.6h1.347V19.813Zm6.433,2.926a3.79,3.79,0,0,0-.622-.048,1.667,1.667,0,0,0-1.688,1.06V29H36.894V21.6h1.23l.021.854a1.969,1.969,0,0,1,1.764-.991,1.292,1.292,0,0,1,.561.1Zm4.1,6.4a3.232,3.232,0,0,1-2.447-.988,3.666,3.666,0,0,1-.943-2.642v-.232a4.438,4.438,0,0,1,.42-1.965,3.279,3.279,0,0,1,1.176-1.354,2.956,2.956,0,0,1,1.637-.489,2.77,2.77,0,0,1,2.242.95,4.114,4.114,0,0,1,.8,2.721v.526H42.444a2.629,2.629,0,0,0,.639,1.767,2.009,2.009,0,0,0,1.555.673,2.2,2.2,0,0,0,1.135-.273,2.851,2.851,0,0,0,.813-.725l.772.6A3.106,3.106,0,0,1,44.57,29.137Zm-.157-6.631a1.687,1.687,0,0,0-1.285.557,2.708,2.708,0,0,0-.643,1.562H46.19v-.1a2.409,2.409,0,0,0-.52-1.494A1.588,1.588,0,0,0,44.413,22.506Zm4.2,2.734a4.347,4.347,0,0,1,.8-2.751,2.757,2.757,0,0,1,4.231-.065l.062-.82h1.155v7.219a3.009,3.009,0,0,1-.851,2.263,3.141,3.141,0,0,1-2.287.827,3.8,3.8,0,0,1-1.565-.342,2.7,2.7,0,0,1-1.169-.937l.656-.759a2.473,2.473,0,0,0,1.989,1,1.938,1.938,0,0,0,1.439-.52,1.986,1.986,0,0,0,.516-1.463v-.636a2.6,2.6,0,0,1-2.071.875,2.526,2.526,0,0,1-2.1-1.046A4.571,4.571,0,0,1,48.617,25.24Zm1.271.144a3.316,3.316,0,0,0,.513,1.965,1.666,1.666,0,0,0,1.436.714,1.852,1.852,0,0,0,1.757-1.087V23.6a1.874,1.874,0,0,0-1.743-1.06,1.681,1.681,0,0,0-1.442.718A3.612,3.612,0,0,0,49.889,25.384ZM61.339,29a2.657,2.657,0,0,1-.178-.779,2.822,2.822,0,0,1-2.105.916,2.611,2.611,0,0,1-1.794-.619,2,2,0,0,1-.7-1.569,2.091,2.091,0,0,1,.878-1.794,4.142,4.142,0,0,1,2.471-.639h1.23v-.581a1.42,1.42,0,0,0-.4-1.056,1.593,1.593,0,0,0-1.169-.393,1.844,1.844,0,0,0-1.135.342,1.007,1.007,0,0,0-.458.827H56.711a1.745,1.745,0,0,1,.393-1.07,2.683,2.683,0,0,1,1.066-.817,3.588,3.588,0,0,1,1.48-.3,2.924,2.924,0,0,1,2,.639,2.306,2.306,0,0,1,.752,1.76v3.4a4.162,4.162,0,0,0,.26,1.62V29Zm-2.1-.964a2.223,2.223,0,0,0,1.128-.308,1.861,1.861,0,0,0,.772-.8V25.411h-.991q-2.324,0-2.324,1.36a1.151,1.151,0,0,0,.4.93A1.524,1.524,0,0,0,59.24,28.036Zm11.409-2.652a4.4,4.4,0,0,1-.779,2.724,2.49,2.49,0,0,1-2.092,1.029,2.578,2.578,0,0,1-2.167-.991L65.55,29H64.388V18.5h1.265v3.917a2.564,2.564,0,0,1,2.112-.95,2.505,2.505,0,0,1,2.116,1.019,4.53,4.53,0,0,1,.769,2.789Zm-1.265-.144a3.417,3.417,0,0,0-.5-2,1.652,1.652,0,0,0-1.436-.7,1.857,1.857,0,0,0-1.8,1.162v3.2a1.909,1.909,0,0,0,1.812,1.162,1.643,1.643,0,0,0,1.415-.7A3.634,3.634,0,0,0,69.385,25.24ZM73.616,29H72.352V18.5h1.265Zm5.093.137a3.232,3.232,0,0,1-2.447-.988,3.666,3.666,0,0,1-.943-2.642v-.232a4.438,4.438,0,0,1,.42-1.965,3.28,3.28,0,0,1,1.176-1.354,2.956,2.956,0,0,1,1.637-.489,2.77,2.77,0,0,1,2.242.95,4.114,4.114,0,0,1,.8,2.721v.526H76.583a2.629,2.629,0,0,0,.639,1.767,2.009,2.009,0,0,0,1.555.673,2.2,2.2,0,0,0,1.135-.273,2.851,2.851,0,0,0,.813-.725l.772.6A3.106,3.106,0,0,1,78.709,29.137Zm-.157-6.631a1.687,1.687,0,0,0-1.285.557,2.708,2.708,0,0,0-.643,1.562h3.705v-.1a2.409,2.409,0,0,0-.52-1.494A1.588,1.588,0,0,0,78.552,22.506Zm8.812,4.532a.931.931,0,0,0-.386-.8,3.718,3.718,0,0,0-1.347-.489,6.367,6.367,0,0,1-1.524-.492,2.169,2.169,0,0,1-.834-.684,1.635,1.635,0,0,1-.27-.943,1.919,1.919,0,0,1,.769-1.538,3,3,0,0,1,1.965-.629,3.091,3.091,0,0,1,2.041.649,2.063,2.063,0,0,1,.783,1.661H87.288a1.142,1.142,0,0,0-.441-.9,1.652,1.652,0,0,0-1.111-.376,1.729,1.729,0,0,0-1.08.3.947.947,0,0,0-.39.786.767.767,0,0,0,.362.69,4.458,4.458,0,0,0,1.309.444,6.821,6.821,0,0,1,1.535.506,2.239,2.239,0,0,1,.872.708,1.74,1.74,0,0,1,.284,1.008,1.893,1.893,0,0,1-.793,1.589,3.326,3.326,0,0,1-2.058.6,3.725,3.725,0,0,1-1.572-.314,2.557,2.557,0,0,1-1.07-.878,2.117,2.117,0,0,1-.386-1.22h1.265a1.309,1.309,0,0,0,.509,1.008,1.976,1.976,0,0,0,1.254.373,2.039,2.039,0,0,0,1.152-.291A.893.893,0,0,0,87.363,27.038ZM10.305,41.384A4.429,4.429,0,0,1,9.533,44.1a2.476,2.476,0,0,1-2.092,1.032,2.713,2.713,0,0,1-2.119-.854v3.562H4.057V37.6H5.212l.062.82a2.605,2.605,0,0,1,2.146-.957,2.522,2.522,0,0,1,2.109,1,4.477,4.477,0,0,1,.776,2.8ZM9.041,41.24a3.268,3.268,0,0,0-.533-1.976,1.718,1.718,0,0,0-1.463-.725,1.859,1.859,0,0,0-1.723,1.019v3.534A1.863,1.863,0,0,0,7.058,44.1,1.71,1.71,0,0,0,8.5,43.383,3.567,3.567,0,0,0,9.041,41.24ZM16.478,45a2.657,2.657,0,0,1-.178-.779,2.822,2.822,0,0,1-2.105.916,2.611,2.611,0,0,1-1.794-.619,2,2,0,0,1-.7-1.569,2.091,2.091,0,0,1,.878-1.794,4.142,4.142,0,0,1,2.471-.639h1.23v-.581a1.42,1.42,0,0,0-.4-1.056,1.593,1.593,0,0,0-1.169-.393,1.844,1.844,0,0,0-1.135.342,1.007,1.007,0,0,0-.458.827H11.85a1.745,1.745,0,0,1,.393-1.07,2.683,2.683,0,0,1,1.066-.817,3.588,3.588,0,0,1,1.48-.3,2.924,2.924,0,0,1,2,.639,2.306,2.306,0,0,1,.752,1.76v3.4a4.162,4.162,0,0,0,.26,1.62V45Zm-2.1-.964a2.223,2.223,0,0,0,1.128-.308,1.861,1.861,0,0,0,.772-.8V41.411h-.991q-2.324,0-2.324,1.36a1.151,1.151,0,0,0,.4.93A1.524,1.524,0,0,0,14.379,44.036Zm8.723-5.3a3.79,3.79,0,0,0-.622-.048,1.667,1.667,0,0,0-1.688,1.06V45H19.527V37.6h1.23l.021.854a1.969,1.969,0,0,1,1.764-.991,1.292,1.292,0,0,1,.561.1ZM28.557,45a2.657,2.657,0,0,1-.178-.779,2.822,2.822,0,0,1-2.105.916,2.611,2.611,0,0,1-1.794-.619,2,2,0,0,1-.7-1.569,2.091,2.091,0,0,1,.878-1.794,4.142,4.142,0,0,1,2.471-.639h1.23v-.581a1.42,1.42,0,0,0-.4-1.056,1.593,1.593,0,0,0-1.169-.393,1.844,1.844,0,0,0-1.135.342,1.007,1.007,0,0,0-.458.827H23.929a1.745,1.745,0,0,1,.393-1.07,2.683,2.683,0,0,1,1.066-.817,3.588,3.588,0,0,1,1.48-.3,2.924,2.924,0,0,1,2,.639,2.306,2.306,0,0,1,.752,1.76v3.4a4.162,4.162,0,0,0,.26,1.62V45Zm-2.1-.964a2.223,2.223,0,0,0,1.128-.308,1.861,1.861,0,0,0,.772-.8V41.411h-.991q-2.324,0-2.324,1.36a1.151,1.151,0,0,0,.4.93A1.524,1.524,0,0,0,26.458,44.036Zm8.06.964,1.729-9.953,2.584.007a3.588,3.588,0,0,1,2.1.608,3.356,3.356,0,0,1,1.261,1.678,5.217,5.217,0,0,1,.226,2.4l-.068.5A5.628,5.628,0,0,1,40.657,43.7,4.91,4.91,0,0,1,37.17,45Zm2.823-8.88-1.354,7.8,1.265.007a3.554,3.554,0,0,0,2.458-.9,4.284,4.284,0,0,0,1.309-2.475,8.051,8.051,0,0,0,.164-2.14,2.606,2.606,0,0,0-.7-1.658,2.28,2.28,0,0,0-1.613-.625ZM47.828,45a1.657,1.657,0,0,1-.048-.39l.021-.39a3.032,3.032,0,0,1-2.16.916,2.21,2.21,0,0,1-1.589-.619A1.872,1.872,0,0,1,43.494,43a2.277,2.277,0,0,1,1.029-1.835,4.38,4.38,0,0,1,2.526-.66l1.292.007.082-.588a1.352,1.352,0,0,0-.256-1.049,1.237,1.237,0,0,0-.974-.4,1.908,1.908,0,0,0-1.125.311,1.324,1.324,0,0,0-.6.858l-1.244.007a1.983,1.983,0,0,1,.506-1.152,2.943,2.943,0,0,1,1.142-.779,3.688,3.688,0,0,1,1.442-.263,2.452,2.452,0,0,1,1.8.7,2.173,2.173,0,0,1,.54,1.788l-.6,3.664-.034.526a2.58,2.58,0,0,0,.082.745L49.085,45Zm-1.941-.957a2.158,2.158,0,0,0,1.125-.284,2.847,2.847,0,0,0,.913-.824l.267-1.524-.937-.007a3.547,3.547,0,0,0-1.791.369,1.36,1.36,0,0,0-.7,1.046,1.059,1.059,0,0,0,.243.865A1.156,1.156,0,0,0,45.886,44.043Zm8.142-8.23L53.713,37.6H55.06l-.171.978h-1.34l-.772,4.6a1.6,1.6,0,0,0-.007.328.521.521,0,0,0,.581.533,3.544,3.544,0,0,0,.6-.068l-.1,1.032a3.366,3.366,0,0,1-.9.123,1.292,1.292,0,0,1-1.107-.543,2.1,2.1,0,0,1-.287-1.425l.752-4.58H51.006l.171-.978h1.306l.314-1.791ZM59.791,45a1.657,1.657,0,0,1-.048-.39l.021-.39a3.032,3.032,0,0,1-2.16.916,2.21,2.21,0,0,1-1.589-.619A1.872,1.872,0,0,1,55.457,43a2.277,2.277,0,0,1,1.029-1.835,4.38,4.38,0,0,1,2.526-.66l1.292.007.082-.588a1.352,1.352,0,0,0-.256-1.049,1.237,1.237,0,0,0-.974-.4,1.908,1.908,0,0,0-1.125.311,1.324,1.324,0,0,0-.6.858l-1.244.007a1.983,1.983,0,0,1,.506-1.152,2.943,2.943,0,0,1,1.142-.779,3.688,3.688,0,0,1,1.442-.263,2.452,2.452,0,0,1,1.8.7,2.173,2.173,0,0,1,.54,1.788l-.6,3.664-.034.526a2.58,2.58,0,0,0,.082.745L61.048,45Zm-1.941-.957a2.158,2.158,0,0,0,1.125-.284,2.847,2.847,0,0,0,.913-.824l.267-1.524-.937-.007a3.547,3.547,0,0,0-1.791.369,1.36,1.36,0,0,0-.7,1.046,1.059,1.059,0,0,0,.243.865A1.156,1.156,0,0,0,57.849,44.043Zm11.847-9,1.743,8.107,4.566-8.107h1.688L75.964,45H74.686l.684-3.937.813-4.006L71.671,45h-.984L68.91,36.9l-.615,4.293L67.631,45H66.346l1.729-9.953ZM82.6,45a1.657,1.657,0,0,1-.048-.39l.021-.39a3.032,3.032,0,0,1-2.16.916,2.21,2.21,0,0,1-1.589-.619A1.872,1.872,0,0,1,78.268,43,2.277,2.277,0,0,1,79.3,41.168a4.38,4.38,0,0,1,2.526-.66l1.292.007.082-.588a1.352,1.352,0,0,0-.256-1.049,1.237,1.237,0,0,0-.974-.4,1.908,1.908,0,0,0-1.125.311,1.324,1.324,0,0,0-.6.858L79,39.654a1.983,1.983,0,0,1,.506-1.152,2.943,2.943,0,0,1,1.142-.779,3.688,3.688,0,0,1,1.442-.263,2.452,2.452,0,0,1,1.8.7,2.173,2.173,0,0,1,.54,1.788l-.6,3.664-.034.526a2.58,2.58,0,0,0,.082.745L83.86,45Zm-1.941-.957a2.158,2.158,0,0,0,1.125-.284,2.847,2.847,0,0,0,.913-.824l.267-1.524-.937-.007a3.547,3.547,0,0,0-1.791.369,1.36,1.36,0,0,0-.7,1.046,1.059,1.059,0,0,0,.243.865A1.156,1.156,0,0,0,80.661,44.043Zm9.475-5.312-.581-.062a2.117,2.117,0,0,0-1.873,1.073L86.772,45H85.535l1.285-7.4,1.2-.007-.185.861a2.211,2.211,0,0,1,1.853-1,2.27,2.27,0,0,1,.588.1Zm3.671-2.919L93.492,37.6h1.347l-.171.978h-1.34l-.772,4.6a1.6,1.6,0,0,0-.007.328.521.521,0,0,0,.581.533,3.544,3.544,0,0,0,.6-.068l-.1,1.032a3.366,3.366,0,0,1-.9.123,1.292,1.292,0,0,1-1.107-.543,2.1,2.1,0,0,1-.287-1.425l.752-4.58H90.785l.171-.978h1.306l.314-1.791ZM99.624,43q.1-.766-.841-1.08L97.5,41.541q-1.627-.561-1.572-1.859a2.048,2.048,0,0,1,.892-1.6,3.177,3.177,0,0,1,1.986-.612,2.649,2.649,0,0,1,1.822.653,2.068,2.068,0,0,1,.673,1.665l-1.23-.007a1.154,1.154,0,0,0-.349-.9,1.379,1.379,0,0,0-.964-.362,1.8,1.8,0,0,0-1.107.314,1.151,1.151,0,0,0-.5.807q-.089.643.786.937l.622.171a4.005,4.005,0,0,1,1.8.854,1.632,1.632,0,0,1,.492,1.306,2.074,2.074,0,0,1-.451,1.2,2.58,2.58,0,0,1-1.094.783,3.658,3.658,0,0,1-1.456.25,2.885,2.885,0,0,1-1.941-.687,2.124,2.124,0,0,1-.738-1.733l1.237.007a1.311,1.311,0,0,0,.4,1,1.515,1.515,0,0,0,1.087.376,2.132,2.132,0,0,0,1.169-.284A1.091,1.091,0,0,0,99.624,43ZM7.673,61V51.047h2.81a4.523,4.523,0,0,1,2.3.574,3.884,3.884,0,0,1,1.542,1.634,5.318,5.318,0,0,1,.55,2.434v.636a5.336,5.336,0,0,1-.543,2.468,3.823,3.823,0,0,1-1.552,1.627A4.811,4.811,0,0,1,10.428,61Zm1.313-8.88v7.807h1.381a3,3,0,0,0,2.362-.944,3.9,3.9,0,0,0,.844-2.689v-.582a3.963,3.963,0,0,0-.8-2.637,2.834,2.834,0,0,0-2.259-.954ZM18.03,61H16.765V53.6H18.03Zm-1.367-9.358a.755.755,0,0,1,.188-.52.706.706,0,0,1,.557-.212.717.717,0,0,1,.561.212.747.747,0,0,1,.191.52.722.722,0,0,1-.191.513.73.73,0,0,1-.561.205.718.718,0,0,1-.557-.205A.73.73,0,0,1,16.663,51.642Zm4.58,1.962.034.82a2.732,2.732,0,0,1,2.194-.957,2.115,2.115,0,0,1,2.112,1.189,2.8,2.8,0,0,1,.96-.861,2.837,2.837,0,0,1,1.4-.328q2.434,0,2.475,2.577V61H29.152V56.119a1.7,1.7,0,0,0-.362-1.186,1.6,1.6,0,0,0-1.217-.393,1.677,1.677,0,0,0-1.169.42,1.706,1.706,0,0,0-.54,1.131V61H24.592V56.153a1.411,1.411,0,0,0-1.579-1.613,1.692,1.692,0,0,0-1.7,1.06V61H20.046V53.6Zm14.15,7.533a3.232,3.232,0,0,1-2.447-.988A3.666,3.666,0,0,1,32,57.507v-.232a4.438,4.438,0,0,1,.42-1.965A3.28,3.28,0,0,1,33.6,53.956a2.956,2.956,0,0,1,1.637-.489,2.77,2.77,0,0,1,2.242.95,4.114,4.114,0,0,1,.8,2.721v.526H33.267a2.629,2.629,0,0,0,.639,1.767,2.009,2.009,0,0,0,1.555.673,2.2,2.2,0,0,0,1.135-.273,2.851,2.851,0,0,0,.813-.725l.772.6A3.106,3.106,0,0,1,35.393,61.137Zm-.157-6.631a1.687,1.687,0,0,0-1.285.557,2.708,2.708,0,0,0-.643,1.562h3.705v-.1a2.409,2.409,0,0,0-.52-1.494A1.588,1.588,0,0,0,35.236,54.506Zm5.7-.9.041.93a2.7,2.7,0,0,1,2.215-1.066q2.345,0,2.365,2.646V61H44.293V56.105a1.7,1.7,0,0,0-.366-1.183,1.466,1.466,0,0,0-1.118-.383,1.825,1.825,0,0,0-1.08.328,2.228,2.228,0,0,0-.725.861V61H39.741V53.6Zm10.835,5.435a.931.931,0,0,0-.386-.8,3.718,3.718,0,0,0-1.347-.489,6.367,6.367,0,0,1-1.524-.492,2.169,2.169,0,0,1-.834-.684,1.635,1.635,0,0,1-.27-.943A1.919,1.919,0,0,1,48.18,54.1a3,3,0,0,1,1.965-.629,3.091,3.091,0,0,1,2.041.649,2.063,2.063,0,0,1,.783,1.661H51.7a1.142,1.142,0,0,0-.441-.9,1.652,1.652,0,0,0-1.111-.376,1.729,1.729,0,0,0-1.08.3.947.947,0,0,0-.39.786.767.767,0,0,0,.362.69,4.458,4.458,0,0,0,1.309.444,6.821,6.821,0,0,1,1.535.506,2.239,2.239,0,0,1,.872.708,1.74,1.74,0,0,1,.284,1.008,1.893,1.893,0,0,1-.793,1.589,3.326,3.326,0,0,1-2.058.6,3.725,3.725,0,0,1-1.572-.314,2.557,2.557,0,0,1-1.07-.878,2.117,2.117,0,0,1-.386-1.22h1.265a1.309,1.309,0,0,0,.509,1.008,1.976,1.976,0,0,0,1.254.373,2.039,2.039,0,0,0,1.152-.291A.893.893,0,0,0,51.772,59.038ZM56.058,61H54.793V53.6h1.265Zm-1.367-9.358a.755.755,0,0,1,.188-.52.706.706,0,0,1,.557-.212.717.717,0,0,1,.561.212.747.747,0,0,1,.191.52.722.722,0,0,1-.191.513.73.73,0,0,1-.561.205.718.718,0,0,1-.557-.205A.73.73,0,0,1,54.691,51.642Zm3.056,5.592a4.369,4.369,0,0,1,.427-1.955,3.187,3.187,0,0,1,1.189-1.34,3.238,3.238,0,0,1,1.74-.472,3.119,3.119,0,0,1,2.444,1.046,4.024,4.024,0,0,1,.933,2.782v.089a4.407,4.407,0,0,1-.414,1.938,3.14,3.14,0,0,1-1.183,1.336,3.275,3.275,0,0,1-1.767.479,3.111,3.111,0,0,1-2.437-1.046,4,4,0,0,1-.933-2.769Zm1.271.15a3.164,3.164,0,0,0,.571,1.976,1.934,1.934,0,0,0,3.059-.01,3.46,3.46,0,0,0,.567-2.116,3.159,3.159,0,0,0-.578-1.972,1.836,1.836,0,0,0-1.535-.755,1.816,1.816,0,0,0-1.511.745A3.435,3.435,0,0,0,59.018,57.384Zm8.244-3.78.041.93a2.7,2.7,0,0,1,2.215-1.066q2.345,0,2.365,2.646V61H70.619V56.105a1.7,1.7,0,0,0-.366-1.183,1.466,1.466,0,0,0-1.118-.383,1.825,1.825,0,0,0-1.08.328,2.228,2.228,0,0,0-.725.861V61H66.066V53.6ZM78.357,61a2.657,2.657,0,0,1-.178-.779,2.822,2.822,0,0,1-2.105.916,2.611,2.611,0,0,1-1.794-.619,2,2,0,0,1-.7-1.569,2.091,2.091,0,0,1,.878-1.794,4.142,4.142,0,0,1,2.471-.639h1.23v-.581a1.42,1.42,0,0,0-.4-1.056,1.593,1.593,0,0,0-1.169-.393,1.844,1.844,0,0,0-1.135.342,1.007,1.007,0,0,0-.458.827H73.729a1.745,1.745,0,0,1,.393-1.07,2.683,2.683,0,0,1,1.066-.817,3.588,3.588,0,0,1,1.48-.3,2.924,2.924,0,0,1,2,.639,2.306,2.306,0,0,1,.752,1.76v3.4a4.162,4.162,0,0,0,.26,1.62V61Zm-2.1-.964a2.223,2.223,0,0,0,1.128-.308,1.861,1.861,0,0,0,.772-.8V57.411h-.991q-2.324,0-2.324,1.36a1.151,1.151,0,0,0,.4.93A1.524,1.524,0,0,0,76.258,60.036ZM82.78,61H81.515V50.5H82.78Zm5.093.137a3.232,3.232,0,0,1-2.447-.988,3.666,3.666,0,0,1-.943-2.642v-.232a4.438,4.438,0,0,1,.42-1.965,3.28,3.28,0,0,1,1.176-1.354,2.956,2.956,0,0,1,1.637-.489,2.77,2.77,0,0,1,2.242.95,4.114,4.114,0,0,1,.8,2.721v.526H85.747a2.629,2.629,0,0,0,.639,1.767,2.009,2.009,0,0,0,1.555.673,2.2,2.2,0,0,0,1.135-.273,2.851,2.851,0,0,0,.813-.725l.772.6A3.106,3.106,0,0,1,87.873,61.137Zm-.157-6.631a1.687,1.687,0,0,0-1.285.557,2.708,2.708,0,0,0-.643,1.562h3.705v-.1a2.409,2.409,0,0,0-.52-1.494A1.588,1.588,0,0,0,87.715,54.506Zm8.812,4.532a.931.931,0,0,0-.386-.8,3.718,3.718,0,0,0-1.347-.489,6.367,6.367,0,0,1-1.524-.492,2.169,2.169,0,0,1-.834-.684,1.635,1.635,0,0,1-.27-.943,1.919,1.919,0,0,1,.769-1.538,3,3,0,0,1,1.965-.629,3.091,3.091,0,0,1,2.041.649,2.063,2.063,0,0,1,.783,1.661H96.452a1.142,1.142,0,0,0-.441-.9,1.652,1.652,0,0,0-1.111-.376,1.729,1.729,0,0,0-1.08.3.947.947,0,0,0-.39.786.767.767,0,0,0,.362.69,4.458,4.458,0,0,0,1.309.444,6.821,6.821,0,0,1,1.535.506,2.239,2.239,0,0,1,.872.708,1.74,1.74,0,0,1,.284,1.008A1.893,1.893,0,0,1,97,60.539a3.326,3.326,0,0,1-2.058.6,3.725,3.725,0,0,1-1.572-.314,2.557,2.557,0,0,1-1.07-.878,2.117,2.117,0,0,1-.386-1.22h1.265a1.309,1.309,0,0,0,.509,1.008,1.976,1.976,0,0,0,1.254.373,2.039,2.039,0,0,0,1.152-.291A.893.893,0,0,0,96.527,59.038Z" transform="translate(1054 4960)" fill="#12263f"/>
    <path id="Trazado_204754" data-name="Trazado 204754" d="M313,63a8.009,8.009,0,0,1,8,8V181a8.009,8.009,0,0,1-8,8H243a8.009,8.009,0,0,1-8-8V71a8.009,8.009,0,0,1,8-8Zm0-2H243a10,10,0,0,0-10,10V181a10,10,0,0,0,10,10h70a10,10,0,0,0,10-10V71a10,10,0,0,0-10-10" transform="translate(705 4866)" fill="#084a93"/>
    <path id="Trazado_254818" data-name="Trazado 254818" d="M32.854,13V3.047h2.81a4.523,4.523,0,0,1,2.3.574A3.884,3.884,0,0,1,39.5,5.255a5.318,5.318,0,0,1,.55,2.434v.636a5.336,5.336,0,0,1-.543,2.468,3.823,3.823,0,0,1-1.552,1.627A4.811,4.811,0,0,1,35.609,13Zm1.313-8.88v7.807h1.381a3,3,0,0,0,2.362-.944,3.9,3.9,0,0,0,.844-2.689V7.712a3.963,3.963,0,0,0-.8-2.637A2.834,2.834,0,0,0,35.7,4.12ZM44.182,9.862l.191,1.313.28-1.183,1.969-6.945h1.107L49.65,9.992l.273,1.2.212-1.34,1.545-6.809H53L50.587,13h-1.2L47.34,5.747l-.157-.759-.157.759L44.9,13H43.7L41.3,3.047h1.313ZM11.4,29H10.077L5.066,21.33V29H3.747V19.047H5.066l5.024,7.7v-7.7H11.4Zm1.8-3.767a4.369,4.369,0,0,1,.427-1.955,3.187,3.187,0,0,1,1.189-1.34,3.238,3.238,0,0,1,1.74-.472,3.119,3.119,0,0,1,2.444,1.046,4.024,4.024,0,0,1,.933,2.782v.089a4.407,4.407,0,0,1-.414,1.938,3.14,3.14,0,0,1-1.183,1.336,3.275,3.275,0,0,1-1.767.479,3.111,3.111,0,0,1-2.437-1.046,4,4,0,0,1-.933-2.769Zm1.271.15a3.164,3.164,0,0,0,.571,1.976,1.934,1.934,0,0,0,3.059-.01,3.46,3.46,0,0,0,.567-2.116,3.159,3.159,0,0,0-.578-1.972,1.836,1.836,0,0,0-1.535-.755,1.816,1.816,0,0,0-1.511.745A3.434,3.434,0,0,0,14.466,25.384Zm10.623-2.646a3.79,3.79,0,0,0-.622-.048,1.667,1.667,0,0,0-1.688,1.06V29H21.514V21.6h1.23l.021.854a1.969,1.969,0,0,1,1.764-.991,1.292,1.292,0,0,1,.561.1ZM27.44,21.6l.034.82a2.732,2.732,0,0,1,2.194-.957,2.115,2.115,0,0,1,2.112,1.189,2.8,2.8,0,0,1,.96-.861,2.837,2.837,0,0,1,1.4-.328q2.434,0,2.475,2.577V29H35.35V24.119a1.7,1.7,0,0,0-.362-1.186,1.6,1.6,0,0,0-1.217-.393,1.677,1.677,0,0,0-1.169.42,1.706,1.706,0,0,0-.54,1.131V29H30.79V24.153a1.411,1.411,0,0,0-1.579-1.613,1.692,1.692,0,0,0-1.7,1.06V29H26.244V21.6ZM43.088,29a2.657,2.657,0,0,1-.178-.779,2.822,2.822,0,0,1-2.105.916,2.611,2.611,0,0,1-1.794-.619,2,2,0,0,1-.7-1.569,2.091,2.091,0,0,1,.878-1.794,4.142,4.142,0,0,1,2.471-.639h1.23v-.581a1.42,1.42,0,0,0-.4-1.056,1.593,1.593,0,0,0-1.169-.393,1.844,1.844,0,0,0-1.135.342,1.007,1.007,0,0,0-.458.827H38.46a1.745,1.745,0,0,1,.393-1.07,2.683,2.683,0,0,1,1.066-.817,3.588,3.588,0,0,1,1.48-.3,2.924,2.924,0,0,1,2,.639,2.306,2.306,0,0,1,.752,1.76v3.4a4.162,4.162,0,0,0,.26,1.62V29Zm-2.1-.964a2.223,2.223,0,0,0,1.128-.308,1.861,1.861,0,0,0,.772-.8V25.411H41.9q-2.324,0-2.324,1.36a1.151,1.151,0,0,0,.4.93A1.524,1.524,0,0,0,40.989,28.036ZM47.511,29H46.246V18.5h1.265Zm3.4,0H49.644V21.6h1.265Zm-1.367-9.358a.755.755,0,0,1,.188-.52.706.706,0,0,1,.557-.212.717.717,0,0,1,.561.212.747.747,0,0,1,.191.52.722.722,0,0,1-.191.513.73.73,0,0,1-.561.205.718.718,0,0,1-.557-.205A.73.73,0,0,1,49.541,19.642Zm4.58,8.326h4.327V29H52.576v-.93l4.081-5.421h-4.02V21.6h5.605v.9ZM64.437,29a2.657,2.657,0,0,1-.178-.779,2.822,2.822,0,0,1-2.105.916,2.611,2.611,0,0,1-1.794-.619,2,2,0,0,1-.7-1.569,2.091,2.091,0,0,1,.878-1.794,4.142,4.142,0,0,1,2.471-.639h1.23v-.581a1.42,1.42,0,0,0-.4-1.056,1.593,1.593,0,0,0-1.169-.393,1.844,1.844,0,0,0-1.135.342,1.007,1.007,0,0,0-.458.827H59.809a1.745,1.745,0,0,1,.393-1.07,2.683,2.683,0,0,1,1.066-.817,3.588,3.588,0,0,1,1.48-.3,2.924,2.924,0,0,1,2,.639,2.306,2.306,0,0,1,.752,1.76v3.4a4.162,4.162,0,0,0,.26,1.62V29Zm-2.1-.964a2.223,2.223,0,0,0,1.128-.308,1.861,1.861,0,0,0,.772-.8V25.411h-.991q-2.324,0-2.324,1.36a1.151,1.151,0,0,0,.4.93A1.524,1.524,0,0,0,62.338,28.036Zm4.84-2.8a4.333,4.333,0,0,1,.807-2.738,2.745,2.745,0,0,1,4.17-.147V18.5h1.265V29H72.257l-.062-.793a2.575,2.575,0,0,1-2.112.93,2.526,2.526,0,0,1-2.1-1.053,4.382,4.382,0,0,1-.81-2.748Zm1.265.144a3.281,3.281,0,0,0,.52,1.969,1.68,1.68,0,0,0,1.436.711,1.845,1.845,0,0,0,1.757-1.08v-3.4a1.859,1.859,0,0,0-1.743-1.046,1.687,1.687,0,0,0-1.449.718A3.612,3.612,0,0,0,68.442,25.384Zm6.6-.15a4.369,4.369,0,0,1,.427-1.955,3.187,3.187,0,0,1,1.189-1.34,3.238,3.238,0,0,1,1.74-.472,3.119,3.119,0,0,1,2.444,1.046,4.024,4.024,0,0,1,.933,2.782v.089a4.407,4.407,0,0,1-.414,1.938,3.14,3.14,0,0,1-1.183,1.336,3.275,3.275,0,0,1-1.767.479,3.111,3.111,0,0,1-2.437-1.046,4,4,0,0,1-.933-2.769Zm1.271.15a3.164,3.164,0,0,0,.571,1.976,1.934,1.934,0,0,0,3.059-.01,3.46,3.46,0,0,0,.567-2.116,3.159,3.159,0,0,0-.578-1.972,1.836,1.836,0,0,0-1.535-.755,1.816,1.816,0,0,0-1.511.745A3.434,3.434,0,0,0,76.317,25.384Z" transform="translate(941 4976)" fill="#12263f"/>
    <path id="Trazado_204755" data-name="Trazado 204755" d="M214,126a47.5,47.5,0,1,1-47.5-47.5A47.5,47.5,0,0,1,214,126" transform="translate(705 4866.5)" opacity="0.35" fill="url(#radial-gradient-2)"/>
    <path id="Trazado_254817" data-name="Trazado 254817" d="M10.076,10.4H5.906L4.969,13H3.616l3.8-9.953H8.565L12.373,13H11.026ZM6.3,9.322H9.686l-1.7-4.655Zm6.9-.082A4.333,4.333,0,0,1,14.013,6.5a2.551,2.551,0,0,1,2.112-1.036,2.565,2.565,0,0,1,2.058.889V2.5h1.265V13H18.286l-.062-.793a2.575,2.575,0,0,1-2.112.93,2.526,2.526,0,0,1-2.1-1.053,4.382,4.382,0,0,1-.81-2.748Zm1.265.144a3.281,3.281,0,0,0,.52,1.969,1.68,1.68,0,0,0,1.436.711,1.845,1.845,0,0,0,1.757-1.08v-3.4A1.859,1.859,0,0,0,16.44,6.54a1.687,1.687,0,0,0-1.449.718A3.612,3.612,0,0,0,14.471,9.384ZM21.1,9.24a4.341,4.341,0,0,1,.8-2.758,2.823,2.823,0,0,1,4.218-.133l.055-.745h1.162v10.24H26.072V12.316a2.654,2.654,0,0,1-2.037.82A2.551,2.551,0,0,1,21.9,12.094a4.438,4.438,0,0,1-.8-2.765Zm1.265.144a3.291,3.291,0,0,0,.537,2,1.707,1.707,0,0,0,1.446.725,1.894,1.894,0,0,0,1.723-1V7.483a1.9,1.9,0,0,0-1.709-.978,1.72,1.72,0,0,0-1.456.728A3.583,3.583,0,0,0,22.367,9.384Zm11.566,2.885a2.686,2.686,0,0,1-2.167.868,2.3,2.3,0,0,1-1.8-.687,2.974,2.974,0,0,1-.625-2.034V5.6H30.6v4.778q0,1.682,1.367,1.682a1.893,1.893,0,0,0,1.928-1.08V5.6h1.265V13h-1.2ZM38.458,13H37.194V5.6h1.265ZM37.091,3.642a.755.755,0,0,1,.188-.52.706.706,0,0,1,.557-.212.717.717,0,0,1,.561.212.747.747,0,0,1,.191.52.722.722,0,0,1-.191.513.73.73,0,0,1-.561.205.718.718,0,0,1-.557-.205A.73.73,0,0,1,37.091,3.642Zm7.7,7.4a.931.931,0,0,0-.386-.8,3.718,3.718,0,0,0-1.347-.489,6.367,6.367,0,0,1-1.524-.492,2.169,2.169,0,0,1-.834-.684,1.635,1.635,0,0,1-.27-.943A1.919,1.919,0,0,1,41.2,6.1a3,3,0,0,1,1.965-.629,3.091,3.091,0,0,1,2.041.649,2.063,2.063,0,0,1,.783,1.661H44.713a1.142,1.142,0,0,0-.441-.9,1.652,1.652,0,0,0-1.111-.376,1.729,1.729,0,0,0-1.08.3.947.947,0,0,0-.39.786.767.767,0,0,0,.362.69,4.458,4.458,0,0,0,1.309.444,6.821,6.821,0,0,1,1.535.506,2.239,2.239,0,0,1,.872.708,1.74,1.74,0,0,1,.284,1.008,1.893,1.893,0,0,1-.793,1.589,3.326,3.326,0,0,1-2.058.6,3.725,3.725,0,0,1-1.572-.314,2.557,2.557,0,0,1-1.07-.878,2.117,2.117,0,0,1-.386-1.22h1.265a1.309,1.309,0,0,0,.509,1.008A1.976,1.976,0,0,0,43.2,12.1a2.039,2.039,0,0,0,1.152-.291A.893.893,0,0,0,44.789,11.038ZM49.075,13H47.81V5.6h1.265ZM47.708,3.642a.755.755,0,0,1,.188-.52.706.706,0,0,1,.557-.212.717.717,0,0,1,.561.212.747.747,0,0,1,.191.52.722.722,0,0,1-.191.513.73.73,0,0,1-.561.205.718.718,0,0,1-.557-.205A.73.73,0,0,1,47.708,3.642ZM54.065,12.1a1.822,1.822,0,0,0,1.183-.41,1.443,1.443,0,0,0,.561-1.025H57a2.293,2.293,0,0,1-.437,1.21,2.881,2.881,0,0,1-1.077.916,3.107,3.107,0,0,1-1.425.342,3.047,3.047,0,0,1-2.4-1.008A4.016,4.016,0,0,1,50.77,9.37V9.158a4.453,4.453,0,0,1,.4-1.921A3.02,3.02,0,0,1,52.3,5.932a3.233,3.233,0,0,1,1.753-.465,2.966,2.966,0,0,1,2.068.745A2.663,2.663,0,0,1,57,8.146h-1.2a1.743,1.743,0,0,0-.543-1.179,1.691,1.691,0,0,0-1.207-.461,1.77,1.77,0,0,0-1.494.694,3.259,3.259,0,0,0-.53,2.006v.239a3.194,3.194,0,0,0,.526,1.969A1.779,1.779,0,0,0,54.065,12.1ZM59.8,13H58.536V5.6H59.8ZM58.433,3.642a.755.755,0,0,1,.188-.52.706.706,0,0,1,.557-.212.717.717,0,0,1,.561.212.747.747,0,0,1,.191.52.722.722,0,0,1-.191.513.73.73,0,0,1-.561.205.718.718,0,0,1-.557-.205A.73.73,0,0,1,58.433,3.642Zm3.056,5.592a4.369,4.369,0,0,1,.427-1.955,3.187,3.187,0,0,1,1.189-1.34,3.238,3.238,0,0,1,1.74-.472,3.119,3.119,0,0,1,2.444,1.046,4.024,4.024,0,0,1,.933,2.782v.089a4.407,4.407,0,0,1-.414,1.938,3.14,3.14,0,0,1-1.183,1.336,3.275,3.275,0,0,1-1.767.479,3.111,3.111,0,0,1-2.437-1.046,4,4,0,0,1-.933-2.769Zm1.271.15a3.164,3.164,0,0,0,.571,1.976,1.934,1.934,0,0,0,3.059-.01,3.46,3.46,0,0,0,.567-2.116,3.159,3.159,0,0,0-.578-1.972,1.836,1.836,0,0,0-1.535-.755,1.816,1.816,0,0,0-1.511.745A3.435,3.435,0,0,0,62.76,9.384ZM65.419,2.5h1.531L65.119,4.51l-1.019,0ZM71,5.6l.041.93A2.7,2.7,0,0,1,73.26,5.467q2.345,0,2.365,2.646V13H74.361V8.105A1.7,1.7,0,0,0,74,6.923a1.466,1.466,0,0,0-1.118-.383,1.825,1.825,0,0,0-1.08.328,2.228,2.228,0,0,0-.725.861V13H69.808V5.6ZM2.6,25.24A4.333,4.333,0,0,1,3.4,22.5a2.551,2.551,0,0,1,2.112-1.036,2.565,2.565,0,0,1,2.058.889V18.5H8.838V29H7.676l-.062-.793a2.575,2.575,0,0,1-2.112.93,2.526,2.526,0,0,1-2.1-1.053,4.382,4.382,0,0,1-.81-2.748Zm1.265.144a3.281,3.281,0,0,0,.52,1.969,1.68,1.68,0,0,0,1.436.711,1.845,1.845,0,0,0,1.757-1.08v-3.4A1.859,1.859,0,0,0,5.831,22.54a1.687,1.687,0,0,0-1.449.718A3.612,3.612,0,0,0,3.862,25.384ZM13.87,29.137a3.232,3.232,0,0,1-2.447-.988,3.666,3.666,0,0,1-.943-2.642v-.232a4.438,4.438,0,0,1,.42-1.965,3.28,3.28,0,0,1,1.176-1.354,2.956,2.956,0,0,1,1.637-.489,2.77,2.77,0,0,1,2.242.95,4.114,4.114,0,0,1,.8,2.721v.526H11.744a2.629,2.629,0,0,0,.639,1.767,2.009,2.009,0,0,0,1.555.673,2.2,2.2,0,0,0,1.135-.273,2.851,2.851,0,0,0,.813-.725l.772.6A3.106,3.106,0,0,1,13.87,29.137Zm-.157-6.631a1.687,1.687,0,0,0-1.285.557,2.708,2.708,0,0,0-.643,1.562H15.49v-.1a2.409,2.409,0,0,0-.52-1.494A1.588,1.588,0,0,0,13.712,22.506Zm7.663,2.734a4.333,4.333,0,0,1,.807-2.738,2.745,2.745,0,0,1,4.17-.147V18.5h1.265V29H26.455l-.062-.793a2.575,2.575,0,0,1-2.112.93,2.526,2.526,0,0,1-2.1-1.053,4.382,4.382,0,0,1-.81-2.748Zm1.265.144a3.281,3.281,0,0,0,.52,1.969,1.68,1.68,0,0,0,1.436.711,1.845,1.845,0,0,0,1.757-1.08v-3.4a1.859,1.859,0,0,0-1.743-1.046,1.687,1.687,0,0,0-1.449.718A3.612,3.612,0,0,0,22.64,25.384ZM34.145,29a2.657,2.657,0,0,1-.178-.779,2.822,2.822,0,0,1-2.105.916,2.611,2.611,0,0,1-1.794-.619,2,2,0,0,1-.7-1.569,2.091,2.091,0,0,1,.878-1.794,4.141,4.141,0,0,1,2.471-.639h1.23v-.581a1.42,1.42,0,0,0-.4-1.056,1.593,1.593,0,0,0-1.169-.393,1.844,1.844,0,0,0-1.135.342,1.007,1.007,0,0,0-.458.827H29.517a1.745,1.745,0,0,1,.393-1.07,2.683,2.683,0,0,1,1.066-.817,3.588,3.588,0,0,1,1.48-.3,2.924,2.924,0,0,1,2,.639,2.306,2.306,0,0,1,.752,1.76v3.4a4.162,4.162,0,0,0,.26,1.62V29Zm-2.1-.964a2.223,2.223,0,0,0,1.128-.308,1.861,1.861,0,0,0,.772-.8V25.411h-.991q-2.324,0-2.324,1.36a1.151,1.151,0,0,0,.4.93A1.524,1.524,0,0,0,32.046,28.036Zm6.863-8.224V21.6h1.381v.978H38.91v4.593a1.027,1.027,0,0,0,.185.667.777.777,0,0,0,.629.222,3.062,3.062,0,0,0,.6-.082V29a3.688,3.688,0,0,1-.971.136,1.575,1.575,0,0,1-1.278-.513,2.2,2.2,0,0,1-.431-1.456V22.581H36.3V21.6h1.347V19.813ZM41.3,25.233a4.369,4.369,0,0,1,.427-1.955,3.187,3.187,0,0,1,1.189-1.34,3.238,3.238,0,0,1,1.74-.472A3.119,3.119,0,0,1,47.1,22.513a4.024,4.024,0,0,1,.933,2.782v.089a4.407,4.407,0,0,1-.414,1.938,3.14,3.14,0,0,1-1.183,1.336,3.275,3.275,0,0,1-1.767.479,3.111,3.111,0,0,1-2.437-1.046,4,4,0,0,1-.933-2.769Zm1.271.15a3.164,3.164,0,0,0,.571,1.976,1.934,1.934,0,0,0,3.059-.01,3.46,3.46,0,0,0,.567-2.116,3.159,3.159,0,0,0-.578-1.972,1.836,1.836,0,0,0-1.535-.755,1.816,1.816,0,0,0-1.511.745A3.434,3.434,0,0,0,42.567,25.384Zm11.354,1.654a.931.931,0,0,0-.386-.8,3.718,3.718,0,0,0-1.347-.489,6.367,6.367,0,0,1-1.524-.492,2.169,2.169,0,0,1-.834-.684,1.635,1.635,0,0,1-.27-.943,1.919,1.919,0,0,1,.769-1.538,3,3,0,0,1,1.965-.629,3.091,3.091,0,0,1,2.041.649,2.063,2.063,0,0,1,.783,1.661H53.846a1.142,1.142,0,0,0-.441-.9,1.652,1.652,0,0,0-1.111-.376,1.729,1.729,0,0,0-1.08.3.947.947,0,0,0-.39.786.767.767,0,0,0,.362.69,4.458,4.458,0,0,0,1.309.444,6.821,6.821,0,0,1,1.535.506,2.239,2.239,0,0,1,.872.708,1.74,1.74,0,0,1,.284,1.008,1.893,1.893,0,0,1-.793,1.589,3.326,3.326,0,0,1-2.058.6,3.725,3.725,0,0,1-1.572-.314,2.557,2.557,0,0,1-1.07-.878,2.117,2.117,0,0,1-.386-1.22h1.265a1.309,1.309,0,0,0,.509,1.008,1.976,1.976,0,0,0,1.254.373,2.039,2.039,0,0,0,1.152-.291A.893.893,0,0,0,53.921,27.038Zm6.07-1.8A4.333,4.333,0,0,1,60.8,22.5a2.745,2.745,0,0,1,4.17-.147V18.5h1.265V29H65.071l-.062-.793a2.575,2.575,0,0,1-2.112.93,2.526,2.526,0,0,1-2.1-1.053,4.382,4.382,0,0,1-.81-2.748Zm1.265.144a3.281,3.281,0,0,0,.52,1.969,1.68,1.68,0,0,0,1.436.711,1.845,1.845,0,0,0,1.757-1.08v-3.4a1.859,1.859,0,0,0-1.743-1.046,1.687,1.687,0,0,0-1.449.718A3.612,3.612,0,0,0,61.256,25.384Zm10.008,3.753a3.232,3.232,0,0,1-2.447-.988,3.666,3.666,0,0,1-.943-2.642v-.232a4.438,4.438,0,0,1,.42-1.965,3.28,3.28,0,0,1,1.176-1.354,2.956,2.956,0,0,1,1.637-.489,2.77,2.77,0,0,1,2.242.95,4.114,4.114,0,0,1,.8,2.721v.526H69.138a2.629,2.629,0,0,0,.639,1.767,2.009,2.009,0,0,0,1.555.673,2.2,2.2,0,0,0,1.135-.273,2.851,2.851,0,0,0,.813-.725l.772.6A3.106,3.106,0,0,1,71.264,29.137Zm-.157-6.631a1.687,1.687,0,0,0-1.285.557,2.708,2.708,0,0,0-.643,1.562h3.705v-.1a2.409,2.409,0,0,0-.52-1.494A1.588,1.588,0,0,0,71.107,22.506ZM76.986,29H75.721V18.5h1.265ZM13.812,45V35.047h2.81a4.523,4.523,0,0,1,2.3.574,3.884,3.884,0,0,1,1.542,1.634,5.318,5.318,0,0,1,.55,2.434v.636a5.336,5.336,0,0,1-.543,2.468,3.823,3.823,0,0,1-1.552,1.627A4.811,4.811,0,0,1,16.566,45Zm1.313-8.88v7.807H16.5a3,3,0,0,0,2.362-.944,3.9,3.9,0,0,0,.844-2.689v-.582a3.963,3.963,0,0,0-.8-2.637,2.834,2.834,0,0,0-2.259-.954Zm10.015,5.742.191,1.313.28-1.183,1.969-6.945h1.107l1.921,6.945.273,1.2.212-1.34,1.545-6.809h1.319L31.544,45h-1.2L28.3,37.747l-.157-.759-.157.759L25.856,45h-1.2l-2.406-9.953h1.313ZM41.75,45.137a3.232,3.232,0,0,1-2.447-.988,3.666,3.666,0,0,1-.943-2.642v-.232a4.438,4.438,0,0,1,.42-1.965,3.28,3.28,0,0,1,1.176-1.354,2.956,2.956,0,0,1,1.637-.489,2.77,2.77,0,0,1,2.242.95,4.114,4.114,0,0,1,.8,2.721v.526H39.624a2.629,2.629,0,0,0,.639,1.767,2.009,2.009,0,0,0,1.555.673,2.2,2.2,0,0,0,1.135-.273,2.851,2.851,0,0,0,.813-.725l.772.6A3.106,3.106,0,0,1,41.75,45.137Zm-.157-6.631a1.687,1.687,0,0,0-1.285.557,2.708,2.708,0,0,0-.643,1.562H43.37v-.1a2.409,2.409,0,0,0-.52-1.494A1.588,1.588,0,0,0,41.593,38.506Zm5.7-.9.041.93a2.7,2.7,0,0,1,2.215-1.066q2.345,0,2.365,2.646V45H50.65V40.105a1.7,1.7,0,0,0-.366-1.183,1.466,1.466,0,0,0-1.118-.383,1.825,1.825,0,0,0-1.08.328,2.228,2.228,0,0,0-.725.861V45H46.1V37.6ZM58.662,45H57.4V34.5h1.265Zm6.59,0a2.657,2.657,0,0,1-.178-.779,2.822,2.822,0,0,1-2.105.916,2.611,2.611,0,0,1-1.794-.619,2,2,0,0,1-.7-1.569,2.091,2.091,0,0,1,.878-1.794,4.142,4.142,0,0,1,2.471-.639h1.23v-.581a1.42,1.42,0,0,0-.4-1.056,1.593,1.593,0,0,0-1.169-.393,1.844,1.844,0,0,0-1.135.342,1.007,1.007,0,0,0-.458.827H60.624a1.745,1.745,0,0,1,.393-1.07,2.683,2.683,0,0,1,1.066-.817,3.588,3.588,0,0,1,1.48-.3,2.924,2.924,0,0,1,2,.639,2.306,2.306,0,0,1,.752,1.76v3.4a4.162,4.162,0,0,0,.26,1.62V45Zm-2.1-.964a2.223,2.223,0,0,0,1.128-.308,1.861,1.861,0,0,0,.772-.8V41.411h-.991q-2.324,0-2.324,1.36a1.151,1.151,0,0,0,.4.93A1.524,1.524,0,0,0,63.153,44.036ZM29.876,55.408h.95a2.088,2.088,0,0,0,1.408-.472,1.576,1.576,0,0,0,.513-1.237A1.544,1.544,0,0,0,31,51.949a1.813,1.813,0,0,0-1.309.468,1.639,1.639,0,0,0-.489,1.241H27.941a2.539,2.539,0,0,1,.865-1.965A3.15,3.15,0,0,1,31,50.91a3.113,3.113,0,0,1,2.208.745,2.692,2.692,0,0,1,.8,2.071,2.185,2.185,0,0,1-.42,1.258,2.538,2.538,0,0,1-1.145.909,2.446,2.446,0,0,1,1.268.861,2.392,2.392,0,0,1,.448,1.47,2.715,2.715,0,0,1-.875,2.126,3.277,3.277,0,0,1-2.276.786,3.363,3.363,0,0,1-2.28-.759,2.517,2.517,0,0,1-.878-2h1.271a1.627,1.627,0,0,0,.513,1.258,1.95,1.95,0,0,0,1.374.472,1.914,1.914,0,0,0,1.4-.479,1.844,1.844,0,0,0,.485-1.374,1.673,1.673,0,0,0-.533-1.333,2.323,2.323,0,0,0-1.538-.479h-.95Zm11.84,1.2H37.539V61H36.227V51.047h6.166V52.12H37.539v3.411h4.177Zm9.9,4.4H50.295l-5.011-7.67V61H43.965V51.047h1.319l5.024,7.7v-7.7h1.306Z" transform="translate(832 4966)" fill="#12263f"/>
    <path id="Trazado_204751" data-name="Trazado 204751" d="M600,174.019a8.009,8.009,0,0,1,8,8v30a8.009,8.009,0,0,1-8,8H490a8.009,8.009,0,0,1-8-8v-30a8.009,8.009,0,0,1,8-8Zm0-2H490a10,10,0,0,0-10,10v30a10,10,0,0,0,10,10H600a10,10,0,0,0,10-10v-30a10,10,0,0,0-10-10" transform="translate(705 4865.981)" fill="#084a93"/>
    <path id="Trazado_254820" data-name="Trazado 254820" d="M22.545,13l1.729-9.953,2.584.007a3.588,3.588,0,0,1,2.1.608A3.356,3.356,0,0,1,30.215,5.34a5.217,5.217,0,0,1,.226,2.4l-.068.5A5.628,5.628,0,0,1,28.684,11.7,4.91,4.91,0,0,1,25.2,13Zm2.823-8.88-1.354,7.8,1.265.007a3.554,3.554,0,0,0,2.458-.9A4.284,4.284,0,0,0,29.046,8.55a8.051,8.051,0,0,0,.164-2.14,2.606,2.606,0,0,0-.7-1.658,2.28,2.28,0,0,0-1.613-.625ZM35.854,13a1.657,1.657,0,0,1-.048-.39l.021-.39a3.032,3.032,0,0,1-2.16.916,2.21,2.21,0,0,1-1.589-.619A1.872,1.872,0,0,1,31.521,11a2.277,2.277,0,0,1,1.029-1.835,4.38,4.38,0,0,1,2.526-.66l1.292.007.082-.588a1.352,1.352,0,0,0-.256-1.049,1.237,1.237,0,0,0-.974-.4,1.908,1.908,0,0,0-1.125.311,1.324,1.324,0,0,0-.6.858l-1.244.007A1.983,1.983,0,0,1,32.758,6.5,2.943,2.943,0,0,1,33.9,5.723a3.688,3.688,0,0,1,1.442-.263,2.452,2.452,0,0,1,1.8.7,2.173,2.173,0,0,1,.54,1.788l-.6,3.664-.034.526a2.58,2.58,0,0,0,.082.745L37.112,13Zm-1.941-.957a2.158,2.158,0,0,0,1.125-.284,2.847,2.847,0,0,0,.913-.824l.267-1.524L35.28,9.4a3.547,3.547,0,0,0-1.791.369,1.36,1.36,0,0,0-.7,1.046,1.059,1.059,0,0,0,.243.865A1.156,1.156,0,0,0,33.913,12.043Zm8.142-8.23L41.74,5.6h1.347l-.171.978h-1.34l-.772,4.6a1.6,1.6,0,0,0-.007.328.521.521,0,0,0,.581.533,3.544,3.544,0,0,0,.6-.068l-.1,1.032a3.366,3.366,0,0,1-.9.123,1.292,1.292,0,0,1-1.107-.543,2.1,2.1,0,0,1-.287-1.425l.752-4.58H39.033L39.2,5.6H40.51l.314-1.791ZM47.817,13a1.657,1.657,0,0,1-.048-.39l.021-.39a3.032,3.032,0,0,1-2.16.916,2.21,2.21,0,0,1-1.589-.619A1.872,1.872,0,0,1,43.483,11a2.277,2.277,0,0,1,1.029-1.835,4.38,4.38,0,0,1,2.526-.66l1.292.007.082-.588a1.352,1.352,0,0,0-.256-1.049,1.237,1.237,0,0,0-.974-.4,1.908,1.908,0,0,0-1.125.311,1.324,1.324,0,0,0-.6.858l-1.244.007A1.983,1.983,0,0,1,44.721,6.5a2.943,2.943,0,0,1,1.142-.779A3.688,3.688,0,0,1,47.3,5.46a2.452,2.452,0,0,1,1.8.7,2.173,2.173,0,0,1,.54,1.788l-.6,3.664-.034.526a2.58,2.58,0,0,0,.082.745L49.075,13Zm-1.941-.957A2.158,2.158,0,0,0,47,11.759a2.847,2.847,0,0,0,.913-.824l.267-1.524L47.243,9.4a3.547,3.547,0,0,0-1.791.369,1.36,1.36,0,0,0-.7,1.046,1.059,1.059,0,0,0,.243.865A1.156,1.156,0,0,0,45.876,12.043Zm11.847-9,1.743,8.107,4.566-8.107h1.688L63.991,13H62.713L63.4,9.063l.813-4.006L59.7,13h-.984L56.937,4.9l-.615,4.293L55.658,13H54.373L56.1,3.047ZM70.629,13a1.657,1.657,0,0,1-.048-.39l.021-.39a3.032,3.032,0,0,1-2.16.916,2.21,2.21,0,0,1-1.589-.619A1.872,1.872,0,0,1,66.295,11a2.277,2.277,0,0,1,1.029-1.835,4.38,4.38,0,0,1,2.526-.66l1.292.007.082-.588a1.352,1.352,0,0,0-.256-1.049,1.237,1.237,0,0,0-.974-.4,1.908,1.908,0,0,0-1.125.311,1.324,1.324,0,0,0-.6.858l-1.244.007A1.983,1.983,0,0,1,67.532,6.5a2.943,2.943,0,0,1,1.142-.779,3.688,3.688,0,0,1,1.442-.263,2.452,2.452,0,0,1,1.8.7,2.173,2.173,0,0,1,.54,1.788l-.6,3.664-.034.526a2.58,2.58,0,0,0,.082.745L71.887,13Zm-1.941-.957a2.158,2.158,0,0,0,1.125-.284,2.847,2.847,0,0,0,.913-.824l.267-1.524L70.055,9.4a3.547,3.547,0,0,0-1.791.369,1.36,1.36,0,0,0-.7,1.046,1.059,1.059,0,0,0,.243.865A1.156,1.156,0,0,0,68.688,12.043Zm9.475-5.312-.581-.062a2.117,2.117,0,0,0-1.873,1.073L74.8,13H73.562l1.285-7.4,1.2-.007-.185.861a2.211,2.211,0,0,1,1.853-1,2.27,2.27,0,0,1,.588.1Zm3.671-2.919L81.519,5.6h1.347l-.171.978h-1.34l-.772,4.6a1.6,1.6,0,0,0-.007.328.521.521,0,0,0,.581.533,3.544,3.544,0,0,0,.6-.068l-.1,1.032a3.366,3.366,0,0,1-.9.123,1.292,1.292,0,0,1-1.107-.543,2.1,2.1,0,0,1-.287-1.425l.752-4.58H78.812l.171-.978h1.306L80.6,3.813ZM15.774,25.24a4.333,4.333,0,0,1,.807-2.738,2.745,2.745,0,0,1,4.17-.147V18.5h1.265V29H20.853l-.062-.793a2.575,2.575,0,0,1-2.112.93,2.526,2.526,0,0,1-2.1-1.053,4.382,4.382,0,0,1-.81-2.748Zm1.265.144a3.281,3.281,0,0,0,.52,1.969,1.68,1.68,0,0,0,1.436.711,1.845,1.845,0,0,0,1.757-1.08v-3.4a1.859,1.859,0,0,0-1.743-1.046,1.687,1.687,0,0,0-1.449.718A3.612,3.612,0,0,0,17.039,25.384Zm10.008,3.753a3.232,3.232,0,0,1-2.447-.988,3.666,3.666,0,0,1-.943-2.642v-.232a4.438,4.438,0,0,1,.42-1.965,3.28,3.28,0,0,1,1.176-1.354,2.956,2.956,0,0,1,1.637-.489,2.77,2.77,0,0,1,2.242.95,4.114,4.114,0,0,1,.8,2.721v.526H24.92a2.629,2.629,0,0,0,.639,1.767,2.009,2.009,0,0,0,1.555.673,2.2,2.2,0,0,0,1.135-.273,2.851,2.851,0,0,0,.813-.725l.772.6A3.106,3.106,0,0,1,27.046,29.137Zm-.157-6.631a1.687,1.687,0,0,0-1.285.557,2.708,2.708,0,0,0-.643,1.562h3.705v-.1a2.409,2.409,0,0,0-.52-1.494A1.588,1.588,0,0,0,26.889,22.506Zm13.658,2.1H36.371V29H35.058V19.047h6.166V20.12H36.371v3.411h4.177ZM43.972,29H42.708V21.6h1.265ZM42.6,19.642a.755.755,0,0,1,.188-.52.706.706,0,0,1,.557-.212.717.717,0,0,1,.561.212.747.747,0,0,1,.191.52.722.722,0,0,1-.191.513.73.73,0,0,1-.561.205.718.718,0,0,1-.557-.205A.73.73,0,0,1,42.6,19.642ZM47.192,21.6l.041.93a2.7,2.7,0,0,1,2.215-1.066q2.345,0,2.365,2.646V29H50.548V24.105a1.7,1.7,0,0,0-.366-1.183,1.466,1.466,0,0,0-1.118-.383,1.825,1.825,0,0,0-1.08.328,2.228,2.228,0,0,0-.725.861V29H46V21.6ZM58.287,29a2.657,2.657,0,0,1-.178-.779A2.822,2.822,0,0,1,56,29.137a2.611,2.611,0,0,1-1.794-.619,2,2,0,0,1-.7-1.569,2.091,2.091,0,0,1,.878-1.794,4.142,4.142,0,0,1,2.471-.639h1.23v-.581a1.42,1.42,0,0,0-.4-1.056,1.593,1.593,0,0,0-1.169-.393,1.844,1.844,0,0,0-1.135.342,1.007,1.007,0,0,0-.458.827H53.659a1.745,1.745,0,0,1,.393-1.07,2.683,2.683,0,0,1,1.066-.817,3.588,3.588,0,0,1,1.48-.3,2.924,2.924,0,0,1,2,.639,2.306,2.306,0,0,1,.752,1.76v3.4a4.162,4.162,0,0,0,.26,1.62V29Zm-2.1-.964a2.223,2.223,0,0,0,1.128-.308,1.861,1.861,0,0,0,.772-.8V25.411H57.1q-2.324,0-2.324,1.36a1.151,1.151,0,0,0,.4.93A1.524,1.524,0,0,0,56.188,28.036ZM62.532,21.6l.041.93a2.7,2.7,0,0,1,2.215-1.066q2.345,0,2.365,2.646V29H65.888V24.105a1.7,1.7,0,0,0-.366-1.183A1.466,1.466,0,0,0,64.4,22.54a1.825,1.825,0,0,0-1.08.328,2.228,2.228,0,0,0-.725.861V29H61.335V21.6Zm7.718,6.364h4.327V29H68.7v-.93l4.081-5.421h-4.02V21.6h5.605v.9ZM80.565,29a2.657,2.657,0,0,1-.178-.779,2.822,2.822,0,0,1-2.105.916,2.611,2.611,0,0,1-1.794-.619,2,2,0,0,1-.7-1.569,2.091,2.091,0,0,1,.878-1.794,4.141,4.141,0,0,1,2.471-.639h1.23v-.581a1.42,1.42,0,0,0-.4-1.056,1.593,1.593,0,0,0-1.169-.393,1.844,1.844,0,0,0-1.135.342,1.007,1.007,0,0,0-.458.827H75.937a1.745,1.745,0,0,1,.393-1.07,2.683,2.683,0,0,1,1.066-.817,3.588,3.588,0,0,1,1.48-.3,2.924,2.924,0,0,1,2,.639,2.306,2.306,0,0,1,.752,1.76v3.4a4.162,4.162,0,0,0,.26,1.62V29Zm-2.1-.964a2.223,2.223,0,0,0,1.128-.308,1.861,1.861,0,0,0,.772-.8V25.411h-.991q-2.324,0-2.324,1.36a1.151,1.151,0,0,0,.4.93A1.524,1.524,0,0,0,78.466,28.036Zm9.454-1a.931.931,0,0,0-.386-.8,3.718,3.718,0,0,0-1.347-.489,6.367,6.367,0,0,1-1.524-.492,2.169,2.169,0,0,1-.834-.684,1.635,1.635,0,0,1-.27-.943,1.919,1.919,0,0,1,.769-1.538,3,3,0,0,1,1.965-.629,3.091,3.091,0,0,1,2.041.649,2.063,2.063,0,0,1,.783,1.661H87.845a1.142,1.142,0,0,0-.441-.9,1.652,1.652,0,0,0-1.111-.376,1.729,1.729,0,0,0-1.08.3.947.947,0,0,0-.39.786.767.767,0,0,0,.362.69,4.458,4.458,0,0,0,1.309.444,6.821,6.821,0,0,1,1.535.506,2.239,2.239,0,0,1,.872.708,1.74,1.74,0,0,1,.284,1.008,1.893,1.893,0,0,1-.793,1.589,3.326,3.326,0,0,1-2.058.6,3.725,3.725,0,0,1-1.572-.314,2.557,2.557,0,0,1-1.07-.878,2.117,2.117,0,0,1-.386-1.22h1.265a1.309,1.309,0,0,0,.509,1.008,1.976,1.976,0,0,0,1.254.373,2.039,2.039,0,0,0,1.152-.291A.893.893,0,0,0,87.92,27.038Z" transform="translate(1198 5047)" fill="#12263f"/>
    <path id="Trazado_204756" data-name="Trazado 204756" d="M100,7.479H0v65H0c0,4.143,22.386,7.5,50,7.5s50-3.357,50-7.5h0Z" transform="translate(705 4865.521)" fill="url(#linear-gradient)"/>
    <path id="Trazado_204757" data-name="Trazado 204757" d="M100,7.5c0,4.142-22.386,7.5-50,7.5S0,11.642,0,7.5,22.386,0,50,0s50,3.358,50,7.5" transform="translate(705 4866)" fill="#ffb30b"/>
    <path id="Trazado_254816" data-name="Trazado 254816" d="M8.094,4.12h-3.2V13H3.589V4.12H.4V3.047h7.7Zm4.341,2.618a3.79,3.79,0,0,0-.622-.048,1.667,1.667,0,0,0-1.688,1.06V13H8.859V5.6h1.23l.021.854a1.969,1.969,0,0,1,1.764-.991,1.292,1.292,0,0,1,.561.1ZM17.89,13a2.657,2.657,0,0,1-.178-.779,2.822,2.822,0,0,1-2.105.916,2.611,2.611,0,0,1-1.794-.619,2,2,0,0,1-.7-1.569,2.091,2.091,0,0,1,.878-1.794,4.142,4.142,0,0,1,2.471-.639h1.23V7.935a1.42,1.42,0,0,0-.4-1.056,1.593,1.593,0,0,0-1.169-.393,1.844,1.844,0,0,0-1.135.342,1.007,1.007,0,0,0-.458.827H13.262a1.745,1.745,0,0,1,.393-1.07,2.683,2.683,0,0,1,1.066-.817,3.588,3.588,0,0,1,1.48-.3,2.924,2.924,0,0,1,2,.639,2.306,2.306,0,0,1,.752,1.76v3.4a4.162,4.162,0,0,0,.26,1.62V13Zm-2.1-.964a2.223,2.223,0,0,0,1.128-.308,1.861,1.861,0,0,0,.772-.8V9.411H16.7q-2.324,0-2.324,1.36a1.151,1.151,0,0,0,.4.93A1.524,1.524,0,0,0,15.791,12.036ZM22.135,5.6l.041.93a2.7,2.7,0,0,1,2.215-1.066q2.345,0,2.365,2.646V13H25.491V8.105a1.7,1.7,0,0,0-.366-1.183,1.466,1.466,0,0,0-1.118-.383,1.825,1.825,0,0,0-1.08.328,2.228,2.228,0,0,0-.725.861V13H20.938V5.6ZM32.97,11.038a.931.931,0,0,0-.386-.8,3.718,3.718,0,0,0-1.347-.489,6.367,6.367,0,0,1-1.524-.492,2.169,2.169,0,0,1-.834-.684,1.635,1.635,0,0,1-.27-.943A1.919,1.919,0,0,1,29.377,6.1a3,3,0,0,1,1.965-.629,3.091,3.091,0,0,1,2.041.649,2.063,2.063,0,0,1,.783,1.661H32.895a1.142,1.142,0,0,0-.441-.9,1.652,1.652,0,0,0-1.111-.376,1.729,1.729,0,0,0-1.08.3.947.947,0,0,0-.39.786.767.767,0,0,0,.362.69,4.458,4.458,0,0,0,1.309.444,6.821,6.821,0,0,1,1.535.506,2.239,2.239,0,0,1,.872.708,1.74,1.74,0,0,1,.284,1.008,1.893,1.893,0,0,1-.793,1.589,3.326,3.326,0,0,1-2.058.6,3.725,3.725,0,0,1-1.572-.314,2.557,2.557,0,0,1-1.07-.878,2.117,2.117,0,0,1-.386-1.22H29.62a1.309,1.309,0,0,0,.509,1.008,1.976,1.976,0,0,0,1.254.373,2.039,2.039,0,0,0,1.152-.291A.893.893,0,0,0,32.97,11.038ZM40.448,13a2.657,2.657,0,0,1-.178-.779,2.822,2.822,0,0,1-2.105.916,2.611,2.611,0,0,1-1.794-.619,2,2,0,0,1-.7-1.569,2.091,2.091,0,0,1,.878-1.794,4.142,4.142,0,0,1,2.471-.639h1.23V7.935a1.42,1.42,0,0,0-.4-1.056,1.593,1.593,0,0,0-1.169-.393,1.844,1.844,0,0,0-1.135.342,1.007,1.007,0,0,0-.458.827H35.82a1.745,1.745,0,0,1,.393-1.07,2.683,2.683,0,0,1,1.066-.817,3.588,3.588,0,0,1,1.48-.3,2.924,2.924,0,0,1,2,.639,2.306,2.306,0,0,1,.752,1.76v3.4a4.162,4.162,0,0,0,.26,1.62V13Zm-2.1-.964a2.223,2.223,0,0,0,1.128-.308,1.861,1.861,0,0,0,.772-.8V9.411h-.991q-2.324,0-2.324,1.36a1.151,1.151,0,0,0,.4.93A1.524,1.524,0,0,0,38.35,12.036Zm8.114.068a1.822,1.822,0,0,0,1.183-.41,1.443,1.443,0,0,0,.561-1.025h1.2a2.293,2.293,0,0,1-.437,1.21,2.881,2.881,0,0,1-1.077.916,3.107,3.107,0,0,1-1.425.342,3.047,3.047,0,0,1-2.4-1.008,4.016,4.016,0,0,1-.892-2.758V9.158a4.453,4.453,0,0,1,.4-1.921A3.02,3.02,0,0,1,44.7,5.932a3.233,3.233,0,0,1,1.753-.465,2.966,2.966,0,0,1,2.068.745A2.663,2.663,0,0,1,49.4,8.146h-1.2a1.743,1.743,0,0,0-.543-1.179,1.691,1.691,0,0,0-1.207-.461,1.77,1.77,0,0,0-1.494.694,3.259,3.259,0,0,0-.53,2.006v.239a3.194,3.194,0,0,0,.526,1.969A1.779,1.779,0,0,0,46.464,12.1Zm7.328,0a1.822,1.822,0,0,0,1.183-.41,1.443,1.443,0,0,0,.561-1.025h1.2a2.293,2.293,0,0,1-.437,1.21,2.881,2.881,0,0,1-1.077.916,3.107,3.107,0,0,1-1.425.342,3.047,3.047,0,0,1-2.4-1.008A4.016,4.016,0,0,1,50.5,9.37V9.158a4.453,4.453,0,0,1,.4-1.921,3.02,3.02,0,0,1,1.138-1.306,3.233,3.233,0,0,1,1.753-.465,2.966,2.966,0,0,1,2.068.745,2.663,2.663,0,0,1,.878,1.935h-1.2a1.743,1.743,0,0,0-.543-1.179,1.691,1.691,0,0,0-1.207-.461,1.77,1.77,0,0,0-1.494.694,3.259,3.259,0,0,0-.53,2.006v.239a3.194,3.194,0,0,0,.526,1.969A1.779,1.779,0,0,0,53.792,12.1Zm5.735.9H58.263V5.6h1.265ZM58.16,3.642a.755.755,0,0,1,.188-.52.706.706,0,0,1,.557-.212.717.717,0,0,1,.561.212.747.747,0,0,1,.191.52.722.722,0,0,1-.191.513.73.73,0,0,1-.561.205.718.718,0,0,1-.557-.205A.73.73,0,0,1,58.16,3.642Zm3.056,5.592a4.369,4.369,0,0,1,.427-1.955,3.187,3.187,0,0,1,1.189-1.34,3.238,3.238,0,0,1,1.74-.472,3.119,3.119,0,0,1,2.444,1.046,4.024,4.024,0,0,1,.933,2.782v.089a4.407,4.407,0,0,1-.414,1.938,3.14,3.14,0,0,1-1.183,1.336,3.275,3.275,0,0,1-1.767.479,3.111,3.111,0,0,1-2.437-1.046,4,4,0,0,1-.933-2.769Zm1.271.15a3.164,3.164,0,0,0,.571,1.976,1.934,1.934,0,0,0,3.059-.01,3.46,3.46,0,0,0,.567-2.116,3.159,3.159,0,0,0-.578-1.972,1.836,1.836,0,0,0-1.535-.755,1.816,1.816,0,0,0-1.511.745A3.435,3.435,0,0,0,62.487,9.384ZM70.731,5.6l.041.93a2.7,2.7,0,0,1,2.215-1.066q2.345,0,2.365,2.646V13H74.088V8.105a1.7,1.7,0,0,0-.366-1.183A1.466,1.466,0,0,0,72.6,6.54a1.825,1.825,0,0,0-1.08.328,2.228,2.228,0,0,0-.725.861V13H69.535V5.6Zm9.6,7.533a3.232,3.232,0,0,1-2.447-.988,3.666,3.666,0,0,1-.943-2.642V9.274a4.438,4.438,0,0,1,.42-1.965,3.28,3.28,0,0,1,1.176-1.354,2.956,2.956,0,0,1,1.637-.489,2.77,2.77,0,0,1,2.242.95,4.114,4.114,0,0,1,.8,2.721v.526H78.2a2.629,2.629,0,0,0,.639,1.767A2.009,2.009,0,0,0,80.4,12.1a2.2,2.2,0,0,0,1.135-.273,2.851,2.851,0,0,0,.813-.725l.772.6A3.106,3.106,0,0,1,80.329,13.137Zm-.157-6.631a1.687,1.687,0,0,0-1.285.557,2.708,2.708,0,0,0-.643,1.562h3.705v-.1a2.409,2.409,0,0,0-.52-1.494A1.588,1.588,0,0,0,80.172,6.506Zm8.812,4.532a.931.931,0,0,0-.386-.8,3.718,3.718,0,0,0-1.347-.489,6.367,6.367,0,0,1-1.524-.492,2.169,2.169,0,0,1-.834-.684,1.635,1.635,0,0,1-.27-.943A1.919,1.919,0,0,1,85.391,6.1a3,3,0,0,1,1.965-.629,3.091,3.091,0,0,1,2.041.649,2.063,2.063,0,0,1,.783,1.661H88.908a1.142,1.142,0,0,0-.441-.9,1.652,1.652,0,0,0-1.111-.376,1.729,1.729,0,0,0-1.08.3.947.947,0,0,0-.39.786.767.767,0,0,0,.362.69,4.458,4.458,0,0,0,1.309.444,6.821,6.821,0,0,1,1.535.506,2.239,2.239,0,0,1,.872.708,1.74,1.74,0,0,1,.284,1.008,1.893,1.893,0,0,1-.793,1.589,3.326,3.326,0,0,1-2.058.6,3.725,3.725,0,0,1-1.572-.314,2.557,2.557,0,0,1-1.07-.878,2.117,2.117,0,0,1-.386-1.22h1.265a1.309,1.309,0,0,0,.509,1.008A1.976,1.976,0,0,0,87.4,12.1a2.039,2.039,0,0,0,1.152-.291A.893.893,0,0,0,88.983,11.038ZM18.946,25.24a4.333,4.333,0,0,1,.807-2.738,2.745,2.745,0,0,1,4.17-.147V18.5h1.265V29H24.025l-.062-.793a2.575,2.575,0,0,1-2.112.93,2.526,2.526,0,0,1-2.1-1.053,4.382,4.382,0,0,1-.81-2.748Zm1.265.144a3.281,3.281,0,0,0,.52,1.969,1.68,1.68,0,0,0,1.436.711,1.845,1.845,0,0,0,1.757-1.08v-3.4a1.859,1.859,0,0,0-1.743-1.046,1.687,1.687,0,0,0-1.449.718A3.612,3.612,0,0,0,20.21,25.384Zm10.008,3.753a3.232,3.232,0,0,1-2.447-.988,3.666,3.666,0,0,1-.943-2.642v-.232a4.438,4.438,0,0,1,.42-1.965,3.28,3.28,0,0,1,1.176-1.354,2.956,2.956,0,0,1,1.637-.489,2.77,2.77,0,0,1,2.242.95,4.114,4.114,0,0,1,.8,2.721v.526H28.092a2.629,2.629,0,0,0,.639,1.767,2.009,2.009,0,0,0,1.555.673,2.2,2.2,0,0,0,1.135-.273,2.851,2.851,0,0,0,.813-.725l.772.6A3.106,3.106,0,0,1,30.218,29.137Zm-.157-6.631a1.687,1.687,0,0,0-1.285.557,2.708,2.708,0,0,0-.643,1.562h3.705v-.1a2.409,2.409,0,0,0-.52-1.494A1.588,1.588,0,0,0,30.061,22.506ZM37.7,25.233a4.369,4.369,0,0,1,.427-1.955,3.187,3.187,0,0,1,1.189-1.34,3.238,3.238,0,0,1,1.74-.472A3.119,3.119,0,0,1,43.5,22.513a4.024,4.024,0,0,1,.933,2.782v.089a4.407,4.407,0,0,1-.414,1.938,3.14,3.14,0,0,1-1.183,1.336,3.275,3.275,0,0,1-1.767.479,3.111,3.111,0,0,1-2.437-1.046,4,4,0,0,1-.933-2.769Zm1.271.15a3.164,3.164,0,0,0,.571,1.976,1.934,1.934,0,0,0,3.059-.01,3.46,3.46,0,0,0,.567-2.116,3.159,3.159,0,0,0-.578-1.972,1.836,1.836,0,0,0-1.535-.755,1.816,1.816,0,0,0-1.511.745A3.434,3.434,0,0,0,38.968,25.384Zm10.623-2.646a3.79,3.79,0,0,0-.622-.048,1.667,1.667,0,0,0-1.688,1.06V29H46.016V21.6h1.23l.021.854a1.969,1.969,0,0,1,1.764-.991,1.292,1.292,0,0,1,.561.1Zm.725,2.5a4.333,4.333,0,0,1,.807-2.738,2.745,2.745,0,0,1,4.17-.147V18.5h1.265V29H55.4l-.062-.793a2.575,2.575,0,0,1-2.112.93,2.526,2.526,0,0,1-2.1-1.053,4.382,4.382,0,0,1-.81-2.748Zm1.265.144a3.281,3.281,0,0,0,.52,1.969,1.68,1.68,0,0,0,1.436.711,1.845,1.845,0,0,0,1.757-1.08v-3.4a1.859,1.859,0,0,0-1.743-1.046,1.687,1.687,0,0,0-1.449.718A3.612,3.612,0,0,0,51.581,25.384Zm10.008,3.753a3.232,3.232,0,0,1-2.447-.988,3.666,3.666,0,0,1-.943-2.642v-.232a4.438,4.438,0,0,1,.42-1.965,3.279,3.279,0,0,1,1.176-1.354,2.956,2.956,0,0,1,1.637-.489,2.77,2.77,0,0,1,2.242.95,4.114,4.114,0,0,1,.8,2.721v.526H59.462a2.629,2.629,0,0,0,.639,1.767,2.009,2.009,0,0,0,1.555.673,2.2,2.2,0,0,0,1.135-.273,2.851,2.851,0,0,0,.813-.725l.772.6A3.106,3.106,0,0,1,61.588,29.137Zm-.157-6.631a1.687,1.687,0,0,0-1.285.557,2.708,2.708,0,0,0-.643,1.562h3.705v-.1a2.409,2.409,0,0,0-.52-1.494A1.588,1.588,0,0,0,61.431,22.506Zm5.7-.9.041.93a2.7,2.7,0,0,1,2.215-1.066q2.345,0,2.365,2.646V29H70.489V24.105a1.7,1.7,0,0,0-.366-1.183,1.466,1.466,0,0,0-1.118-.383,1.825,1.825,0,0,0-1.08.328,2.228,2.228,0,0,0-.725.861V29H65.936V21.6Z" transform="translate(710 4893)" fill="#12263f"/>
    <path id="Trazado_204758" data-name="Trazado 204758" d="M100,93.489H0v65H0c0,4.143,22.386,7.5,50,7.5s50-3.357,50-7.5h0Z" transform="translate(705 4865.511)" fill="url(#linear-gradient-2)"/>
    <path id="Trazado_204759" data-name="Trazado 204759" d="M100,93.51c0,4.142-22.386,7.5-50,7.5S0,97.652,0,93.51s22.386-7.5,50-7.5,50,3.358,50,7.5" transform="translate(705 4866)" fill="#97afc8"/>
    <path id="Trazado_254815" data-name="Trazado 254815" d="M8.727,13H7.414V3.047H8.727Zm3.4-7.4.041.93A2.7,2.7,0,0,1,14.38,5.467q2.345,0,2.365,2.646V13H15.48V8.105a1.7,1.7,0,0,0-.366-1.183A1.466,1.466,0,0,0,14,6.54a1.825,1.825,0,0,0-1.08.328,2.228,2.228,0,0,0-.725.861V13H10.928V5.6Zm8.969,5.681L22.925,5.6h1.292L21.564,13H20.6l-2.68-7.4h1.292Zm7.321,1.853a3.232,3.232,0,0,1-2.447-.988,3.666,3.666,0,0,1-.943-2.642V9.274a4.438,4.438,0,0,1,.42-1.965A3.28,3.28,0,0,1,26.62,5.956a2.956,2.956,0,0,1,1.637-.489,2.77,2.77,0,0,1,2.242.95,4.114,4.114,0,0,1,.8,2.721v.526H26.288a2.629,2.629,0,0,0,.639,1.767,2.009,2.009,0,0,0,1.555.673,2.2,2.2,0,0,0,1.135-.273,2.851,2.851,0,0,0,.813-.725l.772.6A3.106,3.106,0,0,1,28.414,13.137Zm-.157-6.631a1.687,1.687,0,0,0-1.285.557,2.708,2.708,0,0,0-.643,1.562h3.705v-.1a2.409,2.409,0,0,0-.52-1.494A1.588,1.588,0,0,0,28.257,6.506Zm5.7-.9.041.93a2.7,2.7,0,0,1,2.215-1.066q2.345,0,2.365,2.646V13H37.314V8.105a1.7,1.7,0,0,0-.366-1.183,1.466,1.466,0,0,0-1.118-.383,1.825,1.825,0,0,0-1.08.328,2.228,2.228,0,0,0-.725.861V13H32.762V5.6ZM42.2,3.813V5.6h1.381v.978H42.2v4.593a1.027,1.027,0,0,0,.185.667.777.777,0,0,0,.629.222,3.062,3.062,0,0,0,.6-.082V13a3.688,3.688,0,0,1-.971.136,1.575,1.575,0,0,1-1.278-.513,2.2,2.2,0,0,1-.431-1.456V6.581H39.591V5.6h1.347V3.813ZM49.626,13a2.657,2.657,0,0,1-.178-.779,2.822,2.822,0,0,1-2.105.916,2.611,2.611,0,0,1-1.794-.619,2,2,0,0,1-.7-1.569,2.091,2.091,0,0,1,.878-1.794A4.142,4.142,0,0,1,48.2,8.516h1.23V7.935a1.42,1.42,0,0,0-.4-1.056,1.593,1.593,0,0,0-1.169-.393,1.844,1.844,0,0,0-1.135.342,1.007,1.007,0,0,0-.458.827H45a1.745,1.745,0,0,1,.393-1.07,2.683,2.683,0,0,1,1.066-.817,3.588,3.588,0,0,1,1.48-.3,2.924,2.924,0,0,1,2,.639,2.306,2.306,0,0,1,.752,1.76v3.4a4.162,4.162,0,0,0,.26,1.62V13Zm-2.1-.964a2.223,2.223,0,0,0,1.128-.308,1.861,1.861,0,0,0,.772-.8V9.411h-.991q-2.324,0-2.324,1.36a1.151,1.151,0,0,0,.4.93A1.524,1.524,0,0,0,47.527,12.036Zm8.723-5.3a3.79,3.79,0,0,0-.622-.048,1.667,1.667,0,0,0-1.688,1.06V13H52.675V5.6h1.23l.021.854a1.969,1.969,0,0,1,1.764-.991,1.292,1.292,0,0,1,.561.1ZM58.786,13H57.521V5.6h1.265ZM57.419,3.642a.755.755,0,0,1,.188-.52.706.706,0,0,1,.557-.212.717.717,0,0,1,.561.212.747.747,0,0,1,.191.52.722.722,0,0,1-.191.513.73.73,0,0,1-.561.205.718.718,0,0,1-.557-.205A.73.73,0,0,1,57.419,3.642Zm3.056,5.592A4.369,4.369,0,0,1,60.9,7.278a3.187,3.187,0,0,1,1.189-1.34,3.238,3.238,0,0,1,1.74-.472,3.119,3.119,0,0,1,2.444,1.046,4.024,4.024,0,0,1,.933,2.782v.089a4.407,4.407,0,0,1-.414,1.938,3.14,3.14,0,0,1-1.183,1.336,3.275,3.275,0,0,1-1.767.479,3.111,3.111,0,0,1-2.437-1.046,4,4,0,0,1-.933-2.769Zm1.271.15a3.164,3.164,0,0,0,.571,1.976,1.934,1.934,0,0,0,3.059-.01,3.46,3.46,0,0,0,.567-2.116,3.159,3.159,0,0,0-.578-1.972,1.836,1.836,0,0,0-1.535-.755,1.816,1.816,0,0,0-1.511.745A3.435,3.435,0,0,0,61.746,9.384ZM.729,25.24A4.333,4.333,0,0,1,1.535,22.5a2.551,2.551,0,0,1,2.112-1.036,2.565,2.565,0,0,1,2.058.889V18.5H6.97V29H5.808l-.062-.793a2.575,2.575,0,0,1-2.112.93,2.526,2.526,0,0,1-2.1-1.053,4.382,4.382,0,0,1-.81-2.748Zm1.265.144a3.281,3.281,0,0,0,.52,1.969,1.68,1.68,0,0,0,1.436.711,1.845,1.845,0,0,0,1.757-1.08v-3.4A1.859,1.859,0,0,0,3.962,22.54a1.687,1.687,0,0,0-1.449.718A3.612,3.612,0,0,0,1.993,25.384ZM12,29.137a3.232,3.232,0,0,1-2.447-.988,3.666,3.666,0,0,1-.943-2.642v-.232a4.438,4.438,0,0,1,.42-1.965,3.28,3.28,0,0,1,1.176-1.354,2.956,2.956,0,0,1,1.637-.489,2.77,2.77,0,0,1,2.242.95,4.114,4.114,0,0,1,.8,2.721v.526H9.875a2.629,2.629,0,0,0,.639,1.767,2.009,2.009,0,0,0,1.555.673,2.2,2.2,0,0,0,1.135-.273,2.851,2.851,0,0,0,.813-.725l.772.6A3.106,3.106,0,0,1,12,29.137Zm-.157-6.631a1.687,1.687,0,0,0-1.285.557,2.708,2.708,0,0,0-.643,1.562h3.705v-.1a2.409,2.409,0,0,0-.52-1.494A1.588,1.588,0,0,0,11.844,22.506ZM17.723,29H16.458V18.5h1.265Zm9.338-4.026H24.723V29H23.4V19.047H26.7a3.9,3.9,0,0,1,2.587.766,2.755,2.755,0,0,1,.906,2.229,2.68,2.68,0,0,1-.5,1.62,3,3,0,0,1-1.4,1.032l2.338,4.225V29H29.221ZM24.723,23.9h2.017a2.275,2.275,0,0,0,1.555-.507,1.714,1.714,0,0,0,.578-1.356,1.8,1.8,0,0,0-.55-1.418,2.33,2.33,0,0,0-1.589-.5h-2.01ZM34.9,29.137a3.232,3.232,0,0,1-2.447-.988,3.666,3.666,0,0,1-.943-2.642v-.232a4.438,4.438,0,0,1,.42-1.965,3.279,3.279,0,0,1,1.176-1.354,2.956,2.956,0,0,1,1.637-.489,2.77,2.77,0,0,1,2.242.95,4.114,4.114,0,0,1,.8,2.721v.526H32.775a2.629,2.629,0,0,0,.639,1.767,2.009,2.009,0,0,0,1.555.673,2.2,2.2,0,0,0,1.135-.273,2.851,2.851,0,0,0,.813-.725l.772.6A3.106,3.106,0,0,1,34.9,29.137Zm-.157-6.631a1.687,1.687,0,0,0-1.285.557,2.708,2.708,0,0,0-.643,1.562h3.705v-.1A2.409,2.409,0,0,0,36,23.036,1.588,1.588,0,0,0,34.744,22.506Zm4.2,2.734a4.347,4.347,0,0,1,.8-2.751,2.757,2.757,0,0,1,4.231-.065l.062-.82H45.2v7.219a3.009,3.009,0,0,1-.851,2.263,3.141,3.141,0,0,1-2.287.827,3.8,3.8,0,0,1-1.565-.342,2.7,2.7,0,0,1-1.169-.937l.656-.759a2.473,2.473,0,0,0,1.989,1,1.938,1.938,0,0,0,1.439-.52,1.986,1.986,0,0,0,.516-1.463v-.636a2.6,2.6,0,0,1-2.071.875,2.526,2.526,0,0,1-2.1-1.046A4.571,4.571,0,0,1,38.948,25.24Zm1.271.144a3.316,3.316,0,0,0,.513,1.965,1.666,1.666,0,0,0,1.436.714,1.852,1.852,0,0,0,1.757-1.087V23.6a1.874,1.874,0,0,0-1.743-1.06,1.681,1.681,0,0,0-1.442.718A3.612,3.612,0,0,0,40.22,25.384ZM48.478,29H47.213V21.6h1.265ZM47.11,19.642a.755.755,0,0,1,.188-.52.706.706,0,0,1,.557-.212.717.717,0,0,1,.561.212.747.747,0,0,1,.191.52.722.722,0,0,1-.191.513.73.73,0,0,1-.561.205.718.718,0,0,1-.557-.205A.73.73,0,0,1,47.11,19.642Zm7.7,7.4a.931.931,0,0,0-.386-.8,3.718,3.718,0,0,0-1.347-.489,6.367,6.367,0,0,1-1.524-.492,2.169,2.169,0,0,1-.834-.684,1.635,1.635,0,0,1-.27-.943,1.919,1.919,0,0,1,.769-1.538,3,3,0,0,1,1.965-.629,3.091,3.091,0,0,1,2.041.649A2.063,2.063,0,0,1,56,23.777H54.732a1.142,1.142,0,0,0-.441-.9,1.652,1.652,0,0,0-1.111-.376,1.729,1.729,0,0,0-1.08.3.947.947,0,0,0-.39.786.767.767,0,0,0,.362.69,4.458,4.458,0,0,0,1.309.444,6.821,6.821,0,0,1,1.535.506,2.239,2.239,0,0,1,.872.708,1.74,1.74,0,0,1,.284,1.008,1.893,1.893,0,0,1-.793,1.589,3.326,3.326,0,0,1-2.058.6,3.725,3.725,0,0,1-1.572-.314,2.557,2.557,0,0,1-1.07-.878,2.117,2.117,0,0,1-.386-1.22h1.265a1.309,1.309,0,0,0,.509,1.008,1.976,1.976,0,0,0,1.254.373,2.039,2.039,0,0,0,1.152-.291A.893.893,0,0,0,54.808,27.038Zm4.628-7.226V21.6h1.381v.978H59.436v4.593a1.027,1.027,0,0,0,.185.667.777.777,0,0,0,.629.222,3.062,3.062,0,0,0,.6-.082V29a3.688,3.688,0,0,1-.971.136,1.575,1.575,0,0,1-1.278-.513,2.2,2.2,0,0,1-.431-1.456V22.581H56.824V21.6h1.347V19.813Zm6.433,2.926a3.79,3.79,0,0,0-.622-.048,1.667,1.667,0,0,0-1.688,1.06V29H62.293V21.6h1.23l.021.854a1.969,1.969,0,0,1,1.764-.991,1.292,1.292,0,0,1,.561.1Zm.69,2.5a4.369,4.369,0,0,1,.427-1.955,3.187,3.187,0,0,1,1.189-1.34,3.238,3.238,0,0,1,1.74-.472,3.119,3.119,0,0,1,2.444,1.046,4.024,4.024,0,0,1,.933,2.782v.089a4.407,4.407,0,0,1-.414,1.938A3.14,3.14,0,0,1,71.7,28.658a3.275,3.275,0,0,1-1.767.479,3.111,3.111,0,0,1-2.437-1.046,4,4,0,0,1-.933-2.769Zm1.271.15a3.164,3.164,0,0,0,.571,1.976,1.934,1.934,0,0,0,3.059-.01,3.46,3.46,0,0,0,.567-2.116,3.159,3.159,0,0,0-.578-1.972,1.836,1.836,0,0,0-1.535-.755,1.816,1.816,0,0,0-1.511.745A3.434,3.434,0,0,0,67.83,25.384ZM2.574,45H1.262V35.047H2.574Zm3.4-7.4.041.93a2.7,2.7,0,0,1,2.215-1.066q2.345,0,2.365,2.646V45H9.328V40.105a1.7,1.7,0,0,0-.366-1.183,1.466,1.466,0,0,0-1.118-.383,1.825,1.825,0,0,0-1.08.328,2.228,2.228,0,0,0-.725.861V45H4.775V37.6Zm10.835,5.435a.931.931,0,0,0-.386-.8,3.718,3.718,0,0,0-1.347-.489,6.367,6.367,0,0,1-1.524-.492,2.169,2.169,0,0,1-.834-.684,1.635,1.635,0,0,1-.27-.943,1.919,1.919,0,0,1,.769-1.538,3,3,0,0,1,1.965-.629,3.091,3.091,0,0,1,2.041.649A2.063,2.063,0,0,1,18,39.777H16.731a1.142,1.142,0,0,0-.441-.9,1.652,1.652,0,0,0-1.111-.376,1.729,1.729,0,0,0-1.08.3.947.947,0,0,0-.39.786.767.767,0,0,0,.362.69,4.458,4.458,0,0,0,1.309.444,6.821,6.821,0,0,1,1.535.506,2.239,2.239,0,0,1,.872.708,1.74,1.74,0,0,1,.284,1.008,1.893,1.893,0,0,1-.793,1.589,3.326,3.326,0,0,1-2.058.6,3.725,3.725,0,0,1-1.572-.314,2.557,2.557,0,0,1-1.07-.878,2.117,2.117,0,0,1-.386-1.22h1.265a1.309,1.309,0,0,0,.509,1.008,1.976,1.976,0,0,0,1.254.373,2.039,2.039,0,0,0,1.152-.291A.893.893,0,0,0,16.807,43.038Zm4.628-7.226V37.6h1.381v.978H21.435v4.593a1.027,1.027,0,0,0,.185.667.777.777,0,0,0,.629.222,3.062,3.062,0,0,0,.6-.082V45a3.688,3.688,0,0,1-.971.136,1.575,1.575,0,0,1-1.278-.513,2.2,2.2,0,0,1-.431-1.456V38.581H18.823V37.6H20.17V35.813ZM28.858,45a2.657,2.657,0,0,1-.178-.779,2.822,2.822,0,0,1-2.105.916,2.611,2.611,0,0,1-1.794-.619,2,2,0,0,1-.7-1.569,2.091,2.091,0,0,1,.878-1.794,4.142,4.142,0,0,1,2.471-.639h1.23v-.581a1.42,1.42,0,0,0-.4-1.056,1.593,1.593,0,0,0-1.169-.393,1.844,1.844,0,0,0-1.135.342,1.007,1.007,0,0,0-.458.827H24.23a1.745,1.745,0,0,1,.393-1.07,2.683,2.683,0,0,1,1.066-.817,3.588,3.588,0,0,1,1.48-.3,2.924,2.924,0,0,1,2,.639,2.306,2.306,0,0,1,.752,1.76v3.4a4.162,4.162,0,0,0,.26,1.62V45Zm-2.1-.964a2.223,2.223,0,0,0,1.128-.308,1.861,1.861,0,0,0,.772-.8V41.411h-.991q-2.324,0-2.324,1.36a1.151,1.151,0,0,0,.4.93A1.524,1.524,0,0,0,26.76,44.036ZM33.1,37.6l.041.93a2.7,2.7,0,0,1,2.215-1.066q2.345,0,2.365,2.646V45H36.46V40.105a1.7,1.7,0,0,0-.366-1.183,1.466,1.466,0,0,0-1.118-.383,1.825,1.825,0,0,0-1.08.328,2.228,2.228,0,0,0-.725.861V45H31.907V37.6Zm8.244-1.791V37.6h1.381v.978H41.348v4.593a1.027,1.027,0,0,0,.185.667.777.777,0,0,0,.629.222,3.062,3.062,0,0,0,.6-.082V45a3.688,3.688,0,0,1-.971.136,1.575,1.575,0,0,1-1.278-.513,2.2,2.2,0,0,1-.431-1.456V38.581H38.736V37.6h1.347V35.813ZM48.771,45a2.657,2.657,0,0,1-.178-.779,2.822,2.822,0,0,1-2.105.916,2.611,2.611,0,0,1-1.794-.619,2,2,0,0,1-.7-1.569,2.091,2.091,0,0,1,.878-1.794,4.142,4.142,0,0,1,2.471-.639h1.23v-.581a1.42,1.42,0,0,0-.4-1.056,1.593,1.593,0,0,0-1.169-.393,1.844,1.844,0,0,0-1.135.342,1.007,1.007,0,0,0-.458.827H44.144a1.745,1.745,0,0,1,.393-1.07,2.683,2.683,0,0,1,1.066-.817,3.588,3.588,0,0,1,1.48-.3,2.924,2.924,0,0,1,2,.639,2.306,2.306,0,0,1,.752,1.76v3.4a4.162,4.162,0,0,0,.26,1.62V45Zm-2.1-.964a2.223,2.223,0,0,0,1.128-.308,1.861,1.861,0,0,0,.772-.8V41.411h-.991q-2.324,0-2.324,1.36a1.151,1.151,0,0,0,.4.93A1.524,1.524,0,0,0,46.673,44.036ZM47.842,34.5h1.531l-1.832,2.01-1.019,0Zm5.175,3.1.041.93a2.7,2.7,0,0,1,2.215-1.066q2.345,0,2.365,2.646V45H56.373V40.105a1.7,1.7,0,0,0-.366-1.183,1.466,1.466,0,0,0-1.118-.383,1.825,1.825,0,0,0-1.08.328,2.228,2.228,0,0,0-.725.861V45H51.82V37.6Zm9.6,7.533a3.232,3.232,0,0,1-2.447-.988,3.666,3.666,0,0,1-.943-2.642v-.232a4.438,4.438,0,0,1,.42-1.965,3.28,3.28,0,0,1,1.176-1.354,2.956,2.956,0,0,1,1.637-.489,2.77,2.77,0,0,1,2.242.95,4.114,4.114,0,0,1,.8,2.721v.526H60.488a2.629,2.629,0,0,0,.639,1.767,2.009,2.009,0,0,0,1.555.673,2.2,2.2,0,0,0,1.135-.273,2.851,2.851,0,0,0,.813-.725l.772.6A3.106,3.106,0,0,1,62.614,45.137Zm-.157-6.631a1.687,1.687,0,0,0-1.285.557,2.708,2.708,0,0,0-.643,1.562h3.705v-.1a2.409,2.409,0,0,0-.52-1.494A1.588,1.588,0,0,0,62.457,38.506Zm4.17,2.728a4.369,4.369,0,0,1,.427-1.955,3.187,3.187,0,0,1,1.189-1.34,3.238,3.238,0,0,1,1.74-.472,3.119,3.119,0,0,1,2.444,1.046,4.024,4.024,0,0,1,.933,2.782v.089a4.407,4.407,0,0,1-.414,1.938,3.14,3.14,0,0,1-1.183,1.336A3.275,3.275,0,0,1,70,45.137a3.111,3.111,0,0,1-2.437-1.046,4,4,0,0,1-.933-2.769Zm1.271.15a3.164,3.164,0,0,0,.571,1.976,1.934,1.934,0,0,0,3.059-.01,3.46,3.46,0,0,0,.567-2.116,3.159,3.159,0,0,0-.578-1.972,1.836,1.836,0,0,0-1.535-.755,1.816,1.816,0,0,0-1.511.745A3.435,3.435,0,0,0,67.9,41.384ZM10.042,57.24a4.333,4.333,0,0,1,.807-2.738,2.551,2.551,0,0,1,2.112-1.036,2.565,2.565,0,0,1,2.058.889V50.5h1.265V61H15.122l-.062-.793a2.575,2.575,0,0,1-2.112.93,2.526,2.526,0,0,1-2.1-1.053,4.382,4.382,0,0,1-.81-2.748Zm1.265.144a3.281,3.281,0,0,0,.52,1.969,1.68,1.68,0,0,0,1.436.711,1.845,1.845,0,0,0,1.757-1.08v-3.4a1.859,1.859,0,0,0-1.743-1.046,1.687,1.687,0,0,0-1.449.718A3.612,3.612,0,0,0,11.307,57.384Zm10.008,3.753a3.232,3.232,0,0,1-2.447-.988,3.666,3.666,0,0,1-.943-2.642v-.232a4.438,4.438,0,0,1,.42-1.965,3.28,3.28,0,0,1,1.176-1.354,2.956,2.956,0,0,1,1.637-.489,2.77,2.77,0,0,1,2.242.95,4.114,4.114,0,0,1,.8,2.721v.526H19.189a2.629,2.629,0,0,0,.639,1.767,2.009,2.009,0,0,0,1.555.673,2.2,2.2,0,0,0,1.135-.273,2.851,2.851,0,0,0,.813-.725l.772.6A3.106,3.106,0,0,1,21.315,61.137Zm-.157-6.631a1.687,1.687,0,0,0-1.285.557,2.708,2.708,0,0,0-.643,1.562h3.705v-.1a2.409,2.409,0,0,0-.52-1.494A1.588,1.588,0,0,0,21.158,54.506ZM29.327,61V51.047h2.81a4.523,4.523,0,0,1,2.3.574,3.884,3.884,0,0,1,1.542,1.634,5.318,5.318,0,0,1,.55,2.434v.636a5.336,5.336,0,0,1-.543,2.468,3.823,3.823,0,0,1-1.552,1.627A4.811,4.811,0,0,1,32.082,61Zm1.313-8.88v7.807H32.02a3,3,0,0,0,2.362-.944,3.9,3.9,0,0,0,.844-2.689v-.582a3.963,3.963,0,0,0-.8-2.637,2.834,2.834,0,0,0-2.259-.954ZM42.875,61a2.657,2.657,0,0,1-.178-.779,2.822,2.822,0,0,1-2.105.916,2.611,2.611,0,0,1-1.794-.619,2,2,0,0,1-.7-1.569,2.091,2.091,0,0,1,.878-1.794,4.142,4.142,0,0,1,2.471-.639h1.23v-.581a1.42,1.42,0,0,0-.4-1.056,1.593,1.593,0,0,0-1.169-.393,1.844,1.844,0,0,0-1.135.342,1.007,1.007,0,0,0-.458.827H38.248a1.745,1.745,0,0,1,.393-1.07,2.683,2.683,0,0,1,1.066-.817,3.588,3.588,0,0,1,1.48-.3,2.924,2.924,0,0,1,2,.639,2.306,2.306,0,0,1,.752,1.76v3.4a4.162,4.162,0,0,0,.26,1.62V61Zm-2.1-.964a2.223,2.223,0,0,0,1.128-.308,1.861,1.861,0,0,0,.772-.8V57.411h-.991q-2.324,0-2.324,1.36a1.151,1.151,0,0,0,.4.93A1.524,1.524,0,0,0,40.777,60.036Zm6.863-8.224V53.6h1.381v.978H47.64v4.593a1.027,1.027,0,0,0,.185.667.777.777,0,0,0,.629.222,3.062,3.062,0,0,0,.6-.082V61a3.688,3.688,0,0,1-.971.136,1.575,1.575,0,0,1-1.278-.513,2.2,2.2,0,0,1-.431-1.456V54.581H45.029V53.6h1.347V51.813Zm2.386,5.421a4.369,4.369,0,0,1,.427-1.955,3.187,3.187,0,0,1,1.189-1.34,3.238,3.238,0,0,1,1.74-.472,3.119,3.119,0,0,1,2.444,1.046,4.024,4.024,0,0,1,.933,2.782v.089a4.407,4.407,0,0,1-.414,1.938,3.14,3.14,0,0,1-1.183,1.336,3.275,3.275,0,0,1-1.767.479,3.111,3.111,0,0,1-2.437-1.046,4,4,0,0,1-.933-2.769Zm1.271.15a3.164,3.164,0,0,0,.571,1.976,1.934,1.934,0,0,0,3.059-.01,3.46,3.46,0,0,0,.567-2.116,3.159,3.159,0,0,0-.578-1.972,1.836,1.836,0,0,0-1.535-.755,1.816,1.816,0,0,0-1.511.745A3.435,3.435,0,0,0,51.3,57.384Zm11.354,1.654a.931.931,0,0,0-.386-.8,3.718,3.718,0,0,0-1.347-.489,6.367,6.367,0,0,1-1.524-.492,2.169,2.169,0,0,1-.834-.684,1.635,1.635,0,0,1-.27-.943A1.919,1.919,0,0,1,59.06,54.1a3,3,0,0,1,1.965-.629,3.091,3.091,0,0,1,2.041.649,2.063,2.063,0,0,1,.783,1.661H62.577a1.142,1.142,0,0,0-.441-.9,1.652,1.652,0,0,0-1.111-.376,1.729,1.729,0,0,0-1.08.3.947.947,0,0,0-.39.786.767.767,0,0,0,.362.69,4.458,4.458,0,0,0,1.309.444,6.821,6.821,0,0,1,1.535.506,2.239,2.239,0,0,1,.872.708,1.74,1.74,0,0,1,.284,1.008,1.893,1.893,0,0,1-.793,1.589,3.326,3.326,0,0,1-2.058.6,3.725,3.725,0,0,1-1.572-.314,2.557,2.557,0,0,1-1.07-.878,2.117,2.117,0,0,1-.386-1.22H59.3a1.309,1.309,0,0,0,.509,1.008,1.976,1.976,0,0,0,1.254.373,2.039,2.039,0,0,0,1.152-.291A.893.893,0,0,0,62.652,59.038Z" transform="translate(718 4963)" fill="#fff"/>
    <path id="Trazado_204760" data-name="Trazado 204760" d="M100,179.5H0v65H0c0,4.143,22.386,7.5,50,7.5s50-3.357,50-7.5h0Z" transform="translate(705 4865.502)" fill="url(#linear-gradient-3)"/>
    <path id="Trazado_204761" data-name="Trazado 204761" d="M100,179.519c0,4.142-22.386,7.5-50,7.5s-50-3.358-50-7.5,22.386-7.5,50-7.5,50,3.358,50,7.5" transform="translate(705 4866)" fill="#00defc"/>
    <path id="Trazado_254814" data-name="Trazado 254814" d="M8.594,4.12h-3.2V13H4.089V4.12H.9V3.047h7.7Zm4.341,2.618a3.79,3.79,0,0,0-.622-.048,1.667,1.667,0,0,0-1.688,1.06V13H9.359V5.6h1.23l.021.854a1.969,1.969,0,0,1,1.764-.991,1.292,1.292,0,0,1,.561.1ZM18.39,13a2.657,2.657,0,0,1-.178-.779,2.822,2.822,0,0,1-2.105.916,2.611,2.611,0,0,1-1.794-.619,2,2,0,0,1-.7-1.569,2.091,2.091,0,0,1,.878-1.794,4.142,4.142,0,0,1,2.471-.639h1.23V7.935a1.42,1.42,0,0,0-.4-1.056,1.593,1.593,0,0,0-1.169-.393,1.844,1.844,0,0,0-1.135.342,1.007,1.007,0,0,0-.458.827H13.762a1.745,1.745,0,0,1,.393-1.07,2.683,2.683,0,0,1,1.066-.817,3.588,3.588,0,0,1,1.48-.3,2.924,2.924,0,0,1,2,.639,2.306,2.306,0,0,1,.752,1.76v3.4a4.162,4.162,0,0,0,.26,1.62V13Zm-2.1-.964a2.223,2.223,0,0,0,1.128-.308,1.861,1.861,0,0,0,.772-.8V9.411H17.2q-2.324,0-2.324,1.36a1.151,1.151,0,0,0,.4.93A1.524,1.524,0,0,0,16.291,12.036ZM22.635,5.6l.041.93a2.7,2.7,0,0,1,2.215-1.066q2.345,0,2.365,2.646V13H25.991V8.105a1.7,1.7,0,0,0-.366-1.183,1.466,1.466,0,0,0-1.118-.383,1.825,1.825,0,0,0-1.08.328,2.228,2.228,0,0,0-.725.861V13H21.438V5.6ZM33.47,11.038a.931.931,0,0,0-.386-.8,3.718,3.718,0,0,0-1.347-.489,6.367,6.367,0,0,1-1.524-.492,2.169,2.169,0,0,1-.834-.684,1.635,1.635,0,0,1-.27-.943A1.919,1.919,0,0,1,29.877,6.1a3,3,0,0,1,1.965-.629,3.091,3.091,0,0,1,2.041.649,2.063,2.063,0,0,1,.783,1.661H33.395a1.142,1.142,0,0,0-.441-.9,1.652,1.652,0,0,0-1.111-.376,1.729,1.729,0,0,0-1.08.3.947.947,0,0,0-.39.786.767.767,0,0,0,.362.69,4.458,4.458,0,0,0,1.309.444,6.821,6.821,0,0,1,1.535.506,2.239,2.239,0,0,1,.872.708,1.74,1.74,0,0,1,.284,1.008,1.893,1.893,0,0,1-.793,1.589,3.326,3.326,0,0,1-2.058.6,3.725,3.725,0,0,1-1.572-.314,2.557,2.557,0,0,1-1.07-.878,2.117,2.117,0,0,1-.386-1.22H30.12a1.309,1.309,0,0,0,.509,1.008,1.976,1.976,0,0,0,1.254.373,2.039,2.039,0,0,0,1.152-.291A.893.893,0,0,0,33.47,11.038ZM40.948,13a2.657,2.657,0,0,1-.178-.779,2.822,2.822,0,0,1-2.105.916,2.611,2.611,0,0,1-1.794-.619,2,2,0,0,1-.7-1.569,2.091,2.091,0,0,1,.878-1.794,4.142,4.142,0,0,1,2.471-.639h1.23V7.935a1.42,1.42,0,0,0-.4-1.056,1.593,1.593,0,0,0-1.169-.393,1.844,1.844,0,0,0-1.135.342,1.007,1.007,0,0,0-.458.827H36.32a1.745,1.745,0,0,1,.393-1.07,2.683,2.683,0,0,1,1.066-.817,3.588,3.588,0,0,1,1.48-.3,2.924,2.924,0,0,1,2,.639,2.306,2.306,0,0,1,.752,1.76v3.4a4.162,4.162,0,0,0,.26,1.62V13Zm-2.1-.964a2.223,2.223,0,0,0,1.128-.308,1.861,1.861,0,0,0,.772-.8V9.411h-.991q-2.324,0-2.324,1.36a1.151,1.151,0,0,0,.4.93A1.524,1.524,0,0,0,38.85,12.036Zm8.114.068a1.822,1.822,0,0,0,1.183-.41,1.443,1.443,0,0,0,.561-1.025h1.2a2.293,2.293,0,0,1-.437,1.21,2.881,2.881,0,0,1-1.077.916,3.107,3.107,0,0,1-1.425.342,3.047,3.047,0,0,1-2.4-1.008,4.016,4.016,0,0,1-.892-2.758V9.158a4.453,4.453,0,0,1,.4-1.921A3.02,3.02,0,0,1,45.2,5.932a3.233,3.233,0,0,1,1.753-.465,2.966,2.966,0,0,1,2.068.745A2.663,2.663,0,0,1,49.9,8.146h-1.2a1.743,1.743,0,0,0-.543-1.179,1.691,1.691,0,0,0-1.207-.461,1.77,1.77,0,0,0-1.494.694,3.259,3.259,0,0,0-.53,2.006v.239a3.194,3.194,0,0,0,.526,1.969A1.779,1.779,0,0,0,46.964,12.1Zm7.328,0a1.822,1.822,0,0,0,1.183-.41,1.443,1.443,0,0,0,.561-1.025h1.2a2.293,2.293,0,0,1-.437,1.21,2.881,2.881,0,0,1-1.077.916,3.107,3.107,0,0,1-1.425.342,3.047,3.047,0,0,1-2.4-1.008A4.016,4.016,0,0,1,51,9.37V9.158a4.453,4.453,0,0,1,.4-1.921,3.02,3.02,0,0,1,1.138-1.306,3.233,3.233,0,0,1,1.753-.465,2.966,2.966,0,0,1,2.068.745,2.663,2.663,0,0,1,.878,1.935h-1.2a1.743,1.743,0,0,0-.543-1.179,1.691,1.691,0,0,0-1.207-.461,1.77,1.77,0,0,0-1.494.694,3.259,3.259,0,0,0-.53,2.006v.239a3.194,3.194,0,0,0,.526,1.969A1.779,1.779,0,0,0,54.292,12.1Zm5.735.9H58.763V5.6h1.265ZM58.66,3.642a.755.755,0,0,1,.188-.52.706.706,0,0,1,.557-.212.717.717,0,0,1,.561.212.747.747,0,0,1,.191.52.722.722,0,0,1-.191.513.73.73,0,0,1-.561.205.718.718,0,0,1-.557-.205A.73.73,0,0,1,58.66,3.642Zm3.056,5.592a4.369,4.369,0,0,1,.427-1.955,3.187,3.187,0,0,1,1.189-1.34,3.238,3.238,0,0,1,1.74-.472,3.119,3.119,0,0,1,2.444,1.046,4.024,4.024,0,0,1,.933,2.782v.089a4.407,4.407,0,0,1-.414,1.938,3.14,3.14,0,0,1-1.183,1.336,3.275,3.275,0,0,1-1.767.479,3.111,3.111,0,0,1-2.437-1.046,4,4,0,0,1-.933-2.769Zm1.271.15a3.164,3.164,0,0,0,.571,1.976,1.934,1.934,0,0,0,3.059-.01,3.46,3.46,0,0,0,.567-2.116,3.159,3.159,0,0,0-.578-1.972,1.836,1.836,0,0,0-1.535-.755,1.816,1.816,0,0,0-1.511.745A3.435,3.435,0,0,0,62.987,9.384ZM71.231,5.6l.041.93a2.7,2.7,0,0,1,2.215-1.066q2.345,0,2.365,2.646V13H74.588V8.105a1.7,1.7,0,0,0-.366-1.183A1.466,1.466,0,0,0,73.1,6.54a1.825,1.825,0,0,0-1.08.328,2.228,2.228,0,0,0-.725.861V13H70.035V5.6Zm9.6,7.533a3.232,3.232,0,0,1-2.447-.988,3.666,3.666,0,0,1-.943-2.642V9.274a4.438,4.438,0,0,1,.42-1.965,3.28,3.28,0,0,1,1.176-1.354,2.956,2.956,0,0,1,1.637-.489,2.77,2.77,0,0,1,2.242.95,4.114,4.114,0,0,1,.8,2.721v.526H78.7a2.629,2.629,0,0,0,.639,1.767A2.009,2.009,0,0,0,80.9,12.1a2.2,2.2,0,0,0,1.135-.273,2.851,2.851,0,0,0,.813-.725l.772.6A3.106,3.106,0,0,1,80.829,13.137Zm-.157-6.631a1.687,1.687,0,0,0-1.285.557,2.708,2.708,0,0,0-.643,1.562h3.705v-.1a2.409,2.409,0,0,0-.52-1.494A1.588,1.588,0,0,0,80.672,6.506Zm8.812,4.532a.931.931,0,0,0-.386-.8,3.718,3.718,0,0,0-1.347-.489,6.367,6.367,0,0,1-1.524-.492,2.169,2.169,0,0,1-.834-.684,1.635,1.635,0,0,1-.27-.943A1.919,1.919,0,0,1,85.891,6.1a3,3,0,0,1,1.965-.629,3.091,3.091,0,0,1,2.041.649,2.063,2.063,0,0,1,.783,1.661H89.408a1.142,1.142,0,0,0-.441-.9,1.652,1.652,0,0,0-1.111-.376,1.729,1.729,0,0,0-1.08.3.947.947,0,0,0-.39.786.767.767,0,0,0,.362.69,4.458,4.458,0,0,0,1.309.444,6.821,6.821,0,0,1,1.535.506,2.239,2.239,0,0,1,.872.708,1.74,1.74,0,0,1,.284,1.008,1.893,1.893,0,0,1-.793,1.589,3.326,3.326,0,0,1-2.058.6,3.725,3.725,0,0,1-1.572-.314,2.557,2.557,0,0,1-1.07-.878,2.117,2.117,0,0,1-.386-1.22h1.265a1.309,1.309,0,0,0,.509,1.008A1.976,1.976,0,0,0,87.9,12.1a2.039,2.039,0,0,0,1.152-.291A.893.893,0,0,0,89.483,11.038ZM5.562,25.24A4.333,4.333,0,0,1,6.369,22.5a2.551,2.551,0,0,1,2.112-1.036,2.565,2.565,0,0,1,2.058.889V18.5H11.8V29H10.641l-.062-.793a2.575,2.575,0,0,1-2.112.93,2.526,2.526,0,0,1-2.1-1.053,4.382,4.382,0,0,1-.81-2.748Zm1.265.144a3.281,3.281,0,0,0,.52,1.969,1.68,1.68,0,0,0,1.436.711,1.845,1.845,0,0,0,1.757-1.08v-3.4A1.859,1.859,0,0,0,8.8,22.54a1.687,1.687,0,0,0-1.449.718A3.612,3.612,0,0,0,6.827,25.384Zm10.008,3.753a3.232,3.232,0,0,1-2.447-.988,3.666,3.666,0,0,1-.943-2.642v-.232a4.438,4.438,0,0,1,.42-1.965,3.28,3.28,0,0,1,1.176-1.354,2.956,2.956,0,0,1,1.637-.489,2.77,2.77,0,0,1,2.242.95,4.114,4.114,0,0,1,.8,2.721v.526H14.708a2.629,2.629,0,0,0,.639,1.767A2.009,2.009,0,0,0,16.9,28.1a2.2,2.2,0,0,0,1.135-.273,2.851,2.851,0,0,0,.813-.725l.772.6A3.106,3.106,0,0,1,16.834,29.137Zm-.157-6.631a1.687,1.687,0,0,0-1.285.557,2.708,2.708,0,0,0-.643,1.562h3.705v-.1a2.409,2.409,0,0,0-.52-1.494A1.588,1.588,0,0,0,16.677,22.506ZM30.472,24.4H26.159v3.527h5.011V29H24.846V19.047H31.1V20.12H26.159v3.206h4.313Zm3.322-2.8.034.82a2.732,2.732,0,0,1,2.194-.957,2.115,2.115,0,0,1,2.112,1.189,2.8,2.8,0,0,1,.96-.861,2.837,2.837,0,0,1,1.4-.328q2.434,0,2.475,2.577V29H41.7V24.119a1.7,1.7,0,0,0-.362-1.186,1.6,1.6,0,0,0-1.217-.393,1.677,1.677,0,0,0-1.169.42,1.706,1.706,0,0,0-.54,1.131V29H37.144V24.153a1.411,1.411,0,0,0-1.579-1.613,1.692,1.692,0,0,0-1.7,1.06V29H32.6V21.6Zm17.343,3.78a4.4,4.4,0,0,1-.779,2.724,2.49,2.49,0,0,1-2.092,1.029,2.578,2.578,0,0,1-2.167-.991L46.038,29H44.875V18.5H46.14v3.917a2.564,2.564,0,0,1,2.112-.95,2.505,2.505,0,0,1,2.116,1.019,4.53,4.53,0,0,1,.769,2.789Zm-1.265-.144a3.417,3.417,0,0,0-.5-2,1.652,1.652,0,0,0-1.436-.7,1.857,1.857,0,0,0-1.8,1.162v3.2a1.909,1.909,0,0,0,1.812,1.162,1.643,1.643,0,0,0,1.415-.7A3.634,3.634,0,0,0,49.873,25.24ZM57.3,29a2.657,2.657,0,0,1-.178-.779,2.822,2.822,0,0,1-2.105.916,2.611,2.611,0,0,1-1.794-.619,2,2,0,0,1-.7-1.569,2.091,2.091,0,0,1,.878-1.794,4.142,4.142,0,0,1,2.471-.639H57.1v-.581a1.42,1.42,0,0,0-.4-1.056,1.593,1.593,0,0,0-1.169-.393,1.844,1.844,0,0,0-1.135.342,1.007,1.007,0,0,0-.458.827H52.668a1.745,1.745,0,0,1,.393-1.07,2.683,2.683,0,0,1,1.066-.817,3.588,3.588,0,0,1,1.48-.3,2.924,2.924,0,0,1,2,.639,2.306,2.306,0,0,1,.752,1.76v3.4a4.162,4.162,0,0,0,.26,1.62V29Zm-2.1-.964a2.223,2.223,0,0,0,1.128-.308,1.861,1.861,0,0,0,.772-.8V25.411h-.991q-2.324,0-2.324,1.36a1.151,1.151,0,0,0,.4.93A1.524,1.524,0,0,0,55.2,28.036Zm8.723-5.3a3.79,3.79,0,0,0-.622-.048,1.667,1.667,0,0,0-1.688,1.06V29H60.345V21.6h1.23l.021.854a1.969,1.969,0,0,1,1.764-.991,1.292,1.292,0,0,1,.561.1Zm.725,2.5a4.341,4.341,0,0,1,.8-2.758,2.823,2.823,0,0,1,4.218-.133l.055-.745h1.162v10.24H69.615V28.316a2.654,2.654,0,0,1-2.037.82,2.551,2.551,0,0,1-2.136-1.042,4.438,4.438,0,0,1-.8-2.765Zm1.265.144a3.291,3.291,0,0,0,.537,2,1.707,1.707,0,0,0,1.446.725,1.894,1.894,0,0,0,1.723-1V23.483a1.9,1.9,0,0,0-1.709-.978,1.72,1.72,0,0,0-1.456.728A3.583,3.583,0,0,0,65.91,25.384Zm11.566,2.885a2.686,2.686,0,0,1-2.167.868,2.3,2.3,0,0,1-1.8-.687,2.974,2.974,0,0,1-.625-2.034V21.6h1.265v4.778q0,1.682,1.367,1.682a1.893,1.893,0,0,0,1.928-1.08V21.6h1.265V29H77.5Zm6.221.868a3.232,3.232,0,0,1-2.447-.988,3.666,3.666,0,0,1-.943-2.642v-.232a4.438,4.438,0,0,1,.42-1.965A3.28,3.28,0,0,1,81.9,21.956a2.956,2.956,0,0,1,1.637-.489,2.77,2.77,0,0,1,2.242.95,4.114,4.114,0,0,1,.8,2.721v.526H81.571a2.629,2.629,0,0,0,.639,1.767,2.009,2.009,0,0,0,1.555.673,2.2,2.2,0,0,0,1.135-.273,2.851,2.851,0,0,0,.813-.725l.772.6A3.106,3.106,0,0,1,83.7,29.137Zm-.157-6.631a1.687,1.687,0,0,0-1.285.557,2.708,2.708,0,0,0-.643,1.562h3.705v-.1a2.409,2.409,0,0,0-.52-1.494A1.588,1.588,0,0,0,83.54,22.506Z" transform="translate(709 5065)" fill="#12263f"/>
    <path id="Trazado_254806" data-name="Trazado 254806" d="M0,0,36.641,45.33" transform="translate(805 4909.73)" fill="none" stroke="#000" stroke-linecap="round" stroke-width="1"/>
    <path id="Trazado_254807" data-name="Trazado 254807" d="M0,0H19" transform="translate(805 4992)" fill="none" stroke="#000" stroke-linecap="round" stroke-width="1"/>
    <path id="Trazado_254808" data-name="Trazado 254808" d="M0,48.01,37.341,0" transform="translate(805 5029.49)" fill="none" stroke="#000" stroke-linecap="round" stroke-width="1"/>
    <path id="Trazado_254809" data-name="Trazado 254809" d="M0,0,19,.279" transform="translate(919 4992.279)" fill="none" stroke="#000" stroke-linecap="round" stroke-width="1"/>
    <path id="Trazado_254810" data-name="Trazado 254810" d="M0,0,19,.355" transform="translate(1028 4992.203)" fill="none" stroke="#000" stroke-linecap="round" stroke-width="1"/>
    <path id="Trazado_254811" data-name="Trazado 254811" d="M0,0,34.378,31.1" transform="translate(1150.623 5031.918)" fill="none" stroke="#000" stroke-linecap="round" stroke-width="1"/>
    <path id="Trazado_254812" data-name="Trazado 254812" d="M0,33.115,35.177,0" transform="translate(1149.823 4918.103)" fill="none" stroke="#000" stroke-linecap="round" stroke-width="1"/>
  </g>
</svg>
