<svg xmlns="http://www.w3.org/2000/svg" xmlns:xlink="http://www.w3.org/1999/xlink" width="618" height="270.5" viewBox="0 0 618 270.5">
  <defs>
    <radialGradient id="radial-gradient" cx="0.5" cy="0.5" r="0.5" gradientUnits="objectBoundingBox">
      <stop offset="0" stop-color="#b9ddfc"/>
      <stop offset="1" stop-color="#6f8497"/>
    </radialGradient>
    <linearGradient id="linear-gradient" y1="0.5" x2="1" y2="0.5" gradientUnits="objectBoundingBox">
      <stop offset="0" stop-color="#ffb30b"/>
      <stop offset="1" stop-color="#996b06"/>
    </linearGradient>
    <linearGradient id="linear-gradient-2" y1="0.5" x2="1" y2="0.5" gradientUnits="objectBoundingBox">
      <stop offset="0" stop-color="#97afc8"/>
      <stop offset="1" stop-color="#042c58"/>
    </linearGradient>
    <linearGradient id="linear-gradient-3" y1="0.5" x2="1" y2="0.5" gradientUnits="objectBoundingBox">
      <stop offset="0" stop-color="#00defc"/>
      <stop offset="1" stop-color="#008597"/>
    </linearGradient>
    <linearGradient id="linear-gradient-4" x1="0.5" x2="0.5" y2="1" gradientUnits="objectBoundingBox">
      <stop offset="0" stop-color="#eed398"/>
      <stop offset="1" stop-color="#cc8f08"/>
    </linearGradient>
    <filter id="Trazado_204769" x="451" y="0" width="166.809" height="270" filterUnits="userSpaceOnUse">
      <feOffset dy="3" input="SourceAlpha"/>
      <feGaussianBlur stdDeviation="3" result="blur"/>
      <feFlood flood-opacity="0.161"/>
      <feComposite operator="in" in2="blur"/>
      <feComposite in="SourceGraphic"/>
    </filter>
    <linearGradient id="linear-gradient-5" x1="0.5" x2="0.5" y2="1" gradientUnits="objectBoundingBox">
      <stop offset="0" stop-color="#d6e2ed"/>
      <stop offset="1" stop-color="#042c58"/>
    </linearGradient>
    <filter id="Trazado_204770" x="422" y="30" width="166.81" height="240" filterUnits="userSpaceOnUse">
      <feOffset dy="3" input="SourceAlpha"/>
      <feGaussianBlur stdDeviation="3" result="blur-2"/>
      <feFlood flood-opacity="0.161"/>
      <feComposite operator="in" in2="blur-2"/>
      <feComposite in="SourceGraphic"/>
    </filter>
    <linearGradient id="linear-gradient-6" x1="0.5" y1="0" x2="0.5" y2="1" xlink:href="#linear-gradient-2"/>
    <filter id="Trazado_204771" x="380" y="60" width="166.81" height="210" filterUnits="userSpaceOnUse">
      <feOffset dy="3" input="SourceAlpha"/>
      <feGaussianBlur stdDeviation="3" result="blur-3"/>
      <feFlood flood-opacity="0.161"/>
      <feComposite operator="in" in2="blur-3"/>
      <feComposite in="SourceGraphic"/>
    </filter>
    <linearGradient id="linear-gradient-7" x1="0.5" y1="0" x2="0.5" y2="1" xlink:href="#linear-gradient-3"/>
    <filter id="Trazado_204772" x="350" y="90" width="166.809" height="180" filterUnits="userSpaceOnUse">
      <feOffset dy="3" input="SourceAlpha"/>
      <feGaussianBlur stdDeviation="3" result="blur-4"/>
      <feFlood flood-opacity="0.161"/>
      <feComposite operator="in" in2="blur-4"/>
      <feComposite in="SourceGraphic"/>
    </filter>
    <filter id="Trazado_204774" x="391" y="143.5" width="186" height="68" filterUnits="userSpaceOnUse">
      <feOffset dy="3" input="SourceAlpha"/>
      <feGaussianBlur stdDeviation="3" result="blur-5"/>
      <feFlood flood-opacity="0.161"/>
      <feComposite operator="in" in2="blur-5"/>
      <feComposite in="SourceGraphic"/>
    </filter>
    <linearGradient id="linear-gradient-8" x1="0.5" y1="0.18" x2="0.5" y2="1.393" xlink:href="#linear-gradient"/>
    <filter id="Trazado_204773" x="350" y="202.5" width="268" height="68" filterUnits="userSpaceOnUse">
      <feOffset dy="3" input="SourceAlpha"/>
      <feGaussianBlur stdDeviation="3" result="blur-6"/>
      <feFlood flood-opacity="0.161"/>
      <feComposite operator="in" in2="blur-6"/>
      <feComposite in="SourceGraphic"/>
    </filter>
  </defs>
  <g id="Grupo_175153" data-name="Grupo 175153" transform="translate(-705 -3826.5)">
    <path id="Trazado_204762" data-name="Trazado 204762" d="M293.958,126.5a82.893,82.893,0,1,1-82.893-82.893A82.893,82.893,0,0,1,293.958,126.5" transform="translate(704.827 3832.393)" opacity="0.35" fill="url(#radial-gradient)"/>
    <path id="Trazado_254829" data-name="Trazado 254829" d="M22.974,9.623V13h-2.4V3.047h3.972a4.626,4.626,0,0,1,2.02.42,3.168,3.168,0,0,1,1.36,1.2,3.267,3.267,0,0,1,.482,1.76,2.88,2.88,0,0,1-1.042,2.328,4.326,4.326,0,0,1-2.861.872Zm0-1.853h1.572a1.483,1.483,0,0,0,1.063-.349,1.3,1.3,0,0,0,.366-.984A1.6,1.6,0,0,0,25.6,5.323,1.331,1.331,0,0,0,24.573,4.9h-1.6ZM32.011,13H29.7V2.5h2.311ZM37.6,13a2.6,2.6,0,0,1-.219-.663,2.142,2.142,0,0,1-1.777.8,2.624,2.624,0,0,1-1.777-.632,2.013,2.013,0,0,1-.731-1.589A2.069,2.069,0,0,1,33.979,9.1a4.527,4.527,0,0,1,2.584-.615h.711V8.09q0-1.023-.882-1.023a.721.721,0,0,0-.82.811h-2.3a2.065,2.065,0,0,1,.913-1.741,3.835,3.835,0,0,1,2.328-.669,3.363,3.363,0,0,1,2.235.69,2.4,2.4,0,0,1,.841,1.894v3.274a3.353,3.353,0,0,0,.314,1.559V13Zm-1.442-1.5a1.285,1.285,0,0,0,.714-.185,1.157,1.157,0,0,0,.407-.417V9.712H36.6q-1.2,0-1.2,1.08a.659.659,0,0,0,.212.509A.767.767,0,0,0,36.153,11.5Zm7.39-7.731V5.6H44.76V7.2H43.543v3.384a.864.864,0,0,0,.15.581.807.807,0,0,0,.595.164,3.38,3.38,0,0,0,.574-.041v1.647a4.252,4.252,0,0,1-1.3.2,2.413,2.413,0,0,1-1.757-.561,2.3,2.3,0,0,1-.567-1.7V7.2H40.3V5.6h.943V3.765ZM49.832,13a2.6,2.6,0,0,1-.219-.663,2.142,2.142,0,0,1-1.777.8,2.624,2.624,0,0,1-1.777-.632,2.013,2.013,0,0,1-.731-1.589A2.069,2.069,0,0,1,46.216,9.1,4.527,4.527,0,0,1,48.8,8.481h.711V8.09q0-1.023-.882-1.023a.721.721,0,0,0-.82.811H45.5a2.065,2.065,0,0,1,.913-1.741,3.835,3.835,0,0,1,2.328-.669,3.363,3.363,0,0,1,2.235.69,2.4,2.4,0,0,1,.841,1.894v3.274a3.353,3.353,0,0,0,.314,1.559V13ZM48.39,11.5a1.285,1.285,0,0,0,.714-.185,1.157,1.157,0,0,0,.407-.417V9.712h-.67q-1.2,0-1.2,1.08a.659.659,0,0,0,.212.509A.767.767,0,0,0,48.39,11.5ZM53.605,13V7.2H52.532V5.6h1.073V5.016a2.556,2.556,0,0,1,.745-1.962,2.944,2.944,0,0,1,2.092-.7,4.581,4.581,0,0,1,1.08.144l.007,1.7a2.1,2.1,0,0,0-.567-.062q-1.046,0-1.046.9V5.6h1.442V7.2H55.916V13Zm4.272-3.767a4.366,4.366,0,0,1,.431-1.972,3.08,3.08,0,0,1,1.237-1.33,3.726,3.726,0,0,1,1.894-.465A3.4,3.4,0,0,1,64.058,6.5a3.948,3.948,0,0,1,.957,2.8v.082a3.83,3.83,0,0,1-.96,2.745,3.41,3.41,0,0,1-2.6,1.015,3.449,3.449,0,0,1-2.536-.947,3.7,3.7,0,0,1-1.032-2.567Zm2.3.144a2.752,2.752,0,0,0,.321,1.5,1.07,1.07,0,0,0,.95.479q1.23,0,1.258-1.894V9.233q0-1.989-1.271-1.989-1.155,0-1.251,1.716ZM70.5,7.688l-.759-.055a1.363,1.363,0,0,0-1.395.684V13h-2.3V5.6h2.16l.075.95A1.784,1.784,0,0,1,69.9,5.467a2.246,2.246,0,0,1,.643.082ZM73.512,5.6l.075.868a2.543,2.543,0,0,1,2.112-1,1.872,1.872,0,0,1,1.894,1.114,2.462,2.462,0,0,1,2.174-1.114q2.249,0,2.311,2.721V13H79.767V8.331a1.41,1.41,0,0,0-.191-.827.815.815,0,0,0-.7-.26,1.091,1.091,0,0,0-1.019.608l.007.1V13H75.556V8.345a1.482,1.482,0,0,0-.185-.841.812.812,0,0,0-.7-.26,1.1,1.1,0,0,0-1.012.608V13h-2.3V5.6ZM87.56,13a2.6,2.6,0,0,1-.219-.663,2.142,2.142,0,0,1-1.777.8,2.624,2.624,0,0,1-1.777-.632,2.013,2.013,0,0,1-.731-1.589A2.069,2.069,0,0,1,83.943,9.1a4.527,4.527,0,0,1,2.584-.615h.711V8.09q0-1.023-.882-1.023a.721.721,0,0,0-.82.811h-2.3a2.065,2.065,0,0,1,.913-1.741,3.835,3.835,0,0,1,2.328-.669,3.363,3.363,0,0,1,2.235.69,2.4,2.4,0,0,1,.841,1.894v3.274a3.353,3.353,0,0,0,.314,1.559V13Zm-1.442-1.5a1.285,1.285,0,0,0,.714-.185,1.157,1.157,0,0,0,.407-.417V9.712h-.67q-1.2,0-1.2,1.08a.659.659,0,0,0,.212.509A.767.767,0,0,0,86.117,11.5ZM12.142,25.247a4.518,4.518,0,0,1,.759-2.769,2.5,2.5,0,0,1,2.119-1.012,2.124,2.124,0,0,1,1.668.779V18.5H19V29H16.927l-.116-.793a2.181,2.181,0,0,1-1.8.93,2.493,2.493,0,0,1-2.092-1.012A4.662,4.662,0,0,1,12.142,25.247Zm2.3.144q0,1.969,1.148,1.969a1.134,1.134,0,0,0,1.094-.643V23.9a1.1,1.1,0,0,0-1.08-.656q-1.066,0-1.155,1.723Zm9.44,3.746a3.8,3.8,0,0,1-2.755-1.015,3.506,3.506,0,0,1-1.053-2.642v-.191a4.542,4.542,0,0,1,.42-2,3.076,3.076,0,0,1,1.227-1.343,3.7,3.7,0,0,1,1.914-.475,3.2,3.2,0,0,1,2.461.967,3.8,3.8,0,0,1,.9,2.7v.9h-4.58a1.66,1.66,0,0,0,.54.978,1.607,1.607,0,0,0,1.08.355,2.07,2.07,0,0,0,1.709-.766l1.053,1.244a2.943,2.943,0,0,1-1.22.947A4.123,4.123,0,0,1,23.886,29.137Zm-.26-5.893q-1.012,0-1.2,1.34h2.324v-.178a1.141,1.141,0,0,0-.28-.858A1.115,1.115,0,0,0,23.626,23.244ZM31.522,29V19.047h3.206a4.716,4.716,0,0,1,2.372.6,4.2,4.2,0,0,1,1.644,1.688,5.1,5.1,0,0,1,.6,2.444v.458a5.127,5.127,0,0,1-.578,2.451,4.223,4.223,0,0,1-1.627,1.7A4.612,4.612,0,0,1,34.8,29Zm2.4-8.1v6.255h.834a1.867,1.867,0,0,0,1.586-.735,3.6,3.6,0,0,0,.554-2.184V23.8a3.572,3.572,0,0,0-.554-2.174,1.9,1.9,0,0,0-1.613-.731ZM44.633,29a2.6,2.6,0,0,1-.219-.663,2.142,2.142,0,0,1-1.777.8A2.624,2.624,0,0,1,40.86,28.5a2.013,2.013,0,0,1-.731-1.589,2.069,2.069,0,0,1,.889-1.818,4.527,4.527,0,0,1,2.584-.615h.711V24.09q0-1.023-.882-1.023a.721.721,0,0,0-.82.811h-2.3a2.065,2.065,0,0,1,.913-1.741,3.835,3.835,0,0,1,2.328-.669,3.363,3.363,0,0,1,2.235.69,2.4,2.4,0,0,1,.841,1.894v3.274a3.353,3.353,0,0,0,.314,1.559V29Zm-1.442-1.5a1.285,1.285,0,0,0,.714-.185,1.157,1.157,0,0,0,.407-.417V25.712h-.67q-1.2,0-1.2,1.08a.659.659,0,0,0,.212.509A.767.767,0,0,0,43.191,27.5Zm7.39-7.731V21.6H51.8v1.6H50.581v3.384a.864.864,0,0,0,.15.581.807.807,0,0,0,.595.164,3.38,3.38,0,0,0,.574-.041v1.647a4.252,4.252,0,0,1-1.3.2,2.413,2.413,0,0,1-1.757-.561,2.3,2.3,0,0,1-.567-1.7V23.2h-.943V21.6h.943V19.765Zm1.627,5.469a4.366,4.366,0,0,1,.431-1.972,3.08,3.08,0,0,1,1.237-1.33,3.726,3.726,0,0,1,1.894-.465A3.4,3.4,0,0,1,58.387,22.5a3.948,3.948,0,0,1,.957,2.8v.082a3.83,3.83,0,0,1-.96,2.745,3.41,3.41,0,0,1-2.6,1.015,3.449,3.449,0,0,1-2.536-.947,3.7,3.7,0,0,1-1.032-2.567Zm2.3.144a2.752,2.752,0,0,0,.321,1.5,1.07,1.07,0,0,0,.95.479q1.23,0,1.258-1.894v-.232q0-1.989-1.271-1.989-1.155,0-1.251,1.716Zm9.721,1.545a.532.532,0,0,0-.308-.472,4.679,4.679,0,0,0-1.169-.369,5.33,5.33,0,0,1-1.422-.5,2.382,2.382,0,0,1-.854-.755,1.8,1.8,0,0,1-.294-1.019,2.044,2.044,0,0,1,.841-1.678,3.464,3.464,0,0,1,2.2-.66,3.837,3.837,0,0,1,2.352.663,2.074,2.074,0,0,1,.889,1.743H64.157q0-.889-.937-.889a.928.928,0,0,0-.608.2.624.624,0,0,0-.246.5.573.573,0,0,0,.3.5,2.842,2.842,0,0,0,.96.314,8.3,8.3,0,0,1,1.159.294,2.105,2.105,0,0,1,1.668,2.058,1.937,1.937,0,0,1-.9,1.647,3.942,3.942,0,0,1-2.328.636,4.023,4.023,0,0,1-1.7-.342,2.835,2.835,0,0,1-1.162-.93,2.105,2.105,0,0,1-.417-1.237h2.153a.89.89,0,0,0,.342.749,1.406,1.406,0,0,0,.841.236A1.106,1.106,0,0,0,64,27.421.612.612,0,0,0,64.232,26.922Zm13.651-1.565a4.46,4.46,0,0,1-.776,2.751,2.488,2.488,0,0,1-2.1,1.029,2.132,2.132,0,0,1-1.675-.745v3.452h-2.3V21.6h2.153l.068.684A2.132,2.132,0,0,1,75,21.467a2.508,2.508,0,0,1,2.126,1.008,4.515,4.515,0,0,1,.759,2.772Zm-2.3-.144q0-1.969-1.148-1.969a1.084,1.084,0,0,0-1.094.588v2.912a1.119,1.119,0,0,0,1.107.615q1.1,0,1.135-1.9ZM83.065,29a2.6,2.6,0,0,1-.219-.663,2.142,2.142,0,0,1-1.777.8,2.624,2.624,0,0,1-1.777-.632,2.013,2.013,0,0,1-.731-1.589,2.069,2.069,0,0,1,.889-1.818,4.527,4.527,0,0,1,2.584-.615h.711V24.09q0-1.023-.882-1.023a.721.721,0,0,0-.82.811h-2.3a2.065,2.065,0,0,1,.913-1.741,3.835,3.835,0,0,1,2.328-.669,3.363,3.363,0,0,1,2.235.69,2.4,2.4,0,0,1,.841,1.894v3.274a3.353,3.353,0,0,0,.314,1.559V29Zm-1.442-1.5a1.285,1.285,0,0,0,.714-.185,1.157,1.157,0,0,0,.407-.417V25.712h-.67q-1.2,0-1.2,1.08a.659.659,0,0,0,.212.509A.767.767,0,0,0,81.623,27.5ZM90.8,23.688l-.759-.055a1.363,1.363,0,0,0-1.395.684V29h-2.3V21.6h2.16l.075.95a1.784,1.784,0,0,1,1.62-1.087,2.246,2.246,0,0,1,.643.082ZM95.6,29a2.6,2.6,0,0,1-.219-.663,2.142,2.142,0,0,1-1.777.8,2.624,2.624,0,0,1-1.777-.632,2.013,2.013,0,0,1-.731-1.589,2.069,2.069,0,0,1,.889-1.818,4.527,4.527,0,0,1,2.584-.615h.711V24.09q0-1.023-.882-1.023a.721.721,0,0,0-.82.811h-2.3a2.065,2.065,0,0,1,.913-1.741,3.835,3.835,0,0,1,2.328-.669,3.363,3.363,0,0,1,2.235.69,2.4,2.4,0,0,1,.841,1.894v3.274a3.353,3.353,0,0,0,.314,1.559V29Zm-1.442-1.5a1.285,1.285,0,0,0,.714-.185,1.157,1.157,0,0,0,.407-.417V25.712H94.6q-1.2,0-1.2,1.08a.659.659,0,0,0,.212.509A.767.767,0,0,0,94.153,27.5ZM45.143,45V35.047h3.206a4.716,4.716,0,0,1,2.372.6,4.2,4.2,0,0,1,1.644,1.688,5.1,5.1,0,0,1,.6,2.444v.458a5.127,5.127,0,0,1-.578,2.451,4.223,4.223,0,0,1-1.627,1.7A4.612,4.612,0,0,1,48.417,45Zm2.4-8.1v6.255h.834a1.867,1.867,0,0,0,1.586-.735,3.6,3.6,0,0,0,.554-2.184V39.8a3.572,3.572,0,0,0-.554-2.174,1.9,1.9,0,0,0-1.613-.731ZM61.9,41.288l1.142-6.241h2.379L63.313,45H60.824l-1.333-5.674L58.186,45H55.7l-2.119-9.953h2.386l1.142,6.241,1.367-6.241h2.037ZM16.486,61V51.047h3.206a4.716,4.716,0,0,1,2.372.6,4.2,4.2,0,0,1,1.644,1.688,5.1,5.1,0,0,1,.6,2.444v.458a5.127,5.127,0,0,1-.578,2.451,4.223,4.223,0,0,1-1.627,1.7A4.612,4.612,0,0,1,19.761,61Zm2.4-8.1v6.255h.834a1.867,1.867,0,0,0,1.586-.735,3.6,3.6,0,0,0,.554-2.184V55.8a3.572,3.572,0,0,0-.554-2.174,1.9,1.9,0,0,0-1.613-.731ZM27.861,61H25.551V53.6h2.311Zm-2.447-9.3a1.028,1.028,0,0,1,.355-.807,1.511,1.511,0,0,1,1.846,0,1.093,1.093,0,0,1,0,1.613,1.511,1.511,0,0,1-1.846,0A1.028,1.028,0,0,1,25.414,51.7ZM31.457,53.6l.075.868a2.543,2.543,0,0,1,2.112-1,1.872,1.872,0,0,1,1.894,1.114,2.462,2.462,0,0,1,2.174-1.114q2.249,0,2.311,2.721V61H37.712V56.331a1.41,1.41,0,0,0-.191-.827.815.815,0,0,0-.7-.26,1.091,1.091,0,0,0-1.019.608l.007.1V61H33.5V56.345a1.482,1.482,0,0,0-.185-.841.812.812,0,0,0-.7-.26,1.1,1.1,0,0,0-1.012.608V61H29.3V53.6Zm13.46,7.533a3.8,3.8,0,0,1-2.755-1.015,3.506,3.506,0,0,1-1.053-2.642v-.191a4.542,4.542,0,0,1,.42-2,3.076,3.076,0,0,1,1.227-1.343,3.7,3.7,0,0,1,1.914-.475,3.2,3.2,0,0,1,2.461.967,3.8,3.8,0,0,1,.9,2.7v.9h-4.58a1.66,1.66,0,0,0,.54.978,1.607,1.607,0,0,0,1.08.355,2.07,2.07,0,0,0,1.709-.766l1.053,1.244a2.943,2.943,0,0,1-1.22.947A4.124,4.124,0,0,1,44.917,61.137Zm-.26-5.893q-1.012,0-1.2,1.34h2.324v-.178a1.141,1.141,0,0,0-.28-.858A1.115,1.115,0,0,0,44.657,55.244ZM51.076,53.6l.075.868a2.508,2.508,0,0,1,2.112-1,2.11,2.11,0,0,1,1.726.69,3.287,3.287,0,0,1,.591,2.078V61H53.271V56.331a1.248,1.248,0,0,0-.226-.824,1.044,1.044,0,0,0-.82-.263,1.1,1.1,0,0,0-1,.533V61h-2.3V53.6Zm9.652,5.318a.532.532,0,0,0-.308-.472,4.679,4.679,0,0,0-1.169-.369,5.33,5.33,0,0,1-1.422-.5,2.382,2.382,0,0,1-.854-.755,1.8,1.8,0,0,1-.294-1.019,2.044,2.044,0,0,1,.841-1.678,3.464,3.464,0,0,1,2.2-.66,3.837,3.837,0,0,1,2.352.663,2.074,2.074,0,0,1,.889,1.743H60.653q0-.889-.937-.889a.928.928,0,0,0-.608.2.624.624,0,0,0-.246.5.573.573,0,0,0,.3.5,2.842,2.842,0,0,0,.96.314,8.3,8.3,0,0,1,1.159.294,2.105,2.105,0,0,1,1.668,2.058,1.937,1.937,0,0,1-.9,1.647,3.942,3.942,0,0,1-2.328.636,4.023,4.023,0,0,1-1.7-.342,2.835,2.835,0,0,1-1.162-.93,2.105,2.105,0,0,1-.417-1.237H58.6a.89.89,0,0,0,.342.749,1.406,1.406,0,0,0,.841.236,1.106,1.106,0,0,0,.708-.191A.612.612,0,0,0,60.729,58.922ZM66.457,61H64.146V53.6h2.311ZM64.01,51.7a1.028,1.028,0,0,1,.355-.807,1.511,1.511,0,0,1,1.846,0,1.093,1.093,0,0,1,0,1.613,1.511,1.511,0,0,1-1.846,0A1.028,1.028,0,0,1,64.01,51.7Zm3.575,5.537a4.366,4.366,0,0,1,.431-1.972,3.08,3.08,0,0,1,1.237-1.33,3.726,3.726,0,0,1,1.894-.465A3.4,3.4,0,0,1,73.765,54.5a3.948,3.948,0,0,1,.957,2.8v.082a3.83,3.83,0,0,1-.96,2.745,3.41,3.41,0,0,1-2.6,1.015,3.449,3.449,0,0,1-2.536-.947,3.7,3.7,0,0,1-1.032-2.567Zm2.3.144a2.752,2.752,0,0,0,.321,1.5,1.07,1.07,0,0,0,.95.479q1.23,0,1.258-1.894v-.232q0-1.989-1.271-1.989-1.155,0-1.251,1.716ZM77.853,53.6l.075.868a2.508,2.508,0,0,1,2.112-1,2.11,2.11,0,0,1,1.726.69,3.287,3.287,0,0,1,.591,2.078V61H80.047V56.331a1.248,1.248,0,0,0-.226-.824,1.044,1.044,0,0,0-.82-.263,1.1,1.1,0,0,0-1,.533V61h-2.3V53.6ZM87.8,61a2.6,2.6,0,0,1-.219-.663,2.142,2.142,0,0,1-1.777.8,2.624,2.624,0,0,1-1.777-.632,2.013,2.013,0,0,1-.731-1.589,2.069,2.069,0,0,1,.889-1.818,4.527,4.527,0,0,1,2.584-.615h.711V56.09q0-1.023-.882-1.023a.721.721,0,0,0-.82.811h-2.3a2.065,2.065,0,0,1,.913-1.741,3.835,3.835,0,0,1,2.328-.669,3.363,3.363,0,0,1,2.235.69,2.4,2.4,0,0,1,.841,1.894v3.274a3.353,3.353,0,0,0,.314,1.559V61Zm-1.442-1.5a1.285,1.285,0,0,0,.714-.185,1.157,1.157,0,0,0,.407-.417V57.712h-.67q-1.2,0-1.2,1.08a.659.659,0,0,0,.212.509A.767.767,0,0,0,86.356,59.5ZM93.493,61H91.183V50.5h2.311ZM57,73.6H52.891V71.818H57ZM21.777,91.141H18.489L17.915,93H15.352L19,83.047h2.256L24.936,93H22.358Zm-2.714-1.853H21.2L20.13,85.836Zm10.965-1.6-.759-.055a1.363,1.363,0,0,0-1.395.684V93h-2.3V85.6h2.16l.075.95a1.784,1.784,0,0,1,1.62-1.087,2.247,2.247,0,0,1,.643.082Zm.41,1.538a4.44,4.44,0,0,1,.766-2.762,2.515,2.515,0,0,1,2.112-1,2.148,2.148,0,0,1,1.818.93L35.3,85.6h2v10.24H34.984V92.385a2.144,2.144,0,0,1-1.682.752,2.493,2.493,0,0,1-2.088-1.015A4.687,4.687,0,0,1,30.438,89.227Zm2.3.144q0,1.989,1.148,1.989a1.112,1.112,0,0,0,1.094-.6V87.832a1.088,1.088,0,0,0-1.08-.588q-1.073,0-1.155,1.716ZM43,92.2a2.375,2.375,0,0,1-1.976.937,2.329,2.329,0,0,1-1.842-.708A2.976,2.976,0,0,1,38.56,90.4V85.6h2.3v4.806a.828.828,0,0,0,.923.95,1.2,1.2,0,0,0,1.128-.567V85.6h2.317V93h-2.16Zm5.92.8H46.612V85.6h2.311Zm-2.447-9.3a1.028,1.028,0,0,1,.355-.807,1.511,1.511,0,0,1,1.846,0,1.093,1.093,0,0,1,0,1.613,1.511,1.511,0,0,1-1.846,0A1.028,1.028,0,0,1,46.476,83.7Zm6.549.068V85.6h1.217v1.6H53.024v3.384a.864.864,0,0,0,.15.581.807.807,0,0,0,.595.164,3.38,3.38,0,0,0,.574-.041v1.647a4.251,4.251,0,0,1-1.3.2,2.413,2.413,0,0,1-1.757-.561,2.3,2.3,0,0,1-.567-1.7V87.2h-.943V85.6h.943V83.765Zm5.7,9.372a3.8,3.8,0,0,1-2.755-1.015,3.506,3.506,0,0,1-1.053-2.642v-.191a4.542,4.542,0,0,1,.42-2,3.076,3.076,0,0,1,1.227-1.343,3.7,3.7,0,0,1,1.914-.475,3.2,3.2,0,0,1,2.461.967,3.8,3.8,0,0,1,.9,2.7v.9h-4.58A1.66,1.66,0,0,0,57.8,91a1.607,1.607,0,0,0,1.08.355,2.07,2.07,0,0,0,1.709-.766l1.053,1.244a2.943,2.943,0,0,1-1.22.947A4.123,4.123,0,0,1,58.726,93.137Zm-.26-5.893q-1.012,0-1.2,1.34h2.324v-.178a1.141,1.141,0,0,0-.28-.858A1.115,1.115,0,0,0,58.466,87.244ZM65.9,91.359a1.025,1.025,0,0,0,.752-.263.965.965,0,0,0,.26-.735h2.16a2.557,2.557,0,0,1-.872,2,3.242,3.242,0,0,1-2.246.779,3.282,3.282,0,0,1-2.543-1.012,3.986,3.986,0,0,1-.93-2.8v-.1a4.505,4.505,0,0,1,.414-1.979,3.011,3.011,0,0,1,1.193-1.319,3.557,3.557,0,0,1,1.846-.461,3.2,3.2,0,0,1,2.29.8,2.837,2.837,0,0,1,.848,2.167h-2.16a1.265,1.265,0,0,0-.28-.882.967.967,0,0,0-.752-.308q-.9,0-1.046,1.142a8.056,8.056,0,0,0-.048,1,3.164,3.164,0,0,0,.267,1.545A.923.923,0,0,0,65.9,91.359Zm6.829-7.595V85.6h1.217v1.6H72.726v3.384a.864.864,0,0,0,.15.581.807.807,0,0,0,.595.164,3.379,3.379,0,0,0,.574-.041v1.647a4.251,4.251,0,0,1-1.3.2,2.413,2.413,0,0,1-1.757-.561,2.3,2.3,0,0,1-.567-1.7V87.2h-.943V85.6h.943V83.765ZM79.254,92.2a2.375,2.375,0,0,1-1.976.937,2.329,2.329,0,0,1-1.842-.708,2.976,2.976,0,0,1-.625-2.034V85.6h2.3v4.806a.828.828,0,0,0,.923.95,1.2,1.2,0,0,0,1.128-.567V85.6h2.317V93h-2.16Zm7.964-4.512-.759-.055a1.363,1.363,0,0,0-1.395.684V93h-2.3V85.6h2.16l.075.95a1.784,1.784,0,0,1,1.62-1.087,2.246,2.246,0,0,1,.643.082ZM92.01,93a2.6,2.6,0,0,1-.219-.663,2.142,2.142,0,0,1-1.777.8,2.624,2.624,0,0,1-1.777-.632,2.013,2.013,0,0,1-.731-1.589,2.069,2.069,0,0,1,.889-1.818,4.527,4.527,0,0,1,2.584-.615h.711V88.09q0-1.023-.882-1.023a.721.721,0,0,0-.82.811h-2.3a2.065,2.065,0,0,1,.913-1.741,3.835,3.835,0,0,1,2.328-.669,3.363,3.363,0,0,1,2.235.69A2.4,2.4,0,0,1,94,88.051v3.274a3.353,3.353,0,0,0,.314,1.559V93Zm-1.442-1.5a1.285,1.285,0,0,0,.714-.185,1.157,1.157,0,0,0,.407-.417V89.712h-.67q-1.2,0-1.2,1.08a.659.659,0,0,0,.212.509A.767.767,0,0,0,90.567,91.5ZM19.935,109V99.047H23.51a5.063,5.063,0,0,1,2.922.7,2.343,2.343,0,0,1,1,2.044,2.368,2.368,0,0,1-.355,1.319,2.071,2.071,0,0,1-1.046.807,2.1,2.1,0,0,1,1.2.766,2.226,2.226,0,0,1,.417,1.367,2.635,2.635,0,0,1-.926,2.2,4.408,4.408,0,0,1-2.745.749Zm2.4-4.231v2.386h1.572a1.5,1.5,0,0,0,1-.3,1.041,1.041,0,0,0,.349-.837,1.1,1.1,0,0,0-1.237-1.251Zm0-1.572h1.251a1.777,1.777,0,0,0,1.121-.288,1.022,1.022,0,0,0,.335-.83,1.073,1.073,0,0,0-.362-.908,1.939,1.939,0,0,0-1.169-.278H22.334Zm10.931,5a2.375,2.375,0,0,1-1.976.937,2.329,2.329,0,0,1-1.842-.708,2.976,2.976,0,0,1-.625-2.034V101.6h2.3v4.806a.828.828,0,0,0,.923.95,1.2,1.2,0,0,0,1.128-.567V101.6h2.317V109h-2.16Zm7.362-1.278a.532.532,0,0,0-.308-.472,4.679,4.679,0,0,0-1.169-.369,5.33,5.33,0,0,1-1.422-.5,2.382,2.382,0,0,1-.854-.755,1.8,1.8,0,0,1-.294-1.019,2.044,2.044,0,0,1,.841-1.678,3.464,3.464,0,0,1,2.2-.66,3.838,3.838,0,0,1,2.352.663,2.074,2.074,0,0,1,.889,1.743H40.552q0-.889-.937-.889a.928.928,0,0,0-.608.2.624.624,0,0,0-.246.5.573.573,0,0,0,.3.5,2.842,2.842,0,0,0,.96.314,8.3,8.3,0,0,1,1.159.294,2.105,2.105,0,0,1,1.668,2.058,1.937,1.937,0,0,1-.9,1.647,3.942,3.942,0,0,1-2.328.636,4.023,4.023,0,0,1-1.7-.342,2.835,2.835,0,0,1-1.162-.93,2.105,2.105,0,0,1-.417-1.237H38.5a.89.89,0,0,0,.342.749,1.406,1.406,0,0,0,.841.236,1.106,1.106,0,0,0,.708-.191A.612.612,0,0,0,40.627,106.922Zm6.494-1.675a4.518,4.518,0,0,1,.759-2.769A2.5,2.5,0,0,1,50,101.467a2.124,2.124,0,0,1,1.668.779V98.5h2.311V109H51.907l-.116-.793a2.181,2.181,0,0,1-1.8.93,2.493,2.493,0,0,1-2.092-1.012A4.662,4.662,0,0,1,47.122,105.247Zm2.3.144q0,1.969,1.148,1.969a1.134,1.134,0,0,0,1.094-.643V103.9a1.1,1.1,0,0,0-1.08-.656q-1.066,0-1.155,1.723Zm9.44,3.746a3.8,3.8,0,0,1-2.755-1.015,3.506,3.506,0,0,1-1.053-2.642v-.191a4.542,4.542,0,0,1,.42-2,3.076,3.076,0,0,1,1.227-1.343,3.7,3.7,0,0,1,1.914-.475,3.2,3.2,0,0,1,2.461.967,3.8,3.8,0,0,1,.9,2.7v.9H57.4a1.66,1.66,0,0,0,.54.978,1.607,1.607,0,0,0,1.08.355,2.07,2.07,0,0,0,1.709-.766l1.053,1.244a2.943,2.943,0,0,1-1.22.947A4.123,4.123,0,0,1,58.866,109.137Zm-.26-5.893q-1.012,0-1.2,1.34h2.324v-.178a1.141,1.141,0,0,0-.28-.858A1.115,1.115,0,0,0,58.606,103.244ZM65.339,109H63.029V98.5h2.311Zm5.011,0V99.047h3.206a4.716,4.716,0,0,1,2.372.6,4.2,4.2,0,0,1,1.644,1.688,5.1,5.1,0,0,1,.6,2.444v.458a5.127,5.127,0,0,1-.578,2.451,4.223,4.223,0,0,1-1.627,1.7,4.612,4.612,0,0,1-2.341.619Zm2.4-8.1v6.255h.834a1.867,1.867,0,0,0,1.586-.735,3.6,3.6,0,0,0,.554-2.184V103.8a3.572,3.572,0,0,0-.554-2.174,1.9,1.9,0,0,0-1.613-.731Zm14.362,4.389,1.142-6.241h2.379L88.52,109H86.032L84.7,103.326,83.393,109H80.912l-2.119-9.953h2.386l1.142,6.241,1.367-6.241h2.037Z" transform="translate(861 3902)" fill="#12263f"/>
    <path id="Trazado_254826" data-name="Trazado 254826" d="M0,0,36.641,45.33" transform="translate(805 3876.23)" fill="none" stroke="#000" stroke-linecap="round" stroke-width="1"/>
    <path id="Trazado_254827" data-name="Trazado 254827" d="M0,0H28.172" transform="translate(805 3958.5)" fill="none" stroke="#000" stroke-linecap="round" stroke-width="1"/>
    <path id="Trazado_254830" data-name="Trazado 254830" d="M0,0H65.219" transform="translate(998.958 3958.5)" fill="none" stroke="#000" stroke-linecap="round" stroke-width="1"/>
    <path id="Trazado_254828" data-name="Trazado 254828" d="M0,48.01,37.341,0" transform="translate(805 3995.99)" fill="none" stroke="#000" stroke-linecap="round" stroke-width="1"/>
    <path id="Trazado_204756" data-name="Trazado 204756" d="M100,7.479H0v65H0c0,4.143,22.386,7.5,50,7.5s50-3.357,50-7.5h0Z" transform="translate(705 3832.52)" fill="url(#linear-gradient)"/>
    <path id="Trazado_204757" data-name="Trazado 204757" d="M100,7.5c0,4.142-22.386,7.5-50,7.5S0,11.642,0,7.5,22.386,0,50,0s50,3.358,50,7.5" transform="translate(705 3832.999)" fill="#ffb30b"/>
    <path id="Trazado_254825" data-name="Trazado 254825" d="M8.094,4.12h-3.2V13H3.589V4.12H.4V3.047h7.7Zm4.341,2.618a3.79,3.79,0,0,0-.622-.048,1.667,1.667,0,0,0-1.688,1.06V13H8.859V5.6h1.23l.021.854a1.969,1.969,0,0,1,1.764-.991,1.292,1.292,0,0,1,.561.1ZM17.89,13a2.657,2.657,0,0,1-.178-.779,2.822,2.822,0,0,1-2.105.916,2.611,2.611,0,0,1-1.794-.619,2,2,0,0,1-.7-1.569,2.091,2.091,0,0,1,.878-1.794,4.142,4.142,0,0,1,2.471-.639h1.23V7.935a1.42,1.42,0,0,0-.4-1.056,1.593,1.593,0,0,0-1.169-.393,1.844,1.844,0,0,0-1.135.342,1.007,1.007,0,0,0-.458.827H13.262a1.745,1.745,0,0,1,.393-1.07,2.683,2.683,0,0,1,1.066-.817,3.588,3.588,0,0,1,1.48-.3,2.924,2.924,0,0,1,2,.639,2.306,2.306,0,0,1,.752,1.76v3.4a4.162,4.162,0,0,0,.26,1.62V13Zm-2.1-.964a2.223,2.223,0,0,0,1.128-.308,1.861,1.861,0,0,0,.772-.8V9.411H16.7q-2.324,0-2.324,1.36a1.151,1.151,0,0,0,.4.93A1.524,1.524,0,0,0,15.791,12.036ZM22.135,5.6l.041.93a2.7,2.7,0,0,1,2.215-1.066q2.345,0,2.365,2.646V13H25.491V8.105a1.7,1.7,0,0,0-.366-1.183,1.466,1.466,0,0,0-1.118-.383,1.825,1.825,0,0,0-1.08.328,2.228,2.228,0,0,0-.725.861V13H20.938V5.6ZM32.97,11.038a.931.931,0,0,0-.386-.8,3.718,3.718,0,0,0-1.347-.489,6.367,6.367,0,0,1-1.524-.492,2.169,2.169,0,0,1-.834-.684,1.635,1.635,0,0,1-.27-.943A1.919,1.919,0,0,1,29.377,6.1a3,3,0,0,1,1.965-.629,3.091,3.091,0,0,1,2.041.649,2.063,2.063,0,0,1,.783,1.661H32.895a1.142,1.142,0,0,0-.441-.9,1.652,1.652,0,0,0-1.111-.376,1.729,1.729,0,0,0-1.08.3.947.947,0,0,0-.39.786.767.767,0,0,0,.362.69,4.458,4.458,0,0,0,1.309.444,6.821,6.821,0,0,1,1.535.506,2.239,2.239,0,0,1,.872.708,1.74,1.74,0,0,1,.284,1.008,1.893,1.893,0,0,1-.793,1.589,3.326,3.326,0,0,1-2.058.6,3.725,3.725,0,0,1-1.572-.314,2.557,2.557,0,0,1-1.07-.878,2.117,2.117,0,0,1-.386-1.22H29.62a1.309,1.309,0,0,0,.509,1.008,1.976,1.976,0,0,0,1.254.373,2.039,2.039,0,0,0,1.152-.291A.893.893,0,0,0,32.97,11.038ZM40.448,13a2.657,2.657,0,0,1-.178-.779,2.822,2.822,0,0,1-2.105.916,2.611,2.611,0,0,1-1.794-.619,2,2,0,0,1-.7-1.569,2.091,2.091,0,0,1,.878-1.794,4.142,4.142,0,0,1,2.471-.639h1.23V7.935a1.42,1.42,0,0,0-.4-1.056,1.593,1.593,0,0,0-1.169-.393,1.844,1.844,0,0,0-1.135.342,1.007,1.007,0,0,0-.458.827H35.82a1.745,1.745,0,0,1,.393-1.07,2.683,2.683,0,0,1,1.066-.817,3.588,3.588,0,0,1,1.48-.3,2.924,2.924,0,0,1,2,.639,2.306,2.306,0,0,1,.752,1.76v3.4a4.162,4.162,0,0,0,.26,1.62V13Zm-2.1-.964a2.223,2.223,0,0,0,1.128-.308,1.861,1.861,0,0,0,.772-.8V9.411h-.991q-2.324,0-2.324,1.36a1.151,1.151,0,0,0,.4.93A1.524,1.524,0,0,0,38.35,12.036Zm8.114.068a1.822,1.822,0,0,0,1.183-.41,1.443,1.443,0,0,0,.561-1.025h1.2a2.293,2.293,0,0,1-.437,1.21,2.881,2.881,0,0,1-1.077.916,3.107,3.107,0,0,1-1.425.342,3.047,3.047,0,0,1-2.4-1.008,4.016,4.016,0,0,1-.892-2.758V9.158a4.453,4.453,0,0,1,.4-1.921A3.02,3.02,0,0,1,44.7,5.932a3.233,3.233,0,0,1,1.753-.465,2.966,2.966,0,0,1,2.068.745A2.663,2.663,0,0,1,49.4,8.146h-1.2a1.743,1.743,0,0,0-.543-1.179,1.691,1.691,0,0,0-1.207-.461,1.77,1.77,0,0,0-1.494.694,3.259,3.259,0,0,0-.53,2.006v.239a3.194,3.194,0,0,0,.526,1.969A1.779,1.779,0,0,0,46.464,12.1Zm7.328,0a1.822,1.822,0,0,0,1.183-.41,1.443,1.443,0,0,0,.561-1.025h1.2a2.293,2.293,0,0,1-.437,1.21,2.881,2.881,0,0,1-1.077.916,3.107,3.107,0,0,1-1.425.342,3.047,3.047,0,0,1-2.4-1.008A4.016,4.016,0,0,1,50.5,9.37V9.158a4.453,4.453,0,0,1,.4-1.921,3.02,3.02,0,0,1,1.138-1.306,3.233,3.233,0,0,1,1.753-.465,2.966,2.966,0,0,1,2.068.745,2.663,2.663,0,0,1,.878,1.935h-1.2a1.743,1.743,0,0,0-.543-1.179,1.691,1.691,0,0,0-1.207-.461,1.77,1.77,0,0,0-1.494.694,3.259,3.259,0,0,0-.53,2.006v.239a3.194,3.194,0,0,0,.526,1.969A1.779,1.779,0,0,0,53.792,12.1Zm5.735.9H58.263V5.6h1.265ZM58.16,3.642a.755.755,0,0,1,.188-.52.706.706,0,0,1,.557-.212.717.717,0,0,1,.561.212.747.747,0,0,1,.191.52.722.722,0,0,1-.191.513.73.73,0,0,1-.561.205.718.718,0,0,1-.557-.205A.73.73,0,0,1,58.16,3.642Zm3.056,5.592a4.369,4.369,0,0,1,.427-1.955,3.187,3.187,0,0,1,1.189-1.34,3.238,3.238,0,0,1,1.74-.472,3.119,3.119,0,0,1,2.444,1.046,4.024,4.024,0,0,1,.933,2.782v.089a4.407,4.407,0,0,1-.414,1.938,3.14,3.14,0,0,1-1.183,1.336,3.275,3.275,0,0,1-1.767.479,3.111,3.111,0,0,1-2.437-1.046,4,4,0,0,1-.933-2.769Zm1.271.15a3.164,3.164,0,0,0,.571,1.976,1.934,1.934,0,0,0,3.059-.01,3.46,3.46,0,0,0,.567-2.116,3.159,3.159,0,0,0-.578-1.972,1.836,1.836,0,0,0-1.535-.755,1.816,1.816,0,0,0-1.511.745A3.435,3.435,0,0,0,62.487,9.384ZM70.731,5.6l.041.93a2.7,2.7,0,0,1,2.215-1.066q2.345,0,2.365,2.646V13H74.088V8.105a1.7,1.7,0,0,0-.366-1.183A1.466,1.466,0,0,0,72.6,6.54a1.825,1.825,0,0,0-1.08.328,2.228,2.228,0,0,0-.725.861V13H69.535V5.6Zm9.6,7.533a3.232,3.232,0,0,1-2.447-.988,3.666,3.666,0,0,1-.943-2.642V9.274a4.438,4.438,0,0,1,.42-1.965,3.28,3.28,0,0,1,1.176-1.354,2.956,2.956,0,0,1,1.637-.489,2.77,2.77,0,0,1,2.242.95,4.114,4.114,0,0,1,.8,2.721v.526H78.2a2.629,2.629,0,0,0,.639,1.767A2.009,2.009,0,0,0,80.4,12.1a2.2,2.2,0,0,0,1.135-.273,2.851,2.851,0,0,0,.813-.725l.772.6A3.106,3.106,0,0,1,80.329,13.137Zm-.157-6.631a1.687,1.687,0,0,0-1.285.557,2.708,2.708,0,0,0-.643,1.562h3.705v-.1a2.409,2.409,0,0,0-.52-1.494A1.588,1.588,0,0,0,80.172,6.506Zm8.812,4.532a.931.931,0,0,0-.386-.8,3.718,3.718,0,0,0-1.347-.489,6.367,6.367,0,0,1-1.524-.492,2.169,2.169,0,0,1-.834-.684,1.635,1.635,0,0,1-.27-.943A1.919,1.919,0,0,1,85.391,6.1a3,3,0,0,1,1.965-.629,3.091,3.091,0,0,1,2.041.649,2.063,2.063,0,0,1,.783,1.661H88.908a1.142,1.142,0,0,0-.441-.9,1.652,1.652,0,0,0-1.111-.376,1.729,1.729,0,0,0-1.08.3.947.947,0,0,0-.39.786.767.767,0,0,0,.362.69,4.458,4.458,0,0,0,1.309.444,6.821,6.821,0,0,1,1.535.506,2.239,2.239,0,0,1,.872.708,1.74,1.74,0,0,1,.284,1.008,1.893,1.893,0,0,1-.793,1.589,3.326,3.326,0,0,1-2.058.6,3.725,3.725,0,0,1-1.572-.314,2.557,2.557,0,0,1-1.07-.878,2.117,2.117,0,0,1-.386-1.22h1.265a1.309,1.309,0,0,0,.509,1.008A1.976,1.976,0,0,0,87.4,12.1a2.039,2.039,0,0,0,1.152-.291A.893.893,0,0,0,88.983,11.038ZM18.946,25.24a4.333,4.333,0,0,1,.807-2.738,2.745,2.745,0,0,1,4.17-.147V18.5h1.265V29H24.025l-.062-.793a2.575,2.575,0,0,1-2.112.93,2.526,2.526,0,0,1-2.1-1.053,4.382,4.382,0,0,1-.81-2.748Zm1.265.144a3.281,3.281,0,0,0,.52,1.969,1.68,1.68,0,0,0,1.436.711,1.845,1.845,0,0,0,1.757-1.08v-3.4a1.859,1.859,0,0,0-1.743-1.046,1.687,1.687,0,0,0-1.449.718A3.612,3.612,0,0,0,20.21,25.384Zm10.008,3.753a3.232,3.232,0,0,1-2.447-.988,3.666,3.666,0,0,1-.943-2.642v-.232a4.438,4.438,0,0,1,.42-1.965,3.28,3.28,0,0,1,1.176-1.354,2.956,2.956,0,0,1,1.637-.489,2.77,2.77,0,0,1,2.242.95,4.114,4.114,0,0,1,.8,2.721v.526H28.092a2.629,2.629,0,0,0,.639,1.767,2.009,2.009,0,0,0,1.555.673,2.2,2.2,0,0,0,1.135-.273,2.851,2.851,0,0,0,.813-.725l.772.6A3.106,3.106,0,0,1,30.218,29.137Zm-.157-6.631a1.687,1.687,0,0,0-1.285.557,2.708,2.708,0,0,0-.643,1.562h3.705v-.1a2.409,2.409,0,0,0-.52-1.494A1.588,1.588,0,0,0,30.061,22.506ZM37.7,25.233a4.369,4.369,0,0,1,.427-1.955,3.187,3.187,0,0,1,1.189-1.34,3.238,3.238,0,0,1,1.74-.472A3.119,3.119,0,0,1,43.5,22.513a4.024,4.024,0,0,1,.933,2.782v.089a4.407,4.407,0,0,1-.414,1.938,3.14,3.14,0,0,1-1.183,1.336,3.275,3.275,0,0,1-1.767.479,3.111,3.111,0,0,1-2.437-1.046,4,4,0,0,1-.933-2.769Zm1.271.15a3.164,3.164,0,0,0,.571,1.976,1.934,1.934,0,0,0,3.059-.01,3.46,3.46,0,0,0,.567-2.116,3.159,3.159,0,0,0-.578-1.972,1.836,1.836,0,0,0-1.535-.755,1.816,1.816,0,0,0-1.511.745A3.434,3.434,0,0,0,38.968,25.384Zm10.623-2.646a3.79,3.79,0,0,0-.622-.048,1.667,1.667,0,0,0-1.688,1.06V29H46.016V21.6h1.23l.021.854a1.969,1.969,0,0,1,1.764-.991,1.292,1.292,0,0,1,.561.1Zm.725,2.5a4.333,4.333,0,0,1,.807-2.738,2.745,2.745,0,0,1,4.17-.147V18.5h1.265V29H55.4l-.062-.793a2.575,2.575,0,0,1-2.112.93,2.526,2.526,0,0,1-2.1-1.053,4.382,4.382,0,0,1-.81-2.748Zm1.265.144a3.281,3.281,0,0,0,.52,1.969,1.68,1.68,0,0,0,1.436.711,1.845,1.845,0,0,0,1.757-1.08v-3.4a1.859,1.859,0,0,0-1.743-1.046,1.687,1.687,0,0,0-1.449.718A3.612,3.612,0,0,0,51.581,25.384Zm10.008,3.753a3.232,3.232,0,0,1-2.447-.988,3.666,3.666,0,0,1-.943-2.642v-.232a4.438,4.438,0,0,1,.42-1.965,3.279,3.279,0,0,1,1.176-1.354,2.956,2.956,0,0,1,1.637-.489,2.77,2.77,0,0,1,2.242.95,4.114,4.114,0,0,1,.8,2.721v.526H59.462a2.629,2.629,0,0,0,.639,1.767,2.009,2.009,0,0,0,1.555.673,2.2,2.2,0,0,0,1.135-.273,2.851,2.851,0,0,0,.813-.725l.772.6A3.106,3.106,0,0,1,61.588,29.137Zm-.157-6.631a1.687,1.687,0,0,0-1.285.557,2.708,2.708,0,0,0-.643,1.562h3.705v-.1a2.409,2.409,0,0,0-.52-1.494A1.588,1.588,0,0,0,61.431,22.506Zm5.7-.9.041.93a2.7,2.7,0,0,1,2.215-1.066q2.345,0,2.365,2.646V29H70.489V24.105a1.7,1.7,0,0,0-.366-1.183,1.466,1.466,0,0,0-1.118-.383,1.825,1.825,0,0,0-1.08.328,2.228,2.228,0,0,0-.725.861V29H65.936V21.6Z" transform="translate(710 3859.999)" fill="#12263f"/>
    <path id="Trazado_204758" data-name="Trazado 204758" d="M100,93.489H0v65H0c0,4.143,22.386,7.5,50,7.5s50-3.357,50-7.5h0Z" transform="translate(705 3832.51)" fill="url(#linear-gradient-2)"/>
    <path id="Trazado_204759" data-name="Trazado 204759" d="M100,93.51c0,4.142-22.386,7.5-50,7.5S0,97.652,0,93.51s22.386-7.5,50-7.5,50,3.358,50,7.5" transform="translate(705 3832.999)" fill="#97afc8"/>
    <path id="Trazado_254824" data-name="Trazado 254824" d="M8.727,13H7.414V3.047H8.727Zm3.4-7.4.041.93A2.7,2.7,0,0,1,14.38,5.467q2.345,0,2.365,2.646V13H15.48V8.105a1.7,1.7,0,0,0-.366-1.183A1.466,1.466,0,0,0,14,6.54a1.825,1.825,0,0,0-1.08.328,2.228,2.228,0,0,0-.725.861V13H10.928V5.6Zm8.969,5.681L22.925,5.6h1.292L21.564,13H20.6l-2.68-7.4h1.292Zm7.321,1.853a3.232,3.232,0,0,1-2.447-.988,3.666,3.666,0,0,1-.943-2.642V9.274a4.438,4.438,0,0,1,.42-1.965A3.28,3.28,0,0,1,26.62,5.956a2.956,2.956,0,0,1,1.637-.489,2.77,2.77,0,0,1,2.242.95,4.114,4.114,0,0,1,.8,2.721v.526H26.288a2.629,2.629,0,0,0,.639,1.767,2.009,2.009,0,0,0,1.555.673,2.2,2.2,0,0,0,1.135-.273,2.851,2.851,0,0,0,.813-.725l.772.6A3.106,3.106,0,0,1,28.414,13.137Zm-.157-6.631a1.687,1.687,0,0,0-1.285.557,2.708,2.708,0,0,0-.643,1.562h3.705v-.1a2.409,2.409,0,0,0-.52-1.494A1.588,1.588,0,0,0,28.257,6.506Zm5.7-.9.041.93a2.7,2.7,0,0,1,2.215-1.066q2.345,0,2.365,2.646V13H37.314V8.105a1.7,1.7,0,0,0-.366-1.183,1.466,1.466,0,0,0-1.118-.383,1.825,1.825,0,0,0-1.08.328,2.228,2.228,0,0,0-.725.861V13H32.762V5.6ZM42.2,3.813V5.6h1.381v.978H42.2v4.593a1.027,1.027,0,0,0,.185.667.777.777,0,0,0,.629.222,3.062,3.062,0,0,0,.6-.082V13a3.688,3.688,0,0,1-.971.136,1.575,1.575,0,0,1-1.278-.513,2.2,2.2,0,0,1-.431-1.456V6.581H39.591V5.6h1.347V3.813ZM49.626,13a2.657,2.657,0,0,1-.178-.779,2.822,2.822,0,0,1-2.105.916,2.611,2.611,0,0,1-1.794-.619,2,2,0,0,1-.7-1.569,2.091,2.091,0,0,1,.878-1.794A4.142,4.142,0,0,1,48.2,8.516h1.23V7.935a1.42,1.42,0,0,0-.4-1.056,1.593,1.593,0,0,0-1.169-.393,1.844,1.844,0,0,0-1.135.342,1.007,1.007,0,0,0-.458.827H45a1.745,1.745,0,0,1,.393-1.07,2.683,2.683,0,0,1,1.066-.817,3.588,3.588,0,0,1,1.48-.3,2.924,2.924,0,0,1,2,.639,2.306,2.306,0,0,1,.752,1.76v3.4a4.162,4.162,0,0,0,.26,1.62V13Zm-2.1-.964a2.223,2.223,0,0,0,1.128-.308,1.861,1.861,0,0,0,.772-.8V9.411h-.991q-2.324,0-2.324,1.36a1.151,1.151,0,0,0,.4.93A1.524,1.524,0,0,0,47.527,12.036Zm8.723-5.3a3.79,3.79,0,0,0-.622-.048,1.667,1.667,0,0,0-1.688,1.06V13H52.675V5.6h1.23l.021.854a1.969,1.969,0,0,1,1.764-.991,1.292,1.292,0,0,1,.561.1ZM58.786,13H57.521V5.6h1.265ZM57.419,3.642a.755.755,0,0,1,.188-.52.706.706,0,0,1,.557-.212.717.717,0,0,1,.561.212.747.747,0,0,1,.191.52.722.722,0,0,1-.191.513.73.73,0,0,1-.561.205.718.718,0,0,1-.557-.205A.73.73,0,0,1,57.419,3.642Zm3.056,5.592A4.369,4.369,0,0,1,60.9,7.278a3.187,3.187,0,0,1,1.189-1.34,3.238,3.238,0,0,1,1.74-.472,3.119,3.119,0,0,1,2.444,1.046,4.024,4.024,0,0,1,.933,2.782v.089a4.407,4.407,0,0,1-.414,1.938,3.14,3.14,0,0,1-1.183,1.336,3.275,3.275,0,0,1-1.767.479,3.111,3.111,0,0,1-2.437-1.046,4,4,0,0,1-.933-2.769Zm1.271.15a3.164,3.164,0,0,0,.571,1.976,1.934,1.934,0,0,0,3.059-.01,3.46,3.46,0,0,0,.567-2.116,3.159,3.159,0,0,0-.578-1.972,1.836,1.836,0,0,0-1.535-.755,1.816,1.816,0,0,0-1.511.745A3.435,3.435,0,0,0,61.746,9.384ZM.729,25.24A4.333,4.333,0,0,1,1.535,22.5a2.551,2.551,0,0,1,2.112-1.036,2.565,2.565,0,0,1,2.058.889V18.5H6.97V29H5.808l-.062-.793a2.575,2.575,0,0,1-2.112.93,2.526,2.526,0,0,1-2.1-1.053,4.382,4.382,0,0,1-.81-2.748Zm1.265.144a3.281,3.281,0,0,0,.52,1.969,1.68,1.68,0,0,0,1.436.711,1.845,1.845,0,0,0,1.757-1.08v-3.4A1.859,1.859,0,0,0,3.962,22.54a1.687,1.687,0,0,0-1.449.718A3.612,3.612,0,0,0,1.993,25.384ZM12,29.137a3.232,3.232,0,0,1-2.447-.988,3.666,3.666,0,0,1-.943-2.642v-.232a4.438,4.438,0,0,1,.42-1.965,3.28,3.28,0,0,1,1.176-1.354,2.956,2.956,0,0,1,1.637-.489,2.77,2.77,0,0,1,2.242.95,4.114,4.114,0,0,1,.8,2.721v.526H9.875a2.629,2.629,0,0,0,.639,1.767,2.009,2.009,0,0,0,1.555.673,2.2,2.2,0,0,0,1.135-.273,2.851,2.851,0,0,0,.813-.725l.772.6A3.106,3.106,0,0,1,12,29.137Zm-.157-6.631a1.687,1.687,0,0,0-1.285.557,2.708,2.708,0,0,0-.643,1.562h3.705v-.1a2.409,2.409,0,0,0-.52-1.494A1.588,1.588,0,0,0,11.844,22.506ZM17.723,29H16.458V18.5h1.265Zm9.338-4.026H24.723V29H23.4V19.047H26.7a3.9,3.9,0,0,1,2.587.766,2.755,2.755,0,0,1,.906,2.229,2.68,2.68,0,0,1-.5,1.62,3,3,0,0,1-1.4,1.032l2.338,4.225V29H29.221ZM24.723,23.9h2.017a2.275,2.275,0,0,0,1.555-.507,1.714,1.714,0,0,0,.578-1.356,1.8,1.8,0,0,0-.55-1.418,2.33,2.33,0,0,0-1.589-.5h-2.01ZM34.9,29.137a3.232,3.232,0,0,1-2.447-.988,3.666,3.666,0,0,1-.943-2.642v-.232a4.438,4.438,0,0,1,.42-1.965,3.279,3.279,0,0,1,1.176-1.354,2.956,2.956,0,0,1,1.637-.489,2.77,2.77,0,0,1,2.242.95,4.114,4.114,0,0,1,.8,2.721v.526H32.775a2.629,2.629,0,0,0,.639,1.767,2.009,2.009,0,0,0,1.555.673,2.2,2.2,0,0,0,1.135-.273,2.851,2.851,0,0,0,.813-.725l.772.6A3.106,3.106,0,0,1,34.9,29.137Zm-.157-6.631a1.687,1.687,0,0,0-1.285.557,2.708,2.708,0,0,0-.643,1.562h3.705v-.1A2.409,2.409,0,0,0,36,23.036,1.588,1.588,0,0,0,34.744,22.506Zm4.2,2.734a4.347,4.347,0,0,1,.8-2.751,2.757,2.757,0,0,1,4.231-.065l.062-.82H45.2v7.219a3.009,3.009,0,0,1-.851,2.263,3.141,3.141,0,0,1-2.287.827,3.8,3.8,0,0,1-1.565-.342,2.7,2.7,0,0,1-1.169-.937l.656-.759a2.473,2.473,0,0,0,1.989,1,1.938,1.938,0,0,0,1.439-.52,1.986,1.986,0,0,0,.516-1.463v-.636a2.6,2.6,0,0,1-2.071.875,2.526,2.526,0,0,1-2.1-1.046A4.571,4.571,0,0,1,38.948,25.24Zm1.271.144a3.316,3.316,0,0,0,.513,1.965,1.666,1.666,0,0,0,1.436.714,1.852,1.852,0,0,0,1.757-1.087V23.6a1.874,1.874,0,0,0-1.743-1.06,1.681,1.681,0,0,0-1.442.718A3.612,3.612,0,0,0,40.22,25.384ZM48.478,29H47.213V21.6h1.265ZM47.11,19.642a.755.755,0,0,1,.188-.52.706.706,0,0,1,.557-.212.717.717,0,0,1,.561.212.747.747,0,0,1,.191.52.722.722,0,0,1-.191.513.73.73,0,0,1-.561.205.718.718,0,0,1-.557-.205A.73.73,0,0,1,47.11,19.642Zm7.7,7.4a.931.931,0,0,0-.386-.8,3.718,3.718,0,0,0-1.347-.489,6.367,6.367,0,0,1-1.524-.492,2.169,2.169,0,0,1-.834-.684,1.635,1.635,0,0,1-.27-.943,1.919,1.919,0,0,1,.769-1.538,3,3,0,0,1,1.965-.629,3.091,3.091,0,0,1,2.041.649A2.063,2.063,0,0,1,56,23.777H54.732a1.142,1.142,0,0,0-.441-.9,1.652,1.652,0,0,0-1.111-.376,1.729,1.729,0,0,0-1.08.3.947.947,0,0,0-.39.786.767.767,0,0,0,.362.69,4.458,4.458,0,0,0,1.309.444,6.821,6.821,0,0,1,1.535.506,2.239,2.239,0,0,1,.872.708,1.74,1.74,0,0,1,.284,1.008,1.893,1.893,0,0,1-.793,1.589,3.326,3.326,0,0,1-2.058.6,3.725,3.725,0,0,1-1.572-.314,2.557,2.557,0,0,1-1.07-.878,2.117,2.117,0,0,1-.386-1.22h1.265a1.309,1.309,0,0,0,.509,1.008,1.976,1.976,0,0,0,1.254.373,2.039,2.039,0,0,0,1.152-.291A.893.893,0,0,0,54.808,27.038Zm4.628-7.226V21.6h1.381v.978H59.436v4.593a1.027,1.027,0,0,0,.185.667.777.777,0,0,0,.629.222,3.062,3.062,0,0,0,.6-.082V29a3.688,3.688,0,0,1-.971.136,1.575,1.575,0,0,1-1.278-.513,2.2,2.2,0,0,1-.431-1.456V22.581H56.824V21.6h1.347V19.813Zm6.433,2.926a3.79,3.79,0,0,0-.622-.048,1.667,1.667,0,0,0-1.688,1.06V29H62.293V21.6h1.23l.021.854a1.969,1.969,0,0,1,1.764-.991,1.292,1.292,0,0,1,.561.1Zm.69,2.5a4.369,4.369,0,0,1,.427-1.955,3.187,3.187,0,0,1,1.189-1.34,3.238,3.238,0,0,1,1.74-.472,3.119,3.119,0,0,1,2.444,1.046,4.024,4.024,0,0,1,.933,2.782v.089a4.407,4.407,0,0,1-.414,1.938A3.14,3.14,0,0,1,71.7,28.658a3.275,3.275,0,0,1-1.767.479,3.111,3.111,0,0,1-2.437-1.046,4,4,0,0,1-.933-2.769Zm1.271.15a3.164,3.164,0,0,0,.571,1.976,1.934,1.934,0,0,0,3.059-.01,3.46,3.46,0,0,0,.567-2.116,3.159,3.159,0,0,0-.578-1.972,1.836,1.836,0,0,0-1.535-.755,1.816,1.816,0,0,0-1.511.745A3.434,3.434,0,0,0,67.83,25.384ZM2.574,45H1.262V35.047H2.574Zm3.4-7.4.041.93a2.7,2.7,0,0,1,2.215-1.066q2.345,0,2.365,2.646V45H9.328V40.105a1.7,1.7,0,0,0-.366-1.183,1.466,1.466,0,0,0-1.118-.383,1.825,1.825,0,0,0-1.08.328,2.228,2.228,0,0,0-.725.861V45H4.775V37.6Zm10.835,5.435a.931.931,0,0,0-.386-.8,3.718,3.718,0,0,0-1.347-.489,6.367,6.367,0,0,1-1.524-.492,2.169,2.169,0,0,1-.834-.684,1.635,1.635,0,0,1-.27-.943,1.919,1.919,0,0,1,.769-1.538,3,3,0,0,1,1.965-.629,3.091,3.091,0,0,1,2.041.649A2.063,2.063,0,0,1,18,39.777H16.731a1.142,1.142,0,0,0-.441-.9,1.652,1.652,0,0,0-1.111-.376,1.729,1.729,0,0,0-1.08.3.947.947,0,0,0-.39.786.767.767,0,0,0,.362.69,4.458,4.458,0,0,0,1.309.444,6.821,6.821,0,0,1,1.535.506,2.239,2.239,0,0,1,.872.708,1.74,1.74,0,0,1,.284,1.008,1.893,1.893,0,0,1-.793,1.589,3.326,3.326,0,0,1-2.058.6,3.725,3.725,0,0,1-1.572-.314,2.557,2.557,0,0,1-1.07-.878,2.117,2.117,0,0,1-.386-1.22h1.265a1.309,1.309,0,0,0,.509,1.008,1.976,1.976,0,0,0,1.254.373,2.039,2.039,0,0,0,1.152-.291A.893.893,0,0,0,16.807,43.038Zm4.628-7.226V37.6h1.381v.978H21.435v4.593a1.027,1.027,0,0,0,.185.667.777.777,0,0,0,.629.222,3.062,3.062,0,0,0,.6-.082V45a3.688,3.688,0,0,1-.971.136,1.575,1.575,0,0,1-1.278-.513,2.2,2.2,0,0,1-.431-1.456V38.581H18.823V37.6H20.17V35.813ZM28.858,45a2.657,2.657,0,0,1-.178-.779,2.822,2.822,0,0,1-2.105.916,2.611,2.611,0,0,1-1.794-.619,2,2,0,0,1-.7-1.569,2.091,2.091,0,0,1,.878-1.794,4.142,4.142,0,0,1,2.471-.639h1.23v-.581a1.42,1.42,0,0,0-.4-1.056,1.593,1.593,0,0,0-1.169-.393,1.844,1.844,0,0,0-1.135.342,1.007,1.007,0,0,0-.458.827H24.23a1.745,1.745,0,0,1,.393-1.07,2.683,2.683,0,0,1,1.066-.817,3.588,3.588,0,0,1,1.48-.3,2.924,2.924,0,0,1,2,.639,2.306,2.306,0,0,1,.752,1.76v3.4a4.162,4.162,0,0,0,.26,1.62V45Zm-2.1-.964a2.223,2.223,0,0,0,1.128-.308,1.861,1.861,0,0,0,.772-.8V41.411h-.991q-2.324,0-2.324,1.36a1.151,1.151,0,0,0,.4.93A1.524,1.524,0,0,0,26.76,44.036ZM33.1,37.6l.041.93a2.7,2.7,0,0,1,2.215-1.066q2.345,0,2.365,2.646V45H36.46V40.105a1.7,1.7,0,0,0-.366-1.183,1.466,1.466,0,0,0-1.118-.383,1.825,1.825,0,0,0-1.08.328,2.228,2.228,0,0,0-.725.861V45H31.907V37.6Zm8.244-1.791V37.6h1.381v.978H41.348v4.593a1.027,1.027,0,0,0,.185.667.777.777,0,0,0,.629.222,3.062,3.062,0,0,0,.6-.082V45a3.688,3.688,0,0,1-.971.136,1.575,1.575,0,0,1-1.278-.513,2.2,2.2,0,0,1-.431-1.456V38.581H38.736V37.6h1.347V35.813ZM48.771,45a2.657,2.657,0,0,1-.178-.779,2.822,2.822,0,0,1-2.105.916,2.611,2.611,0,0,1-1.794-.619,2,2,0,0,1-.7-1.569,2.091,2.091,0,0,1,.878-1.794,4.142,4.142,0,0,1,2.471-.639h1.23v-.581a1.42,1.42,0,0,0-.4-1.056,1.593,1.593,0,0,0-1.169-.393,1.844,1.844,0,0,0-1.135.342,1.007,1.007,0,0,0-.458.827H44.144a1.745,1.745,0,0,1,.393-1.07,2.683,2.683,0,0,1,1.066-.817,3.588,3.588,0,0,1,1.48-.3,2.924,2.924,0,0,1,2,.639,2.306,2.306,0,0,1,.752,1.76v3.4a4.162,4.162,0,0,0,.26,1.62V45Zm-2.1-.964a2.223,2.223,0,0,0,1.128-.308,1.861,1.861,0,0,0,.772-.8V41.411h-.991q-2.324,0-2.324,1.36a1.151,1.151,0,0,0,.4.93A1.524,1.524,0,0,0,46.673,44.036ZM47.842,34.5h1.531l-1.832,2.01-1.019,0Zm5.175,3.1.041.93a2.7,2.7,0,0,1,2.215-1.066q2.345,0,2.365,2.646V45H56.373V40.105a1.7,1.7,0,0,0-.366-1.183,1.466,1.466,0,0,0-1.118-.383,1.825,1.825,0,0,0-1.08.328,2.228,2.228,0,0,0-.725.861V45H51.82V37.6Zm9.6,7.533a3.232,3.232,0,0,1-2.447-.988,3.666,3.666,0,0,1-.943-2.642v-.232a4.438,4.438,0,0,1,.42-1.965,3.28,3.28,0,0,1,1.176-1.354,2.956,2.956,0,0,1,1.637-.489,2.77,2.77,0,0,1,2.242.95,4.114,4.114,0,0,1,.8,2.721v.526H60.488a2.629,2.629,0,0,0,.639,1.767,2.009,2.009,0,0,0,1.555.673,2.2,2.2,0,0,0,1.135-.273,2.851,2.851,0,0,0,.813-.725l.772.6A3.106,3.106,0,0,1,62.614,45.137Zm-.157-6.631a1.687,1.687,0,0,0-1.285.557,2.708,2.708,0,0,0-.643,1.562h3.705v-.1a2.409,2.409,0,0,0-.52-1.494A1.588,1.588,0,0,0,62.457,38.506Zm4.17,2.728a4.369,4.369,0,0,1,.427-1.955,3.187,3.187,0,0,1,1.189-1.34,3.238,3.238,0,0,1,1.74-.472,3.119,3.119,0,0,1,2.444,1.046,4.024,4.024,0,0,1,.933,2.782v.089a4.407,4.407,0,0,1-.414,1.938,3.14,3.14,0,0,1-1.183,1.336A3.275,3.275,0,0,1,70,45.137a3.111,3.111,0,0,1-2.437-1.046,4,4,0,0,1-.933-2.769Zm1.271.15a3.164,3.164,0,0,0,.571,1.976,1.934,1.934,0,0,0,3.059-.01,3.46,3.46,0,0,0,.567-2.116,3.159,3.159,0,0,0-.578-1.972,1.836,1.836,0,0,0-1.535-.755,1.816,1.816,0,0,0-1.511.745A3.435,3.435,0,0,0,67.9,41.384ZM10.042,57.24a4.333,4.333,0,0,1,.807-2.738,2.551,2.551,0,0,1,2.112-1.036,2.565,2.565,0,0,1,2.058.889V50.5h1.265V61H15.122l-.062-.793a2.575,2.575,0,0,1-2.112.93,2.526,2.526,0,0,1-2.1-1.053,4.382,4.382,0,0,1-.81-2.748Zm1.265.144a3.281,3.281,0,0,0,.52,1.969,1.68,1.68,0,0,0,1.436.711,1.845,1.845,0,0,0,1.757-1.08v-3.4a1.859,1.859,0,0,0-1.743-1.046,1.687,1.687,0,0,0-1.449.718A3.612,3.612,0,0,0,11.307,57.384Zm10.008,3.753a3.232,3.232,0,0,1-2.447-.988,3.666,3.666,0,0,1-.943-2.642v-.232a4.438,4.438,0,0,1,.42-1.965,3.28,3.28,0,0,1,1.176-1.354,2.956,2.956,0,0,1,1.637-.489,2.77,2.77,0,0,1,2.242.95,4.114,4.114,0,0,1,.8,2.721v.526H19.189a2.629,2.629,0,0,0,.639,1.767,2.009,2.009,0,0,0,1.555.673,2.2,2.2,0,0,0,1.135-.273,2.851,2.851,0,0,0,.813-.725l.772.6A3.106,3.106,0,0,1,21.315,61.137Zm-.157-6.631a1.687,1.687,0,0,0-1.285.557,2.708,2.708,0,0,0-.643,1.562h3.705v-.1a2.409,2.409,0,0,0-.52-1.494A1.588,1.588,0,0,0,21.158,54.506ZM29.327,61V51.047h2.81a4.523,4.523,0,0,1,2.3.574,3.884,3.884,0,0,1,1.542,1.634,5.318,5.318,0,0,1,.55,2.434v.636a5.336,5.336,0,0,1-.543,2.468,3.823,3.823,0,0,1-1.552,1.627A4.811,4.811,0,0,1,32.082,61Zm1.313-8.88v7.807H32.02a3,3,0,0,0,2.362-.944,3.9,3.9,0,0,0,.844-2.689v-.582a3.963,3.963,0,0,0-.8-2.637,2.834,2.834,0,0,0-2.259-.954ZM42.875,61a2.657,2.657,0,0,1-.178-.779,2.822,2.822,0,0,1-2.105.916,2.611,2.611,0,0,1-1.794-.619,2,2,0,0,1-.7-1.569,2.091,2.091,0,0,1,.878-1.794,4.142,4.142,0,0,1,2.471-.639h1.23v-.581a1.42,1.42,0,0,0-.4-1.056,1.593,1.593,0,0,0-1.169-.393,1.844,1.844,0,0,0-1.135.342,1.007,1.007,0,0,0-.458.827H38.248a1.745,1.745,0,0,1,.393-1.07,2.683,2.683,0,0,1,1.066-.817,3.588,3.588,0,0,1,1.48-.3,2.924,2.924,0,0,1,2,.639,2.306,2.306,0,0,1,.752,1.76v3.4a4.162,4.162,0,0,0,.26,1.62V61Zm-2.1-.964a2.223,2.223,0,0,0,1.128-.308,1.861,1.861,0,0,0,.772-.8V57.411h-.991q-2.324,0-2.324,1.36a1.151,1.151,0,0,0,.4.93A1.524,1.524,0,0,0,40.777,60.036Zm6.863-8.224V53.6h1.381v.978H47.64v4.593a1.027,1.027,0,0,0,.185.667.777.777,0,0,0,.629.222,3.062,3.062,0,0,0,.6-.082V61a3.688,3.688,0,0,1-.971.136,1.575,1.575,0,0,1-1.278-.513,2.2,2.2,0,0,1-.431-1.456V54.581H45.029V53.6h1.347V51.813Zm2.386,5.421a4.369,4.369,0,0,1,.427-1.955,3.187,3.187,0,0,1,1.189-1.34,3.238,3.238,0,0,1,1.74-.472,3.119,3.119,0,0,1,2.444,1.046,4.024,4.024,0,0,1,.933,2.782v.089a4.407,4.407,0,0,1-.414,1.938,3.14,3.14,0,0,1-1.183,1.336,3.275,3.275,0,0,1-1.767.479,3.111,3.111,0,0,1-2.437-1.046,4,4,0,0,1-.933-2.769Zm1.271.15a3.164,3.164,0,0,0,.571,1.976,1.934,1.934,0,0,0,3.059-.01,3.46,3.46,0,0,0,.567-2.116,3.159,3.159,0,0,0-.578-1.972,1.836,1.836,0,0,0-1.535-.755,1.816,1.816,0,0,0-1.511.745A3.435,3.435,0,0,0,51.3,57.384Zm11.354,1.654a.931.931,0,0,0-.386-.8,3.718,3.718,0,0,0-1.347-.489,6.367,6.367,0,0,1-1.524-.492,2.169,2.169,0,0,1-.834-.684,1.635,1.635,0,0,1-.27-.943A1.919,1.919,0,0,1,59.06,54.1a3,3,0,0,1,1.965-.629,3.091,3.091,0,0,1,2.041.649,2.063,2.063,0,0,1,.783,1.661H62.577a1.142,1.142,0,0,0-.441-.9,1.652,1.652,0,0,0-1.111-.376,1.729,1.729,0,0,0-1.08.3.947.947,0,0,0-.39.786.767.767,0,0,0,.362.69,4.458,4.458,0,0,0,1.309.444,6.821,6.821,0,0,1,1.535.506,2.239,2.239,0,0,1,.872.708,1.74,1.74,0,0,1,.284,1.008,1.893,1.893,0,0,1-.793,1.589,3.326,3.326,0,0,1-2.058.6,3.725,3.725,0,0,1-1.572-.314,2.557,2.557,0,0,1-1.07-.878,2.117,2.117,0,0,1-.386-1.22H59.3a1.309,1.309,0,0,0,.509,1.008,1.976,1.976,0,0,0,1.254.373,2.039,2.039,0,0,0,1.152-.291A.893.893,0,0,0,62.652,59.038Z" transform="translate(718 3929.999)" fill="#fff"/>
    <path id="Trazado_204760" data-name="Trazado 204760" d="M100,179.5H0v65H0c0,4.143,22.386,7.5,50,7.5s50-3.357,50-7.5h0Z" transform="translate(705 3832.501)" fill="url(#linear-gradient-3)"/>
    <path id="Trazado_204761" data-name="Trazado 204761" d="M100,179.519c0,4.142-22.386,7.5-50,7.5s-50-3.358-50-7.5,22.386-7.5,50-7.5,50,3.358,50,7.5" transform="translate(705 3832.999)" fill="#00defc"/>
    <path id="Trazado_254823" data-name="Trazado 254823" d="M8.594,4.12h-3.2V13H4.089V4.12H.9V3.047h7.7Zm4.341,2.618a3.79,3.79,0,0,0-.622-.048,1.667,1.667,0,0,0-1.688,1.06V13H9.359V5.6h1.23l.021.854a1.969,1.969,0,0,1,1.764-.991,1.292,1.292,0,0,1,.561.1ZM18.39,13a2.657,2.657,0,0,1-.178-.779,2.822,2.822,0,0,1-2.105.916,2.611,2.611,0,0,1-1.794-.619,2,2,0,0,1-.7-1.569,2.091,2.091,0,0,1,.878-1.794,4.142,4.142,0,0,1,2.471-.639h1.23V7.935a1.42,1.42,0,0,0-.4-1.056,1.593,1.593,0,0,0-1.169-.393,1.844,1.844,0,0,0-1.135.342,1.007,1.007,0,0,0-.458.827H13.762a1.745,1.745,0,0,1,.393-1.07,2.683,2.683,0,0,1,1.066-.817,3.588,3.588,0,0,1,1.48-.3,2.924,2.924,0,0,1,2,.639,2.306,2.306,0,0,1,.752,1.76v3.4a4.162,4.162,0,0,0,.26,1.62V13Zm-2.1-.964a2.223,2.223,0,0,0,1.128-.308,1.861,1.861,0,0,0,.772-.8V9.411H17.2q-2.324,0-2.324,1.36a1.151,1.151,0,0,0,.4.93A1.524,1.524,0,0,0,16.291,12.036ZM22.635,5.6l.041.93a2.7,2.7,0,0,1,2.215-1.066q2.345,0,2.365,2.646V13H25.991V8.105a1.7,1.7,0,0,0-.366-1.183,1.466,1.466,0,0,0-1.118-.383,1.825,1.825,0,0,0-1.08.328,2.228,2.228,0,0,0-.725.861V13H21.438V5.6ZM33.47,11.038a.931.931,0,0,0-.386-.8,3.718,3.718,0,0,0-1.347-.489,6.367,6.367,0,0,1-1.524-.492,2.169,2.169,0,0,1-.834-.684,1.635,1.635,0,0,1-.27-.943A1.919,1.919,0,0,1,29.877,6.1a3,3,0,0,1,1.965-.629,3.091,3.091,0,0,1,2.041.649,2.063,2.063,0,0,1,.783,1.661H33.395a1.142,1.142,0,0,0-.441-.9,1.652,1.652,0,0,0-1.111-.376,1.729,1.729,0,0,0-1.08.3.947.947,0,0,0-.39.786.767.767,0,0,0,.362.69,4.458,4.458,0,0,0,1.309.444,6.821,6.821,0,0,1,1.535.506,2.239,2.239,0,0,1,.872.708,1.74,1.74,0,0,1,.284,1.008,1.893,1.893,0,0,1-.793,1.589,3.326,3.326,0,0,1-2.058.6,3.725,3.725,0,0,1-1.572-.314,2.557,2.557,0,0,1-1.07-.878,2.117,2.117,0,0,1-.386-1.22H30.12a1.309,1.309,0,0,0,.509,1.008,1.976,1.976,0,0,0,1.254.373,2.039,2.039,0,0,0,1.152-.291A.893.893,0,0,0,33.47,11.038ZM40.948,13a2.657,2.657,0,0,1-.178-.779,2.822,2.822,0,0,1-2.105.916,2.611,2.611,0,0,1-1.794-.619,2,2,0,0,1-.7-1.569,2.091,2.091,0,0,1,.878-1.794,4.142,4.142,0,0,1,2.471-.639h1.23V7.935a1.42,1.42,0,0,0-.4-1.056,1.593,1.593,0,0,0-1.169-.393,1.844,1.844,0,0,0-1.135.342,1.007,1.007,0,0,0-.458.827H36.32a1.745,1.745,0,0,1,.393-1.07,2.683,2.683,0,0,1,1.066-.817,3.588,3.588,0,0,1,1.48-.3,2.924,2.924,0,0,1,2,.639,2.306,2.306,0,0,1,.752,1.76v3.4a4.162,4.162,0,0,0,.26,1.62V13Zm-2.1-.964a2.223,2.223,0,0,0,1.128-.308,1.861,1.861,0,0,0,.772-.8V9.411h-.991q-2.324,0-2.324,1.36a1.151,1.151,0,0,0,.4.93A1.524,1.524,0,0,0,38.85,12.036Zm8.114.068a1.822,1.822,0,0,0,1.183-.41,1.443,1.443,0,0,0,.561-1.025h1.2a2.293,2.293,0,0,1-.437,1.21,2.881,2.881,0,0,1-1.077.916,3.107,3.107,0,0,1-1.425.342,3.047,3.047,0,0,1-2.4-1.008,4.016,4.016,0,0,1-.892-2.758V9.158a4.453,4.453,0,0,1,.4-1.921A3.02,3.02,0,0,1,45.2,5.932a3.233,3.233,0,0,1,1.753-.465,2.966,2.966,0,0,1,2.068.745A2.663,2.663,0,0,1,49.9,8.146h-1.2a1.743,1.743,0,0,0-.543-1.179,1.691,1.691,0,0,0-1.207-.461,1.77,1.77,0,0,0-1.494.694,3.259,3.259,0,0,0-.53,2.006v.239a3.194,3.194,0,0,0,.526,1.969A1.779,1.779,0,0,0,46.964,12.1Zm7.328,0a1.822,1.822,0,0,0,1.183-.41,1.443,1.443,0,0,0,.561-1.025h1.2a2.293,2.293,0,0,1-.437,1.21,2.881,2.881,0,0,1-1.077.916,3.107,3.107,0,0,1-1.425.342,3.047,3.047,0,0,1-2.4-1.008A4.016,4.016,0,0,1,51,9.37V9.158a4.453,4.453,0,0,1,.4-1.921,3.02,3.02,0,0,1,1.138-1.306,3.233,3.233,0,0,1,1.753-.465,2.966,2.966,0,0,1,2.068.745,2.663,2.663,0,0,1,.878,1.935h-1.2a1.743,1.743,0,0,0-.543-1.179,1.691,1.691,0,0,0-1.207-.461,1.77,1.77,0,0,0-1.494.694,3.259,3.259,0,0,0-.53,2.006v.239a3.194,3.194,0,0,0,.526,1.969A1.779,1.779,0,0,0,54.292,12.1Zm5.735.9H58.763V5.6h1.265ZM58.66,3.642a.755.755,0,0,1,.188-.52.706.706,0,0,1,.557-.212.717.717,0,0,1,.561.212.747.747,0,0,1,.191.52.722.722,0,0,1-.191.513.73.73,0,0,1-.561.205.718.718,0,0,1-.557-.205A.73.73,0,0,1,58.66,3.642Zm3.056,5.592a4.369,4.369,0,0,1,.427-1.955,3.187,3.187,0,0,1,1.189-1.34,3.238,3.238,0,0,1,1.74-.472,3.119,3.119,0,0,1,2.444,1.046,4.024,4.024,0,0,1,.933,2.782v.089a4.407,4.407,0,0,1-.414,1.938,3.14,3.14,0,0,1-1.183,1.336,3.275,3.275,0,0,1-1.767.479,3.111,3.111,0,0,1-2.437-1.046,4,4,0,0,1-.933-2.769Zm1.271.15a3.164,3.164,0,0,0,.571,1.976,1.934,1.934,0,0,0,3.059-.01,3.46,3.46,0,0,0,.567-2.116,3.159,3.159,0,0,0-.578-1.972,1.836,1.836,0,0,0-1.535-.755,1.816,1.816,0,0,0-1.511.745A3.435,3.435,0,0,0,62.987,9.384ZM71.231,5.6l.041.93a2.7,2.7,0,0,1,2.215-1.066q2.345,0,2.365,2.646V13H74.588V8.105a1.7,1.7,0,0,0-.366-1.183A1.466,1.466,0,0,0,73.1,6.54a1.825,1.825,0,0,0-1.08.328,2.228,2.228,0,0,0-.725.861V13H70.035V5.6Zm9.6,7.533a3.232,3.232,0,0,1-2.447-.988,3.666,3.666,0,0,1-.943-2.642V9.274a4.438,4.438,0,0,1,.42-1.965,3.28,3.28,0,0,1,1.176-1.354,2.956,2.956,0,0,1,1.637-.489,2.77,2.77,0,0,1,2.242.95,4.114,4.114,0,0,1,.8,2.721v.526H78.7a2.629,2.629,0,0,0,.639,1.767A2.009,2.009,0,0,0,80.9,12.1a2.2,2.2,0,0,0,1.135-.273,2.851,2.851,0,0,0,.813-.725l.772.6A3.106,3.106,0,0,1,80.829,13.137Zm-.157-6.631a1.687,1.687,0,0,0-1.285.557,2.708,2.708,0,0,0-.643,1.562h3.705v-.1a2.409,2.409,0,0,0-.52-1.494A1.588,1.588,0,0,0,80.672,6.506Zm8.812,4.532a.931.931,0,0,0-.386-.8,3.718,3.718,0,0,0-1.347-.489,6.367,6.367,0,0,1-1.524-.492,2.169,2.169,0,0,1-.834-.684,1.635,1.635,0,0,1-.27-.943A1.919,1.919,0,0,1,85.891,6.1a3,3,0,0,1,1.965-.629,3.091,3.091,0,0,1,2.041.649,2.063,2.063,0,0,1,.783,1.661H89.408a1.142,1.142,0,0,0-.441-.9,1.652,1.652,0,0,0-1.111-.376,1.729,1.729,0,0,0-1.08.3.947.947,0,0,0-.39.786.767.767,0,0,0,.362.69,4.458,4.458,0,0,0,1.309.444,6.821,6.821,0,0,1,1.535.506,2.239,2.239,0,0,1,.872.708,1.74,1.74,0,0,1,.284,1.008,1.893,1.893,0,0,1-.793,1.589,3.326,3.326,0,0,1-2.058.6,3.725,3.725,0,0,1-1.572-.314,2.557,2.557,0,0,1-1.07-.878,2.117,2.117,0,0,1-.386-1.22h1.265a1.309,1.309,0,0,0,.509,1.008A1.976,1.976,0,0,0,87.9,12.1a2.039,2.039,0,0,0,1.152-.291A.893.893,0,0,0,89.483,11.038ZM5.562,25.24A4.333,4.333,0,0,1,6.369,22.5a2.551,2.551,0,0,1,2.112-1.036,2.565,2.565,0,0,1,2.058.889V18.5H11.8V29H10.641l-.062-.793a2.575,2.575,0,0,1-2.112.93,2.526,2.526,0,0,1-2.1-1.053,4.382,4.382,0,0,1-.81-2.748Zm1.265.144a3.281,3.281,0,0,0,.52,1.969,1.68,1.68,0,0,0,1.436.711,1.845,1.845,0,0,0,1.757-1.08v-3.4A1.859,1.859,0,0,0,8.8,22.54a1.687,1.687,0,0,0-1.449.718A3.612,3.612,0,0,0,6.827,25.384Zm10.008,3.753a3.232,3.232,0,0,1-2.447-.988,3.666,3.666,0,0,1-.943-2.642v-.232a4.438,4.438,0,0,1,.42-1.965,3.28,3.28,0,0,1,1.176-1.354,2.956,2.956,0,0,1,1.637-.489,2.77,2.77,0,0,1,2.242.95,4.114,4.114,0,0,1,.8,2.721v.526H14.708a2.629,2.629,0,0,0,.639,1.767A2.009,2.009,0,0,0,16.9,28.1a2.2,2.2,0,0,0,1.135-.273,2.851,2.851,0,0,0,.813-.725l.772.6A3.106,3.106,0,0,1,16.834,29.137Zm-.157-6.631a1.687,1.687,0,0,0-1.285.557,2.708,2.708,0,0,0-.643,1.562h3.705v-.1a2.409,2.409,0,0,0-.52-1.494A1.588,1.588,0,0,0,16.677,22.506ZM30.472,24.4H26.159v3.527h5.011V29H24.846V19.047H31.1V20.12H26.159v3.206h4.313Zm3.322-2.8.034.82a2.732,2.732,0,0,1,2.194-.957,2.115,2.115,0,0,1,2.112,1.189,2.8,2.8,0,0,1,.96-.861,2.837,2.837,0,0,1,1.4-.328q2.434,0,2.475,2.577V29H41.7V24.119a1.7,1.7,0,0,0-.362-1.186,1.6,1.6,0,0,0-1.217-.393,1.677,1.677,0,0,0-1.169.42,1.706,1.706,0,0,0-.54,1.131V29H37.144V24.153a1.411,1.411,0,0,0-1.579-1.613,1.692,1.692,0,0,0-1.7,1.06V29H32.6V21.6Zm17.343,3.78a4.4,4.4,0,0,1-.779,2.724,2.49,2.49,0,0,1-2.092,1.029,2.578,2.578,0,0,1-2.167-.991L46.038,29H44.875V18.5H46.14v3.917a2.564,2.564,0,0,1,2.112-.95,2.505,2.505,0,0,1,2.116,1.019,4.53,4.53,0,0,1,.769,2.789Zm-1.265-.144a3.417,3.417,0,0,0-.5-2,1.652,1.652,0,0,0-1.436-.7,1.857,1.857,0,0,0-1.8,1.162v3.2a1.909,1.909,0,0,0,1.812,1.162,1.643,1.643,0,0,0,1.415-.7A3.634,3.634,0,0,0,49.873,25.24ZM57.3,29a2.657,2.657,0,0,1-.178-.779,2.822,2.822,0,0,1-2.105.916,2.611,2.611,0,0,1-1.794-.619,2,2,0,0,1-.7-1.569,2.091,2.091,0,0,1,.878-1.794,4.142,4.142,0,0,1,2.471-.639H57.1v-.581a1.42,1.42,0,0,0-.4-1.056,1.593,1.593,0,0,0-1.169-.393,1.844,1.844,0,0,0-1.135.342,1.007,1.007,0,0,0-.458.827H52.668a1.745,1.745,0,0,1,.393-1.07,2.683,2.683,0,0,1,1.066-.817,3.588,3.588,0,0,1,1.48-.3,2.924,2.924,0,0,1,2,.639,2.306,2.306,0,0,1,.752,1.76v3.4a4.162,4.162,0,0,0,.26,1.62V29Zm-2.1-.964a2.223,2.223,0,0,0,1.128-.308,1.861,1.861,0,0,0,.772-.8V25.411h-.991q-2.324,0-2.324,1.36a1.151,1.151,0,0,0,.4.93A1.524,1.524,0,0,0,55.2,28.036Zm8.723-5.3a3.79,3.79,0,0,0-.622-.048,1.667,1.667,0,0,0-1.688,1.06V29H60.345V21.6h1.23l.021.854a1.969,1.969,0,0,1,1.764-.991,1.292,1.292,0,0,1,.561.1Zm.725,2.5a4.341,4.341,0,0,1,.8-2.758,2.823,2.823,0,0,1,4.218-.133l.055-.745h1.162v10.24H69.615V28.316a2.654,2.654,0,0,1-2.037.82,2.551,2.551,0,0,1-2.136-1.042,4.438,4.438,0,0,1-.8-2.765Zm1.265.144a3.291,3.291,0,0,0,.537,2,1.707,1.707,0,0,0,1.446.725,1.894,1.894,0,0,0,1.723-1V23.483a1.9,1.9,0,0,0-1.709-.978,1.72,1.72,0,0,0-1.456.728A3.583,3.583,0,0,0,65.91,25.384Zm11.566,2.885a2.686,2.686,0,0,1-2.167.868,2.3,2.3,0,0,1-1.8-.687,2.974,2.974,0,0,1-.625-2.034V21.6h1.265v4.778q0,1.682,1.367,1.682a1.893,1.893,0,0,0,1.928-1.08V21.6h1.265V29H77.5Zm6.221.868a3.232,3.232,0,0,1-2.447-.988,3.666,3.666,0,0,1-.943-2.642v-.232a4.438,4.438,0,0,1,.42-1.965A3.28,3.28,0,0,1,81.9,21.956a2.956,2.956,0,0,1,1.637-.489,2.77,2.77,0,0,1,2.242.95,4.114,4.114,0,0,1,.8,2.721v.526H81.571a2.629,2.629,0,0,0,.639,1.767,2.009,2.009,0,0,0,1.555.673,2.2,2.2,0,0,0,1.135-.273,2.851,2.851,0,0,0,.813-.725l.772.6A3.106,3.106,0,0,1,83.7,29.137Zm-.157-6.631a1.687,1.687,0,0,0-1.285.557,2.708,2.708,0,0,0-.643,1.562h3.705v-.1a2.409,2.409,0,0,0-.52-1.494A1.588,1.588,0,0,0,83.54,22.506Z" transform="translate(709 4031.999)" fill="#12263f"/>
    <g transform="matrix(1, 0, 0, 1, 705, 3826.5)" filter="url(#Trazado_204769)">
      <path id="Trazado_204769-2" data-name="Trazado 204769" d="M595.349,252.5H474.2a13.828,13.828,0,0,1-13.828-13.829V14.329A13.828,13.828,0,0,1,474.2.5H595.349a13.828,13.828,0,0,1,13.828,13.829V238.671A13.828,13.828,0,0,1,595.349,252.5" transform="translate(-0.37 5.5)" fill="url(#linear-gradient-4)"/>
    </g>
    <path id="Trazado_254835" data-name="Trazado 254835" d="M10.131,11.154h4.177V13H7.731V3.047h2.4ZM17.726,13H15.408V5.6h2.317ZM16.864,2.637H19.3L17.4,4.783l-1.88,0ZM21.321,5.6l.075.868a2.508,2.508,0,0,1,2.112-1,2.11,2.11,0,0,1,1.726.69,3.287,3.287,0,0,1,.591,2.078V13H23.516V8.331a1.248,1.248,0,0,0-.226-.824,1.044,1.044,0,0,0-.82-.263,1.1,1.1,0,0,0-1,.533V13h-2.3V5.6Zm9.358,7.533a3.8,3.8,0,0,1-2.755-1.015,3.506,3.506,0,0,1-1.053-2.642V9.288a4.542,4.542,0,0,1,.42-2A3.076,3.076,0,0,1,28.52,5.942a3.7,3.7,0,0,1,1.914-.475,3.2,3.2,0,0,1,2.461.967,3.8,3.8,0,0,1,.9,2.7v.9h-4.58a1.66,1.66,0,0,0,.54.978,1.607,1.607,0,0,0,1.08.355,2.07,2.07,0,0,0,1.709-.766L33.6,11.838a2.943,2.943,0,0,1-1.22.947A4.124,4.124,0,0,1,30.68,13.137Zm-.26-5.893q-1.012,0-1.2,1.34h2.324V8.406a1.141,1.141,0,0,0-.28-.858A1.115,1.115,0,0,0,30.42,7.244ZM38.89,13a2.6,2.6,0,0,1-.219-.663,2.142,2.142,0,0,1-1.777.8,2.624,2.624,0,0,1-1.777-.632,2.013,2.013,0,0,1-.731-1.589A2.069,2.069,0,0,1,35.273,9.1a4.527,4.527,0,0,1,2.584-.615h.711V8.09q0-1.023-.882-1.023a.721.721,0,0,0-.82.811h-2.3a2.065,2.065,0,0,1,.913-1.741A3.835,3.835,0,0,1,37.8,5.467a3.363,3.363,0,0,1,2.235.69,2.4,2.4,0,0,1,.841,1.894v3.274a3.353,3.353,0,0,0,.314,1.559V13Zm-1.442-1.5a1.285,1.285,0,0,0,.714-.185,1.157,1.157,0,0,0,.407-.417V9.712H37.9q-1.2,0-1.2,1.08a.659.659,0,0,0,.212.509A.767.767,0,0,0,37.447,11.5ZM54.175,8.229a5.869,5.869,0,0,1-.54,2.577A3.991,3.991,0,0,1,52.1,12.532a4.273,4.273,0,0,1-2.266.6,4.334,4.334,0,0,1-2.256-.584,3.985,3.985,0,0,1-1.535-1.671,5.7,5.7,0,0,1-.578-2.5V7.825A5.9,5.9,0,0,1,46,5.245a3.981,3.981,0,0,1,1.538-1.726,4.553,4.553,0,0,1,4.536-.007,4.053,4.053,0,0,1,1.542,1.712,5.726,5.726,0,0,1,.557,2.546Zm-2.44-.417a4.185,4.185,0,0,0-.5-2.252A1.59,1.59,0,0,0,49.82,4.79q-1.8,0-1.907,2.707l-.007.731a4.3,4.3,0,0,0,.485,2.249,1.587,1.587,0,0,0,1.442.786,1.568,1.568,0,0,0,1.4-.772,4.187,4.187,0,0,0,.5-2.222ZM50.1.381h2.434l-1.9,2.146-1.88,0Zm9.68,7.308-.759-.055a1.363,1.363,0,0,0-1.395.684V13h-2.3V5.6h2.16l.075.95a1.784,1.784,0,0,1,1.62-1.087,2.247,2.247,0,0,1,.643.082Zm.41,1.559a4.518,4.518,0,0,1,.759-2.769,2.5,2.5,0,0,1,2.119-1.012,2.124,2.124,0,0,1,1.668.779V2.5h2.311V13H64.976l-.116-.793a2.181,2.181,0,0,1-1.8.93,2.493,2.493,0,0,1-2.092-1.012A4.662,4.662,0,0,1,60.19,9.247Zm2.3.144q0,1.969,1.148,1.969a1.134,1.134,0,0,0,1.094-.643V7.9a1.1,1.1,0,0,0-1.08-.656q-1.066,0-1.155,1.723Zm9.44,3.746a3.8,3.8,0,0,1-2.755-1.015,3.506,3.506,0,0,1-1.053-2.642V9.288a4.542,4.542,0,0,1,.42-2,3.076,3.076,0,0,1,1.227-1.343,3.7,3.7,0,0,1,1.914-.475,3.2,3.2,0,0,1,2.461.967,3.8,3.8,0,0,1,.9,2.7v.9h-4.58a1.66,1.66,0,0,0,.54.978,1.607,1.607,0,0,0,1.08.355,2.07,2.07,0,0,0,1.709-.766l1.053,1.244a2.943,2.943,0,0,1-1.22.947A4.124,4.124,0,0,1,71.935,13.137Zm-.26-5.893q-1.012,0-1.2,1.34H72.8V8.406a1.141,1.141,0,0,0-.28-.858A1.115,1.115,0,0,0,71.675,7.244ZM78.094,5.6l.075.868a2.508,2.508,0,0,1,2.112-1,2.11,2.11,0,0,1,1.726.69A3.287,3.287,0,0,1,82.6,8.235V13H80.288V8.331a1.248,1.248,0,0,0-.226-.824,1.044,1.044,0,0,0-.82-.263,1.1,1.1,0,0,0-1,.533V13h-2.3V5.6Zm9.358,7.533A3.8,3.8,0,0,1,84.7,12.122a3.506,3.506,0,0,1-1.053-2.642V9.288a4.542,4.542,0,0,1,.42-2,3.076,3.076,0,0,1,1.227-1.343,3.7,3.7,0,0,1,1.914-.475,3.2,3.2,0,0,1,2.461.967,3.8,3.8,0,0,1,.9,2.7v.9h-4.58a1.66,1.66,0,0,0,.54.978,1.607,1.607,0,0,0,1.08.355,2.07,2.07,0,0,0,1.709-.766l1.053,1.244a2.943,2.943,0,0,1-1.22.947A4.124,4.124,0,0,1,87.452,13.137Zm-.26-5.893q-1.012,0-1.2,1.34h2.324V8.406a1.141,1.141,0,0,0-.28-.858A1.115,1.115,0,0,0,87.192,7.244Zm8.176,3.678a.532.532,0,0,0-.308-.472,4.679,4.679,0,0,0-1.169-.369,5.33,5.33,0,0,1-1.422-.5,2.382,2.382,0,0,1-.854-.755A1.8,1.8,0,0,1,91.321,7.8a2.044,2.044,0,0,1,.841-1.678,3.464,3.464,0,0,1,2.2-.66,3.837,3.837,0,0,1,2.352.663A2.074,2.074,0,0,1,97.6,7.873H95.293q0-.889-.937-.889a.928.928,0,0,0-.608.2.624.624,0,0,0-.246.5.573.573,0,0,0,.3.5,2.842,2.842,0,0,0,.96.314,8.3,8.3,0,0,1,1.159.294,2.105,2.105,0,0,1,1.668,2.058,1.937,1.937,0,0,1-.9,1.647,3.942,3.942,0,0,1-2.328.636,4.023,4.023,0,0,1-1.7-.342,2.835,2.835,0,0,1-1.162-.93,2.105,2.105,0,0,1-.417-1.237h2.153a.89.89,0,0,0,.342.749,1.406,1.406,0,0,0,.841.236,1.106,1.106,0,0,0,.708-.191A.612.612,0,0,0,95.368,10.922Z" transform="translate(1187 3840.115)" fill="#12263f"/>
    <g transform="matrix(1, 0, 0, 1, 705, 3826.5)" filter="url(#Trazado_204770)">
      <path id="Trazado_204770-2" data-name="Trazado 204770" d="M565.558,252.5H444.464a13.858,13.858,0,0,1-13.858-13.858V44.358A13.858,13.858,0,0,1,444.464,30.5H565.558a13.857,13.857,0,0,1,13.858,13.858V238.642A13.857,13.857,0,0,1,565.558,252.5" transform="translate(0.39 5.5)" fill="url(#linear-gradient-5)"/>
    </g>
    <path id="Trazado_254836" data-name="Trazado 254836" d="M35.875,9.623V13h-2.4V3.047h3.972a4.626,4.626,0,0,1,2.02.42,3.168,3.168,0,0,1,1.36,1.2,3.267,3.267,0,0,1,.482,1.76,2.88,2.88,0,0,1-1.042,2.328,4.326,4.326,0,0,1-2.861.872Zm0-1.853h1.572a1.483,1.483,0,0,0,1.063-.349,1.3,1.3,0,0,0,.366-.984A1.6,1.6,0,0,0,38.5,5.323,1.331,1.331,0,0,0,37.475,4.9h-1.6ZM46.573,13a2.6,2.6,0,0,1-.219-.663,2.142,2.142,0,0,1-1.777.8A2.624,2.624,0,0,1,42.8,12.5a2.013,2.013,0,0,1-.731-1.589A2.069,2.069,0,0,1,42.957,9.1a4.527,4.527,0,0,1,2.584-.615h.711V8.09q0-1.023-.882-1.023a.721.721,0,0,0-.82.811h-2.3a2.065,2.065,0,0,1,.913-1.741,3.835,3.835,0,0,1,2.328-.669,3.363,3.363,0,0,1,2.235.69,2.4,2.4,0,0,1,.841,1.894v3.274a3.353,3.353,0,0,0,.314,1.559V13Zm-1.442-1.5a1.285,1.285,0,0,0,.714-.185,1.157,1.157,0,0,0,.407-.417V9.712h-.67q-1.2,0-1.2,1.08a.659.659,0,0,0,.212.509A.767.767,0,0,0,45.131,11.5Zm4.437-2.249a4.994,4.994,0,0,1,.369-1.982A2.972,2.972,0,0,1,51,5.935,2.793,2.793,0,0,1,52.6,5.467a2.221,2.221,0,0,1,1.8.779l.082-.643h2.092V12.72a3.118,3.118,0,0,1-.455,1.7,2.917,2.917,0,0,1-1.316,1.107,4.837,4.837,0,0,1-2,.386,4.173,4.173,0,0,1-1.576-.308,2.844,2.844,0,0,1-1.166-.8l.964-1.354a2.112,2.112,0,0,0,1.7.759,1.372,1.372,0,0,0,1.531-1.572v-.232a2.163,2.163,0,0,1-1.675.731A2.673,2.673,0,0,1,50.4,12.1a4.291,4.291,0,0,1-.834-2.772Zm2.311.144a2.631,2.631,0,0,0,.342,1.439,1.078,1.078,0,0,0,.957.53,1.224,1.224,0,0,0,1.087-.5V7.75a1.193,1.193,0,0,0-1.073-.506,1.086,1.086,0,0,0-.964.55A3,3,0,0,0,51.878,9.391ZM57.6,9.233a4.366,4.366,0,0,1,.431-1.972,3.08,3.08,0,0,1,1.237-1.33,3.726,3.726,0,0,1,1.894-.465A3.4,3.4,0,0,1,63.779,6.5a3.948,3.948,0,0,1,.957,2.8v.082a3.83,3.83,0,0,1-.96,2.745,3.41,3.41,0,0,1-2.6,1.015,3.449,3.449,0,0,1-2.536-.947,3.7,3.7,0,0,1-1.032-2.567Zm2.3.144a2.752,2.752,0,0,0,.321,1.5,1.07,1.07,0,0,0,.95.479q1.23,0,1.258-1.894V9.233q0-1.989-1.271-1.989-1.155,0-1.251,1.716Zm9.721,1.545a.532.532,0,0,0-.308-.472,4.679,4.679,0,0,0-1.169-.369,5.33,5.33,0,0,1-1.422-.5,2.382,2.382,0,0,1-.854-.755A1.8,1.8,0,0,1,65.577,7.8a2.044,2.044,0,0,1,.841-1.678,3.464,3.464,0,0,1,2.2-.66,3.837,3.837,0,0,1,2.352.663,2.074,2.074,0,0,1,.889,1.743H69.549q0-.889-.937-.889a.928.928,0,0,0-.608.2.624.624,0,0,0-.246.5.573.573,0,0,0,.3.5,2.842,2.842,0,0,0,.96.314,8.3,8.3,0,0,1,1.159.294,2.105,2.105,0,0,1,1.668,2.058,1.937,1.937,0,0,1-.9,1.647,3.942,3.942,0,0,1-2.328.636,4.023,4.023,0,0,1-1.7-.342,2.835,2.835,0,0,1-1.162-.93,2.105,2.105,0,0,1-.417-1.237H67.5a.89.89,0,0,0,.342.749,1.406,1.406,0,0,0,.841.236,1.106,1.106,0,0,0,.708-.191A.612.612,0,0,0,69.624,10.922Z" transform="translate(1158 3869.474)" fill="#12263f"/>
    <g transform="matrix(1, 0, 0, 1, 705, 3826.5)" filter="url(#Trazado_204771)">
      <path id="Trazado_204771-2" data-name="Trazado 204771" d="M523.772,252.5H402.916a13.977,13.977,0,0,1-13.977-13.977V74.477A13.977,13.977,0,0,1,402.916,60.5H523.772a13.977,13.977,0,0,1,13.977,13.977V238.523A13.977,13.977,0,0,1,523.772,252.5" transform="translate(0.06 5.5)" fill="url(#linear-gradient-6)"/>
    </g>
    <path id="Trazado_254834" data-name="Trazado 254834" d="M23.792,13H21.4V3.047h2.393ZM27.47,5.6l.075.868a2.508,2.508,0,0,1,2.112-1,2.11,2.11,0,0,1,1.726.69,3.287,3.287,0,0,1,.591,2.078V13H29.665V8.331a1.248,1.248,0,0,0-.226-.824,1.044,1.044,0,0,0-.82-.263,1.1,1.1,0,0,0-1,.533V13h-2.3V5.6ZM36.2,10.259,37.369,5.6H39.8L37.382,13H35.031L32.618,5.6h2.434Zm7.772,2.878a3.8,3.8,0,0,1-2.755-1.015,3.506,3.506,0,0,1-1.053-2.642V9.288a4.542,4.542,0,0,1,.42-2,3.076,3.076,0,0,1,1.227-1.343,3.7,3.7,0,0,1,1.914-.475,3.2,3.2,0,0,1,2.461.967,3.8,3.8,0,0,1,.9,2.7v.9h-4.58a1.66,1.66,0,0,0,.54.978,1.607,1.607,0,0,0,1.08.355,2.07,2.07,0,0,0,1.709-.766l1.053,1.244a2.943,2.943,0,0,1-1.22.947A4.123,4.123,0,0,1,43.972,13.137Zm-.26-5.893q-1.012,0-1.2,1.34h2.324V8.406a1.141,1.141,0,0,0-.28-.858A1.115,1.115,0,0,0,43.712,7.244ZM50.131,5.6l.075.868a2.508,2.508,0,0,1,2.112-1,2.11,2.11,0,0,1,1.726.69,3.287,3.287,0,0,1,.591,2.078V13H52.326V8.331a1.248,1.248,0,0,0-.226-.824,1.044,1.044,0,0,0-.82-.263,1.1,1.1,0,0,0-1,.533V13h-2.3V5.6Zm8.463-1.839V5.6h1.217V7.2H58.594v3.384a.864.864,0,0,0,.15.581.807.807,0,0,0,.595.164,3.38,3.38,0,0,0,.574-.041v1.647a4.252,4.252,0,0,1-1.3.2,2.413,2.413,0,0,1-1.757-.561,2.3,2.3,0,0,1-.567-1.7V7.2h-.943V5.6h.943V3.765ZM64.883,13a2.6,2.6,0,0,1-.219-.663,2.142,2.142,0,0,1-1.777.8A2.624,2.624,0,0,1,61.11,12.5a2.013,2.013,0,0,1-.731-1.589A2.069,2.069,0,0,1,61.267,9.1a4.527,4.527,0,0,1,2.584-.615h.711V8.09q0-1.023-.882-1.023a.721.721,0,0,0-.82.811h-2.3a2.065,2.065,0,0,1,.913-1.741A3.835,3.835,0,0,1,63.8,5.467a3.363,3.363,0,0,1,2.235.69,2.4,2.4,0,0,1,.841,1.894v3.274a3.353,3.353,0,0,0,.314,1.559V13Zm-1.442-1.5a1.285,1.285,0,0,0,.714-.185,1.157,1.157,0,0,0,.407-.417V9.712h-.67q-1.2,0-1.2,1.08a.659.659,0,0,0,.212.509A.767.767,0,0,0,63.441,11.5Zm9.181-3.808-.759-.055a1.363,1.363,0,0,0-1.395.684V13h-2.3V5.6h2.16l.075.95a1.784,1.784,0,0,1,1.62-1.087,2.246,2.246,0,0,1,.643.082ZM75.882,13H73.572V5.6h2.311ZM73.435,3.7a1.028,1.028,0,0,1,.355-.807,1.511,1.511,0,0,1,1.846,0,1.028,1.028,0,0,1,.355.807,1.028,1.028,0,0,1-.355.807,1.511,1.511,0,0,1-1.846,0A1.028,1.028,0,0,1,73.435,3.7ZM77.01,9.233a4.366,4.366,0,0,1,.431-1.972,3.08,3.08,0,0,1,1.237-1.33,3.726,3.726,0,0,1,1.894-.465A3.4,3.4,0,0,1,83.19,6.5a3.948,3.948,0,0,1,.957,2.8v.082a3.83,3.83,0,0,1-.96,2.745,3.41,3.41,0,0,1-2.6,1.015,3.449,3.449,0,0,1-2.536-.947,3.7,3.7,0,0,1-1.032-2.567Zm2.3.144a2.752,2.752,0,0,0,.321,1.5,1.07,1.07,0,0,0,.95.479q1.23,0,1.258-1.894V9.233q0-1.989-1.271-1.989-1.155,0-1.251,1.716Z" transform="translate(1116 3899.476)" fill="#fff"/>
    <g transform="matrix(1, 0, 0, 1, 705, 3826.5)" filter="url(#Trazado_204772)">
      <path id="Trazado_204772-2" data-name="Trazado 204772" d="M493.751,252.5H373.412a14.235,14.235,0,0,1-14.235-14.235V104.735A14.235,14.235,0,0,1,373.412,90.5H493.751a14.235,14.235,0,0,1,14.235,14.235v133.53A14.235,14.235,0,0,1,493.751,252.5" transform="translate(-0.18 5.5)" fill="url(#linear-gradient-7)"/>
    </g>
    <path id="Trazado_254831" data-name="Trazado 254831" d="M35.167,8.229a5.869,5.869,0,0,1-.54,2.577,3.991,3.991,0,0,1-1.535,1.726,4.273,4.273,0,0,1-2.266.6,4.334,4.334,0,0,1-2.256-.584,3.985,3.985,0,0,1-1.535-1.671,5.7,5.7,0,0,1-.578-2.5V7.825A5.9,5.9,0,0,1,27,5.245a3.981,3.981,0,0,1,1.538-1.726,4.553,4.553,0,0,1,4.536-.007A4.053,4.053,0,0,1,34.61,5.224a5.726,5.726,0,0,1,.557,2.546Zm-2.44-.417a4.185,4.185,0,0,0-.5-2.252,1.59,1.59,0,0,0-1.418-.769q-1.8,0-1.907,2.707l-.007.731a4.3,4.3,0,0,0,.485,2.249,1.587,1.587,0,0,0,1.442.786,1.568,1.568,0,0,0,1.4-.772,4.187,4.187,0,0,0,.5-2.222ZM31.093.381h2.434l-1.9,2.146-1.88,0Zm9.68,7.308-.759-.055a1.363,1.363,0,0,0-1.395.684V13h-2.3V5.6h2.16l.075.95a1.784,1.784,0,0,1,1.62-1.087,2.247,2.247,0,0,1,.643.082Zm.41,1.559a4.518,4.518,0,0,1,.759-2.769,2.5,2.5,0,0,1,2.119-1.012,2.124,2.124,0,0,1,1.668.779V2.5H48.04V13H45.968l-.116-.793a2.181,2.181,0,0,1-1.8.93,2.493,2.493,0,0,1-2.092-1.012A4.662,4.662,0,0,1,41.183,9.247Zm2.3.144q0,1.969,1.148,1.969a1.134,1.134,0,0,0,1.094-.643V7.9a1.1,1.1,0,0,0-1.08-.656q-1.066,0-1.155,1.723Zm9.44,3.746a3.8,3.8,0,0,1-2.755-1.015A3.506,3.506,0,0,1,49.12,9.479V9.288a4.542,4.542,0,0,1,.42-2,3.076,3.076,0,0,1,1.227-1.343,3.7,3.7,0,0,1,1.914-.475,3.2,3.2,0,0,1,2.461.967,3.8,3.8,0,0,1,.9,2.7v.9h-4.58A1.66,1.66,0,0,0,52,11a1.607,1.607,0,0,0,1.08.355,2.07,2.07,0,0,0,1.709-.766l1.053,1.244a2.943,2.943,0,0,1-1.22.947A4.123,4.123,0,0,1,52.927,13.137Zm-.26-5.893q-1.012,0-1.2,1.34h2.324V8.406a1.141,1.141,0,0,0-.28-.858A1.115,1.115,0,0,0,52.667,7.244ZM59.086,5.6l.075.868a2.508,2.508,0,0,1,2.112-1A2.11,2.11,0,0,1,63,6.157a3.287,3.287,0,0,1,.591,2.078V13H61.281V8.331a1.248,1.248,0,0,0-.226-.824,1.044,1.044,0,0,0-.82-.263,1.1,1.1,0,0,0-1,.533V13h-2.3V5.6Zm9.358,7.533a3.8,3.8,0,0,1-2.755-1.015,3.506,3.506,0,0,1-1.053-2.642V9.288a4.542,4.542,0,0,1,.42-2,3.076,3.076,0,0,1,1.227-1.343A3.7,3.7,0,0,1,68.2,5.467a3.2,3.2,0,0,1,2.461.967,3.8,3.8,0,0,1,.9,2.7v.9h-4.58a1.66,1.66,0,0,0,.54.978,1.607,1.607,0,0,0,1.08.355,2.07,2.07,0,0,0,1.709-.766l1.053,1.244a2.943,2.943,0,0,1-1.22.947A4.124,4.124,0,0,1,68.445,13.137Zm-.26-5.893q-1.012,0-1.2,1.34h2.324V8.406a1.141,1.141,0,0,0-.28-.858A1.115,1.115,0,0,0,68.185,7.244Zm8.176,3.678a.532.532,0,0,0-.308-.472,4.679,4.679,0,0,0-1.169-.369,5.33,5.33,0,0,1-1.422-.5,2.382,2.382,0,0,1-.854-.755A1.8,1.8,0,0,1,72.314,7.8a2.044,2.044,0,0,1,.841-1.678,3.464,3.464,0,0,1,2.2-.66,3.837,3.837,0,0,1,2.352.663A2.074,2.074,0,0,1,78.6,7.873H76.286q0-.889-.937-.889a.928.928,0,0,0-.608.2.624.624,0,0,0-.246.5.573.573,0,0,0,.3.5,2.842,2.842,0,0,0,.96.314,8.3,8.3,0,0,1,1.159.294,2.105,2.105,0,0,1,1.668,2.058,1.937,1.937,0,0,1-.9,1.647,3.942,3.942,0,0,1-2.328.636,4.023,4.023,0,0,1-1.7-.342,2.835,2.835,0,0,1-1.162-.93,2.105,2.105,0,0,1-.417-1.237h2.153a.89.89,0,0,0,.342.749,1.406,1.406,0,0,0,.841.236,1.106,1.106,0,0,0,.708-.191A.612.612,0,0,0,76.361,10.922Z" transform="translate(1086 3930.107)" fill="#12263f"/>
    <g transform="matrix(1, 0, 0, 1, 705, 3826.5)" filter="url(#Trazado_204774)">
      <path id="Trazado_204774-2" data-name="Trazado 204774" d="M517.09,252.5H369.265c-5.571,0-10.087-6.72-10.087-15.011V217.511c0-8.291,4.516-15.011,10.087-15.011H517.09c5.571,0,10.087,6.72,10.087,15.011v19.978c0,8.291-4.516,15.011-10.087,15.011" transform="translate(40.82 -53)" fill="#fff"/>
    </g>
    <path id="Trazado_254832" data-name="Trazado 254832" d="M14.532,13V3.047h3.206a4.716,4.716,0,0,1,2.372.6,4.2,4.2,0,0,1,1.644,1.688,5.1,5.1,0,0,1,.6,2.444v.458a5.127,5.127,0,0,1-.578,2.451,4.223,4.223,0,0,1-1.627,1.7A4.612,4.612,0,0,1,17.806,13Zm2.4-8.1v6.255h.834a1.867,1.867,0,0,0,1.586-.735A3.6,3.6,0,0,0,19.9,8.235V7.8a3.572,3.572,0,0,0-.554-2.174A1.9,1.9,0,0,0,17.738,4.9ZM31.293,9.288l1.142-6.241h2.379L32.7,13H30.213L28.88,7.326,27.575,13H25.093L22.974,3.047H25.36L26.5,9.288l1.367-6.241h2.037ZM39.237,13V3.047h3.206a4.716,4.716,0,0,1,2.372.6,4.2,4.2,0,0,1,1.644,1.688,5.1,5.1,0,0,1,.6,2.444v.458a5.127,5.127,0,0,1-.578,2.451,4.223,4.223,0,0,1-1.627,1.7A4.612,4.612,0,0,1,42.511,13Zm2.4-8.1v6.255h.834a1.867,1.867,0,0,0,1.586-.735,3.6,3.6,0,0,0,.554-2.184V7.8a3.572,3.572,0,0,0-.554-2.174A1.9,1.9,0,0,0,42.443,4.9ZM50.612,13H48.3V5.6h2.311ZM48.165,3.7a1.028,1.028,0,0,1,.355-.807,1.511,1.511,0,0,1,1.846,0,1.028,1.028,0,0,1,.355.807,1.028,1.028,0,0,1-.355.807,1.511,1.511,0,0,1-1.846,0A1.028,1.028,0,0,1,48.165,3.7ZM54.208,5.6l.075.868a2.543,2.543,0,0,1,2.112-1,1.872,1.872,0,0,1,1.894,1.114,2.462,2.462,0,0,1,2.174-1.114q2.249,0,2.311,2.721V13H60.462V8.331a1.41,1.41,0,0,0-.191-.827.815.815,0,0,0-.7-.26,1.091,1.091,0,0,0-1.019.608l.007.1V13H56.251V8.345a1.482,1.482,0,0,0-.185-.841.812.812,0,0,0-.7-.26,1.1,1.1,0,0,0-1.012.608V13h-2.3V5.6Zm13.46,7.533a3.8,3.8,0,0,1-2.755-1.015A3.506,3.506,0,0,1,63.86,9.479V9.288a4.542,4.542,0,0,1,.42-2,3.076,3.076,0,0,1,1.227-1.343,3.7,3.7,0,0,1,1.914-.475,3.2,3.2,0,0,1,2.461.967,3.8,3.8,0,0,1,.9,2.7v.9H66.2a1.66,1.66,0,0,0,.54.978,1.607,1.607,0,0,0,1.08.355,2.07,2.07,0,0,0,1.709-.766l1.053,1.244a2.943,2.943,0,0,1-1.22.947A4.124,4.124,0,0,1,67.667,13.137Zm-.26-5.893q-1.012,0-1.2,1.34h2.324V8.406a1.141,1.141,0,0,0-.28-.858A1.115,1.115,0,0,0,67.408,7.244ZM73.827,5.6l.075.868a2.508,2.508,0,0,1,2.112-1,2.11,2.11,0,0,1,1.726.69,3.287,3.287,0,0,1,.591,2.078V13H76.021V8.331a1.248,1.248,0,0,0-.226-.824,1.044,1.044,0,0,0-.82-.263,1.1,1.1,0,0,0-1,.533V13h-2.3V5.6Zm9.652,5.318a.532.532,0,0,0-.308-.472A4.679,4.679,0,0,0,82,10.081a5.33,5.33,0,0,1-1.422-.5,2.382,2.382,0,0,1-.854-.755A1.8,1.8,0,0,1,79.432,7.8a2.044,2.044,0,0,1,.841-1.678,3.464,3.464,0,0,1,2.2-.66,3.837,3.837,0,0,1,2.352.663,2.074,2.074,0,0,1,.889,1.743H83.4q0-.889-.937-.889a.928.928,0,0,0-.608.2.624.624,0,0,0-.246.5.573.573,0,0,0,.3.5,2.842,2.842,0,0,0,.96.314,8.3,8.3,0,0,1,1.159.294A2.105,2.105,0,0,1,85.7,10.854a1.937,1.937,0,0,1-.9,1.647,3.942,3.942,0,0,1-2.328.636,4.023,4.023,0,0,1-1.7-.342,2.835,2.835,0,0,1-1.162-.93,2.105,2.105,0,0,1-.417-1.237h2.153a.89.89,0,0,0,.342.749,1.406,1.406,0,0,0,.841.236,1.106,1.106,0,0,0,.708-.191A.612.612,0,0,0,83.479,10.922ZM89.208,13H86.9V5.6h2.311ZM86.76,3.7a1.028,1.028,0,0,1,.355-.807,1.511,1.511,0,0,1,1.846,0,1.028,1.028,0,0,1,.355.807,1.028,1.028,0,0,1-.355.807,1.511,1.511,0,0,1-1.846,0A1.028,1.028,0,0,1,86.76,3.7Zm3.575,5.537a4.366,4.366,0,0,1,.431-1.972A3.08,3.08,0,0,1,92,5.932,3.726,3.726,0,0,1,93.9,5.467,3.4,3.4,0,0,1,96.515,6.5a3.948,3.948,0,0,1,.957,2.8v.082a3.83,3.83,0,0,1-.96,2.745,3.41,3.41,0,0,1-2.6,1.015,3.449,3.449,0,0,1-2.536-.947,3.7,3.7,0,0,1-1.032-2.567Zm2.3.144a2.752,2.752,0,0,0,.321,1.5,1.07,1.07,0,0,0,.95.479q1.23,0,1.258-1.894V9.233q0-1.989-1.271-1.989-1.155,0-1.251,1.716ZM100.6,5.6l.075.868a2.508,2.508,0,0,1,2.112-1,2.11,2.11,0,0,1,1.726.69,3.287,3.287,0,0,1,.591,2.078V13H102.8V8.331a1.248,1.248,0,0,0-.226-.824,1.044,1.044,0,0,0-.82-.263,1.1,1.1,0,0,0-1,.533V13h-2.3V5.6Zm9.946,7.4a2.6,2.6,0,0,1-.219-.663,2.142,2.142,0,0,1-1.777.8,2.624,2.624,0,0,1-1.777-.632,2.013,2.013,0,0,1-.731-1.589,2.069,2.069,0,0,1,.889-1.818,4.527,4.527,0,0,1,2.584-.615h.711V8.09q0-1.023-.882-1.023a.721.721,0,0,0-.82.811h-2.3a2.065,2.065,0,0,1,.913-1.741,3.835,3.835,0,0,1,2.328-.669,3.363,3.363,0,0,1,2.235.69,2.4,2.4,0,0,1,.841,1.894v3.274a3.353,3.353,0,0,0,.314,1.559V13Zm-1.442-1.5a1.285,1.285,0,0,0,.714-.185,1.157,1.157,0,0,0,.407-.417V9.712h-.67q-1.2,0-1.2,1.08a.659.659,0,0,0,.212.509A.767.767,0,0,0,109.107,11.5Zm7.137,1.5h-2.311V2.5h2.311Zm2.851-2.235a1.311,1.311,0,0,1,.909.325,1.133,1.133,0,0,1,0,1.661,1.434,1.434,0,0,1-1.822,0,1.133,1.133,0,0,1,0-1.654A1.3,1.3,0,0,1,119.094,10.765Zm0-5.455a1.311,1.311,0,0,1,.909.325A1.133,1.133,0,0,1,120,7.3a1.434,1.434,0,0,1-1.822,0,1.133,1.133,0,0,1,0-1.654A1.3,1.3,0,0,1,119.094,5.31ZM10.632,27.141H7.344L6.77,29H4.206l3.65-9.953h2.256L13.79,29H11.213ZM7.918,25.288h2.14L8.984,21.836Zm9.058-5.523V21.6h1.217v1.6H16.976v3.384a.864.864,0,0,0,.15.581.807.807,0,0,0,.595.164,3.38,3.38,0,0,0,.574-.041v1.647a4.252,4.252,0,0,1-1.3.2,2.413,2.413,0,0,1-1.757-.561,2.3,2.3,0,0,1-.567-1.7V23.2h-.943V21.6h.943V19.765ZM18.6,25.233a4.366,4.366,0,0,1,.431-1.972,3.08,3.08,0,0,1,1.237-1.33,3.726,3.726,0,0,1,1.894-.465A3.4,3.4,0,0,1,24.782,22.5a3.948,3.948,0,0,1,.957,2.8v.082a3.83,3.83,0,0,1-.96,2.745,3.41,3.41,0,0,1-2.6,1.015,3.449,3.449,0,0,1-2.536-.947,3.7,3.7,0,0,1-1.032-2.567Zm2.3.144a2.752,2.752,0,0,0,.321,1.5,1.07,1.07,0,0,0,.95.479q1.23,0,1.258-1.894v-.232q0-1.989-1.271-1.989-1.155,0-1.251,1.716ZM22.479,18.5h2.434l-1.9,2.146-1.88,0Zm6.453,3.1.075.868a2.543,2.543,0,0,1,2.112-1,1.872,1.872,0,0,1,1.894,1.114,2.462,2.462,0,0,1,2.174-1.114q2.249,0,2.311,2.721V29H35.187V24.331A1.41,1.41,0,0,0,35,23.5a.815.815,0,0,0-.7-.26,1.091,1.091,0,0,0-1.019.608l.007.1V29H30.976V24.345a1.482,1.482,0,0,0-.185-.841.812.812,0,0,0-.7-.26,1.1,1.1,0,0,0-1.012.608V29h-2.3V21.6ZM41.243,29H38.933V21.6h2.311ZM38.8,19.7a1.028,1.028,0,0,1,.355-.807,1.511,1.511,0,0,1,1.846,0A1.093,1.093,0,0,1,41,20.5a1.511,1.511,0,0,1-1.846,0A1.028,1.028,0,0,1,38.8,19.7Zm6.993,7.663a1.025,1.025,0,0,0,.752-.263.965.965,0,0,0,.26-.735h2.16a2.557,2.557,0,0,1-.872,2,3.242,3.242,0,0,1-2.246.779A3.283,3.283,0,0,1,43.3,28.125a3.986,3.986,0,0,1-.93-2.8v-.1a4.505,4.505,0,0,1,.414-1.979,3.011,3.011,0,0,1,1.193-1.319,3.557,3.557,0,0,1,1.846-.461,3.2,3.2,0,0,1,2.29.8,2.837,2.837,0,0,1,.848,2.167H46.8a1.265,1.265,0,0,0-.28-.882.967.967,0,0,0-.752-.308q-.9,0-1.046,1.142a8.055,8.055,0,0,0-.048,1,3.164,3.164,0,0,0,.267,1.545A.923.923,0,0,0,45.789,27.359Zm3.855-2.126a4.366,4.366,0,0,1,.431-1.972,3.08,3.08,0,0,1,1.237-1.33,3.726,3.726,0,0,1,1.894-.465A3.4,3.4,0,0,1,55.824,22.5a3.948,3.948,0,0,1,.957,2.8v.082a3.83,3.83,0,0,1-.96,2.745,3.41,3.41,0,0,1-2.6,1.015,3.449,3.449,0,0,1-2.536-.947,3.7,3.7,0,0,1-1.032-2.567Zm2.3.144a2.752,2.752,0,0,0,.321,1.5,1.07,1.07,0,0,0,.95.479q1.23,0,1.258-1.894v-.232q0-1.989-1.271-1.989-1.155,0-1.251,1.716Zm12.291.4,1.23-4.17h2.468l-3.015,8.634-.13.314a2.29,2.29,0,0,1-2.27,1.436,3.61,3.61,0,0,1-.95-.136V30.21h.3a1.576,1.576,0,0,0,.742-.14.851.851,0,0,0,.379-.5l.185-.493L60.609,21.6H63.07Zm11.587-.294h-1.3V29h-2.4V19.047h3.917a4.372,4.372,0,0,1,2.769.785,2.661,2.661,0,0,1,1,2.219,3.232,3.232,0,0,1-.42,1.721,2.984,2.984,0,0,1-1.316,1.106L80.153,28.9V29h-2.57Zm-1.3-1.846h1.518a1.362,1.362,0,0,0,1.029-.36,1.391,1.391,0,0,0,.345-1,1.407,1.407,0,0,0-.349-1.011,1.349,1.349,0,0,0-1.025-.367H74.527Zm10.206,5.5a3.8,3.8,0,0,1-2.755-1.015,3.506,3.506,0,0,1-1.053-2.642v-.191a4.542,4.542,0,0,1,.42-2,3.076,3.076,0,0,1,1.227-1.343,3.7,3.7,0,0,1,1.914-.475,3.2,3.2,0,0,1,2.461.967,3.8,3.8,0,0,1,.9,2.7v.9h-4.58a1.66,1.66,0,0,0,.54.978,1.607,1.607,0,0,0,1.08.355,2.07,2.07,0,0,0,1.709-.766l1.053,1.244a2.943,2.943,0,0,1-1.22.947A4.123,4.123,0,0,1,84.733,29.137Zm-.26-5.893q-1.012,0-1.2,1.34h2.324v-.178a1.141,1.141,0,0,0-.28-.858A1.115,1.115,0,0,0,84.474,23.244Zm8.176,3.678a.532.532,0,0,0-.308-.472,4.679,4.679,0,0,0-1.169-.369,5.33,5.33,0,0,1-1.422-.5,2.382,2.382,0,0,1-.854-.755A1.8,1.8,0,0,1,88.6,23.8a2.044,2.044,0,0,1,.841-1.678,3.464,3.464,0,0,1,2.2-.66A3.837,3.837,0,0,1,94,22.13a2.074,2.074,0,0,1,.889,1.743H92.574q0-.889-.937-.889a.928.928,0,0,0-.608.2.624.624,0,0,0-.246.5.573.573,0,0,0,.3.5,2.842,2.842,0,0,0,.96.314A8.3,8.3,0,0,1,93.2,24.8a2.105,2.105,0,0,1,1.668,2.058,1.937,1.937,0,0,1-.9,1.647,3.942,3.942,0,0,1-2.328.636,4.023,4.023,0,0,1-1.7-.342,2.835,2.835,0,0,1-1.162-.93,2.105,2.105,0,0,1-.417-1.237h2.153a.89.89,0,0,0,.342.749,1.406,1.406,0,0,0,.841.236,1.106,1.106,0,0,0,.708-.191A.612.612,0,0,0,92.649,26.922Zm7.7,1.278a2.375,2.375,0,0,1-1.976.937,2.329,2.329,0,0,1-1.842-.708A2.976,2.976,0,0,1,95.91,26.4V21.6h2.3v4.806a.828.828,0,0,0,.923.95,1.2,1.2,0,0,0,1.128-.567V21.6h2.317V29h-2.16Zm5.667-6.6.075.868a2.543,2.543,0,0,1,2.112-1,1.872,1.872,0,0,1,1.894,1.114,2.462,2.462,0,0,1,2.174-1.114q2.249,0,2.311,2.721V29h-2.311V24.331a1.41,1.41,0,0,0-.191-.827.815.815,0,0,0-.7-.26,1.091,1.091,0,0,0-1.019.608l.007.1V29h-2.311V24.345a1.482,1.482,0,0,0-.185-.841.812.812,0,0,0-.7-.26,1.1,1.1,0,0,0-1.012.608V29h-2.3V21.6Zm13.46,7.533a3.8,3.8,0,0,1-2.755-1.015,3.506,3.506,0,0,1-1.053-2.642v-.191a4.542,4.542,0,0,1,.42-2,3.076,3.076,0,0,1,1.227-1.343,3.7,3.7,0,0,1,1.914-.475,3.2,3.2,0,0,1,2.461.967,3.8,3.8,0,0,1,.9,2.7v.9h-4.58a1.66,1.66,0,0,0,.54.978,1.607,1.607,0,0,0,1.08.355,2.07,2.07,0,0,0,1.709-.766l1.053,1.244a2.943,2.943,0,0,1-1.22.947A4.123,4.123,0,0,1,119.48,29.137Zm-.26-5.893q-1.012,0-1.2,1.34h2.324v-.178a1.141,1.141,0,0,0-.28-.858A1.115,1.115,0,0,0,119.221,23.244ZM125.64,21.6l.075.868a2.508,2.508,0,0,1,2.112-1,2.11,2.11,0,0,1,1.726.69,3.287,3.287,0,0,1,.591,2.078V29h-2.311V24.331a1.248,1.248,0,0,0-.226-.824,1.044,1.044,0,0,0-.82-.263,1.1,1.1,0,0,0-1,.533V29h-2.3V21.6Z" transform="translate(1122 3985)" fill="#12263f"/>
    <g transform="matrix(1, 0, 0, 1, 705, 3826.5)" filter="url(#Trazado_204773)">
      <path id="Trazado_204773-2" data-name="Trazado 204773" d="M594.167,252.5H374.188a15.01,15.01,0,0,1-15.01-15.011V217.511a15.01,15.01,0,0,1,15.01-15.011H594.167a15.011,15.011,0,0,1,15.011,15.011v19.978A15.011,15.011,0,0,1,594.167,252.5" transform="translate(-0.18 6)" fill="url(#linear-gradient-8)"/>
    </g>
    <path id="Trazado_254833" data-name="Trazado 254833" d="M19.217,11.141H15.929L15.355,13H12.792l3.65-9.953H18.7L22.375,13H19.8ZM16.5,9.288h2.14L17.57,5.836Zm10.965-1.6-.759-.055a1.363,1.363,0,0,0-1.395.684V13h-2.3V5.6h2.16l.075.95a1.784,1.784,0,0,1,1.62-1.087,2.247,2.247,0,0,1,.643.082Zm.41,1.538a4.44,4.44,0,0,1,.766-2.762,2.515,2.515,0,0,1,2.112-1,2.148,2.148,0,0,1,1.818.93l.164-.793h2v10.24H32.424V12.385a2.144,2.144,0,0,1-1.682.752,2.493,2.493,0,0,1-2.088-1.015A4.687,4.687,0,0,1,27.878,9.227Zm2.3.144q0,1.989,1.148,1.989a1.112,1.112,0,0,0,1.094-.6V7.832a1.088,1.088,0,0,0-1.08-.588q-1.073,0-1.155,1.716ZM40.443,12.2a2.375,2.375,0,0,1-1.976.937,2.329,2.329,0,0,1-1.842-.708A2.976,2.976,0,0,1,36,10.4V5.6h2.3v4.806a.828.828,0,0,0,.923.95,1.2,1.2,0,0,0,1.128-.567V5.6h2.317V13h-2.16Zm5.92.8H44.052V5.6h2.311ZM43.916,3.7a1.028,1.028,0,0,1,.355-.807,1.511,1.511,0,0,1,1.846,0,1.028,1.028,0,0,1,.355.807,1.028,1.028,0,0,1-.355.807,1.511,1.511,0,0,1-1.846,0A1.028,1.028,0,0,1,43.916,3.7Zm6.549.068V5.6h1.217V7.2H50.464v3.384a.864.864,0,0,0,.15.581.807.807,0,0,0,.595.164,3.38,3.38,0,0,0,.574-.041v1.647a4.252,4.252,0,0,1-1.3.2,2.413,2.413,0,0,1-1.757-.561,2.3,2.3,0,0,1-.567-1.7V7.2h-.943V5.6h.943V3.765Zm5.7,9.372a3.8,3.8,0,0,1-2.755-1.015,3.506,3.506,0,0,1-1.053-2.642V9.288a4.542,4.542,0,0,1,.42-2,3.076,3.076,0,0,1,1.227-1.343,3.7,3.7,0,0,1,1.914-.475,3.2,3.2,0,0,1,2.461.967,3.8,3.8,0,0,1,.9,2.7v.9H54.7a1.66,1.66,0,0,0,.54.978,1.607,1.607,0,0,0,1.08.355,2.07,2.07,0,0,0,1.709-.766l1.053,1.244a2.943,2.943,0,0,1-1.22.947A4.123,4.123,0,0,1,56.166,13.137Zm-.26-5.893q-1.012,0-1.2,1.34h2.324V8.406a1.141,1.141,0,0,0-.28-.858A1.115,1.115,0,0,0,55.906,7.244Zm7.431,4.115a1.025,1.025,0,0,0,.752-.263.965.965,0,0,0,.26-.735h2.16a2.557,2.557,0,0,1-.872,2,3.242,3.242,0,0,1-2.246.779,3.282,3.282,0,0,1-2.543-1.012,3.986,3.986,0,0,1-.93-2.8v-.1a4.505,4.505,0,0,1,.414-1.979,3.011,3.011,0,0,1,1.193-1.319,3.557,3.557,0,0,1,1.846-.461,3.2,3.2,0,0,1,2.29.8,2.837,2.837,0,0,1,.848,2.167h-2.16a1.265,1.265,0,0,0-.28-.882.967.967,0,0,0-.752-.308q-.9,0-1.046,1.142a8.055,8.055,0,0,0-.048,1,3.164,3.164,0,0,0,.267,1.545A.923.923,0,0,0,63.336,11.359Zm6.829-7.595V5.6h1.217V7.2H70.166v3.384a.864.864,0,0,0,.15.581.807.807,0,0,0,.595.164,3.379,3.379,0,0,0,.574-.041v1.647a4.252,4.252,0,0,1-1.3.2,2.413,2.413,0,0,1-1.757-.561,2.3,2.3,0,0,1-.567-1.7V7.2h-.943V5.6h.943V3.765ZM76.694,12.2a2.375,2.375,0,0,1-1.976.937,2.329,2.329,0,0,1-1.842-.708A2.976,2.976,0,0,1,72.25,10.4V5.6h2.3v4.806a.828.828,0,0,0,.923.95,1.2,1.2,0,0,0,1.128-.567V5.6h2.317V13h-2.16Zm7.964-4.512L83.9,7.634a1.363,1.363,0,0,0-1.395.684V13H80.2V5.6h2.16l.075.95a1.784,1.784,0,0,1,1.62-1.087,2.246,2.246,0,0,1,.643.082ZM89.45,13a2.6,2.6,0,0,1-.219-.663,2.142,2.142,0,0,1-1.777.8,2.624,2.624,0,0,1-1.777-.632,2.013,2.013,0,0,1-.731-1.589A2.069,2.069,0,0,1,85.833,9.1a4.527,4.527,0,0,1,2.584-.615h.711V8.09q0-1.023-.882-1.023a.721.721,0,0,0-.82.811h-2.3a2.065,2.065,0,0,1,.913-1.741,3.835,3.835,0,0,1,2.328-.669,3.363,3.363,0,0,1,2.235.69,2.4,2.4,0,0,1,.841,1.894v3.274a3.353,3.353,0,0,0,.314,1.559V13Zm-1.442-1.5a1.285,1.285,0,0,0,.714-.185,1.157,1.157,0,0,0,.407-.417V9.712h-.67q-1.2,0-1.2,1.08a.659.659,0,0,0,.212.509A.767.767,0,0,0,88.007,11.5Zm8.3,1.5V3.047h3.575a5.063,5.063,0,0,1,2.922.7,2.343,2.343,0,0,1,1,2.044,2.368,2.368,0,0,1-.355,1.319,2.071,2.071,0,0,1-1.046.807,2.1,2.1,0,0,1,1.2.766,2.226,2.226,0,0,1,.417,1.367,2.635,2.635,0,0,1-.926,2.2,4.408,4.408,0,0,1-2.745.749Zm2.4-4.231v2.386h1.572a1.5,1.5,0,0,0,1-.3,1.041,1.041,0,0,0,.349-.837,1.1,1.1,0,0,0-1.237-1.251Zm0-1.572h1.251a1.777,1.777,0,0,0,1.121-.288,1.022,1.022,0,0,0,.335-.83,1.073,1.073,0,0,0-.362-.908,1.939,1.939,0,0,0-1.169-.278H98.706Zm10.931,5a2.375,2.375,0,0,1-1.976.937,2.329,2.329,0,0,1-1.842-.708,2.976,2.976,0,0,1-.625-2.034V5.6h2.3v4.806a.828.828,0,0,0,.923.95,1.2,1.2,0,0,0,1.128-.567V5.6h2.317V13H109.7ZM117,10.922a.532.532,0,0,0-.308-.472,4.679,4.679,0,0,0-1.169-.369,5.33,5.33,0,0,1-1.422-.5,2.382,2.382,0,0,1-.854-.755,1.8,1.8,0,0,1-.294-1.019,2.044,2.044,0,0,1,.841-1.678,3.464,3.464,0,0,1,2.2-.66,3.837,3.837,0,0,1,2.352.663,2.074,2.074,0,0,1,.889,1.743h-2.311q0-.889-.937-.889a.928.928,0,0,0-.608.2.624.624,0,0,0-.246.5.573.573,0,0,0,.3.5,2.842,2.842,0,0,0,.96.314,8.3,8.3,0,0,1,1.159.294,2.105,2.105,0,0,1,1.668,2.058,1.937,1.937,0,0,1-.9,1.647,3.942,3.942,0,0,1-2.328.636,4.023,4.023,0,0,1-1.7-.342,2.835,2.835,0,0,1-1.162-.93,2.105,2.105,0,0,1-.417-1.237h2.153a.89.89,0,0,0,.342.749,1.406,1.406,0,0,0,.841.236,1.106,1.106,0,0,0,.708-.191A.612.612,0,0,0,117,10.922Zm6.494-1.675a4.518,4.518,0,0,1,.759-2.769,2.5,2.5,0,0,1,2.119-1.012,2.124,2.124,0,0,1,1.668.779V2.5h2.311V13h-2.071l-.116-.793a2.181,2.181,0,0,1-1.8.93,2.493,2.493,0,0,1-2.092-1.012A4.661,4.661,0,0,1,123.493,9.247Zm2.3.144q0,1.969,1.148,1.969a1.134,1.134,0,0,0,1.094-.643V7.9a1.1,1.1,0,0,0-1.08-.656q-1.066,0-1.155,1.723Zm9.44,3.746a3.8,3.8,0,0,1-2.755-1.015,3.505,3.505,0,0,1-1.053-2.642V9.288a4.542,4.542,0,0,1,.42-2,3.076,3.076,0,0,1,1.227-1.343,3.7,3.7,0,0,1,1.914-.475,3.2,3.2,0,0,1,2.461.967,3.8,3.8,0,0,1,.9,2.7v.9h-4.58a1.66,1.66,0,0,0,.54.978,1.607,1.607,0,0,0,1.08.355,2.07,2.07,0,0,0,1.709-.766l1.053,1.244a2.943,2.943,0,0,1-1.22.947A4.123,4.123,0,0,1,135.237,13.137Zm-.26-5.893q-1.012,0-1.2,1.34H136.1V8.406a1.141,1.141,0,0,0-.28-.858A1.115,1.115,0,0,0,134.977,7.244ZM141.71,13H139.4V2.5h2.311Zm5.011,0V3.047h3.206a4.716,4.716,0,0,1,2.372.6,4.2,4.2,0,0,1,1.644,1.688,5.1,5.1,0,0,1,.6,2.444v.458a5.127,5.127,0,0,1-.578,2.451,4.223,4.223,0,0,1-1.627,1.7A4.612,4.612,0,0,1,150,13Zm2.4-8.1v6.255h.834a1.867,1.867,0,0,0,1.586-.735,3.6,3.6,0,0,0,.554-2.184V7.8a3.572,3.572,0,0,0-.554-2.174,1.9,1.9,0,0,0-1.613-.731Zm14.362,4.389,1.142-6.241H167L164.891,13H162.4L161.07,7.326,159.764,13h-2.481l-2.119-9.953h2.386l1.142,6.241,1.367-6.241H162.1Z" transform="translate(1099 4052)" fill="#12263f"/>
  </g>
</svg>
