<svg xmlns="http://www.w3.org/2000/svg" xmlns:xlink="http://www.w3.org/1999/xlink" width="1240" height="425" viewBox="0 0 1240 425">
  <defs>
    <filter id="Trazado_254234" x="106.5" y="111.5" width="312.294" height="270.603" filterUnits="userSpaceOnUse">
      <feOffset dy="3" input="SourceAlpha"/>
      <feGaussianBlur stdDeviation="3" result="blur"/>
      <feFlood flood-opacity="0.161"/>
      <feComposite operator="in" in2="blur"/>
      <feComposite in="SourceGraphic"/>
    </filter>
    <filter id="Trazado_254245" x="253.619" y="111.5" width="312.294" height="270.603" filterUnits="userSpaceOnUse">
      <feOffset dy="3" input="SourceAlpha"/>
      <feGaussianBlur stdDeviation="3" result="blur-2"/>
      <feFlood flood-opacity="0.161"/>
      <feComposite operator="in" in2="blur-2"/>
      <feComposite in="SourceGraphic"/>
    </filter>
    <filter id="Trazado_254233" x="124" y="129" width="129.793" height="129.792" filterUnits="userSpaceOnUse">
      <feOffset dy="3" input="SourceAlpha"/>
      <feGaussianBlur stdDeviation="3" result="blur-3"/>
      <feFlood flood-opacity="0.161"/>
      <feComposite operator="in" in2="blur-3"/>
      <feComposite in="SourceGraphic"/>
    </filter>
    <filter id="Trazado_254235" x="271" y="235" width="129.793" height="129.792" filterUnits="userSpaceOnUse">
      <feOffset dy="3" input="SourceAlpha"/>
      <feGaussianBlur stdDeviation="3" result="blur-4"/>
      <feFlood flood-opacity="0.161"/>
      <feComposite operator="in" in2="blur-4"/>
      <feComposite in="SourceGraphic"/>
    </filter>
    <filter id="Trazado_254237" x="400.793" y="111.5" width="312.294" height="270.603" filterUnits="userSpaceOnUse">
      <feOffset dy="3" input="SourceAlpha"/>
      <feGaussianBlur stdDeviation="3" result="blur-5"/>
      <feFlood flood-opacity="0.161"/>
      <feComposite operator="in" in2="blur-5"/>
      <feComposite in="SourceGraphic"/>
    </filter>
    <filter id="Trazado_254244" x="547.912" y="111.5" width="312.294" height="270.603" filterUnits="userSpaceOnUse">
      <feOffset dy="3" input="SourceAlpha"/>
      <feGaussianBlur stdDeviation="3" result="blur-6"/>
      <feFlood flood-opacity="0.161"/>
      <feComposite operator="in" in2="blur-6"/>
      <feComposite in="SourceGraphic"/>
    </filter>
    <filter id="Trazado_254236" x="418" y="129" width="129.793" height="129.792" filterUnits="userSpaceOnUse">
      <feOffset dy="3" input="SourceAlpha"/>
      <feGaussianBlur stdDeviation="3" result="blur-7"/>
      <feFlood flood-opacity="0.161"/>
      <feComposite operator="in" in2="blur-7"/>
      <feComposite in="SourceGraphic"/>
    </filter>
    <filter id="Trazado_254238" x="566" y="235" width="129.793" height="129.792" filterUnits="userSpaceOnUse">
      <feOffset dy="3" input="SourceAlpha"/>
      <feGaussianBlur stdDeviation="3" result="blur-8"/>
      <feFlood flood-opacity="0.161"/>
      <feComposite operator="in" in2="blur-8"/>
      <feComposite in="SourceGraphic"/>
    </filter>
    <filter id="Trazado_254240" x="695.059" y="111.5" width="312.294" height="270.603" filterUnits="userSpaceOnUse">
      <feOffset dy="3" input="SourceAlpha"/>
      <feGaussianBlur stdDeviation="3" result="blur-9"/>
      <feFlood flood-opacity="0.161"/>
      <feComposite operator="in" in2="blur-9"/>
      <feComposite in="SourceGraphic"/>
    </filter>
    <filter id="Trazado_254243" x="842.206" y="111.5" width="312.294" height="270.603" filterUnits="userSpaceOnUse">
      <feOffset dy="3" input="SourceAlpha"/>
      <feGaussianBlur stdDeviation="3" result="blur-10"/>
      <feFlood flood-opacity="0.161"/>
      <feComposite operator="in" in2="blur-10"/>
      <feComposite in="SourceGraphic"/>
    </filter>
    <filter id="Trazado_254484" x="989.353" y="111.5" width="165.118" height="165.118" filterUnits="userSpaceOnUse">
      <feOffset dy="3" input="SourceAlpha"/>
      <feGaussianBlur stdDeviation="3" result="blur-11"/>
      <feFlood flood-opacity="0.161"/>
      <feComposite operator="in" in2="blur-11"/>
      <feComposite in="SourceGraphic"/>
    </filter>
    <filter id="Trazado_254239" x="713" y="129" width="129.793" height="129.792" filterUnits="userSpaceOnUse">
      <feOffset dy="3" input="SourceAlpha"/>
      <feGaussianBlur stdDeviation="3" result="blur-12"/>
      <feFlood flood-opacity="0.161"/>
      <feComposite operator="in" in2="blur-12"/>
      <feComposite in="SourceGraphic"/>
    </filter>
    <filter id="Trazado_254241" x="860" y="235" width="129.793" height="129.792" filterUnits="userSpaceOnUse">
      <feOffset dy="3" input="SourceAlpha"/>
      <feGaussianBlur stdDeviation="3" result="blur-13"/>
      <feFlood flood-opacity="0.161"/>
      <feComposite operator="in" in2="blur-13"/>
      <feComposite in="SourceGraphic"/>
    </filter>
    <filter id="Trazado_254242" x="1007" y="129" width="129.793" height="129.792" filterUnits="userSpaceOnUse">
      <feOffset dy="3" input="SourceAlpha"/>
      <feGaussianBlur stdDeviation="3" result="blur-14"/>
      <feFlood flood-opacity="0.161"/>
      <feComposite operator="in" in2="blur-14"/>
      <feComposite in="SourceGraphic"/>
    </filter>
  </defs>
  <g id="Grupo_175165" data-name="Grupo 175165" transform="translate(-180 -8089)">
    <path id="Trazado_254814" data-name="Trazado 254814" d="M0,0H1240V425H0Z" transform="translate(180 8089)" fill="none"/>
    <path id="Trazado_254815" data-name="Trazado 254815" d="M12.451,15.758H5.982v4.078h7.641V23H1.869V5.938H13.646V9.113H5.982v3.6h6.469ZM19.283,23H15.322V5h3.961Zm8.566.234a6.518,6.518,0,0,1-4.723-1.74,6.009,6.009,0,0,1-1.8-4.529v-.328a7.787,7.787,0,0,1,.721-3.434,5.274,5.274,0,0,1,2.1-2.3,6.35,6.35,0,0,1,3.281-.814,5.489,5.489,0,0,1,4.219,1.658,6.516,6.516,0,0,1,1.547,4.623V17.9H25.342a2.846,2.846,0,0,0,.926,1.676,2.755,2.755,0,0,0,1.852.609,3.549,3.549,0,0,0,2.93-1.312l1.8,2.133a5.045,5.045,0,0,1-2.092,1.623A7.069,7.069,0,0,1,27.85,23.234Zm-.445-10.1q-1.734,0-2.062,2.3h3.984v-.3a1.956,1.956,0,0,0-.48-1.471A1.912,1.912,0,0,0,27.4,13.133ZM38.514,10.32l.129,1.488a4.36,4.36,0,0,1,3.621-1.723A3.21,3.21,0,0,1,45.51,12a4.22,4.22,0,0,1,3.727-1.91q3.855,0,3.961,4.664V23H49.236V15a2.417,2.417,0,0,0-.328-1.418,1.4,1.4,0,0,0-1.2-.445,1.871,1.871,0,0,0-1.746,1.043l.012.164V23H42.018V15.02a2.541,2.541,0,0,0-.316-1.441,1.393,1.393,0,0,0-1.207-.445,1.894,1.894,0,0,0-1.734,1.043V23H34.811V10.32ZM61.588,23.234a6.518,6.518,0,0,1-4.723-1.74,6.009,6.009,0,0,1-1.8-4.529v-.328a7.787,7.787,0,0,1,.721-3.434,5.274,5.274,0,0,1,2.1-2.3,6.35,6.35,0,0,1,3.281-.814,5.489,5.489,0,0,1,4.219,1.658,6.516,6.516,0,0,1,1.547,4.623V17.9H59.08a2.846,2.846,0,0,0,.926,1.676,2.755,2.755,0,0,0,1.852.609,3.549,3.549,0,0,0,2.93-1.312l1.8,2.133A5.045,5.045,0,0,1,64.5,22.631,7.069,7.069,0,0,1,61.588,23.234Zm-.445-10.1q-1.734,0-2.062,2.3h3.984v-.3a1.956,1.956,0,0,0-.48-1.471A1.912,1.912,0,0,0,61.143,13.133Zm11-2.812.129,1.488A4.3,4.3,0,0,1,75.9,10.086a3.618,3.618,0,0,1,2.959,1.184,5.635,5.635,0,0,1,1.014,3.563V23H75.908V15a2.14,2.14,0,0,0-.387-1.412,1.789,1.789,0,0,0-1.406-.451,1.883,1.883,0,0,0-1.723.914V23H68.443V10.32ZM86.654,7.168V10.32H88.74v2.742H86.654v5.8a1.481,1.481,0,0,0,.258,1,1.383,1.383,0,0,0,1.02.281,5.793,5.793,0,0,0,.984-.07v2.824a7.288,7.288,0,0,1-2.227.34,4.137,4.137,0,0,1-3.012-.961,3.939,3.939,0,0,1-.973-2.918V13.063H81.088V10.32h1.617V7.168Zm2.789,9.375a7.484,7.484,0,0,1,.738-3.381A5.28,5.28,0,0,1,92.3,10.883a6.388,6.388,0,0,1,3.246-.8,5.83,5.83,0,0,1,4.488,1.764,6.768,6.768,0,0,1,1.641,4.8v.141a6.566,6.566,0,0,1-1.646,4.705,5.846,5.846,0,0,1-4.459,1.74,5.912,5.912,0,0,1-4.348-1.623,6.348,6.348,0,0,1-1.77-4.4Zm3.949.246a4.718,4.718,0,0,0,.551,2.578,1.835,1.835,0,0,0,1.629.82q2.109,0,2.156-3.246v-.4q0-3.41-2.18-3.41-1.98,0-2.145,2.941Zm16.664,2.648a.912.912,0,0,0-.527-.809,8.021,8.021,0,0,0-2-.633,9.138,9.138,0,0,1-2.437-.861,4.083,4.083,0,0,1-1.465-1.295,3.092,3.092,0,0,1-.5-1.746,3.5,3.5,0,0,1,1.441-2.877,5.938,5.938,0,0,1,3.773-1.131,6.579,6.579,0,0,1,4.031,1.137,3.555,3.555,0,0,1,1.523,2.988h-3.961q0-1.523-1.605-1.523a1.591,1.591,0,0,0-1.043.346,1.07,1.07,0,0,0-.422.861.982.982,0,0,0,.516.855,4.872,4.872,0,0,0,1.646.539,14.228,14.228,0,0,1,1.986.5q2.859.984,2.859,3.527a3.321,3.321,0,0,1-1.541,2.824,6.758,6.758,0,0,1-3.99,1.09,6.9,6.9,0,0,1-2.906-.586,4.86,4.86,0,0,1-1.992-1.594,3.609,3.609,0,0,1-.715-2.121h3.691A1.526,1.526,0,0,0,107,20.217a2.41,2.41,0,0,0,1.441.4,1.9,1.9,0,0,0,1.213-.328A1.05,1.05,0,0,0,110.057,19.438Zm11.133-2.871a7.746,7.746,0,0,1,1.3-4.746,4.282,4.282,0,0,1,3.633-1.734,3.641,3.641,0,0,1,2.859,1.336V5h3.961V23h-3.551l-.2-1.359a3.739,3.739,0,0,1-3.094,1.594,4.274,4.274,0,0,1-3.586-1.734A7.991,7.991,0,0,1,121.189,16.566Zm3.949.246q0,3.375,1.969,3.375a1.944,1.944,0,0,0,1.875-1.1V14.258a1.892,1.892,0,0,0-1.852-1.125q-1.828,0-1.98,2.953Zm16.184,6.422a6.518,6.518,0,0,1-4.723-1.74,6.009,6.009,0,0,1-1.8-4.529v-.328a7.787,7.787,0,0,1,.721-3.434,5.274,5.274,0,0,1,2.1-2.3,6.35,6.35,0,0,1,3.281-.814,5.489,5.489,0,0,1,4.219,1.658,6.516,6.516,0,0,1,1.547,4.623V17.9h-7.852a2.846,2.846,0,0,0,.926,1.676,2.755,2.755,0,0,0,1.852.609,3.549,3.549,0,0,0,2.93-1.312l1.8,2.133a5.045,5.045,0,0,1-2.092,1.623A7.069,7.069,0,0,1,141.322,23.234Zm-.445-10.1q-1.734,0-2.062,2.3H142.8v-.3a1.956,1.956,0,0,0-.48-1.471A1.912,1.912,0,0,0,140.877,13.133Zm20.906,8.5a4.072,4.072,0,0,1-3.387,1.605,3.993,3.993,0,0,1-3.158-1.213,5.1,5.1,0,0,1-1.072-3.486V10.32h3.949v8.238a1.419,1.419,0,0,0,1.582,1.629,2.064,2.064,0,0,0,1.934-.973V10.32H165.6V23h-3.7Zm9.609-11.309.129,1.488a4.3,4.3,0,0,1,3.621-1.723A3.618,3.618,0,0,1,178.1,11.27a5.635,5.635,0,0,1,1.014,3.563V23h-3.961V15a2.14,2.14,0,0,0-.387-1.412,1.789,1.789,0,0,0-1.406-.451,1.883,1.883,0,0,0-1.723.914V23h-3.949V10.32ZM188.443,23a4.459,4.459,0,0,1-.375-1.137,3.672,3.672,0,0,1-3.047,1.371,4.5,4.5,0,0,1-3.047-1.084,3.45,3.45,0,0,1-1.254-2.725,3.546,3.546,0,0,1,1.523-3.117,7.761,7.761,0,0,1,4.43-1.055h1.219v-.671q0-1.755-1.512-1.755a1.236,1.236,0,0,0-1.406,1.39h-3.949a3.54,3.54,0,0,1,1.564-2.985,6.575,6.575,0,0,1,3.99-1.147,5.764,5.764,0,0,1,3.832,1.184,4.115,4.115,0,0,1,1.441,3.246v5.613a5.748,5.748,0,0,0,.539,2.672V23Zm-2.473-2.578a2.2,2.2,0,0,0,1.225-.316,1.983,1.983,0,0,0,.7-.715V17.363h-1.148q-2.062,0-2.062,1.852a1.131,1.131,0,0,0,.363.873A1.315,1.315,0,0,0,185.971,20.422Zm25.816-3.656a7.728,7.728,0,0,1-1.289,4.793,4.318,4.318,0,0,1-3.633,1.676,3.747,3.747,0,0,1-3.117-1.535l-.164,1.3h-3.539V5h3.949v6.34a3.615,3.615,0,0,1,2.848-1.254,4.319,4.319,0,0,1,3.656,1.7,7.768,7.768,0,0,1,1.289,4.781Zm-3.961-.252a5.155,5.155,0,0,0-.486-2.6,1.639,1.639,0,0,0-1.494-.778,1.891,1.891,0,0,0-1.852,1.018v5.031a1.9,1.9,0,0,0,1.875,1.006,1.677,1.677,0,0,0,1.77-1.357A9.745,9.745,0,0,0,207.826,16.514Zm5.2.029a7.484,7.484,0,0,1,.738-3.381,5.28,5.28,0,0,1,2.121-2.279,6.388,6.388,0,0,1,3.246-.8,5.83,5.83,0,0,1,4.488,1.764,6.768,6.768,0,0,1,1.641,4.8v.141a6.566,6.566,0,0,1-1.646,4.705,5.846,5.846,0,0,1-4.459,1.74,5.912,5.912,0,0,1-4.348-1.623,6.348,6.348,0,0,1-1.77-4.4Zm3.949.246a4.718,4.718,0,0,0,.551,2.578,1.835,1.835,0,0,0,1.629.82q2.109,0,2.156-3.246v-.4q0-3.41-2.18-3.41-1.98,0-2.145,2.941Zm9.527-.223a7.746,7.746,0,0,1,1.3-4.746,4.282,4.282,0,0,1,3.633-1.734,3.641,3.641,0,0,1,2.859,1.336V5h3.961V23h-3.551l-.2-1.359a3.739,3.739,0,0,1-3.094,1.594A4.274,4.274,0,0,1,227.83,21.5,7.991,7.991,0,0,1,226.506,16.566Zm3.949.246q0,3.375,1.969,3.375a1.944,1.944,0,0,0,1.875-1.1V14.258a1.892,1.892,0,0,0-1.852-1.125q-1.828,0-1.98,2.953Zm16.184,6.422a6.518,6.518,0,0,1-4.723-1.74,6.009,6.009,0,0,1-1.8-4.529v-.328a7.787,7.787,0,0,1,.721-3.434,5.274,5.274,0,0,1,2.1-2.3,6.35,6.35,0,0,1,3.281-.814,5.489,5.489,0,0,1,4.219,1.658,6.516,6.516,0,0,1,1.547,4.623V17.9h-7.852a2.846,2.846,0,0,0,.926,1.676,2.755,2.755,0,0,0,1.852.609,3.549,3.549,0,0,0,2.93-1.312l1.8,2.133a5.045,5.045,0,0,1-2.092,1.623A7.069,7.069,0,0,1,246.639,23.234Zm-.445-10.1q-1.734,0-2.062,2.3h3.984v-.3a1.956,1.956,0,0,0-.48-1.471A1.912,1.912,0,0,0,246.193,13.133Zm6.914,3.434a8.561,8.561,0,0,1,.633-3.4,5.094,5.094,0,0,1,1.816-2.279,4.788,4.788,0,0,1,2.754-.8,3.807,3.807,0,0,1,3.094,1.336l.141-1.1h3.586v12.2a5.346,5.346,0,0,1-.779,2.912,5,5,0,0,1-2.256,1.9,8.292,8.292,0,0,1-3.422.662,7.153,7.153,0,0,1-2.7-.527,4.876,4.876,0,0,1-2-1.371l1.652-2.32a3.621,3.621,0,0,0,2.906,1.3q2.625,0,2.625-2.7v-.4a3.708,3.708,0,0,1-2.871,1.254,4.583,4.583,0,0,1-3.75-1.775,7.356,7.356,0,0,1-1.43-4.752Zm3.961.246a4.511,4.511,0,0,0,.586,2.467,1.849,1.849,0,0,0,1.641.908,2.1,2.1,0,0,0,1.863-.855V14a2.045,2.045,0,0,0-1.84-.867,1.861,1.861,0,0,0-1.652.943A5.144,5.144,0,0,0,257.068,16.813ZM274.518,23a4.459,4.459,0,0,1-.375-1.137,3.672,3.672,0,0,1-3.047,1.371,4.5,4.5,0,0,1-3.047-1.084,3.45,3.45,0,0,1-1.254-2.725,3.546,3.546,0,0,1,1.523-3.117,7.761,7.761,0,0,1,4.43-1.055h1.219v-.671q0-1.755-1.512-1.755a1.236,1.236,0,0,0-1.406,1.39H267.1a3.54,3.54,0,0,1,1.564-2.985,6.575,6.575,0,0,1,3.99-1.147,5.764,5.764,0,0,1,3.832,1.184,4.115,4.115,0,0,1,1.441,3.246v5.613a5.748,5.748,0,0,0,.539,2.672V23Zm-2.473-2.578a2.2,2.2,0,0,0,1.225-.316,1.983,1.983,0,0,0,.7-.715V17.363h-1.148q-2.062,0-2.062,1.852a1.131,1.131,0,0,0,.363.873A1.315,1.315,0,0,0,272.045,20.422Zm13.547-3.855a7.746,7.746,0,0,1,1.3-4.746,4.282,4.282,0,0,1,3.633-1.734,3.641,3.641,0,0,1,2.859,1.336V5h3.961V23h-3.551l-.2-1.359a3.739,3.739,0,0,1-3.094,1.594,4.274,4.274,0,0,1-3.586-1.734A7.991,7.991,0,0,1,285.592,16.566Zm3.949.246q0,3.375,1.969,3.375a1.944,1.944,0,0,0,1.875-1.1V14.258a1.892,1.892,0,0,0-1.852-1.125q-1.828,0-1.98,2.953Zm16.184,6.422A6.518,6.518,0,0,1,301,21.494a6.009,6.009,0,0,1-1.8-4.529v-.328a7.787,7.787,0,0,1,.721-3.434,5.274,5.274,0,0,1,2.1-2.3,6.35,6.35,0,0,1,3.281-.814,5.489,5.489,0,0,1,4.219,1.658,6.516,6.516,0,0,1,1.547,4.623V17.9h-7.852a2.846,2.846,0,0,0,.926,1.676,2.755,2.755,0,0,0,1.852.609,3.549,3.549,0,0,0,2.93-1.312l1.8,2.133a5.045,5.045,0,0,1-2.092,1.623A7.069,7.069,0,0,1,305.725,23.234Zm-.445-10.1q-1.734,0-2.062,2.3H307.2v-.3a1.956,1.956,0,0,0-.48-1.471A1.912,1.912,0,0,0,305.279,13.133Zm12.855,3.434a7.746,7.746,0,0,1,1.3-4.746,4.282,4.282,0,0,1,3.633-1.734,3.641,3.641,0,0,1,2.859,1.336V5h3.961V23h-3.551l-.2-1.359a3.739,3.739,0,0,1-3.094,1.594,4.274,4.274,0,0,1-3.586-1.734A7.991,7.991,0,0,1,318.135,16.566Zm3.949.246q0,3.375,1.969,3.375a1.944,1.944,0,0,0,1.875-1.1V14.258a1.892,1.892,0,0,0-1.852-1.125q-1.828,0-1.98,2.953ZM339.275,23a4.459,4.459,0,0,1-.375-1.137,3.672,3.672,0,0,1-3.047,1.371,4.5,4.5,0,0,1-3.047-1.084,3.45,3.45,0,0,1-1.254-2.725,3.546,3.546,0,0,1,1.523-3.117,7.761,7.761,0,0,1,4.43-1.055h1.219v-.671q0-1.755-1.512-1.755a1.236,1.236,0,0,0-1.406,1.39h-3.949a3.54,3.54,0,0,1,1.564-2.985,6.575,6.575,0,0,1,3.99-1.147,5.764,5.764,0,0,1,3.832,1.184,4.115,4.115,0,0,1,1.441,3.246v5.613a5.748,5.748,0,0,0,.539,2.672V23ZM336.8,20.422a2.2,2.2,0,0,0,1.225-.316,1.983,1.983,0,0,0,.7-.715V17.363h-1.148q-2.062,0-2.062,1.852a1.131,1.131,0,0,0,.363.873A1.315,1.315,0,0,0,336.8,20.422ZM349.471,7.168V10.32h2.086v2.742h-2.086v5.8a1.481,1.481,0,0,0,.258,1,1.383,1.383,0,0,0,1.02.281,5.793,5.793,0,0,0,.984-.07v2.824a7.288,7.288,0,0,1-2.227.34,4.137,4.137,0,0,1-3.012-.961,3.939,3.939,0,0,1-.973-2.918V13.063H343.9V10.32h1.617V7.168Zm2.789,9.375A7.484,7.484,0,0,1,353,13.162a5.28,5.28,0,0,1,2.121-2.279,6.388,6.388,0,0,1,3.246-.8,5.83,5.83,0,0,1,4.488,1.764,6.768,6.768,0,0,1,1.641,4.8v.141a6.566,6.566,0,0,1-1.646,4.705,5.846,5.846,0,0,1-4.459,1.74,5.912,5.912,0,0,1-4.348-1.623,6.348,6.348,0,0,1-1.77-4.4Zm3.949.246a4.718,4.718,0,0,0,.551,2.578,1.835,1.835,0,0,0,1.629.82q2.109,0,2.156-3.246v-.4q0-3.41-2.18-3.41-1.98,0-2.145,2.941Zm16.664,2.648a.912.912,0,0,0-.527-.809,8.021,8.021,0,0,0-2-.633,9.138,9.138,0,0,1-2.437-.861,4.083,4.083,0,0,1-1.465-1.295,3.092,3.092,0,0,1-.5-1.746,3.5,3.5,0,0,1,1.441-2.877,5.938,5.938,0,0,1,3.773-1.131,6.579,6.579,0,0,1,4.031,1.137,3.555,3.555,0,0,1,1.523,2.988h-3.961q0-1.523-1.605-1.523a1.591,1.591,0,0,0-1.043.346,1.07,1.07,0,0,0-.422.861.982.982,0,0,0,.516.855,4.872,4.872,0,0,0,1.646.539,14.228,14.228,0,0,1,1.986.5q2.859.984,2.859,3.527a3.321,3.321,0,0,1-1.541,2.824,6.758,6.758,0,0,1-3.99,1.09,6.9,6.9,0,0,1-2.906-.586,4.86,4.86,0,0,1-1.992-1.594,3.609,3.609,0,0,1-.715-2.121h3.691a1.526,1.526,0,0,0,.586,1.283,2.41,2.41,0,0,0,1.441.4,1.9,1.9,0,0,0,1.213-.328A1.05,1.05,0,0,0,372.873,19.438Z" transform="translate(611 8104)" fill="#12263f"/>
    <path id="Trazado_254816" data-name="Trazado 254816" d="M11.8,4.2v8.376a4.814,4.814,0,0,1-.606,2.465,3.929,3.929,0,0,1-1.74,1.586,6.131,6.131,0,0,1-2.681.545A5.3,5.3,0,0,1,3.09,15.963a4.326,4.326,0,0,1-1.371-3.322V4.2h3.1v8.5q.053,2.1,1.951,2.1a1.889,1.889,0,0,0,1.45-.527,2.465,2.465,0,0,0,.492-1.714V4.2ZM16.309,7.49l.1,1.116a3.225,3.225,0,0,1,2.716-1.292A2.713,2.713,0,0,1,21.34,8.2a4.226,4.226,0,0,1,.76,2.672V17H19.13V11a1.6,1.6,0,0,0-.29-1.059A1.342,1.342,0,0,0,17.785,9.6a1.413,1.413,0,0,0-1.292.686V17H13.531V7.49ZM33.579,17a3.344,3.344,0,0,1-.281-.853,2.754,2.754,0,0,1-2.285,1.028,3.374,3.374,0,0,1-2.285-.813,2.588,2.588,0,0,1-.94-2.043,2.66,2.66,0,0,1,1.143-2.338,5.821,5.821,0,0,1,3.322-.791h.914v-.5q0-1.316-1.134-1.316a.927.927,0,0,0-1.055,1.042H28.016a2.655,2.655,0,0,1,1.173-2.239,4.931,4.931,0,0,1,2.993-.86,4.323,4.323,0,0,1,2.874.888,3.086,3.086,0,0,1,1.081,2.435v4.21a4.311,4.311,0,0,0,.4,2V17Zm-1.854-1.934a1.652,1.652,0,0,0,.918-.237,1.487,1.487,0,0,0,.523-.536V12.772H32.3q-1.547,0-1.547,1.389a.848.848,0,0,0,.272.655A.986.986,0,0,0,31.725,15.066ZM40.9,17H37.93V3.5H40.9Zm4.623-9.51.1,1.116a3.27,3.27,0,0,1,2.716-1.292,2.407,2.407,0,0,1,2.435,1.433,3.165,3.165,0,0,1,2.795-1.433q2.892,0,2.971,3.5V17H53.565V11a1.813,1.813,0,0,0-.246-1.063,1.048,1.048,0,0,0-.9-.334,1.4,1.4,0,0,0-1.31.782l.009.123V17H48.151V11.015a1.906,1.906,0,0,0-.237-1.081,1.045,1.045,0,0,0-.905-.334,1.42,1.42,0,0,0-1.3.782V17H42.746V7.49ZM63.585,17a3.344,3.344,0,0,1-.281-.853,2.754,2.754,0,0,1-2.285,1.028,3.374,3.374,0,0,1-2.285-.813,2.588,2.588,0,0,1-.94-2.043,2.66,2.66,0,0,1,1.143-2.338,5.821,5.821,0,0,1,3.322-.791h.914v-.5q0-1.316-1.134-1.316a.927.927,0,0,0-1.055,1.042H58.021a2.655,2.655,0,0,1,1.173-2.239,4.931,4.931,0,0,1,2.993-.86,4.323,4.323,0,0,1,2.874.888,3.086,3.086,0,0,1,1.081,2.435v4.21a4.311,4.311,0,0,0,.4,2V17ZM61.73,15.066a1.652,1.652,0,0,0,.918-.237,1.487,1.487,0,0,0,.523-.536V12.772h-.861q-1.547,0-1.547,1.389a.848.848,0,0,0,.272.655A.986.986,0,0,0,61.73,15.066ZM71.8,14.891a1.317,1.317,0,0,0,.967-.338,1.241,1.241,0,0,0,.334-.945h2.777a3.288,3.288,0,0,1-1.121,2.566,4.168,4.168,0,0,1-2.887,1,4.22,4.22,0,0,1-3.27-1.3,5.125,5.125,0,0,1-1.2-3.6v-.123A5.792,5.792,0,0,1,67.94,9.6a3.872,3.872,0,0,1,1.534-1.7,4.573,4.573,0,0,1,2.373-.593,4.116,4.116,0,0,1,2.944,1.028,3.647,3.647,0,0,1,1.09,2.786H73.1A1.626,1.626,0,0,0,72.743,10a1.244,1.244,0,0,0-.967-.4q-1.151,0-1.345,1.468a10.357,10.357,0,0,0-.062,1.283,4.068,4.068,0,0,0,.343,1.986A1.187,1.187,0,0,0,71.8,14.891Zm9.932,2.285a4.889,4.889,0,0,1-3.542-1.305,4.507,4.507,0,0,1-1.354-3.4v-.246a5.84,5.84,0,0,1,.541-2.575,3.955,3.955,0,0,1,1.578-1.727,4.763,4.763,0,0,1,2.461-.611,4.117,4.117,0,0,1,3.164,1.244,4.887,4.887,0,0,1,1.16,3.467v1.151H79.854a2.135,2.135,0,0,0,.694,1.257,2.066,2.066,0,0,0,1.389.457,2.662,2.662,0,0,0,2.2-.984l1.354,1.6a3.784,3.784,0,0,1-1.569,1.217A5.3,5.3,0,0,1,81.734,17.176ZM81.4,9.6q-1.3,0-1.547,1.723h2.988v-.229a1.467,1.467,0,0,0-.36-1.1A1.434,1.434,0,0,0,81.4,9.6Zm-.035-6.108h3.129l-2.443,2.76-2.417,0Zm8.288,4,.1,1.116a3.225,3.225,0,0,1,2.716-1.292,2.713,2.713,0,0,1,2.219.888,4.226,4.226,0,0,1,.76,2.672V17H92.475V11a1.6,1.6,0,0,0-.29-1.059A1.342,1.342,0,0,0,91.13,9.6a1.413,1.413,0,0,0-1.292.686V17H86.876V7.49Zm11.54,4.685a5.809,5.809,0,0,1,.976-3.56,3.211,3.211,0,0,1,2.725-1.3,2.731,2.731,0,0,1,2.145,1V3.5h2.971V17h-2.663l-.149-1.02a2.8,2.8,0,0,1-2.32,1.2,3.205,3.205,0,0,1-2.689-1.3A5.993,5.993,0,0,1,101.193,12.175Zm2.962.185q0,2.531,1.477,2.531a1.458,1.458,0,0,0,1.406-.826V10.443a1.419,1.419,0,0,0-1.389-.844q-1.371,0-1.485,2.215Zm12.138,4.816a4.889,4.889,0,0,1-3.542-1.305,4.507,4.507,0,0,1-1.354-3.4v-.246a5.84,5.84,0,0,1,.541-2.575,3.955,3.955,0,0,1,1.578-1.727,4.763,4.763,0,0,1,2.461-.611,4.117,4.117,0,0,1,3.164,1.244,4.887,4.887,0,0,1,1.16,3.467v1.151h-5.889a2.135,2.135,0,0,0,.694,1.257,2.066,2.066,0,0,0,1.389.457,2.662,2.662,0,0,0,2.2-.984l1.354,1.6a3.784,3.784,0,0,1-1.569,1.217A5.3,5.3,0,0,1,116.293,17.176ZM115.959,9.6q-1.3,0-1.547,1.723H117.4v-.229a1.467,1.467,0,0,0-.36-1.1A1.434,1.434,0,0,0,115.959,9.6Zm9.642,2.575a5.809,5.809,0,0,1,.976-3.56,3.211,3.211,0,0,1,2.725-1.3,2.731,2.731,0,0,1,2.145,1V3.5h2.971V17h-2.663l-.149-1.02a2.8,2.8,0,0,1-2.32,1.2,3.205,3.205,0,0,1-2.689-1.3A5.993,5.993,0,0,1,125.6,12.175Zm2.962.185q0,2.531,1.477,2.531a1.458,1.458,0,0,0,1.406-.826V10.443a1.419,1.419,0,0,0-1.389-.844q-1.371,0-1.485,2.215ZM141.456,17a3.344,3.344,0,0,1-.281-.853,2.754,2.754,0,0,1-2.285,1.028,3.374,3.374,0,0,1-2.285-.813,2.588,2.588,0,0,1-.94-2.043,2.66,2.66,0,0,1,1.143-2.338,5.821,5.821,0,0,1,3.322-.791h.914v-.5q0-1.316-1.134-1.316a.927.927,0,0,0-1.055,1.042h-2.962a2.655,2.655,0,0,1,1.173-2.239,4.931,4.931,0,0,1,2.993-.86,4.323,4.323,0,0,1,2.874.888,3.086,3.086,0,0,1,1.081,2.435v4.21a4.311,4.311,0,0,0,.4,2V17ZM139.6,15.066a1.652,1.652,0,0,0,.918-.237,1.487,1.487,0,0,0,.523-.536V12.772h-.861q-1.547,0-1.547,1.389a.848.848,0,0,0,.272.655A.986.986,0,0,0,139.6,15.066Zm9.5-9.94V7.49h1.564V9.547H149.1V13.9a1.111,1.111,0,0,0,.193.747,1.037,1.037,0,0,0,.765.211,4.345,4.345,0,0,0,.738-.053v2.118a5.466,5.466,0,0,1-1.67.255,3.1,3.1,0,0,1-2.259-.721,2.954,2.954,0,0,1-.729-2.188V9.547h-1.213V7.49h1.213V5.126Zm2.092,7.031a5.613,5.613,0,0,1,.554-2.536,3.96,3.96,0,0,1,1.591-1.709,4.791,4.791,0,0,1,2.435-.6,4.373,4.373,0,0,1,3.366,1.323,5.076,5.076,0,0,1,1.23,3.6v.105a4.925,4.925,0,0,1-1.235,3.529,4.384,4.384,0,0,1-3.344,1.305,4.434,4.434,0,0,1-3.261-1.217,4.761,4.761,0,0,1-1.327-3.3Zm2.962.185a3.538,3.538,0,0,0,.413,1.934,1.376,1.376,0,0,0,1.222.615q1.582,0,1.617-2.435v-.3q0-2.558-1.635-2.558-1.485,0-1.608,2.206Zm12.5,1.986a.684.684,0,0,0-.4-.606,6.016,6.016,0,0,0-1.5-.475,6.853,6.853,0,0,1-1.828-.646,3.062,3.062,0,0,1-1.1-.971,2.319,2.319,0,0,1-.378-1.31,2.628,2.628,0,0,1,1.081-2.158,4.453,4.453,0,0,1,2.83-.848,4.934,4.934,0,0,1,3.023.853,2.666,2.666,0,0,1,1.143,2.241h-2.971q0-1.143-1.2-1.143a1.194,1.194,0,0,0-.782.259.8.8,0,0,0-.316.646.737.737,0,0,0,.387.642,3.654,3.654,0,0,0,1.235.4,10.671,10.671,0,0,1,1.49.378,2.706,2.706,0,0,1,2.145,2.646,2.491,2.491,0,0,1-1.156,2.118,5.068,5.068,0,0,1-2.993.817,5.172,5.172,0,0,1-2.18-.439,3.645,3.645,0,0,1-1.494-1.2,2.707,2.707,0,0,1-.536-1.591h2.769a1.145,1.145,0,0,0,.439.962,1.808,1.808,0,0,0,1.081.3,1.422,1.422,0,0,0,.91-.246A.787.787,0,0,0,166.654,14.328Zm13.7,0a.684.684,0,0,0-.4-.606,6.016,6.016,0,0,0-1.5-.475,6.853,6.853,0,0,1-1.828-.646,3.062,3.062,0,0,1-1.1-.971,2.319,2.319,0,0,1-.378-1.31,2.628,2.628,0,0,1,1.081-2.158,4.453,4.453,0,0,1,2.83-.848,4.934,4.934,0,0,1,3.023.853,2.666,2.666,0,0,1,1.143,2.241H180.26q0-1.143-1.2-1.143a1.194,1.194,0,0,0-.782.259.8.8,0,0,0-.316.646.737.737,0,0,0,.387.642,3.654,3.654,0,0,0,1.235.4,10.671,10.671,0,0,1,1.49.378,2.706,2.706,0,0,1,2.145,2.646,2.491,2.491,0,0,1-1.156,2.118,5.068,5.068,0,0,1-2.993.817,5.172,5.172,0,0,1-2.18-.439,3.645,3.645,0,0,1-1.494-1.2,2.707,2.707,0,0,1-.536-1.591h2.769a1.145,1.145,0,0,0,.439.962,1.808,1.808,0,0,0,1.081.3,1.422,1.422,0,0,0,.91-.246A.787.787,0,0,0,180.356,14.328Zm8.842,2.848a4.889,4.889,0,0,1-3.542-1.305,4.507,4.507,0,0,1-1.354-3.4v-.246a5.84,5.84,0,0,1,.541-2.575,3.955,3.955,0,0,1,1.578-1.727,4.763,4.763,0,0,1,2.461-.611,4.117,4.117,0,0,1,3.164,1.244,4.887,4.887,0,0,1,1.16,3.467v1.151h-5.889a2.135,2.135,0,0,0,.694,1.257,2.066,2.066,0,0,0,1.389.457,2.662,2.662,0,0,0,2.2-.984l1.354,1.6a3.784,3.784,0,0,1-1.569,1.217A5.3,5.3,0,0,1,189.2,17.176ZM188.864,9.6q-1.3,0-1.547,1.723h2.988v-.229a1.467,1.467,0,0,0-.36-1.1A1.434,1.434,0,0,0,188.864,9.6ZM202.9,14.891a1.317,1.317,0,0,0,.967-.338,1.241,1.241,0,0,0,.334-.945h2.777a3.288,3.288,0,0,1-1.121,2.566,4.168,4.168,0,0,1-2.887,1,4.22,4.22,0,0,1-3.27-1.3,5.125,5.125,0,0,1-1.2-3.6v-.123a5.792,5.792,0,0,1,.532-2.544,3.872,3.872,0,0,1,1.534-1.7,4.573,4.573,0,0,1,2.373-.593,4.116,4.116,0,0,1,2.944,1.028,3.647,3.647,0,0,1,1.09,2.786H204.2a1.626,1.626,0,0,0-.36-1.134,1.244,1.244,0,0,0-.967-.4q-1.151,0-1.345,1.468a10.357,10.357,0,0,0-.062,1.283,4.068,4.068,0,0,0,.343,1.986A1.187,1.187,0,0,0,202.9,14.891Zm4.957-2.733a5.613,5.613,0,0,1,.554-2.536A3.96,3.96,0,0,1,210,7.912a4.791,4.791,0,0,1,2.435-.6A4.373,4.373,0,0,1,215.8,8.637a5.076,5.076,0,0,1,1.23,3.6v.105a4.925,4.925,0,0,1-1.235,3.529,4.384,4.384,0,0,1-3.344,1.305,4.434,4.434,0,0,1-3.261-1.217,4.761,4.761,0,0,1-1.327-3.3Zm2.962.185a3.538,3.538,0,0,0,.413,1.934,1.376,1.376,0,0,0,1.222.615q1.582,0,1.617-2.435v-.3q0-2.558-1.635-2.558-1.485,0-1.608,2.206ZM221.138,7.49l.1,1.116a3.27,3.27,0,0,1,2.716-1.292,2.407,2.407,0,0,1,2.435,1.433,3.165,3.165,0,0,1,2.795-1.433q2.892,0,2.971,3.5V17H229.18V11a1.813,1.813,0,0,0-.246-1.063,1.048,1.048,0,0,0-.9-.334,1.4,1.4,0,0,0-1.31.782l.009.123V17h-2.971V11.015a1.906,1.906,0,0,0-.237-1.081,1.045,1.045,0,0,0-.905-.334,1.42,1.42,0,0,0-1.3.782V17H218.36V7.49Zm21.533,4.825a5.735,5.735,0,0,1-1,3.538,3.2,3.2,0,0,1-2.694,1.323,2.742,2.742,0,0,1-2.153-.958v4.438h-2.962V7.49h2.769l.088.879a2.742,2.742,0,0,1,2.241-1.055,3.224,3.224,0,0,1,2.733,1.3,5.805,5.805,0,0,1,.976,3.564Zm-2.962-.185q0-2.531-1.477-2.531a1.394,1.394,0,0,0-1.406.756V14.1a1.439,1.439,0,0,0,1.424.791q1.415,0,1.459-2.443Zm3.894.026a5.613,5.613,0,0,1,.554-2.536,3.96,3.96,0,0,1,1.591-1.709,4.791,4.791,0,0,1,2.435-.6,4.373,4.373,0,0,1,3.366,1.323,5.076,5.076,0,0,1,1.23,3.6v.105a4.925,4.925,0,0,1-1.235,3.529,4.384,4.384,0,0,1-3.344,1.305,4.434,4.434,0,0,1-3.261-1.217,4.761,4.761,0,0,1-1.327-3.3Zm2.962.185a3.538,3.538,0,0,0,.413,1.934,1.376,1.376,0,0,0,1.222.615q1.582,0,1.617-2.435v-.3q0-2.558-1.635-2.558-1.485,0-1.608,2.206ZM256.8,7.49l.1,1.116a3.225,3.225,0,0,1,2.716-1.292,2.713,2.713,0,0,1,2.219.888,4.226,4.226,0,0,1,.76,2.672V17h-2.971V11a1.6,1.6,0,0,0-.29-1.059A1.342,1.342,0,0,0,258.28,9.6a1.413,1.413,0,0,0-1.292.686V17h-2.962V7.49Zm12.032,9.686a4.889,4.889,0,0,1-3.542-1.305,4.507,4.507,0,0,1-1.354-3.4v-.246a5.84,5.84,0,0,1,.541-2.575,3.955,3.955,0,0,1,1.578-1.727,4.763,4.763,0,0,1,2.461-.611,4.117,4.117,0,0,1,3.164,1.244,4.887,4.887,0,0,1,1.16,3.467v1.151h-5.889a2.135,2.135,0,0,0,.694,1.257,2.066,2.066,0,0,0,1.389.457,2.662,2.662,0,0,0,2.2-.984l1.354,1.6a3.784,3.784,0,0,1-1.569,1.217A5.3,5.3,0,0,1,268.836,17.176ZM268.5,9.6q-1.3,0-1.547,1.723h2.988v-.229a1.467,1.467,0,0,0-.36-1.1A1.434,1.434,0,0,0,268.5,9.6Z" transform="translate(663 8153)" fill="#12263f"/>
    <g transform="matrix(1, 0, 0, 1, 180, 8089)" filter="url(#Trazado_254234)">
      <path id="Trazado_254234-2" data-name="Trazado 254234" d="M221.235,105.985a73.427,73.427,0,0,0-24.439,4.159,46.21,46.21,0,0,1-18.223,2.184c-6.524-.624-12.455-3.1-14.975-5.16a25.261,25.261,0,0,0-3.693-2.5,28.619,28.619,0,0,1-7.625-9.217c-3.36-6.692-4.661-16.137-4.661-21.391a73.5,73.5,0,1,0-49.12,69.4,46.209,46.209,0,0,1,18.223-2.183c6.524.624,12.454,3.1,14.975,5.159a25.129,25.129,0,0,0,3.693,2.5,28.653,28.653,0,0,1,7.625,9.217c3.36,6.693,4.661,16.138,4.661,21.391a73.559,73.559,0,1,0,73.559-73.559Z" transform="translate(115 117)" fill="#084a93"/>
    </g>
    <g transform="matrix(1, 0, 0, 1, 180, 8089)" filter="url(#Trazado_254245)">
      <path id="Trazado_254245-2" data-name="Trazado 254245" d="M221.178,105.985a73.428,73.428,0,0,1,24.439,4.159,46.21,46.21,0,0,0,18.223,2.184c6.524-.624,12.455-3.1,14.975-5.16a25.261,25.261,0,0,1,3.693-2.5,28.618,28.618,0,0,0,7.625-9.217c3.36-6.692,4.661-16.137,4.661-21.391a73.5,73.5,0,1,1,49.12,69.4,46.209,46.209,0,0,0-18.223-2.183c-6.524.624-12.454,3.1-14.975,5.159a25.13,25.13,0,0,1-3.693,2.5,28.653,28.653,0,0,0-7.625,9.217c-3.36,6.693-4.661,16.138-4.661,21.391a73.559,73.559,0,1,1-73.559-73.559Z" transform="translate(115 117)" fill="#ffb30b"/>
    </g>
    <g transform="matrix(1, 0, 0, 1, 180, 8089)" filter="url(#Trazado_254233)">
      <path id="Trazado_254233-2" data-name="Trazado 254233" d="M18.163,74.059a55.9,55.9,0,1,0,55.9-55.9A55.9,55.9,0,0,0,18.163,74.059Z" transform="translate(114.84 116.84)" fill="#fff"/>
    </g>
    <g transform="matrix(1, 0, 0, 1, 180, 8089)" filter="url(#Trazado_254235)">
      <path id="Trazado_254235-2" data-name="Trazado 254235" d="M277.131,179.544a55.9,55.9,0,1,0-55.9,55.9A55.9,55.9,0,0,0,277.131,179.544Z" transform="translate(114.66 117.35)" fill="#fff"/>
    </g>
    <g transform="matrix(1, 0, 0, 1, 180, 8089)" filter="url(#Trazado_254237)">
      <path id="Trazado_254237-2" data-name="Trazado 254237" d="M515.529,105.985a73.433,73.433,0,0,0-24.44,4.159,46.21,46.21,0,0,1-18.223,2.184c-6.524-.624-12.455-3.1-14.975-5.16a25.261,25.261,0,0,0-3.693-2.5,28.631,28.631,0,0,1-7.625-9.217c-3.359-6.692-4.66-16.137-4.66-21.391a73.5,73.5,0,1,0-49.121,69.4,46.216,46.216,0,0,1,18.224-2.183c6.523.624,12.453,3.1,14.974,5.159a25.14,25.14,0,0,0,3.694,2.5,28.679,28.679,0,0,1,7.625,9.217c3.359,6.693,4.66,16.138,4.66,21.391a73.559,73.559,0,1,0,73.56-73.559Z" transform="translate(115 117)" fill="#00defc"/>
    </g>
    <g transform="matrix(1, 0, 0, 1, 180, 8089)" filter="url(#Trazado_254244)">
      <path id="Trazado_254244-2" data-name="Trazado 254244" d="M515.471,105.985a73.427,73.427,0,0,1,24.439,4.159,46.21,46.21,0,0,0,18.223,2.184c6.524-.624,12.455-3.1,14.975-5.16a25.261,25.261,0,0,1,3.693-2.5,28.62,28.62,0,0,0,7.625-9.217c3.36-6.692,4.661-16.137,4.661-21.391a73.5,73.5,0,1,1,49.12,69.4,46.209,46.209,0,0,0-18.223-2.183c-6.524.624-12.454,3.1-14.975,5.159a25.127,25.127,0,0,1-3.693,2.5,28.654,28.654,0,0,0-7.625,9.217c-3.36,6.693-4.661,16.138-4.661,21.391a73.559,73.559,0,1,1-73.559-73.559Z" transform="translate(115 117)" fill="#084a93"/>
    </g>
    <g transform="matrix(1, 0, 0, 1, 180, 8089)" filter="url(#Trazado_254236)">
      <path id="Trazado_254236-2" data-name="Trazado 254236" d="M312.457,74.059a55.9,55.9,0,1,0,55.9-55.9A55.9,55.9,0,0,0,312.457,74.059Z" transform="translate(114.54 116.84)" fill="#fff"/>
    </g>
    <g transform="matrix(1, 0, 0, 1, 180, 8089)" filter="url(#Trazado_254238)">
      <path id="Trazado_254238-2" data-name="Trazado 254238" d="M571.425,179.544a55.9,55.9,0,1,0-55.9,55.9A55.9,55.9,0,0,0,571.425,179.544Z" transform="translate(115.37 117.35)" fill="#fff"/>
    </g>
    <g transform="matrix(1, 0, 0, 1, 180, 8089)" filter="url(#Trazado_254240)">
      <path id="Trazado_254240-2" data-name="Trazado 254240" d="M809.794,105.985a73.428,73.428,0,0,0-24.439,4.159,46.21,46.21,0,0,1-18.223,2.184c-6.524-.624-12.455-3.1-14.975-5.16a25.261,25.261,0,0,0-3.693-2.5,28.619,28.619,0,0,1-7.625-9.217c-3.36-6.692-4.661-16.137-4.661-21.391a73.5,73.5,0,1,0-49.12,69.4,46.209,46.209,0,0,1,18.223-2.183c6.524.624,12.454,3.1,14.975,5.159a25.134,25.134,0,0,0,3.693,2.5,28.652,28.652,0,0,1,7.625,9.217c3.36,6.693,4.661,16.138,4.661,21.391a73.559,73.559,0,1,0,73.559-73.559Z" transform="translate(115 117)" fill="#ffb30b"/>
    </g>
    <g transform="matrix(1, 0, 0, 1, 180, 8089)" filter="url(#Trazado_254243)">
      <path id="Trazado_254243-2" data-name="Trazado 254243" d="M809.765,105.985a73.427,73.427,0,0,1,24.439,4.159,46.21,46.21,0,0,0,18.223,2.184c6.524-.624,12.455-3.1,14.975-5.16a25.264,25.264,0,0,1,3.693-2.5,28.618,28.618,0,0,0,7.625-9.217c3.36-6.692,4.661-16.137,4.661-21.391a73.5,73.5,0,1,1,49.12,69.4,46.209,46.209,0,0,0-18.223-2.183c-6.524.624-12.454,3.1-14.975,5.159a25.127,25.127,0,0,1-3.693,2.5,28.653,28.653,0,0,0-7.625,9.217c-3.36,6.693-4.661,16.138-4.661,21.391a73.559,73.559,0,1,1-73.559-73.559Z" transform="translate(115 117)" fill="#00defc"/>
    </g>
    <g transform="matrix(1, 0, 0, 1, 180, 8089)" filter="url(#Trazado_254484)">
      <path id="Trazado_254484-2" data-name="Trazado 254484" d="M73.559,0A73.559,73.559,0,1,1,0,73.559,73.559,73.559,0,0,1,73.559,0Z" transform="translate(998.35 117.5)" fill="#ffb30b"/>
    </g>
    <g transform="matrix(1, 0, 0, 1, 180, 8089)" filter="url(#Trazado_254239)">
      <path id="Trazado_254239-2" data-name="Trazado 254239" d="M606.722,74.059a55.9,55.9,0,1,0,55.9-55.9A55.9,55.9,0,0,0,606.722,74.059Z" transform="translate(115.28 116.84)" fill="#fff"/>
    </g>
    <g transform="matrix(1, 0, 0, 1, 180, 8089)" filter="url(#Trazado_254241)">
      <path id="Trazado_254241-2" data-name="Trazado 254241" d="M865.69,179.544a55.9,55.9,0,1,0-55.9,55.9A55.9,55.9,0,0,0,865.69,179.544Z" transform="translate(115.1 117.35)" fill="#fff"/>
    </g>
    <g transform="matrix(1, 0, 0, 1, 180, 8089)" filter="url(#Trazado_254242)">
      <path id="Trazado_254242-2" data-name="Trazado 254242" d="M1012.837,74.059a55.9,55.9,0,1,1-55.9-55.9A55.9,55.9,0,0,1,1012.837,74.059Z" transform="translate(114.96 116.84)" fill="#fff"/>
    </g>
    <g id="Grupo_149306" data-name="Grupo 149306" transform="translate(334 8252)">
      <path id="Trazado_204834" data-name="Trazado 204834" d="M209.747,196.142A16.38,16.38,0,0,1,220.9,204.1c.029-.259.063-.417.063-.573,0-4.943.02-9.886,0-14.83a9.67,9.67,0,0,0-18.506-3.884c-.762,1.7-1.435,3.442-2.149,5.164-.087.21-.165.426-.272.626a1.026,1.026,0,0,1-1.141.589,5.361,5.361,0,0,1-.717,1.4c-.013.02-.027.038-.041.055.58.273.727.812.41,1.59-.669,1.641-1.348,3.277-2.1,5.107a16.354,16.354,0,0,1,13.308-3.195" transform="translate(-190.181 -171.871)" fill="#fff"/>
      <path id="Trazado_204835" data-name="Trazado 204835" d="M257.5,210.607c-.22,1.043-.379,2.1-.668,3.126a16.395,16.395,0,0,1-31.871-1.541c-.19-1.046-.186-2.127-.31-3.187-.021-.18-.231-.478-.36-.482-1.272-.036-2.545-.022-3.864-.022-.076.994-.114,1.941-.228,2.878a16.414,16.414,0,0,1-32.493.233,15.586,15.586,0,0,1,.962-8.447c1.735-4.278,3.512-8.539,5.275-12.805.33-.8.849-1.086,1.455-.829.625.265.79.813.463,1.616-.669,1.641-1.348,3.277-2.1,5.107a16.508,16.508,0,0,1,24.459,4.759c.029-.259.063-.417.063-.573,0-4.943.02-9.886,0-14.83a9.67,9.67,0,0,0-18.506-3.884c-.762,1.7-1.435,3.442-2.149,5.164-.088.21-.165.426-.272.626a1.027,1.027,0,0,1-1.909-.755,3.265,3.265,0,0,1,.143-.382c.72-1.744,1.436-3.492,2.165-5.233a11.744,11.744,0,0,1,5-5.7,1.845,1.845,0,0,0,.637-.732c.279-.545.471-1.133.725-1.693a7.131,7.131,0,0,1,7.979-4.092,7,7,0,0,1,5.625,6.814,7.238,7.238,0,0,0,1.169,4.329,9.582,9.582,0,0,1,1.466,5.465c0,.269,0,.538,0,.863h4.21c.125-1.1.186-2.166.377-3.209a11.1,11.1,0,0,1,1.98-4.454,2.054,2.054,0,0,0,.331-1.057,13.1,13.1,0,0,1,.43-4.185,7.118,7.118,0,0,1,6.306-4.694,6.712,6.712,0,0,1,6.781,4.033,8,8,0,0,0,2.923,3.637,9.757,9.757,0,0,1,3.548,4.586c3.055,7.374,6.119,14.745,9.113,22.143a29.569,29.569,0,0,1,1.016,3.95c.048.194.088.389.132.584Zm-16.43-15.777a14.335,14.335,0,1,0,14.36,14.329,14.334,14.334,0,0,0-14.36-14.329m10.116,1.361a2.623,2.623,0,0,0-.072-.283c-1.94-4.708-3.828-9.438-5.838-14.116a9.67,9.67,0,0,0-18.534,3.945c-.013,4.873,0,9.746,0,14.62,0,.186.027.371.05.651a16.553,16.553,0,0,1,24.4-4.816m-47.252-1.361a14.335,14.335,0,1,0,14.347,14.326,14.369,14.369,0,0,0-14.347-14.326m16.462,3.648h4.223V188.6h-4.223Zm9-22.232a12.038,12.038,0,0,1,9.7-2.059,5,5,0,0,0-9.7,2.059m-23.43-2.057a11.958,11.958,0,0,1,9.642,2.035,4.944,4.944,0,0,0-3.934-5.252c-2.507-.489-5.157.981-5.708,3.217m14.44,32.175h4.223v-5.711H220.4Z" transform="translate(-187.499 -168.789)" fill="#084a93"/>
      <path id="Trazado_204836" data-name="Trazado 204836" d="M257.886,205.991a14.335,14.335,0,1,1-14.329,14.342,14.366,14.366,0,0,1,14.329-14.342m-11.892,13.354c-.024,7.16,4.68,12.359,10.9,12.823a11.286,11.286,0,0,0,11.336-5.994c2.449-4.3,2.112-8.632-.636-12.755-.47-.7-1.069-.858-1.607-.465-.517.377-.512.935-.118,1.632.512.906.976,1.842,1.4,2.793a1.579,1.579,0,0,1,.036.984,9.82,9.82,0,0,1-18.822-.043,1.452,1.452,0,0,1-.016-.718,9.816,9.816,0,0,1,14.741-5.55,1.137,1.137,0,0,0,1.335.116c.717-.465.624-1.362-.227-1.874a11.5,11.5,0,0,0-12.072-.419,11.253,11.253,0,0,0-6.245,9.47" transform="translate(-204.316 -179.95)" fill="#fff"/>
      <path id="Trazado_204837" data-name="Trazado 204837" d="M268,199.273a16.553,16.553,0,0,0-24.4,4.816c-.022-.279-.05-.465-.05-.651,0-4.873-.011-9.746,0-14.62a9.67,9.67,0,0,1,18.534-3.945c2.01,4.678,3.9,9.408,5.838,14.116a2.862,2.862,0,0,1,.072.283" transform="translate(-204.314 -171.871)" fill="#fff"/>
      <path id="Trazado_204838" data-name="Trazado 204838" d="M204.829,205.99a14.335,14.335,0,1,1-14.343,14.345,14.333,14.333,0,0,1,14.343-14.345m11.913,14.333a11.907,11.907,0,1,0-11.885,11.928,11.931,11.931,0,0,0,11.885-11.928" transform="translate(-188.395 -179.949)" fill="#fff"/>
      <rect id="Rect치ngulo_297306" data-name="Rect치ngulo 297306" width="4.223" height="9.881" transform="translate(32.896 19.809)" fill="#fff"/>
      <path id="Trazado_204839" data-name="Trazado 204839" d="M247.337,177.138a5,5,0,0,1,9.7-2.059,12.036,12.036,0,0,0-9.7,2.059" transform="translate(-205.445 -169.681)" fill="#fff"/>
      <path id="Trazado_204840" data-name="Trazado 204840" d="M213.875,175.085c.551-2.237,3.2-3.706,5.708-3.217a4.944,4.944,0,0,1,3.934,5.251,11.958,11.958,0,0,0-9.642-2.034" transform="translate(-195.412 -169.684)" fill="#fff"/>
      <rect id="Rect치ngulo_297307" data-name="Rect치ngulo 297307" width="4.223" height="5.711" transform="translate(32.903 31.865)" fill="#fff"/>
      <path id="Trazado_204841" data-name="Trazado 204841" d="M247.038,220.36a11.251,11.251,0,0,1,6.245-9.47,11.5,11.5,0,0,1,12.072.419c.851.513.944,1.409.226,1.874a1.136,1.136,0,0,1-1.335-.115,9.815,9.815,0,0,0-14.74,5.55,1.449,1.449,0,0,0,.015.717,9.82,9.82,0,0,0,18.822.043,1.574,1.574,0,0,0-.036-.984c-.422-.951-.886-1.887-1.4-2.792-.394-.7-.4-1.257.118-1.633.538-.393,1.138-.239,1.607.465,2.748,4.123,3.085,8.454.636,12.756a11.285,11.285,0,0,1-11.336,5.993c-6.217-.465-10.92-5.664-10.9-12.823m21.346,3.48a11.976,11.976,0,0,1-18.89.006,9.751,9.751,0,0,0,18.89-.006" transform="translate(-205.361 -180.966)" fill="#084a93"/>
      <path id="Trazado_204842" data-name="Trazado 204842" d="M217.787,221.356A11.908,11.908,0,1,1,205.9,209.431a11.93,11.93,0,0,1,11.888,11.924m-11.91-9.833a9.8,9.8,0,0,0-9.326,6.81,2.211,2.211,0,0,0-.006,1.242,9.809,9.809,0,0,0,18.666.046,2.372,2.372,0,0,0-.018-1.366,9.789,9.789,0,0,0-9.317-6.732m9.4,12.452a12.047,12.047,0,0,1-18.8,0,9.62,9.62,0,0,0,9.51,7.211c4.416-.065,8.963-3.6,9.286-7.206" transform="translate(-189.441 -180.982)" fill="#084a93"/>
      <path id="Trazado_204844" data-name="Trazado 204844" d="M206.944,212.419a9.789,9.789,0,0,1,9.317,6.732,2.366,2.366,0,0,1,.018,1.366,9.809,9.809,0,0,1-18.666-.046,2.213,2.213,0,0,1,.006-1.242,9.8,9.8,0,0,1,9.326-6.81" transform="translate(-190.507 -181.878)" fill="#fff"/>
    </g>
    <g id="Grupo_149307" data-name="Grupo 149307" transform="translate(484 8350)">
      <path id="Trazado_204796" data-name="Trazado 204796" d="M482.937,176.7c-.013.8,0,1.6,0,2.407a1.244,1.244,0,0,1-.923,1.278c-1.409.537-2.8,1.122-4.18,1.726a1.236,1.236,0,0,1-1.556-.254q-.836-.865-1.706-1.7c-.673-.649-1.2-.673-1.849-.035q-2.577,2.529-5.12,5.093a1.082,1.082,0,0,0-.008,1.742c.554.58,1.121,1.149,1.705,1.7a1.292,1.292,0,0,1,.29,1.667c-.6,1.331-1.178,2.678-1.693,4.046a1.285,1.285,0,0,1-1.379.972c-.8-.022-1.6-.015-2.407,0-.834.015-1.235.4-1.238,1.22q-.018,3.645,0,7.291a1.047,1.047,0,0,0,1.135,1.176c.824.035,1.651.03,2.476.01a1.326,1.326,0,0,1,1.428,1.006c.5,1.349,1.067,2.674,1.662,3.985a1.281,1.281,0,0,1-.255,1.669c-.586.547-1.151,1.119-1.706,1.7a1.11,1.11,0,0,0,.014,1.793c.268.282.565.54.824.829a1.057,1.057,0,0,1,.075,1.509,10.037,10.037,0,0,0,1.54,1.411,1.148,1.148,0,0,1,.182.163,1.019,1.019,0,0,1,1.4.1c.378.333.714.713,1.08,1.059a1.126,1.126,0,0,0,1.8,0c.6-.57,1.179-1.155,1.759-1.742a1.229,1.229,0,0,1,1.552-.242c1.376.614,2.778,1.173,4.183,1.717a1.26,1.26,0,0,1,.917,1.292c0,.871-.018,1.743.013,2.613.025.7.375,1,1.143.994q0-2.057,0-4.116c0-2.241.99-3.234,3.222-3.239.977,0,.977,0,1.254-1.166-1.215-.12-2.45-.143-3.643-.378a16.09,16.09,0,0,1-12.769-19.509c.173-.776.592-1.156,1.18-1.081.616.079.928.591.866,1.323a31.952,31.952,0,0,0-.321,4.706,13.911,13.911,0,0,0,11.906,12.628c.723.1,1.454.131,2.363.21a2.866,2.866,0,0,1-.347-3.362,10.822,10.822,0,0,1-8.1-3.744,10.148,10.148,0,0,1-2.531-5.756,10.711,10.711,0,1,1,19.2,5.271c.338.681.778.592,1.442.385,1.175-.366,1.741-.917,1.633-2.247a2.168,2.168,0,0,1,1.614-2.237.943.943,0,0,0,.716-.98,13.814,13.814,0,0,0-2.522-9.488,13.471,13.471,0,0,0-11.162-5.924,13.666,13.666,0,0,0-11.841,6.079c-.226.316-.416.659-.642.976-.428.6-.952.754-1.469.445a1.057,1.057,0,0,1-.261-1.559,15.726,15.726,0,0,1,5.986-5.927,16.1,16.1,0,0,1,23.287,9.134,16.564,16.564,0,0,1,.62,7.024h3.514c2,0,2.823.664,3.264,2.685.3,0,.61.011.924,0,.909-.037,1.291-.4,1.3-1.324q.022-3.541,0-7.084c-.007-.9-.424-1.278-1.328-1.288-.8-.009-1.605-.015-2.407,0a1.238,1.238,0,0,1-1.291-.908c-.554-1.4-1.123-2.8-1.741-4.174a1.209,1.209,0,0,1,.267-1.545q.866-.836,1.706-1.7a1.128,1.128,0,0,0,0-1.845q-2.524-2.534-5.073-5.043c-.649-.639-1.17-.621-1.845.028-.561.54-1.122,1.083-1.659,1.648a1.3,1.3,0,0,1-1.668.278c-1.332-.6-2.684-1.164-4.053-1.676a1.265,1.265,0,0,1-.976-1.369c.03-.778.019-1.559,0-2.338-.019-.9-.415-1.3-1.319-1.3q-3.576-.014-7.153,0c-.916,0-1.288.381-1.3,1.3" transform="translate(-460.794 -173.332)" fill="#fff"/>
      <path id="Trazado_204797" data-name="Trazado 204797" d="M491.45,172.468c.028.034.05.084.086.1a3.231,3.231,0,0,1,2.375,3.508c0,1.619,0,1.619,1.493,2.173.171.063.341.133.508.208,1.507.677,1.506.677,2.658-.463q2.566-2.541,5.146.018,2.369,2.349,4.734,4.7c1.638,1.635,1.628,3.4-.016,5.046-.388.387-.773.777-1.138,1.143.436,1.077.84,2.121,1.291,3.144a.762.762,0,0,0,.544.347c.5.049,1.007.012,1.512.018a3.11,3.11,0,0,1,3.32,3.185c.058,2.5.073,5-.022,7.5a7.45,7.45,0,0,1-.632,2.074,11.064,11.064,0,0,1,1.907-.361,2.741,2.741,0,0,1,1.964,1.133c1.147,1.154,2.312,2.291,3.46,3.446a2.61,2.61,0,0,1-.03,4.141,1.347,1.347,0,0,0-.36,1.8,1.765,1.765,0,0,0,1.98,1.4,2.511,2.511,0,0,1,2.66,2.761c.013,1.765.008,3.53,0,5.3a2.6,2.6,0,0,1-2.867,2.916,1.513,1.513,0,0,0-1.672,1.123,1.633,1.633,0,0,0,.444,2.256,2.5,2.5,0,0,1,.031,3.738q-2.008,2.075-4.1,4.072a2.494,2.494,0,0,1-3.691-.029,1.665,1.665,0,0,0-2.379-.415c-.983.537-1.037.439-1.048,1.6a2.656,2.656,0,0,1-2.879,2.864q-2.648.014-5.3,0a2.67,2.67,0,0,1-2.917-2.837,2.983,2.983,0,0,1,0-.55c.08-.528-.2-.7-.646-.93-1.14-.609-2.012-.691-2.984.425a2.324,2.324,0,0,1-3.307,0c-1.51-1.4-2.981-2.855-4.392-4.358a2.47,2.47,0,0,1,.228-3.68c.73-.666.964-1.24.351-2.051a.156.156,0,0,1-.025-.063c-.156-.915-.64-1.264-1.609-1.17a2.587,2.587,0,0,1-2.476-1.195,1.035,1.035,0,0,0-.678-.33,2.976,2.976,0,0,1-2.945-3.227c.1-1.5-.361-2.153-1.814-2.729-1.4-.554-2.159-.49-3.153.628a3.044,3.044,0,0,1-4.673.018c-.363-.35-.729-.7-1.069-1.071a1.024,1.024,0,1,1,1.442-1.452c.378.333.713.713,1.08,1.059a1.126,1.126,0,0,0,1.8,0c.6-.57,1.18-1.155,1.76-1.742a1.228,1.228,0,0,1,1.552-.242c1.376.614,2.778,1.173,4.183,1.717a1.259,1.259,0,0,1,.916,1.292c0,.871-.018,1.743.013,2.613.025.7.376,1,1.144.994q0-2.057,0-4.116c0-2.241.99-3.234,3.222-3.239.978,0,.978,0,1.255-1.166-1.215-.12-2.45-.143-3.644-.378a16.09,16.09,0,0,1-12.769-19.509c.173-.776.592-1.156,1.18-1.081.616.079.927.591.866,1.323a31.947,31.947,0,0,0-.322,4.706,13.912,13.912,0,0,0,11.907,12.628c.723.1,1.454.131,2.362.21a2.867,2.867,0,0,1-.347-3.362,10.823,10.823,0,0,1-8.1-3.744,10.147,10.147,0,0,1-2.53-5.756,10.711,10.711,0,1,1,19.2,5.271c.339.68.779.592,1.442.385,1.176-.366,1.741-.917,1.633-2.247a2.167,2.167,0,0,1,1.614-2.237.944.944,0,0,0,.716-.98,13.817,13.817,0,0,0-2.522-9.488,13.472,13.472,0,0,0-11.163-5.924,13.664,13.664,0,0,0-11.84,6.079c-.227.316-.417.659-.642.976-.427.6-.952.754-1.468.445a1.057,1.057,0,0,1-.261-1.559A15.721,15.721,0,0,1,479,185.331a16.1,16.1,0,0,1,23.287,9.134,16.554,16.554,0,0,1,.619,7.024h3.514c2,0,2.823.664,3.265,2.685.3,0,.61.011.923,0,.909-.037,1.292-.4,1.3-1.324q.023-3.541,0-7.084c-.007-.9-.423-1.278-1.328-1.288-.8-.009-1.605-.016-2.407,0a1.237,1.237,0,0,1-1.29-.908c-.554-1.4-1.123-2.8-1.742-4.174a1.21,1.21,0,0,1,.268-1.545q.866-.836,1.706-1.7a1.128,1.128,0,0,0,0-1.845q-2.523-2.534-5.073-5.043c-.649-.639-1.17-.621-1.844.028-.561.54-1.122,1.083-1.659,1.647a1.294,1.294,0,0,1-1.668.279c-1.332-.6-2.684-1.164-4.053-1.676a1.265,1.265,0,0,1-.977-1.369c.03-.778.02-1.559,0-2.338-.019-.9-.415-1.3-1.319-1.3q-3.576-.014-7.153,0c-.916,0-1.288.381-1.3,1.3-.013.8,0,1.6,0,2.407a1.243,1.243,0,0,1-.922,1.278c-1.409.536-2.8,1.122-4.18,1.726a1.237,1.237,0,0,1-1.557-.254c-.557-.577-1.128-1.142-1.705-1.7-.673-.649-1.2-.673-1.85-.035q-2.577,2.529-5.12,5.093a1.082,1.082,0,0,0-.007,1.742c.554.58,1.121,1.149,1.705,1.7a1.292,1.292,0,0,1,.29,1.666c-.6,1.331-1.178,2.678-1.693,4.046a1.285,1.285,0,0,1-1.378.972c-.8-.022-1.605-.016-2.407,0-.835.015-1.235.4-1.239,1.22q-.018,3.645,0,7.291a1.048,1.048,0,0,0,1.136,1.176c.824.035,1.65.03,2.475.01a1.326,1.326,0,0,1,1.429,1.006c.5,1.349,1.067,2.674,1.661,3.985a1.281,1.281,0,0,1-.254,1.669c-.587.547-1.152,1.119-1.707,1.7a1.109,1.109,0,0,0,.015,1.793c.268.282.564.54.824.829a1.031,1.031,0,1,1-1.435,1.474c-.208-.179-.4-.381-.591-.575-1.778-1.766-1.782-3.479-.016-5.237,1.1-1.09,1.088-1.087.46-2.483a13.708,13.708,0,0,1-.594-1.535.686.686,0,0,0-.79-.563,14.6,14.6,0,0,1-1.923-.044,2.99,2.99,0,0,1-2.736-2.868q-.063-3.987,0-7.977a3.048,3.048,0,0,1,2.925-2.92,17.592,17.592,0,0,1,1.788-.006.605.605,0,0,0,.7-.473c.317-.857.668-1.705,1.061-2.53a.646.646,0,0,0-.187-.885A14.851,14.851,0,0,1,465,187.248a2.954,2.954,0,0,1-.008-4.02q2.8-2.938,5.755-5.719a2.971,2.971,0,0,1,4.073.015c.468.4.866.89,1.345,1.276a.908.908,0,0,0,.748.126c.882-.317,1.731-.723,2.61-1.048.359-.133.515-.3.491-.687-.032-.5-.017-1.009,0-1.513a3.093,3.093,0,0,1,2.269-3.082,1.564,1.564,0,0,0,.235-.13Zm4.4,63.081a5.2,5.2,0,0,1,.571.146c1.164.472,2.348.907,3.475,1.456a1.512,1.512,0,0,1,.655,1,11.681,11.681,0,0,1,.039,1.92c0,.494.223.769.749.768,1.833-.006,3.667,0,5.5,0a.629.629,0,0,0,.714-.719c0-.619,0-1.238,0-1.857a1.169,1.169,0,0,1,.834-1.2q1.627-.638,3.232-1.333a1.173,1.173,0,0,1,1.436.273c.434.441.88.87,1.319,1.307a.64.64,0,0,0,1.019.013q1.951-1.938,3.9-3.88a.63.63,0,0,0,0-1.014c-.422-.42-.833-.852-1.269-1.258a1.221,1.221,0,0,1-.291-1.55c.452-1.023.886-2.056,1.289-3.1a1.2,1.2,0,0,1,1.243-.869c.618.009,1.237,0,1.857,0a.634.634,0,0,0,.714-.721q-.011-2.716,0-5.432a.66.66,0,0,0-.751-.759c-.642-.006-1.283,0-1.925-.007a1.088,1.088,0,0,1-1.1-.767c-.44-1.1-.9-2.2-1.37-3.289a1.127,1.127,0,0,1,.258-1.376c.427-.416.835-.85,1.269-1.259a.7.7,0,0,0,0-1.167q-1.889-1.854-3.754-3.733a.709.709,0,0,0-1.173.014c-.413.428-.845.84-1.266,1.261a1.142,1.142,0,0,1-1.378.261q-1.638-.7-3.294-1.361a1.136,1.136,0,0,1-.8-1.151c0-.6-.016-1.192,0-1.788s-.243-.827-.824-.823c-1.764.013-3.53.018-5.294,0-.633-.007-.866.283-.855.876s0,1.191,0,1.787a1.091,1.091,0,0,1-.77,1.095c-1.105.436-2.2.892-3.294,1.36a1.137,1.137,0,0,1-1.381-.242c-.419-.423-.853-.833-1.264-1.264a.715.715,0,0,0-1.177-.037q-1.9,1.9-3.8,3.78a.673.673,0,0,0,.014,1.115c.432.411.843.842,1.269,1.259a1.161,1.161,0,0,1,.277,1.432c-.469,1.066-.912,2.144-1.35,3.224a1.132,1.132,0,0,1-1.149.8c-.618-.008-1.238,0-1.856,0a.7.7,0,0,0-.805.8q0,2.681,0,5.363a.676.676,0,0,0,.766.759c.619,0,1.238.009,1.857,0a1.169,1.169,0,0,1,1.2.834c.421,1.061.853,2.12,1.321,3.162a1.185,1.185,0,0,1-.28,1.488c-.429.414-.842.843-1.271,1.257a.651.651,0,0,0-.018,1.064q1.93,1.91,3.854,3.827a.69.69,0,0,0,1.124-.03c.415-.428.828-.859,1.274-1.253a4.472,4.472,0,0,1,.733-.451m-9.441-44.888a17.833,17.833,0,0,0-3.022.837,8.525,8.525,0,0,0-4.968,9.33,8.624,8.624,0,0,0,7.8,7.076c1.365.111,2.813.231,3.846-1.059a14.773,14.773,0,0,1,1.161-1.169,2.862,2.862,0,0,1,2.069-.928.934.934,0,0,0,.633-.388,8.238,8.238,0,0,0,.675-9.005c-1.581-3.038-4.221-4.521-8.193-4.694" transform="translate(-459.926 -172.468)" fill="#084a93"/>
      <path id="Trazado_204798" data-name="Trazado 204798" d="M506.492,248.594a4.468,4.468,0,0,0-.733.451c-.445.394-.859.826-1.273,1.254a.691.691,0,0,1-1.125.03q-1.923-1.918-3.854-3.827a.651.651,0,0,1,.018-1.064c.428-.415.842-.843,1.271-1.257a1.186,1.186,0,0,0,.28-1.489c-.468-1.041-.9-2.1-1.321-3.161a1.169,1.169,0,0,0-1.2-.834c-.618.007-1.238,0-1.857,0a.676.676,0,0,1-.766-.759q0-2.681,0-5.364a.7.7,0,0,1,.805-.8c.618,0,1.238-.009,1.856,0a1.13,1.13,0,0,0,1.15-.8c.437-1.08.88-2.157,1.35-3.224a1.161,1.161,0,0,0-.277-1.432c-.425-.417-.837-.849-1.269-1.259a.673.673,0,0,1-.014-1.115q1.91-1.883,3.8-3.78a.715.715,0,0,1,1.177.037c.411.431.844.84,1.264,1.264a1.134,1.134,0,0,0,1.38.242c1.092-.467,2.189-.924,3.294-1.359a1.092,1.092,0,0,0,.77-1.095c.006-.6.015-1.192,0-1.788s.223-.883.855-.875c1.764.02,3.53.015,5.294,0,.581,0,.843.236.824.823s0,1.192,0,1.788a1.135,1.135,0,0,0,.8,1.15q1.657.657,3.294,1.362a1.143,1.143,0,0,0,1.378-.261c.421-.421.853-.833,1.267-1.262a.709.709,0,0,1,1.172-.014q1.863,1.881,3.754,3.733a.7.7,0,0,1,0,1.168c-.434.408-.842.843-1.269,1.258a1.128,1.128,0,0,0-.258,1.376c.466,1.092.93,2.186,1.37,3.29a1.089,1.089,0,0,0,1.1.767c.642,0,1.283,0,1.925.007a.66.66,0,0,1,.751.759q-.017,2.716,0,5.432a.635.635,0,0,1-.715.721c-.619.01-1.238.014-1.857,0a1.194,1.194,0,0,0-1.243.869c-.4,1.044-.837,2.076-1.289,3.1a1.221,1.221,0,0,0,.291,1.55c.436.4.848.837,1.27,1.258a.631.631,0,0,1,0,1.014q-1.95,1.939-3.9,3.88a.64.64,0,0,1-1.019-.013c-.438-.437-.885-.866-1.318-1.307a1.175,1.175,0,0,0-1.436-.273c-1.07.461-2.147.907-3.232,1.332a1.17,1.17,0,0,0-.834,1.2c0,.618,0,1.238,0,1.856a.629.629,0,0,1-.714.72c-1.833,0-3.667,0-5.5,0-.525,0-.746-.273-.749-.767a11.688,11.688,0,0,0-.039-1.92,1.514,1.514,0,0,0-.654-1c-1.128-.549-2.311-.984-3.475-1.456a5.042,5.042,0,0,0-.571-.146m8.247-25.86a12.5,12.5,0,1,0,12.5,12.526,12.506,12.506,0,0,0-12.5-12.526" transform="translate(-470.571 -185.512)" fill="#fff"/>
      <path id="Trazado_204799" data-name="Trazado 204799" d="M494.112,198.3c3.973.173,6.612,1.656,8.193,4.694a8.238,8.238,0,0,1-.675,9.005.934.934,0,0,1-.633.388,2.862,2.862,0,0,0-2.069.928,14.765,14.765,0,0,0-1.161,1.169c-1.034,1.29-2.481,1.17-3.846,1.059a8.624,8.624,0,0,1-7.8-7.076,8.525,8.525,0,0,1,4.968-9.33,17.838,17.838,0,0,1,3.022-.837" transform="translate(-467.632 -180.104)" fill="#fff"/>
      <path id="Trazado_204800" data-name="Trazado 204800" d="M517.378,225.312a12.5,12.5,0,1,1-12.522,12.48,12.557,12.557,0,0,1,12.522-12.48m-.01,2.064a10.438,10.438,0,1,0,10.444,10.471,10.44,10.44,0,0,0-10.444-10.471" transform="translate(-473.209 -188.091)" fill="#084a93"/>
      <path id="Trazado_204801" data-name="Trazado 204801" d="M518.234,228.242a10.437,10.437,0,1,0,10.444,10.471,10.44,10.44,0,0,0-10.444-10.471M523.716,245a8.384,8.384,0,1,1-1.2-13.512,8.537,8.537,0,0,1,3.263,3.53,1.1,1.1,0,0,1-.075,1.352v2.277h0c.628.113.931.62.8,1.436A7.967,7.967,0,0,1,523.716,245" transform="translate(-474.075 -188.957)" fill="#fff"/>
      <path id="Trazado_204802" data-name="Trazado 204802" d="M527.172,238.7l-.016.01c-.547.3-1.105.11-1.469-.577a6.546,6.546,0,0,0-2.384-2.645c-1.165,1.186-2.385,2.33-3.491,3.576-1.833,2.065-4.113,1.818-5.55.049a3.532,3.532,0,0,0-.315-.288,5.917,5.917,0,0,0,.245,4.629,6.346,6.346,0,0,0,11.654-.375,8.753,8.753,0,0,0,.341-1.254c.163-.629.528-1.007.984-1.042Z" transform="translate(-475.792 -191.1)" fill="#fff"/>
      <path id="Trazado_204803" data-name="Trazado 204803" d="M522.436,234.214c-1.165,1.186-2.386,2.33-3.491,3.576-1.833,2.065-4.114,1.818-5.551.049a3.35,3.35,0,0,0-.315-.287,5.918,5.918,0,0,0,.246,4.628,6.345,6.345,0,0,0,11.654-.375,8.852,8.852,0,0,0,.342-1.254c.192-.739.661-1.133,1.23-1.03.628.113.931.62.8,1.436a7.966,7.966,0,0,1-2.789,4.916,8.384,8.384,0,1,1-1.2-13.512,8.543,8.543,0,0,1,3.263,3.53,1.049,1.049,0,0,1-.338,1.545c-.547.3-1.1.111-1.469-.577a6.553,6.553,0,0,0-2.383-2.645m-8.279,1.436c.411.415.8.86,1.247,1.245a1.063,1.063,0,0,0,1.541-.065c.506-.461.981-.958,1.466-1.443.64-.639,1.275-1.281,1.937-1.948a5.951,5.951,0,0,0-6.191,2.21" transform="translate(-474.923 -189.826)" fill="#084a93"/>
      <path id="Trazado_204804" data-name="Trazado 204804" d="M515.627,236.515a5.951,5.951,0,0,1,6.191-2.21c-.662.666-1.3,1.309-1.937,1.948-.485.485-.96.982-1.466,1.443a1.063,1.063,0,0,1-1.541.065c-.444-.385-.836-.83-1.247-1.245" transform="translate(-476.394 -190.69)" fill="#fff"/>
    </g>
    <g id="Grupo_149308" data-name="Grupo 149308" transform="translate(628 8245)">
      <path id="Trazado_204846" data-name="Trazado 204846" d="M762.689,150.36a1.031,1.031,0,0,1-1.439.13c-.228.362-.5.689-.738,1.051-.279.423-.478.867-.79,1.265a1.062,1.062,0,0,1,.333,1.39,30.647,30.647,0,0,0-1.558,3.86,44.692,44.692,0,0,0-.936,5.31c-.15,1.1-.392,1.481-1.495,1.7A10.361,10.361,0,0,0,747.8,174.6a10.167,10.167,0,0,0,7.107,10.377,12.206,12.206,0,0,0,3.374.466q21.187.063,42.374.058a12.717,12.717,0,0,0,5.29-1.241c.145-.066.285-.144.43-.211a1.063,1.063,0,0,1,1.535.368h0a1,1,0,0,1,.16-.231c.61-.659,1.6-.774,2.179-1.422-.03-.024-.059-.049-.088-.077-.473-.451-.414-1.006.176-1.679a13.8,13.8,0,0,0-6.608-22.56,18.677,18.677,0,0,0-3.306-.493c-1.031-.091-1.368-.276-1.753-1.216-2.983-7.294-8.3-11.9-16.051-13.351-7.536-1.408-14.017.9-19.371,6.372-.192.2-.362.413-.559.6" transform="translate(-745.75 -140.926)" fill="#fff"/>
      <path id="Trazado_204847" data-name="Trazado 204847" d="M786.123,140.055c1.209.211,2.438.344,3.624.647a23.023,23.023,0,0,1,16.1,13.712.9.9,0,0,0,.885.633,15.834,15.834,0,0,1,14.653,13.968,2.3,2.3,0,0,0,.119.385v3.017c-.183.864-.332,1.737-.556,2.591a15.437,15.437,0,0,1-3.532,6.493c-.619.687-1.206.786-1.7.31-.473-.451-.414-1.006.176-1.679a13.8,13.8,0,0,0-6.608-22.56,18.611,18.611,0,0,0-3.306-.494c-1.031-.091-1.368-.275-1.753-1.215-2.983-7.294-8.3-11.9-16.051-13.351-7.536-1.408-14.017.9-19.371,6.372-.192.2-.362.413-.559.6a1.025,1.025,0,1,1-1.475-1.418,22.539,22.539,0,0,1,4.839-4.218,22.939,22.939,0,0,1,10.625-3.688,3.15,3.15,0,0,0,.461-.11Z" transform="translate(-751.304 -140.055)" fill="#084a93"/>
      <path id="Trazado_204848" data-name="Trazado 204848" d="M798.087,191.713c0,1.761-.024,3.5.025,5.227a.992.992,0,0,0,.535.765,9.007,9.007,0,0,0,2.037.079c.127-.006.262-.326.355-.52a3.77,3.77,0,1,1,3.239,5.342,3.609,3.609,0,0,1-3.255-2.254.667.667,0,0,0-.759-.483c-.409.029-.822.013-1.234.006a2.938,2.938,0,0,1-3-2.992c-.016-1.712,0-3.424,0-5.184h-6.41c-.012.2-.034.395-.034.593q0,5.965,0,11.929c0,1.015.272,1.275,1.309,1.279.092,0,.184-.008.275,0a1.318,1.318,0,0,0,1.576-.849,3.6,3.6,0,0,1,4.272-1.745,3.765,3.765,0,0,1-.3,7.306,3.661,3.661,0,0,1-4.1-2.009.918.918,0,0,0-1.068-.652c-2.789.265-4.154-1.156-4.053-4.029.131-3.674.032-7.357.032-11.036v-.793h-6.583v.737q0,4.045,0,8.09c0,.861-.371,1.33-1.03,1.329s-1.024-.468-1.025-1.333c0-2.923,0-5.847,0-8.826H772.3c0,.739,0,1.485,0,2.231,0,.871-.356,1.336-1.013,1.346s-1.038-.458-1.043-1.314c0-.748,0-1.5,0-2.285h-6.447v.649c0,1.508.011,3.017,0,4.525a2.947,2.947,0,0,1-3.027,3.037,1.987,1.987,0,0,1-.274,0,1.7,1.7,0,0,0-2.033,1.022,3.533,3.533,0,0,1-4.29,1.525,3.766,3.766,0,0,1,.5-7.279,3.661,3.661,0,0,1,4.034,2.033.964.964,0,0,0,1.071.655c1.96-.029,1.96-.012,1.96-1.943v-4.273c-.307,0-.571.008-.833,0a55.423,55.423,0,0,1-6.083-.261,12.011,12.011,0,0,1-9.807-10.129,12.3,12.3,0,0,1,9.1-13.889c.61-.172.557-.562.589-.969a22.609,22.609,0,0,1,2.5-8.691c.053-.1.1-.206.154-.305a1.029,1.029,0,1,1,1.833.925,30.652,30.652,0,0,0-1.558,3.86,44.543,44.543,0,0,0-.936,5.31c-.15,1.1-.392,1.481-1.495,1.7a10.362,10.362,0,0,0-8.266,9.526,10.168,10.168,0,0,0,7.107,10.377,12.214,12.214,0,0,0,3.374.466q21.187.063,42.374.058a12.717,12.717,0,0,0,5.29-1.241c.145-.066.285-.144.43-.211a1.063,1.063,0,0,1,1.535.368.991.991,0,0,1-.6,1.447,39.054,39.054,0,0,1-4.735,1.519,22.49,22.49,0,0,1-3.624.237m-41.016,7.12a1.71,1.71,0,1,0-1.679,1.725,1.729,1.729,0,0,0,1.679-1.725m47.421-1.694a1.71,1.71,0,1,0,1.679,1.724,1.724,1.724,0,0,0-1.679-1.724m-8.569,11.1a1.71,1.71,0,1,0-1.676-1.727,1.727,1.727,0,0,0,1.676,1.727" transform="translate(-744.886 -145.024)" fill="#084a93"/>
      <path id="Trazado_204849" data-name="Trazado 204849" d="M773.974,225.08a3.872,3.872,0,0,1-2.7,2.608,3.766,3.766,0,0,1-2.441-7.1,3.7,3.7,0,0,1,4.821,1.783,1.011,1.011,0,0,0,1.13.668c1.885-.032,1.908-.034,1.908-1.925,0-1.438,0-2.876,0-4.314,0-.8.4-1.246,1.055-1.229.62.016.994.458,1,1.219.007,1.78.019,3.56,0,5.341a2.931,2.931,0,0,1-2.967,2.949c-.593.012-1.185,0-1.8,0m-1.949-1.043a1.71,1.71,0,1,0-1.679,1.724,1.727,1.727,0,0,0,1.679-1.724" transform="translate(-751.338 -162.549)" fill="#084a93"/>
      <path id="Trazado_204850" data-name="Trazado 204850" d="M792.139,228.106c0-.7-.013-1.379,0-2.063a1.027,1.027,0,1,1,2.049-.028,1.916,1.916,0,0,1,0,.342,2.068,2.068,0,0,0,1.169,2.436,3.468,3.468,0,0,1,1.314,4.342,3.765,3.765,0,1,1-5.173-4.73c.2-.1.41-.193.635-.3m1.014,5.385a1.71,1.71,0,1,0-1.7-1.707,1.73,1.73,0,0,0,1.7,1.707" transform="translate(-758.143 -165.341)" fill="#084a93"/>
      <path id="Trazado_204851" data-name="Trazado 204851" d="M760.788,215.973a1.71,1.71,0,1,1-1.708-1.695,1.729,1.729,0,0,1,1.708,1.695" transform="translate(-748.604 -162.165)" fill="#fff"/>
      <path id="Trazado_204852" data-name="Trazado 204852" d="M829.041,214.279a1.71,1.71,0,1,1-1.741,1.661,1.726,1.726,0,0,1,1.741-1.661" transform="translate(-769.436 -162.165)" fill="#fff"/>
      <path id="Trazado_204853" data-name="Trazado 204853" d="M816.864,228.635a1.71,1.71,0,1,1,1.744-1.658,1.727,1.727,0,0,1-1.744,1.658" transform="translate(-765.828 -165.423)" fill="#fff"/>
      <path id="Trazado_204854" data-name="Trazado 204854" d="M772.9,226.911a1.71,1.71,0,1,1-1.708-1.7,1.729,1.729,0,0,1,1.708,1.7" transform="translate(-752.212 -165.423)" fill="#fff"/>
      <path id="Trazado_204855" data-name="Trazado 204855" d="M794.03,235.667a1.71,1.71,0,1,1,1.724-1.68,1.729,1.729,0,0,1-1.724,1.68" transform="translate(-759.02 -167.517)" fill="#fff"/>
    </g>
    <g id="Grupo_149309" data-name="Grupo 149309" transform="translate(775 8350)">
      <path id="Trazado_204856" data-name="Trazado 204856" d="M193.211,451.225V458h.828q6.714,0,13.427,0a2.837,2.837,0,0,1,3.157,3.151q.005,12.923,0,25.845a2.889,2.889,0,0,1-3.221,3.19q-5.812.012-11.621,0h-.993v2.5h1.193c2.277,0,3.326,1.04,3.33,3.293,0,.367,0,.733,0,1.1-.01.936-.226,1.162-1.154,1.164q-3.848.007-7.7,0-5.811,0-11.622,0c-1.1,0-1.271-.177-1.276-1.28,0-.549-.018-1.1.019-1.649a2.746,2.746,0,0,1,2.64-2.614c.619-.034,1.242-.006,1.892-.006v-2.51h-.963q-5.771,0-11.543,0c-2.288,0-3.356-1.075-3.362-3.368q-.008-2.671-.016-5.342a.891.891,0,0,0-.058-.194c-1.193-.152-2.41-.276-3.617-.467a26.514,26.514,0,0,1-2.311-51.764,25.8,25.8,0,0,1,22,3.84,2.565,2.565,0,0,0,1.348.42c6.6.026,13.192.013,19.788.021a2.828,2.828,0,0,1,3,3.009q.016,5.892,0,11.783a2.874,2.874,0,0,1-3.086,3.094c-3.089.012-6.177,0-9.266,0Zm-4.756,37.314q9.386,0,18.772,0c1.46,0,1.789-.334,1.79-1.807q0-12.65,0-25.3c0-1.459-.354-1.818-1.8-1.818H169.674c-1.478,0-1.81.328-1.81,1.787v25.38c0,1.434.321,1.76,1.741,1.76q9.425,0,18.85,0m1.1-35.409c.629-1,1.207-1.842,1.7-2.731a1.525,1.525,0,0,1,1.532-.834c3.479.027,6.96.018,10.44.008,1.106,0,1.547-.434,1.55-1.506q.012-5.812,0-11.623c0-1.023-.466-1.49-1.5-1.491q-9.773-.013-19.545,0c-1,0-1.44.446-1.443,1.445q-.016,5.889,0,11.779c0,.951.441,1.367,1.405,1.393a13.844,13.844,0,0,0,2.118-.011,2.069,2.069,0,0,1,2.362,1.332,24.976,24.976,0,0,0,1.379,2.238m-35.331,2.14H142.044c.234,1.624.374,3.209.7,4.753a24.19,24.19,0,0,0,7,12.54.879.879,0,0,0,.7.258c1.283-.5,2.541-1.056,3.8-1.591a2.875,2.875,0,0,1,1.4-3.029.741.741,0,0,0,.212-.627,51.543,51.543,0,0,1-1.64-12.3m0-1.172a50.259,50.259,0,0,1,1.859-13.106,2.754,2.754,0,0,1-1.836-2.415c-.027-.464-.221-.6-.608-.744a27.433,27.433,0,0,1-2.75-1.137.928.928,0,0,0-1.276.2,24.766,24.766,0,0,0-7.007,13.074c-.26,1.343-.351,2.718-.525,4.133Zm24.46.05a2,2,0,0,0,.076-.328,44.988,44.988,0,0,0-1.7-12.15c-.068-.235-.408-.43-.664-.565-.52-.274-1.287-.351-1.559-.767-.615-.937-1.364-.8-2.209-.632a5.669,5.669,0,0,1-.7.078c-1.425.114-2.849.226-4.254.336a.752.752,0,0,0-.076.187c-.007,3.766-.016,7.532,0,11.3a.671.671,0,0,0,.336.5,2.979,2.979,0,0,1,1.681,1.659.693.693,0,0,0,.488.371c2.847.023,5.693.016,8.582.016m-23.414-.175c.173.09.217.133.262.133,2.823.011,5.647.027,8.472.008.178,0,.37-.264.528-.429a7.49,7.49,0,0,1,1.383-1.416.979.979,0,0,0,.588-1.012c-.015-3.454-.008-6.908-.011-10.362,0-.254-.023-.508-.033-.709-2.242-.246-4.417-.494-6.6-.7-.189-.018-.416.194-.6.333a9.179,9.179,0,0,1-1.532,1.142c-.411.187-.632.356-.715.786-.449,2.332-.992,4.65-1.344,7-.26,1.746-.276,3.527-.4,5.236m10.954,15.24c0-.624-.016-1.25,0-1.875.079-2.633.173-5.266.253-7.9.017-.549.023-1.1-.008-1.648-.01-.177-.113-.46-.239-.5a2.989,2.989,0,0,1-1.89-2.028h-8.928c-.039.095-.077.141-.076.187a46.081,46.081,0,0,0,1.64,12.008c.048.17.2.412.342.439a2.9,2.9,0,0,1,2.256,1.969l6.646-.65m.209-30.15v-9.224a4.065,4.065,0,0,0-3.213,1.036,14.86,14.86,0,0,0-4.122,5.357.672.672,0,0,0-.029.49c.213.526.469,1.037.775,1.7l6.589.64m8.438-3.042c-.083-.159-.25-.512-.448-.849a11.788,11.788,0,0,0-4.537-4.874,11.935,11.935,0,0,0-2.236-.651v9.416c2-.2,3.927-.376,5.847-.591.171-.019.371-.241.459-.417.307-.617.57-1.256.914-2.033M166.2,470.292c-2.128.243-4.192.476-6.254.718-.121.014-.314.078-.335.157-.22.8-1.142,1.525-.25,2.457a4.886,4.886,0,0,1,.5.881,11.7,11.7,0,0,0,4.45,4.627,10.666,10.666,0,0,0,1.886.563Zm14.426-32.38c-.84.072-1.3.3-1.377,1.153a2.22,2.22,0,0,1-.791,1.3.982.982,0,0,0-.324,1.129c.538,2.928,1.074,5.857,1.525,8.8.188,1.231.164,2.494.239,3.776h8.276c-.1-.2-.154-.312-.222-.417-.508-.789-.857-1.848-1.579-2.285-.657-.4-1.725-.128-2.611-.141a2.927,2.927,0,0,1-3.134-3.149c-.01-2.279,0-4.557,0-6.835v-3.33m17.017,58.675c.2-1.867-.165-2.278-1.965-2.278h-1.805q-6.517,0-13.032,0c-1.29,0-1.673.4-1.654,1.7,0,.178.025.356.041.579Zm-17.784-38.635h12.161c.073-.911.144-1.781.227-2.814a39.854,39.854,0,0,1-6.169.068c-2.054.02-4.107,0-6.219,0Zm-22.181,15.266a2.746,2.746,0,0,1-2.694-.755.488.488,0,0,0-.413-.116c-1.151.432-2.292.888-3.507,1.365,2.746,2.539,8.657,5.346,10.708,5.267q-1.939-2.727-4.093-5.761m21.02-18.006c-2.91,0-5.754-.008-8.6.02-.175,0-.359.274-.518.441a7.01,7.01,0,0,1-1.382,1.414c-.584.323-.741.624-.579,1.091.869-.062,1.69-.163,2.512-.171,2.561-.022,5.121-.008,7.681-.008h.883Zm-27.682-19.58c1.165.462,2.2.883,3.237,1.273a.532.532,0,0,0,.477-.091,2.787,2.787,0,0,1,3.117-1.006l3.975-5.47a24.588,24.588,0,0,0-10.807,5.293m42.579,54.619h-10.3v2.407h10.3Zm-21.589-59.9a18.13,18.13,0,0,1,3.8,5.022.692.692,0,0,0,.53.306,2.856,2.856,0,0,1,2.528,1.146.709.709,0,0,0,.63.2c.4-.158.925-.348,1.087-.678a11.381,11.381,0,0,0,.583-2.12,21.675,21.675,0,0,0-9.163-3.877m-15.085,9.678a1.622,1.622,0,1,0,.044-3.244,1.622,1.622,0,1,0-.044,3.244m.06,32.166a1.608,1.608,0,1,0-.078-3.214,1.608,1.608,0,1,0,.078,3.214m21.278-33.775a1.584,1.584,0,0,0-1.551-1.627,1.619,1.619,0,1,0,1.551,1.627m-11.11,14.661a1.607,1.607,0,1,0,1.53,1.652,1.586,1.586,0,0,0-1.53-1.652m25.073,1.033c-.046-.58-.09-1.127-.133-1.674l-.171-.012c-.327.53-.655,1.061-1.039,1.686Z" transform="translate(-140.545 -428.087)" fill="#084a93"/>
      <path id="Trazado_204857" data-name="Trazado 204857" d="M200.072,501.945q-9.425,0-18.849,0c-1.421,0-1.741-.325-1.741-1.76q0-12.689,0-25.38c0-1.459.333-1.787,1.81-1.787h37.543c1.444,0,1.8.359,1.8,1.819q0,12.65,0,25.3c0,1.473-.33,1.807-1.79,1.807H200.072m-.075-4.23q8.952,0,17.9,0c.955,0,1.03-.08,1.03-1.032q0-10.448,0-20.9c0-1.006-.065-1.071-1.071-1.071q-17.786,0-35.572,0c-1.06,0-1.1.043-1.105,1.113q0,10.37,0,20.74c0,1.107.041,1.149,1.146,1.149q8.834,0,17.669,0" transform="translate(-152.162 -441.492)" fill="#fff"/>
      <path id="Trazado_204858" data-name="Trazado 204858" d="M207.3,456.048a24.873,24.873,0,0,1-1.379-2.237,2.069,2.069,0,0,0-2.363-1.332,13.839,13.839,0,0,1-2.117.011c-.965-.026-1.4-.441-1.405-1.393q-.018-5.89,0-11.779c0-1,.441-1.445,1.444-1.446q9.772-.015,19.545,0c1.033,0,1.5.468,1.5,1.491q.014,5.812,0,11.622c0,1.073-.443,1.5-1.55,1.507-3.479.01-6.959.018-10.44-.008a1.524,1.524,0,0,0-1.532.834c-.495.888-1.073,1.73-1.7,2.731m3.931-6.44h6.042a4.717,4.717,0,0,0,1.171-.024,2.754,2.754,0,0,0,.784-.552,6.948,6.948,0,0,0-.751-.507c-.124-.064-.308-.012-.465-.012H209.77c-1.909,0-3.819-.018-5.727.024-.246.006-.486.327-.728.5a4.943,4.943,0,0,0,.7.554c.141.077.359.015.542.015h6.67m0-8.815h-2.9c-1.438,0-2.876-.02-4.312.022-.234.007-.458.3-.687.454.218.2.427.419.66.6.065.051.2.012.307.012q6.98,0,13.958,0c.422,0,.939.032.956-.542.02-.606-.506-.547-.923-.547q-3.529,0-7.058,0m.039,4.93q3.528,0,7.056,0c.389,0,.876.051.886-.506.01-.6-.5-.562-.916-.579-.079,0-.157,0-.236,0q-6.781,0-13.562,0a2.008,2.008,0,0,0-.77.072.68.68,0,0,0-.37.5.7.7,0,0,0,.4.472,1.823,1.823,0,0,0,.7.044q3.411,0,6.821,0" transform="translate(-158.291 -431.004)" fill="#fff"/>
      <path id="Trazado_204859" data-name="Trazado 204859" d="M154.857,466.829a51.508,51.508,0,0,0,1.64,12.3.74.74,0,0,1-.213.627,2.874,2.874,0,0,0-1.4,3.029c-1.259.535-2.517,1.094-3.8,1.591a.874.874,0,0,1-.7-.258,24.191,24.191,0,0,1-7.005-12.54c-.329-1.544-.469-3.129-.7-4.753Z" transform="translate(-141.182 -439.646)" fill="#fff"/>
      <path id="Trazado_204860" data-name="Trazado 204860" d="M154.878,457.689H142.736c.175-1.415.265-2.79.525-4.133a24.772,24.772,0,0,1,7.007-13.073.927.927,0,0,1,1.276-.2,27.594,27.594,0,0,0,2.75,1.137c.387.141.58.279.608.743a2.753,2.753,0,0,0,1.836,2.416,50.255,50.255,0,0,0-1.859,13.106" transform="translate(-141.199 -431.677)" fill="#fff"/>
      <path id="Trazado_204861" data-name="Trazado 204861" d="M190.186,459.037c-2.889,0-5.735.006-8.582-.016a.69.69,0,0,1-.488-.372,2.984,2.984,0,0,0-1.681-1.659.667.667,0,0,1-.337-.5c-.014-3.766-.006-7.533,0-11.3a.682.682,0,0,1,.076-.186c1.4-.111,2.828-.222,4.253-.336a5.806,5.806,0,0,0,.7-.078c.844-.172,1.593-.305,2.208.632.273.415,1.04.492,1.559.766.255.135.6.33.664.566a44.984,44.984,0,0,1,1.7,12.15,1.915,1.915,0,0,1-.076.329" transform="translate(-152.046 -432.976)" fill="#fff"/>
      <path id="Trazado_204862" data-name="Trazado 204862" d="M161.534,458.817c.121-1.708.138-3.49.4-5.235.351-2.347.9-4.664,1.344-7,.083-.429.3-.6.715-.785a9.116,9.116,0,0,0,1.532-1.143c.185-.138.413-.351.6-.333,2.179.21,4.355.459,6.6.7.01.2.032.455.033.71,0,3.453-.006,6.908.009,10.361a.977.977,0,0,1-.587,1.013,7.483,7.483,0,0,0-1.382,1.415c-.16.166-.351.429-.529.429-2.823.02-5.647,0-8.472-.008-.044,0-.088-.044-.261-.133" transform="translate(-146.807 -432.931)" fill="#fff"/>
      <path id="Trazado_204863" data-name="Trazado 204863" d="M172.516,480.769l-6.646.65a2.9,2.9,0,0,0-2.256-1.969c-.14-.027-.293-.269-.341-.439A46.046,46.046,0,0,1,161.631,467c0-.046.036-.093.076-.187h8.93a2.987,2.987,0,0,0,1.888,2.028c.126.044.229.326.239.5.03.547.025,1.1.008,1.647-.081,2.633-.173,5.266-.253,7.9-.019.625,0,1.251,0,1.875" transform="translate(-146.836 -439.642)" fill="#fff"/>
      <path id="Trazado_204864" data-name="Trazado 204864" d="M174.3,439.789l-6.59-.641c-.307-.664-.561-1.174-.775-1.7a.663.663,0,0,1,.029-.49,14.838,14.838,0,0,1,4.122-5.357,4.065,4.065,0,0,1,3.214-1.036Z" transform="translate(-148.408 -428.813)" fill="#fff"/>
      <path id="Trazado_204865" data-name="Trazado 204865" d="M186.4,436.685c-.344.777-.607,1.416-.914,2.033-.088.177-.29.4-.46.417-1.92.215-3.844.395-5.847.591v-9.415a8.528,8.528,0,0,1,6.774,5.525c.2.336.364.69.447.848" transform="translate(-152.072 -428.751)" fill="#fff"/>
      <path id="Trazado_204866" data-name="Trazado 204866" d="M174.038,488.239v9.4a10.562,10.562,0,0,1-1.885-.563,11.69,11.69,0,0,1-4.45-4.627,4.915,4.915,0,0,0-.5-.881c-.892-.931.03-1.657.25-2.457.022-.079.215-.143.335-.157,2.063-.242,4.126-.476,6.254-.718" transform="translate(-148.384 -446.034)" fill="#fff"/>
      <path id="Trazado_204867" data-name="Trazado 204867" d="M196.589,442.091v3.33c0,2.278-.008,4.556,0,6.835a2.927,2.927,0,0,0,3.134,3.15c.886.012,1.953-.258,2.611.141.723.437,1.071,1.5,1.579,2.285.068.1.119.221.222.417h-8.276c-.074-1.281-.051-2.545-.239-3.776-.45-2.942-.987-5.871-1.525-8.8a.981.981,0,0,1,.324-1.129,2.22,2.22,0,0,0,.791-1.3c.078-.858.537-1.082,1.376-1.153" transform="translate(-156.509 -432.265)" fill="#fff"/>
      <path id="Trazado_204869" data-name="Trazado 204869" d="M196.577,469.456v-2.741c2.112,0,4.166.015,6.219,0a39.765,39.765,0,0,0,6.168-.069c-.083,1.033-.154,1.9-.227,2.814Z" transform="translate(-157.263 -439.59)" fill="#fff"/>
      <path id="Trazado_204870" data-name="Trazado 204870" d="M162.149,492.034l4.093,5.761c-2.049.08-7.961-2.728-10.707-5.266,1.215-.477,2.356-.934,3.507-1.365a.486.486,0,0,1,.413.116,2.746,2.746,0,0,0,2.694.755" transform="translate(-145.017 -446.903)" fill="#fff"/>
      <path id="Trazado_204871" data-name="Trazado 204871" d="M190.185,466.747v2.787H189.3c-2.561,0-5.121-.014-7.682.008-.822.007-1.643.109-2.512.171-.162-.467-.006-.768.578-1.091a7.011,7.011,0,0,0,1.383-1.414c.159-.166.343-.439.519-.441,2.843-.028,5.686-.02,8.6-.02" transform="translate(-152.033 -439.622)" fill="#fff"/>
      <path id="Trazado_204872" data-name="Trazado 204872" d="M155.467,436.59a24.592,24.592,0,0,1,10.807-5.293l-3.975,5.47a2.787,2.787,0,0,0-3.117,1.007.53.53,0,0,1-.477.09c-1.041-.391-2.072-.81-3.237-1.273" transform="translate(-144.997 -429.045)" fill="#fff"/>
      <path id="Trazado_204873" data-name="Trazado 204873" d="M185.384,431.32a21.669,21.669,0,0,1,9.164,3.877,11.45,11.45,0,0,1-.584,2.12c-.16.33-.687.52-1.085.679a.712.712,0,0,1-.631-.2,2.855,2.855,0,0,0-2.528-1.146.693.693,0,0,1-.531-.307,18.094,18.094,0,0,0-3.8-5.021" transform="translate(-153.923 -429.051)" fill="#fff"/>
      <path id="Trazado_204874" data-name="Trazado 204874" d="M163.2,443.734a1.622,1.622,0,1,1,1.654-1.644,1.656,1.656,0,0,1-1.654,1.644" transform="translate(-146.826 -431.788)" fill="#fff"/>
      <path id="Trazado_204875" data-name="Trazado 204875" d="M163.263,489.591a1.608,1.608,0,1,1-.078-3.214,1.608,1.608,0,1,1,.078,3.214" transform="translate(-146.827 -445.479)" fill="#fff"/>
      <path id="Trazado_204876" data-name="Trazado 204876" d="M192.927,442.127a1.611,1.611,0,1,1-1.552-1.627,1.585,1.585,0,0,1,1.552,1.627" transform="translate(-155.213 -431.79)" fill="#fff"/>
      <path id="Trazado_204877" data-name="Trazado 204877" d="M177.729,463.715a1.587,1.587,0,0,1,1.531,1.652,1.627,1.627,0,1,1-1.531-1.652" transform="translate(-151.125 -438.716)" fill="#fff"/>
      <path id="Trazado_204878" data-name="Trazado 204878" d="M213.626,464.47h-1.343c.384-.625.712-1.156,1.039-1.686l.17.012c.044.547.088,1.094.133,1.674" transform="translate(-161.949 -438.439)" fill="#fff"/>
      <path id="Trazado_204879" data-name="Trazado 204879" d="M200.72,498.435q-8.834,0-17.669,0c-1.105,0-1.146-.043-1.146-1.149q0-10.37,0-20.74c0-1.069.044-1.112,1.1-1.113q17.786,0,35.572,0c1.007,0,1.071.065,1.071,1.071q0,10.449,0,20.9c0,.952-.075,1.031-1.029,1.032q-8.952,0-17.9,0m-17.692-1.123H218.5V476.554H183.028Z" transform="translate(-152.885 -442.213)" fill="#084a93"/>
      <path id="Trazado_204880" data-name="Trazado 204880" d="M212.628,454.128h-6.67c-.183,0-.4.063-.542-.015a4.938,4.938,0,0,1-.7-.554c.243-.175.482-.5.728-.5,1.908-.042,3.818-.024,5.727-.024h8.239c.157,0,.341-.053.465.011a6.972,6.972,0,0,1,.751.508,2.753,2.753,0,0,1-.784.551,4.748,4.748,0,0,1-1.171.024h-6.042" transform="translate(-159.691 -435.524)" fill="#084a93"/>
      <path id="Trazado_204881" data-name="Trazado 204881" d="M212.629,442.037q3.529,0,7.058,0c.418,0,.943-.059.924.547-.018.575-.535.542-.956.542q-6.98,0-13.959,0c-.1,0-.242.039-.307-.012-.233-.185-.442-.4-.66-.6.229-.159.454-.447.687-.454,1.437-.043,2.875-.022,4.313-.022h2.9" transform="translate(-159.695 -432.247)" fill="#084a93"/>
      <path id="Trazado_204882" data-name="Trazado 204882" d="M212.681,448.6q-3.41,0-6.821,0a1.838,1.838,0,0,1-.7-.044.7.7,0,0,1-.4-.472.682.682,0,0,1,.37-.5,2.037,2.037,0,0,1,.77-.072q6.781,0,13.562,0c.079,0,.157,0,.236,0,.42.017.927-.02.916.578-.01.557-.5.506-.886.507q-3.528,0-7.056,0" transform="translate(-159.707 -433.884)" fill="#084a93"/>
      <rect id="Rect치ngulo_297309" data-name="Rect치ngulo 297309" width="35.471" height="20.759" transform="translate(30.143 34.341)" fill="#fff"/>
    </g>
    <g id="Grupo_149310" data-name="Grupo 149310" transform="translate(927 8250)">
      <path id="Trazado_204889" data-name="Trazado 204889" d="M496.4,520.194a7.365,7.365,0,0,0,3.935-2.419c5.513-5.556,11.062-11.074,16.586-16.62a.636.636,0,0,1,.934-.117,22.078,22.078,0,1,0-10.79-23.289,21.784,21.784,0,0,0,2.451,14.928c.076.137.154.274.227.412a.955.955,0,0,0,.187.264,2.8,2.8,0,0,0-.557.342q-8.247,8.23-16.492,16.463a7.516,7.516,0,0,0-2.5,4.018v1.416c.046.169.093.337.138.506a5.272,5.272,0,0,0,3.452,3.806c.329.12.674.195,1.013.29Zm32.335-20.063a18.292,18.292,0,1,1,18.289-18.32,18.288,18.288,0,0,1-18.289,18.32m-19.356,3.226c-.07.078-.12.138-.175.193q-6.13,6.132-12.263,12.261a2.42,2.42,0,0,1-.453.372,1.524,1.524,0,0,1-2.316-1.12,1.714,1.714,0,0,1,.615-1.461q6.073-6.063,12.14-12.133a3.216,3.216,0,0,1,.289-.239l2.163,2.127M512,496.484l2.038,2.047-1.927,1.948-2.053-2.041L512,496.484" transform="translate(-490.379 -459.766)" fill="#084a93"/>
      <path id="Trazado_204890" data-name="Trazado 204890" d="M541.872,502.606a18.292,18.292,0,1,0-18.286-18.265,18.291,18.291,0,0,0,18.286,18.265m-.721-33.76a16.443,16.443,0,0,1,6.539,1.142,1.854,1.854,0,0,1,1.257,1.632,1.906,1.906,0,0,1-2.575,1.922,19.3,19.3,0,0,0-3.885-.87,11.285,11.285,0,0,0-8.784,3.287,1.876,1.876,0,0,1-2.783.064,1.918,1.918,0,0,1,.207-2.822,15.029,15.029,0,0,1,10.023-4.355" transform="translate(-503.518 -462.241)" fill="#fff"/>
      <path id="Trazado_204891" data-name="Trazado 204891" d="M511.852,530.5l-2.164-2.127a3.228,3.228,0,0,0-.288.239q-6.071,6.065-12.14,12.132a1.716,1.716,0,0,0-.615,1.462,1.524,1.524,0,0,0,2.316,1.12,2.423,2.423,0,0,0,.453-.372q6.134-6.128,12.263-12.261c.055-.055.105-.115.175-.193" transform="translate(-492.854 -486.913)" fill="#fff"/>
      <path id="Trazado_204892" data-name="Trazado 204892" d="M524.876,520.524l-1.942,1.954,2.053,2.041,1.927-1.948-2.038-2.047" transform="translate(-503.26 -483.806)" fill="#fff"/>
      <path id="Trazado_204893" data-name="Trazado 204893" d="M545.608,470.695a15.029,15.029,0,0,0-10.023,4.355,1.918,1.918,0,0,0-.207,2.822,1.876,1.876,0,0,0,2.783-.064,11.285,11.285,0,0,1,8.784-3.287,19.3,19.3,0,0,1,3.885.87,1.906,1.906,0,0,0,2.575-1.922,1.854,1.854,0,0,0-1.257-1.632,16.443,16.443,0,0,0-6.539-1.142" transform="translate(-507.976 -464.09)" fill="#084a93"/>
    </g>
    <g id="Grupo_149311" data-name="Grupo 149311" transform="translate(1070 8351)">
      <path id="Trazado_204894" data-name="Trazado 204894" d="M2.909,70.075A3.6,3.6,0,0,1,.075,67.014a20.121,20.121,0,0,1-.039-2.461c0-.89-.055-1.784.02-2.668A4.116,4.116,0,0,1,.522,60.2a1.1,1.1,0,0,0-.013-1.313,3.983,3.983,0,0,1-.454-1.754,40.169,40.169,0,0,1,.008-4.378,12.682,12.682,0,0,1,.6-2.2,1.461,1.461,0,0,0,0-.7,11.931,11.931,0,0,1-.6-2.129c-.1-1.454-.035-2.919-.027-4.379a3.493,3.493,0,0,1,3.6-3.653q11.6-.018,23.2,0a3.488,3.488,0,0,1,3.57,3.548c.022,1.528.065,3.061-.024,4.584a8.951,8.951,0,0,1-.591,2c-.055.179-.215.44-.148.527a4.617,4.617,0,0,1,.752,3.309h3.466V36.2h-.9q-7.972,0-15.945,0A10.648,10.648,0,0,1,7.6,31.211a10.82,10.82,0,0,1,6.35-16.3,1.407,1.407,0,0,0,.794-.6,9.467,9.467,0,0,1,6.715-4.923.961.961,0,0,0,.839-.782C23.845,3.866,27.08.915,32,.165,37.042-.6,41.049,1.338,43.944,5.538c.222.322.374.548.848.449a10.464,10.464,0,0,1,12.7,8.866.849.849,0,0,0,.559.741,10.8,10.8,0,0,1-3.058,20.485,13.6,13.6,0,0,1-1.979.118q-7.938.014-15.877,0H36.29V53.679h3.48a6.416,6.416,0,0,1,.024-1.547c.172-.669.717-1.293.722-1.939.006-.618-.67-1.23-.7-1.864a42.335,42.335,0,0,1,0-5.6A3.329,3.329,0,0,1,43.226,39.7q11.7-.028,23.4,0a3.47,3.47,0,0,1,3.333,2.481c.043.127.1.249.151.374v6.023c-.247.476-.5.947-.731,1.432a.554.554,0,0,0,.009.414c.225.487.478.961.721,1.439v6.023l-.8,1.684.8,1.6V67.2a3.931,3.931,0,0,1-2.875,2.875H42.6c-2.3-.948-2.864-1.8-2.864-4.364,0-.911-.011-1.823,0-2.734a7.957,7.957,0,0,1,.109-1.763c.143-.578.671-1.111.67-1.662s-.524-1.087-.677-1.667a10.263,10.263,0,0,1-.159-1.78H30.459a1.69,1.69,0,0,0-.044.292,4.434,4.434,0,0,1-.746,2.985c-.073.1.03.353.093.52a5.1,5.1,0,0,1,.561,1.441,53.116,53.116,0,0,1-.008,5.8c-.121,1.608-1.306,2.462-2.768,2.936ZM17.366,14.523c1.015.238,1.974.42,2.906.694a1.1,1.1,0,0,1,.733,1.419,1.139,1.139,0,0,1-1.456.771c-.154-.039-.3-.1-.457-.14A8.2,8.2,0,0,0,10.61,19.5a8.13,8.13,0,0,0-1.944,8.609,8.354,8.354,0,0,0,8.207,5.747q18.166.015,36.333,0c.341,0,.684-.022,1.025-.044a8.481,8.481,0,0,0,7.6-9.7,8.3,8.3,0,0,0-5.493-6.687,1.481,1.481,0,0,1-1.107-1.519,5.182,5.182,0,0,0-.093-1.02,7.978,7.978,0,0,0-5.646-6.446A7.779,7.779,0,0,0,41.259,10.5c-.638.622-1.291.694-1.8.2a1.169,1.169,0,0,1,.179-1.846c.756-.682,1.573-1.3,2.4-1.97-.04-.067-.1-.182-.174-.292A9.672,9.672,0,0,0,30.2,3.037a9.507,9.507,0,0,0-5.925,7.251c-.191.921-.463,1.181-1.406,1.274-.2.02-.41.025-.613.054a7.1,7.1,0,0,0-4.884,2.908M54.938,51.38q-5.679,0-11.358,0c-1.094,0-1.5.409-1.507,1.478-.007,1.369-.009,2.737,0,4.106.007.988.434,1.433,1.419,1.434q11.427.011,22.853,0c1.024,0,1.43-.438,1.434-1.484.006-1.277,0-2.555,0-3.832,0-1.362-.336-1.7-1.69-1.7q-5.576,0-11.153,0m-39.731,0q-5.678,0-11.358,0c-1.085,0-1.478.411-1.482,1.5q-.006,2.018,0,4.037c0,1.048.409,1.482,1.435,1.483q11.426.008,22.852,0c.984,0,1.411-.447,1.419-1.435.01-1.277,0-2.555,0-3.832,0-1.432-.325-1.752-1.785-1.753H15.207m-.039-2.343q5.714,0,11.426,0c1.083,0,1.476-.4,1.481-1.495q.009-1.985,0-3.969c0-1.126-.409-1.542-1.519-1.543q-11.323,0-22.647,0c-1.157,0-1.541.4-1.543,1.58q0,1.882,0,3.764c0,1.327.332,1.665,1.648,1.665q5.576,0,11.152,0m39.764,0q5.679,0,11.358,0c1.1,0,1.488-.4,1.491-1.479,0-1.369.008-2.738,0-4.106-.006-.989-.432-1.42-1.427-1.421q-11.426-.006-22.852,0c-.989,0-1.418.436-1.426,1.425-.011,1.323,0,2.646,0,3.969,0,1.259.359,1.612,1.639,1.613q5.61,0,11.22,0m-39.7,11.7q-5.611,0-11.221,0c-1.309,0-1.638.338-1.639,1.672,0,1.3-.006,2.6,0,3.9.006.994.428,1.427,1.416,1.427q11.426.006,22.852,0c1.017,0,1.434-.433,1.439-1.479.007-1.323,0-2.646,0-3.969,0-1.174-.38-1.55-1.56-1.551q-5.645,0-11.289,0m39.764,0q-5.748,0-11.494,0c-1,0-1.415.415-1.422,1.411q-.015,2.087,0,4.174c.007.984.441,1.411,1.435,1.412q11.426.005,22.852,0c.987,0,1.411-.433,1.418-1.425.008-1.277,0-2.555,0-3.832,0-1.427-.307-1.742-1.707-1.742H54.991" transform="translate(0 0)" fill="#084a93"/>
      <path id="Trazado_204895" data-name="Trazado 204895" d="M20.858,15.511A7.1,7.1,0,0,1,25.742,12.6c.2-.028.409-.034.613-.054.942-.092,1.214-.353,1.405-1.274a9.509,9.509,0,0,1,5.925-7.251A9.674,9.674,0,0,1,45.352,7.574c.072.109.134.225.173.292-.828.674-1.646,1.287-2.4,1.969a1.17,1.17,0,0,0-.179,1.846c.515.5,1.167.426,1.805-.2a7.776,7.776,0,0,1,8.234-2.059,7.977,7.977,0,0,1,5.646,6.446,5.181,5.181,0,0,1,.093,1.02,1.481,1.481,0,0,0,1.107,1.519A8.3,8.3,0,0,1,65.323,25.1a8.48,8.48,0,0,1-7.6,9.7c-.341.022-.684.044-1.025.044q-18.166,0-36.332,0a8.356,8.356,0,0,1-8.207-5.747A8.13,8.13,0,0,1,14.1,20.485a8.2,8.2,0,0,1,8.481-2.229c.155.04.3.1.457.139a1.138,1.138,0,0,0,1.456-.771,1.1,1.1,0,0,0-.733-1.419c-.932-.274-1.89-.456-2.9-.694" transform="translate(-3.49 -0.988)" fill="#fff"/>
      <path id="Trazado_204896" data-name="Trazado 204896" d="M72.871,73.281q5.576,0,11.152,0c1.355,0,1.69.341,1.69,1.7,0,1.277,0,2.554,0,3.832,0,1.048-.409,1.484-1.434,1.484q-11.427.009-22.853,0c-.985,0-1.413-.447-1.42-1.434-.009-1.369-.007-2.737,0-4.106.006-1.069.413-1.477,1.507-1.478q5.679-.011,11.358,0m-6.964,2.347v0h-2.12c-.046,0-.092,0-.137,0a1.205,1.205,0,0,0-1.3,1.125,1.189,1.189,0,0,0,1.293,1.2q2.223.034,4.446,0a1.164,1.164,0,1,0,.007-2.323c-.729-.023-1.46,0-2.189,0m16.275.013a1.128,1.128,0,0,0-1.126,1.192A1.157,1.157,0,0,0,82.2,77.952a1.186,1.186,0,0,0,1.174-1.171,1.156,1.156,0,0,0-1.192-1.139" transform="translate(-17.932 -21.901)" fill="#fff"/>
      <path id="Trazado_204897" data-name="Trazado 204897" d="M16.216,73.281q5.541,0,11.084,0c1.46,0,1.784.32,1.785,1.752,0,1.277.007,2.555,0,3.832-.008.988-.435,1.435-1.418,1.435q-11.427.011-22.853,0c-1.026,0-1.43-.435-1.435-1.482q-.008-2.019,0-4.038c0-1.087.4-1.5,1.482-1.5q5.678-.011,11.358,0M9.251,75.629c-.752,0-1.505-.017-2.258,0a1.165,1.165,0,1,0-.036,2.322q2.257.041,4.515,0a1.164,1.164,0,1,0-.032-2.322c-.729-.021-1.46,0-2.19,0m16.343.011a1.122,1.122,0,0,0-1.17,1.146,1.145,1.145,0,0,0,1.093,1.162,1.184,1.184,0,0,0,1.221-1.12,1.161,1.161,0,0,0-1.145-1.188" transform="translate(-1.008 -21.901)" fill="#fff"/>
      <path id="Trazado_204898" data-name="Trazado 204898" d="M16.177,66.954q-5.576,0-11.153,0c-1.317,0-1.648-.338-1.648-1.665q0-1.882,0-3.764c0-1.181.386-1.579,1.543-1.58q11.324,0,22.647,0c1.109,0,1.514.416,1.518,1.542q.007,1.985,0,3.969c0,1.09-.4,1.493-1.481,1.5q-5.713.008-11.426,0m-7-2.342c.773,0,1.545.016,2.317,0a1.156,1.156,0,1,0,.077-2.31q-2.351-.053-4.7,0a1.156,1.156,0,1,0,.06,2.311c.749.021,1.5,0,2.249,0m17.561-1.14a1.2,1.2,0,0,0-1.167-1.183,1.159,1.159,0,0,0-1.147,1.117,1.117,1.117,0,0,0,1.115,1.2,1.161,1.161,0,0,0,1.2-1.132" transform="translate(-1.008 -17.915)" fill="#fff"/>
      <path id="Trazado_204899" data-name="Trazado 204899" d="M72.864,66.953q-5.611,0-11.221,0c-1.28,0-1.636-.354-1.639-1.613,0-1.323-.008-2.646,0-3.969.008-.989.436-1.424,1.426-1.425q11.426-.007,22.852,0c.994,0,1.421.432,1.426,1.421.008,1.368.006,2.737,0,4.106,0,1.082-.4,1.477-1.491,1.479q-5.679.008-11.358,0m-7.005-2.341c.752,0,1.505.015,2.258,0a1.122,1.122,0,0,0,1.22-1.108,1.134,1.134,0,0,0-1.2-1.21q-2.292-.041-4.584,0a1.161,1.161,0,1,0,.048,2.317c.752.018,1.505,0,2.258,0m17.516-1.185a1.2,1.2,0,0,0-1.214-1.137,1.169,1.169,0,0,0-1.105,1.229,1.124,1.124,0,0,0,1.162,1.086,1.162,1.162,0,0,0,1.156-1.179" transform="translate(-17.932 -17.914)" fill="#fff"/>
      <path id="Trazado_204900" data-name="Trazado 204900" d="M16.235,86.633q5.645,0,11.289,0c1.181,0,1.557.377,1.56,1.551,0,1.322.006,2.645,0,3.968-.006,1.045-.421,1.479-1.439,1.479q-11.427.006-22.852,0c-.987,0-1.409-.433-1.415-1.427-.008-1.3,0-2.6,0-3.9,0-1.333.33-1.67,1.639-1.671q5.611,0,11.221,0M9.263,88.97c-.773,0-1.545-.013-2.317,0a1.16,1.16,0,1,0-.025,2.317c1.545.025,3.091.027,4.635,0a1.157,1.157,0,1,0-.044-2.314c-.749-.019-1.5,0-2.249,0m16.323,2.325a1.2,1.2,0,0,0,1.152-1.2,1.17,1.17,0,0,0-1.216-1.12,1.12,1.12,0,0,0-1.1,1.148,1.159,1.159,0,0,0,1.163,1.171" transform="translate(-1.008 -25.891)" fill="#fff"/>
      <path id="Trazado_204901" data-name="Trazado 204901" d="M72.922,86.633H84.007c1.4,0,1.707.315,1.707,1.742,0,1.277.006,2.555,0,3.832-.006.992-.43,1.425-1.418,1.425q-11.426.005-22.852,0c-.994,0-1.427-.428-1.435-1.412q-.017-2.087,0-4.174c.007-1,.422-1.41,1.422-1.411q5.748-.007,11.494,0M65.85,88.97c-.753,0-1.506-.013-2.258,0a1.161,1.161,0,1,0-.032,2.318q2.292.038,4.585,0a1.161,1.161,0,1,0-.036-2.319c-.752-.015-1.505,0-2.258,0m16.378,0a1.131,1.131,0,0,0-1.174,1.147A1.171,1.171,0,0,0,82.217,91.3a1.206,1.206,0,0,0,1.155-1.13,1.169,1.169,0,0,0-1.145-1.192" transform="translate(-17.931 -25.891)" fill="#fff"/>
      <path id="Trazado_204902" data-name="Trazado 204902" d="M66.908,76.627c.73,0,1.46-.018,2.189,0a1.164,1.164,0,1,1-.007,2.323q-2.222.038-4.446,0a1.189,1.189,0,0,1-1.293-1.2,1.206,1.206,0,0,1,1.3-1.125c.045,0,.091,0,.137,0h2.12Z" transform="translate(-18.933 -22.899)" fill="#084a93"/>
      <path id="Trazado_204903" data-name="Trazado 204903" d="M91.156,76.648a1.156,1.156,0,0,1,1.192,1.139,1.186,1.186,0,0,1-1.174,1.171A1.157,1.157,0,0,1,90.03,77.84a1.128,1.128,0,0,1,1.126-1.192" transform="translate(-26.906 -22.907)" fill="#084a93"/>
      <path id="Trazado_204904" data-name="Trazado 204904" d="M10.249,76.626c.73,0,1.46-.018,2.19,0a1.164,1.164,0,1,1,.032,2.322q-2.257.042-4.515,0a1.165,1.165,0,1,1,.036-2.321c.752-.021,1.505,0,2.258,0" transform="translate(-2.006 -22.899)" fill="#084a93"/>
      <path id="Trazado_204905" data-name="Trazado 204905" d="M34.567,76.646a1.161,1.161,0,0,1,1.145,1.188,1.185,1.185,0,0,1-1.221,1.12A1.145,1.145,0,0,1,33.4,77.792a1.122,1.122,0,0,1,1.17-1.146" transform="translate(-9.981 -22.906)" fill="#084a93"/>
      <path id="Trazado_204906" data-name="Trazado 204906" d="M10.177,65.6c-.75,0-1.5.017-2.249,0a1.156,1.156,0,1,1-.059-2.31q2.351-.05,4.7,0a1.157,1.157,0,1,1-.076,2.312c-.772.02-1.545,0-2.317,0" transform="translate(-2.006 -18.907)" fill="#084a93"/>
      <path id="Trazado_204907" data-name="Trazado 204907" d="M35.711,64.472a1.161,1.161,0,0,1-1.2,1.132,1.117,1.117,0,0,1-1.115-1.2,1.159,1.159,0,0,1,1.147-1.117,1.2,1.2,0,0,1,1.167,1.183" transform="translate(-9.98 -18.915)" fill="#084a93"/>
      <path id="Trazado_204908" data-name="Trazado 204908" d="M66.86,65.6c-.752,0-1.505.015-2.258,0a1.161,1.161,0,1,1-.048-2.317q2.292-.043,4.584,0a1.16,1.16,0,1,1-.02,2.318c-.752.019-1.505,0-2.258,0" transform="translate(-18.933 -18.906)" fill="#084a93"/>
      <path id="Trazado_204909" data-name="Trazado 204909" d="M92.349,64.427a1.162,1.162,0,0,1-1.156,1.179A1.124,1.124,0,0,1,90.03,64.52a1.169,1.169,0,0,1,1.1-1.229,1.2,1.2,0,0,1,1.214,1.137" transform="translate(-26.906 -18.915)" fill="#084a93"/>
      <path id="Trazado_204910" data-name="Trazado 204910" d="M10.261,89.964c.75,0,1.5-.015,2.249,0a1.157,1.157,0,1,1,.043,2.313c-1.544.03-3.09.027-4.635,0a1.161,1.161,0,1,1,.024-2.318c.773-.017,1.545,0,2.318,0" transform="translate(-2.006 -26.885)" fill="#084a93"/>
      <path id="Trazado_204911" data-name="Trazado 204911" d="M34.559,92.293A1.159,1.159,0,0,1,33.4,91.122a1.12,1.12,0,0,1,1.1-1.148,1.17,1.17,0,0,1,1.216,1.12,1.2,1.2,0,0,1-1.152,1.2" transform="translate(-9.981 -26.889)" fill="#084a93"/>
      <path id="Trazado_204912" data-name="Trazado 204912" d="M66.852,89.964c.753,0,1.506-.013,2.258,0a1.16,1.16,0,1,1,.036,2.318q-2.292.039-4.585,0a1.161,1.161,0,1,1,.032-2.319c.752-.015,1.505,0,2.258,0" transform="translate(-18.933 -26.885)" fill="#084a93"/>
      <path id="Trazado_204913" data-name="Trazado 204913" d="M91.2,89.971a1.169,1.169,0,0,1,1.145,1.192,1.206,1.206,0,0,1-1.155,1.13,1.171,1.171,0,0,1-1.164-1.175A1.131,1.131,0,0,1,91.2,89.971" transform="translate(-26.906 -26.889)" fill="#084a93"/>
    </g>
    <g id="Grupo_149312" data-name="Grupo 149312" transform="translate(1217 8245)">
      <path id="Trazado_204805" data-name="Trazado 204805" d="M502.846,707.547c-2.221-.91-3.175-2.309-2.845-4.038a3.4,3.4,0,0,1,6.688-.087c.366,1.671-.538,3.162-2.45,3.992,1.045.117,2.065.17,3.061.355a15.4,15.4,0,0,1,11.2,8.183,1.017,1.017,0,0,0,1.167.661,11.348,11.348,0,0,1,10.906,6.357l.262.543a24.865,24.865,0,0,1,3.392.023,7.909,7.909,0,0,1-.008,15.59,12.3,12.3,0,0,1-1.833.134q-8.366.015-16.734.006h-.833a1.491,1.491,0,0,0,.788,1.731A3.726,3.726,0,0,1,518,743.512c.034.124.248.238.4.28a2.19,2.19,0,0,0,.565.012h25.208v4.5h5.653V764.19H536.31V748.353h5.583v-2.229H528.357v2.18h5.58v15.883H520.429v-15.83h5.579v-2.22a2.321,2.321,0,0,0-.383-.06c-2.34,0-4.68,0-7.02-.011a.584.584,0,0,0-.687.5,3.362,3.362,0,0,1-1.993,2.17,1.667,1.667,0,0,0-1.008,2.391,3.51,3.51,0,0,1-.752,3.868c-1.026,1.126-2.147,2.018-3.8,1.732a4.728,4.728,0,0,1-.879-.257,1.663,1.663,0,0,0-2.3.97,3.47,3.47,0,0,1-3.373,2.249c-.307,0-.615.006-.922,0a3.48,3.48,0,0,1-3.335-2.2,1.659,1.659,0,0,0-2.341-1,3.472,3.472,0,0,1-3.923-.758c-.224-.21-.439-.431-.652-.652a3.487,3.487,0,0,1-.8-4.033,1.642,1.642,0,0,0-.93-2.265,3.491,3.491,0,0,1-2.291-3.486c0-.26,0-.52,0-.78a3.406,3.406,0,0,1,2.231-3.378,1.938,1.938,0,0,0,1.181-1.869c-.823,0-1.592.006-2.361,0a10.195,10.195,0,0,1-1.363-20.286,1.442,1.442,0,0,0,1.334-1.1,15.509,15.509,0,0,1,12.9-10.251c.066-.011.131-.031.314-.075m13.748,9.621c-.14-.256-.277-.527-.432-.786a13.589,13.589,0,0,0-24.862,3.7c-.262,1.057-.262,1.057-1.361,1.037a7.987,7.987,0,0,0-8.135,7.6c-.177,4.451,3.486,9.054,9.745,8.2a4.38,4.38,0,0,1,1.659-2.695,3.5,3.5,0,0,1,4.032-.816,1.652,1.652,0,0,0,2.3-.979,3.473,3.473,0,0,1,3.38-2.237c.33,0,.662-.011.992,0a3.45,3.45,0,0,1,3.229,2.145,1.672,1.672,0,0,0,2.436,1.024,3.411,3.411,0,0,1,3.7.656,4.568,4.568,0,0,1,1.9,2.909,1.027,1.027,0,0,0,.2.06c5.954,0,11.91.067,17.864-.028a5.648,5.648,0,1,0-1.436-11.18,22.243,22.243,0,0,0-2.4.773,9.224,9.224,0,0,0-5.35-6.9,8.993,8.993,0,0,0-8.737.7l-1.266-1.9,2.546-1.278m-5.8,37.343a2.268,2.268,0,0,0,1.95-2.7,3.867,3.867,0,0,1,2.143-5.1,1.546,1.546,0,0,0,.962-1.694c-.009-.791-.042-1.477-.934-1.853a3.838,3.838,0,0,1-2.144-5.142,2.124,2.124,0,0,0-2.51-2.5,3.85,3.85,0,0,1-5.144-2.149,1.325,1.325,0,0,0-1.355-.92c-.26.007-.52.008-.78,0a1.322,1.322,0,0,0-1.371.894,3.907,3.907,0,0,1-5.2,2.182,1.709,1.709,0,0,0-1.019-.078,2.153,2.153,0,0,0-1.341,2.8,3.866,3.866,0,0,1-2.023,4.809,1.779,1.779,0,0,0-1.164,2,1.638,1.638,0,0,0,1.135,1.727,3.82,3.82,0,0,1,2.023,4.854,1.692,1.692,0,0,0,.453,2.084,1.768,1.768,0,0,0,2.186.555,3.787,3.787,0,0,1,4.846,2.025,1.747,1.747,0,0,0,1.946,1.131,1.637,1.637,0,0,0,1.751-1.1,3.864,3.864,0,0,1,4.905-2.059c.262.1.532.181.689.233m11.882,7.4h8.988V750.65h-8.988Zm24.877-11.239h-8.989v11.258h8.989Zm-43.066-46.575a1.128,1.128,0,1,0-1.132,1.126,1.14,1.14,0,0,0,1.132-1.126" transform="translate(-479.534 -693.882)" fill="#084a93"/>
      <path id="Trazado_204806" data-name="Trazado 204806" d="M533.98,715.227h-2.269v-.755q0-3.4,0-6.807c0-1.105-.38-1.48-1.5-1.481q-3.935,0-7.869,0h-.8v-2.27h.656c2.717,0,5.435,0,8.152,0a3.4,3.4,0,0,1,3.629,3.644c.006,2.529,0,5.057,0,7.669" transform="translate(-492.007 -694.839)" fill="#084a93"/>
      <path id="Trazado_204807" data-name="Trazado 204807" d="M539.283,696.482v-2.175c2.789-.4,4.5,1.054,4.5,3.78q0,6.736,0,13.473v.8h-2.269V698.278c0-1.493-.258-1.751-1.773-1.775-.138,0-.276-.013-.46-.022" transform="translate(-497.274 -691.967)" fill="#084a93"/>
      <path id="Trazado_204808" data-name="Trazado 204808" d="M529.743,697.81a3.4,3.4,0,1,1,3.386-3.383,3.417,3.417,0,0,1-3.386,3.383m.04-4.531a1.131,1.131,0,1,0,1.074,1.184,1.146,1.146,0,0,0-1.074-1.184" transform="translate(-493.428 -691.007)" fill="#084a93"/>
      <path id="Trazado_204809" data-name="Trazado 204809" d="M555.72,707.351a3.4,3.4,0,1,1-3.333-3.434,3.418,3.418,0,0,1,3.333,3.434m-2.272-.056a1.129,1.129,0,1,0-1.1,1.153,1.142,1.142,0,0,0,1.1-1.153" transform="translate(-500.135 -694.84)" fill="#084a93"/>
      <path id="Trazado_204810" data-name="Trazado 204810" d="M575.082,717a3.4,3.4,0,1,1-3.371-3.4,3.418,3.418,0,0,1,3.371,3.4m-2.272.03a1.129,1.129,0,1,0-1.152,1.105,1.143,1.143,0,0,0,1.152-1.105" transform="translate(-505.884 -697.715)" fill="#084a93"/>
      <path id="Trazado_204811" data-name="Trazado 204811" d="M560.837,725.867h-2.215c0-2.06-.094-4.091.03-6.109a3.277,3.277,0,0,1,3.224-2.928c.394-.016.791,0,1.221,0v2.266c-.293,0-.589,0-.884,0-.927.017-1.341.42-1.346,1.345-.01,1.678,0,3.356,0,5.034,0,.115-.013.229-.024.393" transform="translate(-503.006 -698.672)" fill="#084a93"/>
      <rect id="Rect치ngulo_297300" data-name="Rect치ngulo 297300" width="2.183" height="8.988" transform="translate(51.099 18.185)" fill="#084a93"/>
      <path id="Trazado_204812" data-name="Trazado 204812" d="M517.551,721,515,722.278l1.266,1.9a8.995,8.995,0,0,1,8.737-.7,9.224,9.224,0,0,1,5.35,6.9,22.126,22.126,0,0,1,2.4-.772,5.648,5.648,0,1,1,1.436,11.18c-5.954.094-11.91.028-17.865.028a.987.987,0,0,1-.2-.06,4.572,4.572,0,0,0-1.9-2.909,3.413,3.413,0,0,0-3.7-.656,1.672,1.672,0,0,1-2.437-1.024,3.449,3.449,0,0,0-3.228-2.145c-.33-.012-.662-.006-.992,0a3.474,3.474,0,0,0-3.38,2.238,1.651,1.651,0,0,1-2.3.979,3.5,3.5,0,0,0-4.031.816,4.377,4.377,0,0,0-1.659,2.695c-6.259.85-9.922-3.754-9.745-8.2a7.987,7.987,0,0,1,8.135-7.6c1.1.021,1.1.021,1.361-1.036a13.589,13.589,0,0,1,24.862-3.7c.155.259.292.53.432.786m-20.226,2.019c2.66-4.233,6.378-5.669,11.169-4.432.243-.7.475-1.355.7-2.01-5.242-2.11-11.752.738-13.739,5.477l1.866.965m1.313,5.39a3.4,3.4,0,1,0-3.428,3.34,3.417,3.417,0,0,0,3.428-3.34m9.075-.047a3.4,3.4,0,1,0-3.381,3.387,3.417,3.417,0,0,0,3.381-3.387m5.7,3.387a3.4,3.4,0,1,0-3.425-3.414,3.417,3.417,0,0,0,3.425,3.414m-22.746,6.783v-2.208a3.542,3.542,0,0,1-3.416-3.383h-2.2a5.632,5.632,0,0,0,5.612,5.59m40.908.011c.892,0,1.74.058,2.578-.012a3.294,3.294,0,0,0,3.006-3.345H535c-.364.946-.584,1.1-1.571,1.1-.606,0-1.213,0-1.85,0Zm-17.626-18.934-2.171-1.872-1.251,1.887,1.722,1.5,1.7-1.514m13.069,18.9h2.2v-2.166h-2.2Z" transform="translate(-480.491 -697.713)" fill="#fff"/>
      <path id="Trazado_204813" data-name="Trazado 204813" d="M515.573,767.926c-.157-.053-.427-.134-.69-.233a3.864,3.864,0,0,0-4.905,2.059,1.637,1.637,0,0,1-1.751,1.1,1.746,1.746,0,0,1-1.946-1.131,3.786,3.786,0,0,0-4.846-2.025,1.768,1.768,0,0,1-2.187-.555,1.691,1.691,0,0,1-.452-2.084,3.821,3.821,0,0,0-2.023-4.854,1.638,1.638,0,0,1-1.135-1.728,1.78,1.78,0,0,1,1.164-2,3.866,3.866,0,0,0,2.024-4.808,2.154,2.154,0,0,1,1.341-2.8,1.722,1.722,0,0,1,1.019.078,3.907,3.907,0,0,0,5.2-2.182,1.323,1.323,0,0,1,1.371-.894c.259.008.52.008.779,0a1.327,1.327,0,0,1,1.356.92,3.85,3.85,0,0,0,5.144,2.149,2.125,2.125,0,0,1,2.51,2.5,3.838,3.838,0,0,0,2.144,5.142c.894.377.926,1.062.934,1.853a1.545,1.545,0,0,1-.962,1.694,3.868,3.868,0,0,0-2.142,5.1,2.267,2.267,0,0,1-1.95,2.7m-7.4-17.513a7.94,7.94,0,1,0,7.9,7.974,7.963,7.963,0,0,0-7.9-7.974" transform="translate(-484.316 -707.297)" fill="#fff"/>
      <path id="Trazado_204814" data-name="Trazado 204814" d="M540.89,771.749h8.988v11.257H540.89Zm2.271,4.451h4.449v-2.184h-4.449Zm4.474,2.369h-4.449v2.181h4.449Z" transform="translate(-497.752 -714.98)" fill="#fff"/>
      <path id="Trazado_204815" data-name="Trazado 204815" d="M572.478,783.034h-8.989V771.775h8.989Zm-2.253-9.006h-4.456v2.2h4.456Zm.006,4.557h-4.47v2.165h4.47Z" transform="translate(-504.462 -714.988)" fill="#fff"/>
      <path id="Trazado_204816" data-name="Trazado 204816" d="M514.068,705.054a1.128,1.128,0,1,1-1.125-1.132,1.143,1.143,0,0,1,1.125,1.132" transform="translate(-489.118 -694.841)" fill="#fff"/>
      <path id="Trazado_204817" data-name="Trazado 204817" d="M530.743,694.238a1.131,1.131,0,1,1-1.183,1.074,1.147,1.147,0,0,1,1.183-1.074" transform="translate(-494.387 -691.966)" fill="#fff"/>
      <path id="Trazado_204818" data-name="Trazado 204818" d="M554.407,708.254a1.129,1.129,0,1,1-1.152-1.105,1.144,1.144,0,0,1,1.152,1.105" transform="translate(-501.095 -695.8)" fill="#fff"/>
      <path id="Trazado_204819" data-name="Trazado 204819" d="M573.769,717.985a1.129,1.129,0,1,1-1.1-1.153,1.144,1.144,0,0,1,1.1,1.153" transform="translate(-506.844 -698.675)" fill="#fff"/>
      <path id="Trazado_204820" data-name="Trazado 204820" d="M502.689,723.979l-1.866-.965c1.987-4.739,8.5-7.587,13.739-5.477l-.7,2.01c-4.791-1.237-8.509.2-11.169,4.432" transform="translate(-485.855 -698.674)" fill="#084a93"/>
      <path id="Trazado_204821" data-name="Trazado 204821" d="M502.471,733.2a3.4,3.4,0,1,1-3.3-3.463,3.419,3.419,0,0,1,3.3,3.463m-2.272-.1a1.129,1.129,0,1,0-1.095,1.163,1.143,1.143,0,0,0,1.095-1.163" transform="translate(-484.325 -702.507)" fill="#084a93"/>
      <path id="Trazado_204822" data-name="Trazado 204822" d="M515.381,733.155a3.4,3.4,0,1,1-3.351-3.416,3.418,3.418,0,0,1,3.351,3.416m-3.373-1.143a1.13,1.13,0,1,0,1.1,1.157,1.142,1.142,0,0,0-1.1-1.157" transform="translate(-488.158 -702.507)" fill="#084a93"/>
      <path id="Trazado_204823" data-name="Trazado 204823" d="M524.912,736.542a3.4,3.4,0,1,1,3.377-3.391,3.416,3.416,0,0,1-3.377,3.391m1.1-3.43a1.129,1.129,0,1,0-1.1,1.157,1.143,1.143,0,0,0,1.1-1.157" transform="translate(-491.991 -702.507)" fill="#084a93"/>
      <path id="Trazado_204824" data-name="Trazado 204824" d="M491.636,746.7a5.632,5.632,0,0,1-5.611-5.59h2.2a3.544,3.544,0,0,0,3.416,3.383Z" transform="translate(-481.461 -705.884)" fill="#084a93"/>
      <path id="Trazado_204825" data-name="Trazado 204825" d="M552.19,747.661v-2.254c.638,0,1.245,0,1.85,0,.989,0,1.209-.157,1.571-1.1h2.163a3.294,3.294,0,0,1-3.006,3.345c-.837.069-1.686.012-2.578.012" transform="translate(-501.107 -706.832)" fill="#084a93"/>
      <path id="Trazado_204826" data-name="Trazado 204826" d="M525.675,721.359l-1.7,1.514-1.722-1.5,1.251-1.887,2.171,1.872" transform="translate(-492.218 -699.463)" fill="#084a93"/>
      <rect id="Rect치ngulo_297301" data-name="Rect치ngulo 297301" width="2.203" height="2.166" transform="translate(46.526 38.634)" fill="#084a93"/>
      <path id="Trazado_204827" data-name="Trazado 204827" d="M510.1,752.332a7.94,7.94,0,1,1-7.974,7.9,7.96,7.96,0,0,1,7.974-7.9m5.635,7.979a5.67,5.67,0,1,0-5.727,5.632,5.684,5.684,0,0,0,5.727-5.632" transform="translate(-486.241 -709.215)" fill="#084a93"/>
      <rect id="Rect치ngulo_297302" data-name="Rect치ngulo 297302" width="4.449" height="2.184" transform="translate(45.409 59.036)" fill="#084a93"/>
      <rect id="Rect치ngulo_297303" data-name="Rect치ngulo 297303" width="4.449" height="2.181" transform="translate(45.435 63.589)" fill="#084a93"/>
      <rect id="Rect치ngulo_297304" data-name="Rect치ngulo 297304" width="4.456" height="2.202" transform="translate(61.307 59.04)" fill="#084a93"/>
      <rect id="Rect치ngulo_297305" data-name="Rect치ngulo 297305" width="4.47" height="2.166" transform="translate(61.3 63.596)" fill="#084a93"/>
      <path id="Trazado_204828" data-name="Trazado 204828" d="M501.159,734.065a1.129,1.129,0,1,1-1.162-1.1,1.145,1.145,0,0,1,1.162,1.1" transform="translate(-485.285 -703.466)" fill="#fff"/>
      <path id="Trazado_204829" data-name="Trazado 204829" d="M512.967,732.971a1.129,1.129,0,1,1-1.157,1.1,1.142,1.142,0,0,1,1.157-1.1" transform="translate(-489.118 -703.466)" fill="#fff"/>
      <path id="Trazado_204830" data-name="Trazado 204830" d="M526.976,734.072a1.129,1.129,0,1,1-1.157-1.1,1.145,1.145,0,0,1,1.157,1.1" transform="translate(-492.95 -703.466)" fill="#fff"/>
      <path id="Trazado_204831" data-name="Trazado 204831" d="M516.691,761.271a5.67,5.67,0,1,1-5.648-5.711,5.689,5.689,0,0,1,5.648,5.711m-2.269-.049a3.4,3.4,0,1,0-3.428,3.411,3.414,3.414,0,0,0,3.428-3.411" transform="translate(-487.2 -710.174)" fill="#fff"/>
      <path id="Trazado_204832" data-name="Trazado 204832" d="M515.381,762.179a3.4,3.4,0,1,1-3.375-3.392,3.417,3.417,0,0,1,3.375,3.392m-2.272-.024a1.129,1.129,0,1,0-1.095,1.163,1.143,1.143,0,0,0,1.095-1.163" transform="translate(-488.158 -711.132)" fill="#084a93"/>
      <path id="Trazado_204833" data-name="Trazado 204833" d="M514.068,763.114a1.129,1.129,0,1,1-1.162-1.1,1.145,1.145,0,0,1,1.162,1.1" transform="translate(-489.117 -712.091)" fill="#fff"/>
    </g>
    <g id="Grupo_149313" data-name="Grupo 149313" transform="translate(-10 88)">
      <circle id="Elipse_5001" data-name="Elipse 5001" cx="25" cy="25" r="25" transform="translate(285 8167)" fill="#12263f"/>
      <text id="_1" data-name="1" transform="translate(295 8173)" fill="#fff" font-size="32" font-family="Roboto-Black, Roboto" font-weight="800"><tspan x="-9.266" y="30">1</tspan></text>
    </g>
    <g id="Grupo_149314" data-name="Grupo 149314" transform="translate(-50 194)">
      <circle id="Elipse_5002" data-name="Elipse 5002" cx="25" cy="25" r="25" transform="translate(475 8167)" fill="#12263f"/>
      <text id="_2" data-name="2" transform="translate(485 8173)" fill="#fff" font-size="32" font-family="Roboto-Black, Roboto" font-weight="800"><tspan x="-9.266" y="30">2</tspan></text>
    </g>
    <g id="Grupo_149315" data-name="Grupo 149315" transform="translate(-63 88)">
      <circle id="Elipse_5003" data-name="Elipse 5003" cx="25" cy="25" r="25" transform="translate(635 8167)" fill="#12263f"/>
      <text id="_3" data-name="3" transform="translate(645 8173)" fill="#fff" font-size="32" font-family="Roboto-Black, Roboto" font-weight="800"><tspan x="-9.266" y="30">3</tspan></text>
    </g>
    <g id="Grupo_149316" data-name="Grupo 149316" transform="translate(-71 194)">
      <circle id="Elipse_5004" data-name="Elipse 5004" cx="25" cy="25" r="25" transform="translate(790 8167)" fill="#12263f"/>
      <text id="_4" data-name="4" transform="translate(800 8173)" fill="#fff" font-size="32" font-family="Roboto-Black, Roboto" font-weight="800"><tspan x="-9.266" y="30">4</tspan></text>
    </g>
    <g id="Grupo_149317" data-name="Grupo 149317" transform="translate(-48 88)">
      <circle id="Elipse_5005" data-name="Elipse 5005" cx="25" cy="25" r="25" transform="translate(915 8167)" fill="#12263f"/>
      <text id="_5" data-name="5" transform="translate(925 8173)" fill="#fff" font-size="32" font-family="Roboto-Black, Roboto" font-weight="800"><tspan x="-9.266" y="30">5</tspan></text>
    </g>
    <g id="Grupo_149318" data-name="Grupo 149318" transform="translate(-65 194)">
      <circle id="Elipse_5006" data-name="Elipse 5006" cx="25" cy="25" r="25" transform="translate(1075 8167)" fill="#12263f"/>
      <text id="_6" data-name="6" transform="translate(1085 8173)" fill="#fff" font-size="32" font-family="Roboto-Black, Roboto" font-weight="800"><tspan x="-9.266" y="30">6</tspan></text>
    </g>
    <g id="Grupo_149319" data-name="Grupo 149319" transform="translate(-75 88)">
      <circle id="Elipse_5007" data-name="Elipse 5007" cx="25" cy="25" r="25" transform="translate(1242 8167)" fill="#12263f"/>
      <text id="_7" data-name="7" transform="translate(1252 8173)" fill="#fff" font-size="32" font-family="Roboto-Black, Roboto" font-weight="800"><tspan x="-9.266" y="30">7</tspan></text>
    </g>
  </g>
</svg>
