<svg xmlns="http://www.w3.org/2000/svg" xmlns:xlink="http://www.w3.org/1999/xlink" width="505" height="621.001" viewBox="0 0 505 621.001">
  <defs>
    <clipPath id="clip-path">
      <rect id="Rectángulo_297332" data-name="Rectángulo 297332" width="417.66" height="518" fill="none"/>
    </clipPath>
  </defs>
  <g id="Grupo_175166" data-name="Grupo 175166" transform="translate(-180 -9096)">
    <g id="Grupo_140737" data-name="Grupo 140737" transform="translate(0 1616)">
      <path id="Sustracción_2" data-name="Sustracción 2" d="M505,621H421.483L505,530.713V621ZM0,93.2H0V0H86.207L0,93.195Z" transform="translate(180 7480)" fill="#ffb30b"/>
    </g>
    <g id="Grupo_140824" data-name="Grupo 140824" transform="translate(0 1440)">
      <rect id="Rectángulo_297249" data-name="Rectángulo 297249" width="481" height="597" transform="translate(190 7668)" fill="#fff"/>
      <g id="Grupo_140823" data-name="Grupo 140823" transform="translate(-2 -3)">
        <g id="Grupo_140822" data-name="Grupo 140822" transform="translate(224 7735)">
          <g id="Grupo_140811" data-name="Grupo 140811">
            <g id="Grupo_140810" data-name="Grupo 140810" clip-path="url(#clip-path)">
              <path id="Trazado_204914" data-name="Trazado 204914" d="M190.98,533.734c.3-1.209.581-2.357.89-3.614h-1.357q-10.949,0-21.9,0c-4.347,0-6.922-2.594-6.923-6.966q0-22.859,0-45.719c0-4.351,2.588-6.923,6.962-6.923q28.274,0,56.548,0h1.509V469.27c0-3.387-.008-6.774,0-10.161a6.317,6.317,0,0,1,6.658-6.659q16.818-.011,33.635,0a6.309,6.309,0,0,1,6.659,6.659q.01,38.494,0,76.988a6.316,6.316,0,0,1-6.656,6.665q-16.818.013-33.635,0a6.323,6.323,0,0,1-6.663-6.658c-.008-1.95,0-3.9,0-5.915h-12.1l.875,3.546c1.264,0,2.464-.012,3.665,0,1.473.018,2.124.668,2.138,2.145.016,1.618.023,3.237,0,4.854a1.815,1.815,0,0,1-2.032,2.023q-16.028.017-32.055,0a1.813,1.813,0,0,1-2.023-2.03q-.034-2.484,0-4.967a1.82,1.82,0,0,1,2.029-2.023c1.237-.023,2.476,0,3.773,0m39.344-3.614c0,2.066-.008,3.979,0,5.894.011,2.078,1.051,3.134,3.119,3.135q16.758.01,33.516,0a2.756,2.756,0,0,0,3.093-3.047q.009-38.487,0-76.974a2.753,2.753,0,0,0-3.074-3.065q-16.815-.011-33.629,0a2.734,2.734,0,0,0-3.022,3c-.016,3.5-.006,7,0,10.5,0,.288.035.578.059.949,2.581,0,5.094,0,7.607,0,4.131.009,6.777,2.639,6.777,6.767q.009,23.025,0,46.049c0,4.136-2.64,6.781-6.756,6.792-2.514.007-5.029,0-7.691,0m-27.115-56q-17.207,0-34.416,0c-2.548,0-3.488.926-3.488,3.445q0,22.74,0,45.48c0,2.527.937,3.459,3.477,3.459h68.832c2.624,0,3.546-.91,3.547-3.5q0-22.685,0-45.368c0-2.6-.917-3.513-3.535-3.514H203.21m-8.471,59.544h16.993c-.31-1.233-.6-2.378-.882-3.5H195.6c-.288,1.162-.566,2.286-.867,3.5m-5.9,5.414h28.756V537.4H188.839Z" transform="translate(-8.852 -24.769)"/>
              <path id="Trazado_204915" data-name="Trazado 204915" d="M234.3,530.331c2.661,0,5.176,0,7.691,0,4.116-.01,6.755-2.654,6.756-6.792q.009-23.024,0-46.049c0-4.127-2.647-6.758-6.778-6.766-2.512-.006-5.025,0-7.606,0-.024-.372-.059-.661-.059-.95,0-3.5-.014-7,0-10.5a2.733,2.733,0,0,1,3.022-3q16.815-.014,33.629,0a2.752,2.752,0,0,1,3.074,3.064q.009,38.487,0,76.975a2.754,2.754,0,0,1-3.092,3.047q-16.758.01-33.517,0c-2.067,0-3.107-1.058-3.118-3.135-.01-1.913,0-3.827,0-5.893m19.865-61.417c4.7,0,9.405.008,14.109,0,1.474,0,2.133-.667,2.144-2.141q.024-3.273,0-6.547c-.01-1.476-.666-2.14-2.141-2.142q-14.109-.011-28.218,0c-1.478,0-2.132.663-2.142,2.138-.016,2.107-.009,4.215,0,6.322,0,1.771.6,2.371,2.367,2.373q6.942.007,13.884,0m5.415,61.392a5.412,5.412,0,1,0-5.448,5.435,5.432,5.432,0,0,0,5.448-5.435" transform="translate(-12.826 -24.978)" fill="#b9ddfc"/>
              <path id="Trazado_204916" data-name="Trazado 204916" d="M203.42,475.379h34.416c2.618,0,3.534.91,3.534,3.514q0,22.683,0,45.368c0,2.593-.923,3.5-3.547,3.5H168.992c-2.54,0-3.477-.932-3.477-3.459q0-22.74,0-45.48c0-2.518.94-3.445,3.489-3.445q17.207,0,34.416,0m.02,1.806H169.915c-2.075,0-2.595.521-2.595,2.6q0,21.789,0,43.577c0,2.073.524,2.6,2.6,2.6h67.049c2.07,0,2.6-.527,2.6-2.6q0-21.789,0-43.577c0-2.071-.525-2.594-2.6-2.595H203.44" transform="translate(-9.061 -26.024)" fill="#fff"/>
              <path id="Trazado_204917" data-name="Trazado 204917" d="M196.652,538.168c.3-1.212.579-2.336.866-3.5h15.245c.283,1.119.571,2.266.882,3.5Z" transform="translate(-10.766 -29.27)" fill="#fff"/>
              <rect id="Rectángulo_297310" data-name="Rectángulo 297310" width="28.756" height="1.683" transform="translate(179.987 512.63)" fill="#fff"/>
              <path id="Trazado_204918" data-name="Trazado 204918" d="M254.372,469.018q-6.942,0-13.883,0c-1.769,0-2.363-.6-2.368-2.372-.006-2.107-.012-4.215,0-6.322.01-1.476.665-2.137,2.142-2.138q14.109-.013,28.218,0c1.475,0,2.131.665,2.141,2.141q.024,3.274,0,6.548c-.01,1.473-.669,2.136-2.144,2.14-4.7.011-9.406,0-14.109,0m-12.591-3.693h25.182v-3.472H241.782Z" transform="translate(-13.036 -25.083)"/>
              <path id="Trazado_204919" data-name="Trazado 204919" d="M260.416,534.281a5.412,5.412,0,1,1-5.377-5.39,5.435,5.435,0,0,1,5.377,5.39m-5.433,1.822a1.8,1.8,0,1,0-1.779-1.789,1.823,1.823,0,0,0,1.779,1.789" transform="translate(-13.664 -28.954)"/>
              <path id="Trazado_204920" data-name="Trazado 204920" d="M203.544,477.29h33.524c2.075,0,2.6.524,2.6,2.595q0,21.789,0,43.577c0,2.072-.527,2.6-2.6,2.6H170.023c-2.074,0-2.6-.524-2.6-2.6q0-21.789,0-43.577c0-2.077.52-2.6,2.595-2.6h33.524m32.464,3.7H171.129v41.4h64.879Z" transform="translate(-9.166 -26.129)"/>
              <rect id="Rectángulo_297311" data-name="Rectángulo 297311" width="25.182" height="3.472" transform="translate(228.746 436.77)" fill="#ffb30b"/>
              <path id="Trazado_204921" data-name="Trazado 204921" d="M255.192,536.313a1.8,1.8,0,1,1,1.818-1.754,1.813,1.813,0,0,1-1.818,1.754" transform="translate(-13.873 -29.163)" fill="#ffb30b"/>
              <rect id="Rectángulo_297312" data-name="Rectángulo 297312" width="64.879" height="41.403" transform="translate(161.964 454.855)" fill="#00defc"/>
              <path id="Trazado_204922" data-name="Trazado 204922" d="M218.117,515.7h-.01a.559.559,0,0,1-.534-.54c-.018-.208,0-.419,0-.654h-2.532v.979q0,1.955,0,3.911a1.27,1.27,0,1,0,2.528.019c0-.567,0-1.133,0-1.7a.6.6,0,0,1,.551-.674Z" transform="translate(-11.772 -28.166)" fill="#fff"/>
              <path id="Trazado_204923" data-name="Trazado 204923" d="M210.045,493.54a.648.648,0,0,0,.338-.635c-.028-.5-.008-.994-.008-1.537h-.452q-2.51,0-5.017,0c-.648,0-.851-.2-.852-.847,0-1.8,0-3.608,0-5.443H187.647v31.557h22.729v-6.727a3.42,3.42,0,0,1,0-.355.613.613,0,0,1,.633-.576.735.735,0,0,1,.139.015v-1.426a8.458,8.458,0,0,1-1.212-.732,8.2,8.2,0,0,1,.1-13.293m-13.574-5.7c.006-.584.344-.862.9-.705a6.278,6.278,0,0,1,4.594,4.591c.157.551-.123.9-.7.906q-2.032.009-4.064,0a.643.643,0,0,1-.731-.727c-.007-.683,0-1.368,0-2.052s0-1.341,0-2.012m.43,7.721a2.53,2.53,0,0,0,1.23-1.23.717.717,0,0,1,.725-.436c.8.009,1.605,0,2.408,0,.582,0,.861.346.7.9a6.285,6.285,0,0,1-4.592,4.595c-.553.157-.9-.122-.9-.7-.006-.407,0-.816,0-1.223s.008-.789,0-1.184a.706.706,0,0,1,.434-.725m-1.693,6.556c-.8,0-1.6,0-2.4,0-.475,0-.738-.231-.74-.628s.262-.633.734-.634q2.4-.006,4.809,0c.475,0,.738.231.74.627s-.263.632-.734.635c-.8,0-1.6,0-2.4,0m1.874,1.894a.616.616,0,0,1-.7.632q-1.812.009-3.625,0a.633.633,0,1,1,0-1.26c.617-.007,1.234,0,1.852,0,.592,0,1.183,0,1.773,0,.441,0,.7.243.7.628M190.4,490.062c.268-.442.583-.557.937-.341s.406.541.15.99a5.049,5.049,0,0,0,2,7.024c.135.072.278.129.458.211,0-.434.016-.814-.009-1.191a.517.517,0,0,0-.2-.332,3.8,3.8,0,0,1,.01-6.323.438.438,0,0,0,.193-.259c.021-.4.009-.805.009-1.272-.3.153-.536.281-.778.4a.6.6,0,0,1-.88-.225.571.571,0,0,1,.26-.862,15.161,15.161,0,0,1,1.772-.748c.526-.179.882.113.888.669.009.83,0,1.659,0,2.488a.68.68,0,0,1-.408.662,2.539,2.539,0,0,0,0,4.615.681.681,0,0,1,.408.662c0,.829.006,1.659,0,2.488a.647.647,0,0,1-.892.68,6.32,6.32,0,0,1-3.913-9.338m.369,12.051c-.1.007-.209,0-.314,0s-.21.006-.315,0a.61.61,0,0,1-.6-.642.6.6,0,0,1,.589-.614,5.563,5.563,0,0,1,.628,0,.63.63,0,1,1,.014,1.26m.393,2.4a1.685,1.685,0,0,1-1.39,0,.623.623,0,0,1-.176-.748c.165-.427.537-.391.893-.383.347-.012.7-.025.853.383a.625.625,0,0,1-.181.747m2.15,9.458c0,.567-.223.787-.79.789q-1.126.006-2.252,0c-.516,0-.748-.233-.749-.751q0-3.675,0-7.349c0-.517.233-.745.75-.749q1.146-.009,2.291,0c.516,0,.747.233.749.75,0,1.224,0,2.449,0,3.674s0,2.424,0,3.635m5.056.038c0,.517-.233.748-.748.752q-1.146.007-2.291,0c-.517,0-.749-.233-.751-.749q-.007-1.778,0-3.556c0-.518.231-.747.747-.751q1.146-.009,2.291,0c.518,0,.747.232.751.748.006.593,0,1.185,0,1.778s0,1.185,0,1.778m5.054.065a.624.624,0,0,1-.692.684q-1.2.013-2.409,0a.63.63,0,0,1-.686-.691c-.009-.4-.01-.79,0-1.185a.592.592,0,0,1,.619-.623.61.61,0,0,1,.638.612c.011.194,0,.389,0,.618h1.234v-8.815h-1.234v.423c0,1.712,0,3.423,0,5.135,0,.552-.425.881-.873.642a.8.8,0,0,1-.371-.573c-.026-2.08-.02-4.159-.013-6.24a.614.614,0,0,1,.66-.675q1.224-.017,2.447,0a.623.623,0,0,1,.679.7q.007,5,0,9.991m5.059-.064c0,.516-.233.747-.749.751q-1.146.007-2.291,0c-.517,0-.747-.233-.75-.75,0-1.014,0-2.029,0-3.043s0-2,0-3c0-.568.22-.786.788-.789q1.126-.006,2.252,0c.516,0,.749.232.75.749q.006,3.043,0,6.085" transform="translate(-10.273 -26.555)" fill="#fff"/>
              <path id="Trazado_204924" data-name="Trazado 204924" d="M221.756,496.829a.933.933,0,0,1-.2-.639.792.792,0,0,1,.323-.391,7.542,7.542,0,0,0-1.061-.906c-.226.289-.544.309-.941.052a6.792,6.792,0,0,0-6.622-.647,6.942,6.942,0,1,0,8.5,2.531m-5.81,9.553a5.69,5.69,0,1,1,5.714-5.685,5.7,5.7,0,0,1-5.714,5.685" transform="translate(-11.443 -27.029)" fill="#fff"/>
              <path id="Trazado_204925" data-name="Trazado 204925" d="M216.623,508.156c0,1.13-.006,2.236.007,3.341a.472.472,0,0,0,.167.319,1.836,1.836,0,0,1,.4,1.833c-.073.312-.364.4-.664.361a.56.56,0,0,1-.535-.541c-.018-.208,0-.418,0-.654h-2.532v.979q0,1.957,0,3.912a1.27,1.27,0,1,0,2.528.018c0-.566,0-1.132,0-1.7a.6.6,0,0,1,.6-.681.614.614,0,0,1,.656.674c.008.645.018,1.291,0,1.936a2.523,2.523,0,0,1-5.042-.019c-.025-1.712-.008-3.425-.007-5.137a1.3,1.3,0,0,1,.448-.975.52.52,0,0,0,.175-.317c.012-1.118.008-2.237.008-3.371a8.587,8.587,0,0,1-2.963-1.38,8.2,8.2,0,0,1,.1-13.293.646.646,0,0,0,.337-.634c-.028-.5-.008-1-.008-1.538h-5.469c-.648,0-.851-.2-.851-.848,0-1.8,0-3.607,0-5.443H187.572V516.56H210.3v-6.728a3.183,3.183,0,0,1,.006-.355.612.612,0,0,1,.633-.576.6.6,0,0,1,.618.589c.021.341.007.684.008,1.027q0,2.944,0,5.888a1.285,1.285,0,0,1-1.434,1.442h-22.4a1.291,1.291,0,0,1-1.45-1.465q0-15.607,0-31.215a1.294,1.294,0,0,1,1.457-1.459q8.314,0,16.631-.006a1.133,1.133,0,0,1,.872.363q2.98,3,5.978,5.98a1.051,1.051,0,0,1,.352.837c-.02.539,0,1.079,0,1.587.766-.164,1.511-.383,2.271-.476a7.886,7.886,0,0,1,5.508,1.36c.406.273.5.6.281.928-.229.352-.562.394-.99.118a6.793,6.793,0,0,0-6.622-.647,6.942,6.942,0,1,0,8.5,2.531.933.933,0,0,1-.2-.639.624.624,0,0,1,1.121-.206,7.334,7.334,0,0,1,1.424,3.591,8.178,8.178,0,0,1-6.021,9.05c-.063.018-.124.044-.216.079m-11.369-18.162h3.906l-3.906-3.906Zm10.082,18.381h-1.22v3.132h1.22Z" transform="translate(-10.198 -26.48)"/>
              <path id="Trazado_204926" data-name="Trazado 204926" d="M216.069,495.077a5.69,5.69,0,1,1-5.714,5.644,5.7,5.7,0,0,1,5.714-5.644m4.4,5.684a4.424,4.424,0,1,0-4.419,4.43,4.437,4.437,0,0,0,4.419-4.43" transform="translate(-11.516 -27.103)"/>
              <path id="Trazado_204927" data-name="Trazado 204927" d="M194.05,498.063c0-.434.016-.814-.009-1.192a.522.522,0,0,0-.2-.331,3.8,3.8,0,0,1,.01-6.323.441.441,0,0,0,.193-.259c.021-.4.008-.805.008-1.272-.295.153-.535.28-.778.4a.6.6,0,0,1-.88-.225.571.571,0,0,1,.261-.861,15.061,15.061,0,0,1,1.771-.748c.527-.179.883.113.889.669.008.829,0,1.659,0,2.488a.683.683,0,0,1-.409.662,2.539,2.539,0,0,0,0,4.615.682.682,0,0,1,.409.662c0,.829,0,1.659,0,2.488a.647.647,0,0,1-.893.68,6.32,6.32,0,0,1-3.912-9.338c.268-.442.582-.557.936-.341s.406.54.15.989a5.049,5.049,0,0,0,2,7.025c.135.072.278.129.458.211" transform="translate(-10.381 -26.672)"/>
              <path id="Trazado_204928" data-name="Trazado 204928" d="M201.587,514.547h1.234v-8.815h-1.233v.423c0,1.711,0,3.422,0,5.134,0,.552-.426.881-.874.642a.8.8,0,0,1-.371-.573c-.027-2.08-.021-4.159-.014-6.24a.613.613,0,0,1,.66-.674q1.224-.018,2.448,0a.624.624,0,0,1,.678.7q.007,5,0,9.991a.624.624,0,0,1-.693.684q-1.2.014-2.409,0a.629.629,0,0,1-.685-.691c-.009-.4-.011-.79,0-1.184a.592.592,0,0,1,.619-.624.609.609,0,0,1,.638.612c.011.194,0,.389,0,.618" transform="translate(-10.966 -27.615)"/>
              <path id="Trazado_204929" data-name="Trazado 204929" d="M193.417,511.541c0,1.212,0,2.424,0,3.635,0,.567-.223.787-.789.79-.751,0-1.5,0-2.252,0-.516,0-.749-.233-.749-.751q-.006-3.674,0-7.348c0-.517.232-.746.749-.75q1.146-.007,2.291,0c.516,0,.747.233.749.75.006,1.225,0,2.45,0,3.674m-1.291-3.129H190.91v6.273h1.217Z" transform="translate(-10.381 -27.762)"/>
              <path id="Trazado_204930" data-name="Trazado 204930" d="M205.674,512.246c0-1,0-2,0-3,0-.568.221-.787.788-.79.751,0,1.5,0,2.252,0,.517,0,.749.233.75.749q.006,3.043,0,6.085c0,.517-.233.747-.749.751q-1.146.009-2.291,0c-.516,0-.747-.233-.749-.75-.006-1.014,0-2.029,0-3.043m1.291,2.5h1.217v-5.008h-1.217Z" transform="translate(-11.259 -27.835)"/>
              <path id="Trazado_204931" data-name="Trazado 204931" d="M196.981,489.968c0-.671,0-1.342,0-2.012.006-.585.345-.863.9-.706a6.28,6.28,0,0,1,4.594,4.591c.157.552-.123.9-.7.906q-2.032.009-4.064,0a.643.643,0,0,1-.731-.727c-.007-.684,0-1.369,0-2.052m4.05,1.5a5.155,5.155,0,0,0-2.754-2.764v2.764Z" transform="translate(-10.784 -26.672)"/>
              <path id="Trazado_204932" data-name="Trazado 204932" d="M196.981,497.979c0-.394.008-.789,0-1.183a.708.708,0,0,1,.435-.726,2.526,2.526,0,0,0,1.23-1.23.717.717,0,0,1,.725-.436c.8.009,1.6,0,2.407,0,.583,0,.861.346.7.9a6.286,6.286,0,0,1-4.592,4.6c-.553.156-.9-.123-.9-.7-.006-.408,0-.816,0-1.224m4.054-2.307c-.406,0-.758-.023-1.106.01a.837.837,0,0,0-.437.228c-.355.327-.693.675-1.033,1.018-.078.078-.2.165-.2.254-.022.41-.009.821-.009,1.286a5.219,5.219,0,0,0,2.788-2.8" transform="translate(-10.783 -27.066)"/>
              <path id="Trazado_204933" data-name="Trazado 204933" d="M198.767,513.656c0,.593,0,1.185,0,1.778,0,.517-.233.748-.748.752q-1.146.008-2.291,0c-.517,0-.748-.233-.751-.749q-.007-1.778,0-3.556c0-.518.232-.747.748-.751q1.146-.007,2.291,0c.517,0,.746.233.751.748.006.593,0,1.185,0,1.778m-1.293-1.244H196.26v2.494h1.214Z" transform="translate(-10.674 -27.981)"/>
              <path id="Trazado_204934" data-name="Trazado 204934" d="M195.464,503.029c-.8,0-1.6,0-2.4,0-.475,0-.738-.231-.74-.628s.262-.633.734-.634q2.4-.006,4.809,0c.475,0,.738.231.74.627s-.263.632-.734.635c-.8,0-1.6,0-2.4,0" transform="translate(-10.528 -27.469)"/>
              <path id="Trazado_204935" data-name="Trazado 204935" d="M194.867,504.44c.591,0,1.183,0,1.773,0,.44,0,.7.242.7.628a.616.616,0,0,1-.695.632q-1.812.009-3.625,0a.633.633,0,1,1,0-1.26c.617-.007,1.235,0,1.852,0" transform="translate(-10.528 -27.615)"/>
              <path id="Trazado_204936" data-name="Trazado 204936" d="M190.561,503.028c-.1,0-.21.007-.314,0a.609.609,0,0,1-.6-.641.6.6,0,0,1,.589-.614,5.349,5.349,0,0,1,.628,0,.63.63,0,1,1,.014,1.259c-.1.007-.209,0-.314,0" transform="translate(-10.382 -27.469)"/>
              <path id="Trazado_204937" data-name="Trazado 204937" d="M190.6,504.443c.346-.013.7-.025.852.383a.625.625,0,0,1-.18.747,1.689,1.689,0,0,1-1.391,0,.624.624,0,0,1-.175-.748c.166-.427.537-.391.894-.383" transform="translate(-10.382 -27.615)"/>
              <path id="Trazado_204938" data-name="Trazado 204938" d="M206.353,490.132v-3.907l3.906,3.907Z" transform="translate(-11.297 -26.618)" fill="#fff"/>
              <rect id="Rectángulo_297313" data-name="Rectángulo 297313" width="1.22" height="3.132" transform="translate(203.918 481.896)" fill="#fff"/>
              <path id="Trazado_204939" data-name="Trazado 204939" d="M220.541,500.834a4.423,4.423,0,1,1-4.429-4.418,4.438,4.438,0,0,1,4.429,4.418m-1.344-.669c-.016-.065-.032-.142-.056-.216a3.067,3.067,0,0,0-2.13-2.132.636.636,0,0,0-.86.386c-.115.346.087.63.473.825a4.07,4.07,0,0,1,.985.676,2.4,2.4,0,0,1,.368.727.6.6,0,0,0,.731.384.634.634,0,0,0,.49-.649" transform="translate(-11.589 -27.176)" fill="#ffb30b"/>
              <rect id="Rectángulo_297314" data-name="Rectángulo 297314" width="1.217" height="6.273" transform="translate(180.529 480.65)" fill="#b9ddfc"/>
              <rect id="Rectángulo_297315" data-name="Rectángulo 297315" width="1.217" height="5.008" transform="translate(195.706 481.901)" fill="#b9ddfc"/>
              <path id="Trazado_204940" data-name="Trazado 204940" d="M201.106,491.557h-2.754v-2.764a5.155,5.155,0,0,1,2.754,2.764" transform="translate(-10.859 -26.759)" fill="#084a93"/>
              <path id="Trazado_204941" data-name="Trazado 204941" d="M201.108,495.745a5.219,5.219,0,0,1-2.788,2.8c0-.465-.012-.876.009-1.286,0-.089.126-.177.2-.254.34-.343.678-.691,1.033-1.018a.837.837,0,0,1,.437-.228c.348-.033.7-.01,1.106-.01" transform="translate(-10.857 -27.139)" fill="#084a93"/>
              <rect id="Rectángulo_297316" data-name="Rectángulo 297316" width="1.214" height="2.494" transform="translate(185.587 484.43)" fill="#b9ddfc"/>
              <path id="Trazado_204942" data-name="Trazado 204942" d="M219.453,500.243a.634.634,0,0,1-.49.649.6.6,0,0,1-.731-.384,2.4,2.4,0,0,0-.368-.727,4.07,4.07,0,0,0-.985-.676c-.386-.2-.588-.479-.473-.825a.636.636,0,0,1,.86-.386,3.067,3.067,0,0,1,2.13,2.132c.024.075.04.151.056.216" transform="translate(-11.845 -27.255)"/>
              <path id="Trazado_204943" data-name="Trazado 204943" d="M352.672,533.734c.3-1.209.581-2.357.89-3.614H352.2q-10.949,0-21.9,0c-4.347,0-6.922-2.594-6.923-6.966q0-22.859,0-45.719c0-4.351,2.588-6.923,6.962-6.923q28.274,0,56.547,0h1.51V469.27c0-3.387-.009-6.774,0-10.161a6.317,6.317,0,0,1,6.658-6.659q16.818-.011,33.635,0a6.309,6.309,0,0,1,6.659,6.659q.01,38.494,0,76.988a6.316,6.316,0,0,1-6.656,6.665q-16.818.013-33.635,0a6.322,6.322,0,0,1-6.663-6.658c-.008-1.95,0-3.9,0-5.915H376.3l.875,3.546c1.264,0,2.464-.012,3.665,0,1.473.018,2.124.668,2.138,2.145.016,1.618.023,3.237,0,4.854a1.814,1.814,0,0,1-2.031,2.023q-16.028.017-32.055,0a1.813,1.813,0,0,1-2.023-2.03q-.034-2.484,0-4.967a1.82,1.82,0,0,1,2.029-2.023c1.237-.023,2.476,0,3.773,0m39.344-3.614c0,2.066-.009,3.979,0,5.894.011,2.078,1.051,3.134,3.118,3.135q16.759.01,33.517,0a2.756,2.756,0,0,0,3.093-3.047q.009-38.487,0-76.974a2.753,2.753,0,0,0-3.074-3.065q-16.815-.011-33.629,0a2.734,2.734,0,0,0-3.022,3c-.016,3.5-.006,7,0,10.5,0,.288.035.578.059.949,2.581,0,5.094,0,7.606,0,4.132.009,6.777,2.639,6.778,6.767q.009,23.025,0,46.049c0,4.136-2.64,6.781-6.756,6.792-2.514.007-5.029,0-7.691,0m-27.115-56q-17.207,0-34.416,0c-2.548,0-3.488.926-3.488,3.445q0,22.74,0,45.48c0,2.527.937,3.459,3.477,3.459h68.832c2.624,0,3.546-.91,3.547-3.5q0-22.685,0-45.368c0-2.6-.917-3.513-3.535-3.514H364.9m-8.471,59.544h16.993c-.31-1.233-.6-2.378-.882-3.5H357.3c-.288,1.162-.566,2.286-.867,3.5m-5.9,5.414h28.756V537.4H350.531Z" transform="translate(-17.703 -24.769)"/>
              <path id="Trazado_204944" data-name="Trazado 204944" d="M395.991,530.331c2.661,0,5.176,0,7.691,0,4.116-.01,6.755-2.654,6.756-6.792q.009-23.024,0-46.049c0-4.127-2.647-6.758-6.778-6.766-2.512-.006-5.025,0-7.606,0-.024-.372-.059-.661-.059-.95,0-3.5-.014-7,0-10.5a2.733,2.733,0,0,1,3.022-3q16.815-.014,33.629,0a2.752,2.752,0,0,1,3.074,3.064q.009,38.487,0,76.975a2.754,2.754,0,0,1-3.092,3.047q-16.758.01-33.517,0c-2.067,0-3.107-1.058-3.118-3.135-.01-1.913,0-3.827,0-5.893m19.865-61.417c4.7,0,9.405.008,14.109,0,1.474,0,2.133-.667,2.144-2.141q.024-3.273,0-6.547c-.01-1.476-.666-2.14-2.141-2.142q-14.109-.011-28.218,0c-1.478,0-2.132.663-2.142,2.138-.016,2.107-.008,4.215,0,6.322,0,1.771.6,2.371,2.367,2.373q6.942.007,13.884,0m5.415,61.392a5.412,5.412,0,1,0-5.448,5.435,5.432,5.432,0,0,0,5.448-5.435" transform="translate(-21.678 -24.978)" fill="#b9ddfc"/>
              <path id="Trazado_204945" data-name="Trazado 204945" d="M365.112,475.379h34.416c2.618,0,3.534.91,3.534,3.514q0,22.683,0,45.368c0,2.593-.923,3.5-3.547,3.5H330.684c-2.54,0-3.477-.932-3.477-3.459q0-22.74,0-45.48c0-2.518.94-3.445,3.488-3.445q17.209,0,34.417,0m.02,1.806H331.607c-2.075,0-2.595.521-2.595,2.6q0,21.789,0,43.577c0,2.073.524,2.6,2.6,2.6h67.049c2.07,0,2.6-.527,2.6-2.6q0-21.789,0-43.577c0-2.071-.525-2.594-2.6-2.595H365.132" transform="translate(-17.913 -26.024)" fill="#fff"/>
              <path id="Trazado_204946" data-name="Trazado 204946" d="M358.344,538.168c.3-1.212.578-2.336.866-3.5h15.245c.283,1.119.571,2.266.882,3.5Z" transform="translate(-19.617 -29.27)" fill="#fff"/>
              <rect id="Rectángulo_297317" data-name="Rectángulo 297317" width="28.756" height="1.683" transform="translate(332.827 512.63)" fill="#fff"/>
              <path id="Trazado_204947" data-name="Trazado 204947" d="M416.064,469.018q-6.942,0-13.884,0c-1.768,0-2.362-.6-2.367-2.372-.006-2.107-.012-4.215,0-6.322.01-1.476.664-2.137,2.142-2.138q14.109-.013,28.218,0c1.475,0,2.131.665,2.141,2.141q.024,3.274,0,6.548c-.01,1.473-.67,2.136-2.144,2.14-4.7.011-9.406,0-14.109,0m-12.591-3.693h25.182v-3.472H403.474Z" transform="translate(-21.887 -25.083)"/>
              <path id="Trazado_204948" data-name="Trazado 204948" d="M422.108,534.281a5.412,5.412,0,1,1-5.377-5.39,5.435,5.435,0,0,1,5.377,5.39m-5.433,1.822a1.8,1.8,0,1,0-1.779-1.789,1.823,1.823,0,0,0,1.779,1.789" transform="translate(-22.516 -28.954)"/>
              <path id="Trazado_204949" data-name="Trazado 204949" d="M365.236,477.29h33.524c2.075,0,2.6.524,2.6,2.595q0,21.789,0,43.577c0,2.072-.527,2.6-2.6,2.6H331.715c-2.074,0-2.6-.524-2.6-2.6q0-21.789,0-43.577c0-2.077.52-2.6,2.595-2.6h33.524m32.464,3.7H332.821v41.4H397.7Z" transform="translate(-18.017 -26.129)"/>
              <rect id="Rectángulo_297318" data-name="Rectángulo 297318" width="25.182" height="3.472" transform="translate(381.586 436.77)" fill="#ffb30b"/>
              <path id="Trazado_204950" data-name="Trazado 204950" d="M416.884,536.313a1.8,1.8,0,1,1,1.818-1.754,1.813,1.813,0,0,1-1.818,1.754" transform="translate(-22.725 -29.163)" fill="#ffb30b"/>
              <rect id="Rectángulo_297319" data-name="Rectángulo 297319" width="64.879" height="41.403" transform="translate(314.804 454.855)" fill="#00defc"/>
              <path id="Trazado_204951" data-name="Trazado 204951" d="M379.809,515.7h-.01a.559.559,0,0,1-.534-.54c-.018-.208,0-.419,0-.654h-2.532v.979q0,1.955,0,3.911a1.27,1.27,0,1,0,2.528.019c0-.567,0-1.133,0-1.7a.6.6,0,0,1,.551-.674Z" transform="translate(-20.624 -28.166)" fill="#fff"/>
              <path id="Trazado_204952" data-name="Trazado 204952" d="M371.737,493.54a.648.648,0,0,0,.338-.635c-.028-.5-.008-.994-.008-1.537h-.452q-2.51,0-5.017,0c-.647,0-.851-.2-.852-.847,0-1.8,0-3.608,0-5.443H349.339v31.557h22.729v-6.727a3.42,3.42,0,0,1,0-.355.613.613,0,0,1,.633-.576.735.735,0,0,1,.139.015v-1.426a8.457,8.457,0,0,1-1.212-.732,8.2,8.2,0,0,1,.1-13.293m-13.574-5.7c.006-.584.344-.862.9-.705a6.278,6.278,0,0,1,4.594,4.591c.157.551-.123.9-.7.906q-2.032.009-4.064,0a.643.643,0,0,1-.731-.727c-.007-.683,0-1.368,0-2.052s0-1.341,0-2.012m.43,7.721a2.53,2.53,0,0,0,1.23-1.23.717.717,0,0,1,.725-.436c.8.009,1.605,0,2.408,0,.582,0,.861.346.7.9a6.285,6.285,0,0,1-4.592,4.595c-.553.157-.9-.122-.9-.7-.006-.407,0-.816,0-1.223s.008-.789,0-1.184a.706.706,0,0,1,.434-.725m-1.693,6.556c-.8,0-1.6,0-2.4,0-.475,0-.738-.231-.74-.628s.262-.633.734-.634q2.4-.006,4.809,0c.475,0,.738.231.74.627s-.263.632-.734.635c-.8,0-1.6,0-2.4,0m1.874,1.894a.615.615,0,0,1-.695.632q-1.812.009-3.625,0a.633.633,0,1,1,0-1.26c.617-.007,1.234,0,1.852,0,.592,0,1.183,0,1.773,0,.441,0,.7.243.7.628m-6.685-13.947c.268-.442.583-.557.937-.341s.406.541.15.99a5.049,5.049,0,0,0,2,7.024c.135.072.278.129.458.211,0-.434.016-.814-.009-1.191a.517.517,0,0,0-.2-.332,3.8,3.8,0,0,1,.01-6.323.438.438,0,0,0,.193-.259c.021-.4.009-.805.009-1.272-.3.153-.536.281-.778.4a.6.6,0,0,1-.88-.225.571.571,0,0,1,.26-.862,15.162,15.162,0,0,1,1.772-.748c.526-.179.882.113.888.669.009.83,0,1.659,0,2.488a.68.68,0,0,1-.409.662,2.539,2.539,0,0,0,0,4.615.681.681,0,0,1,.408.662c0,.829.006,1.659,0,2.488a.647.647,0,0,1-.892.68,6.32,6.32,0,0,1-3.913-9.338m.369,12.051c-.1.007-.209,0-.314,0s-.21.006-.315,0a.61.61,0,0,1-.6-.642.6.6,0,0,1,.589-.614,5.562,5.562,0,0,1,.628,0,.63.63,0,1,1,.014,1.26m.393,2.4a1.685,1.685,0,0,1-1.389,0,.623.623,0,0,1-.176-.748c.165-.427.537-.391.893-.383.347-.012.7-.025.853.383a.625.625,0,0,1-.181.747M355,513.97c0,.567-.223.787-.79.789q-1.126.006-2.252,0c-.516,0-.748-.233-.749-.751q0-3.675,0-7.349c0-.517.233-.745.75-.749q1.146-.009,2.291,0c.516,0,.747.233.749.75,0,1.224,0,2.449,0,3.674s0,2.424,0,3.635m5.056.038c0,.517-.233.748-.748.752q-1.146.007-2.291,0c-.517,0-.749-.233-.751-.749q-.007-1.778,0-3.556c0-.518.231-.747.747-.751q1.146-.009,2.291,0c.518,0,.747.232.751.748.006.593,0,1.185,0,1.778s0,1.185,0,1.778m5.054.065a.624.624,0,0,1-.692.684q-1.2.013-2.409,0a.63.63,0,0,1-.686-.691c-.009-.4-.01-.79,0-1.185a.592.592,0,0,1,.619-.623.61.61,0,0,1,.638.612c.011.194,0,.389,0,.618h1.234v-8.815h-1.234v.423c0,1.712,0,3.423,0,5.135,0,.552-.425.881-.873.642a.8.8,0,0,1-.371-.573c-.026-2.08-.02-4.159-.013-6.24a.614.614,0,0,1,.66-.675q1.224-.017,2.447,0a.623.623,0,0,1,.679.7q.007,5,0,9.991m5.059-.064c0,.516-.233.747-.749.751q-1.146.007-2.291,0c-.517,0-.747-.233-.75-.75,0-1.014,0-2.029,0-3.043s0-2,0-3c0-.568.22-.786.788-.789q1.126-.006,2.252,0c.516,0,.749.232.75.749q.006,3.043,0,6.085" transform="translate(-19.124 -26.555)" fill="#fff"/>
              <path id="Trazado_204953" data-name="Trazado 204953" d="M383.448,496.829a.932.932,0,0,1-.2-.639.792.792,0,0,1,.323-.391,7.542,7.542,0,0,0-1.061-.906c-.226.289-.544.309-.941.052a6.792,6.792,0,0,0-6.622-.647,6.942,6.942,0,1,0,8.5,2.531m-5.81,9.553a5.69,5.69,0,1,1,5.714-5.685,5.7,5.7,0,0,1-5.714,5.685" transform="translate(-20.295 -27.029)" fill="#fff"/>
              <path id="Trazado_204954" data-name="Trazado 204954" d="M378.314,508.156c0,1.13,0,2.236.008,3.341a.472.472,0,0,0,.167.319,1.835,1.835,0,0,1,.4,1.833c-.073.312-.364.4-.664.361a.559.559,0,0,1-.534-.541c-.018-.208,0-.418,0-.654h-2.532v.979q0,1.957,0,3.912a1.27,1.27,0,1,0,2.528.018c0-.566,0-1.132,0-1.7a.6.6,0,0,1,.6-.681.614.614,0,0,1,.656.674c.008.645.018,1.291,0,1.936a2.523,2.523,0,0,1-5.042-.019c-.025-1.712-.008-3.425-.007-5.137a1.3,1.3,0,0,1,.448-.975.519.519,0,0,0,.174-.317c.013-1.118.008-2.237.008-3.371a8.587,8.587,0,0,1-2.963-1.38,8.2,8.2,0,0,1,.1-13.293.645.645,0,0,0,.338-.634c-.028-.5-.008-1-.008-1.538h-5.469c-.647,0-.851-.2-.851-.848,0-1.8,0-3.607,0-5.443H349.264V516.56h22.729v-6.728a3.18,3.18,0,0,1,.006-.355.612.612,0,0,1,.633-.576.6.6,0,0,1,.618.589c.021.341.007.684.007,1.027q0,2.944,0,5.888a1.285,1.285,0,0,1-1.434,1.442h-22.4a1.291,1.291,0,0,1-1.45-1.465q0-15.607,0-31.215a1.294,1.294,0,0,1,1.456-1.459q8.316,0,16.632-.006a1.133,1.133,0,0,1,.872.363q2.98,3,5.978,5.98a1.051,1.051,0,0,1,.352.837c-.02.539,0,1.079,0,1.587.766-.164,1.511-.383,2.271-.476a7.886,7.886,0,0,1,5.508,1.36c.406.273.5.6.281.928-.229.352-.562.394-.99.118a6.793,6.793,0,0,0-6.622-.647,6.94,6.94,0,1,0,8.5,2.531.932.932,0,0,1-.2-.639.624.624,0,0,1,1.121-.206,7.334,7.334,0,0,1,1.424,3.591,8.178,8.178,0,0,1-6.021,9.05c-.063.018-.124.044-.217.079m-11.368-18.162h3.906l-3.906-3.906Zm10.082,18.381h-1.22v3.132h1.22Z" transform="translate(-19.05 -26.48)"/>
              <path id="Trazado_204955" data-name="Trazado 204955" d="M377.76,495.077a5.69,5.69,0,1,1-5.713,5.644,5.7,5.7,0,0,1,5.713-5.644m4.4,5.684a4.423,4.423,0,1,0-4.418,4.43,4.436,4.436,0,0,0,4.418-4.43" transform="translate(-20.368 -27.103)"/>
              <path id="Trazado_204956" data-name="Trazado 204956" d="M355.742,498.063c0-.434.016-.814-.009-1.192a.522.522,0,0,0-.2-.331,3.8,3.8,0,0,1,.01-6.323.441.441,0,0,0,.193-.259c.021-.4.009-.805.009-1.272-.295.153-.535.28-.778.4a.6.6,0,0,1-.88-.225.571.571,0,0,1,.261-.861,15.059,15.059,0,0,1,1.771-.748c.527-.179.883.113.889.669.009.829,0,1.659,0,2.488a.683.683,0,0,1-.409.662,2.539,2.539,0,0,0,0,4.615.682.682,0,0,1,.409.662c0,.829,0,1.659,0,2.488a.647.647,0,0,1-.893.68,6.32,6.32,0,0,1-3.912-9.338c.268-.442.582-.557.936-.341s.406.54.15.989a5.049,5.049,0,0,0,2,7.025c.135.072.278.129.458.211" transform="translate(-19.232 -26.672)"/>
              <path id="Trazado_204957" data-name="Trazado 204957" d="M363.279,514.547h1.234v-8.815H363.28v.423c0,1.711,0,3.422,0,5.134,0,.552-.426.881-.874.642a.8.8,0,0,1-.371-.573c-.027-2.08-.021-4.159-.014-6.24a.613.613,0,0,1,.66-.674q1.224-.018,2.448,0a.624.624,0,0,1,.678.7q.007,5,0,9.991a.624.624,0,0,1-.693.684q-1.2.014-2.409,0a.629.629,0,0,1-.685-.691c-.009-.4-.011-.79,0-1.184a.592.592,0,0,1,.619-.624.609.609,0,0,1,.638.612c.011.194,0,.389,0,.618" transform="translate(-19.818 -27.615)"/>
              <path id="Trazado_204958" data-name="Trazado 204958" d="M355.109,511.541c0,1.212,0,2.424,0,3.635,0,.567-.223.787-.789.79-.751,0-1.5,0-2.252,0-.516,0-.749-.233-.749-.751q-.006-3.674,0-7.348c0-.517.232-.746.749-.75q1.146-.007,2.291,0c.516,0,.747.233.749.75,0,1.225,0,2.45,0,3.674m-1.291-3.129H352.6v6.273h1.217Z" transform="translate(-19.233 -27.762)"/>
              <path id="Trazado_204959" data-name="Trazado 204959" d="M367.366,512.246c0-1,0-2,0-3,0-.568.221-.787.788-.79.751,0,1.5,0,2.252,0,.517,0,.749.233.75.749q.006,3.043,0,6.085c0,.517-.233.747-.749.751q-1.146.009-2.291,0c-.516,0-.747-.233-.75-.75,0-1.014,0-2.029,0-3.043m1.291,2.5h1.217v-5.008h-1.217Z" transform="translate(-20.111 -27.835)"/>
              <path id="Trazado_204960" data-name="Trazado 204960" d="M358.673,489.968c0-.671,0-1.342,0-2.012.006-.585.345-.863.9-.706a6.28,6.28,0,0,1,4.594,4.591c.157.552-.123.9-.7.906q-2.032.009-4.064,0a.643.643,0,0,1-.731-.727c-.007-.684,0-1.369,0-2.052m4.05,1.5a5.155,5.155,0,0,0-2.754-2.764v2.764Z" transform="translate(-19.635 -26.672)"/>
              <path id="Trazado_204961" data-name="Trazado 204961" d="M358.672,497.979c0-.394.009-.789,0-1.183a.708.708,0,0,1,.435-.726,2.526,2.526,0,0,0,1.23-1.23.717.717,0,0,1,.725-.436c.8.009,1.6,0,2.407,0,.583,0,.861.346.7.9a6.286,6.286,0,0,1-4.593,4.6c-.552.156-.9-.123-.9-.7-.006-.408,0-.816,0-1.224m4.054-2.307c-.405,0-.758-.023-1.106.01a.837.837,0,0,0-.437.228c-.355.327-.693.675-1.033,1.018-.078.078-.2.165-.2.254-.022.41-.009.821-.009,1.286a5.219,5.219,0,0,0,2.789-2.8" transform="translate(-19.635 -27.066)"/>
              <path id="Trazado_204962" data-name="Trazado 204962" d="M360.459,513.656c0,.593,0,1.185,0,1.778,0,.517-.233.748-.748.752q-1.146.008-2.291,0c-.517,0-.749-.233-.751-.749q-.007-1.778,0-3.556c0-.518.232-.747.748-.751q1.146-.007,2.291,0c.517,0,.746.233.751.748.006.593,0,1.185,0,1.778m-1.293-1.244h-1.214v2.494h1.214Z" transform="translate(-19.525 -27.981)"/>
              <path id="Trazado_204963" data-name="Trazado 204963" d="M357.156,503.029c-.8,0-1.6,0-2.4,0-.475,0-.738-.231-.74-.628s.262-.633.734-.634q2.4-.006,4.809,0c.475,0,.738.231.74.627s-.263.632-.734.635c-.8,0-1.6,0-2.4,0" transform="translate(-19.38 -27.469)"/>
              <path id="Trazado_204964" data-name="Trazado 204964" d="M356.559,504.44c.591,0,1.183,0,1.773,0,.44,0,.7.242.7.628a.616.616,0,0,1-.695.632q-1.812.009-3.625,0a.633.633,0,1,1,0-1.26c.617-.007,1.234,0,1.852,0" transform="translate(-19.38 -27.615)"/>
              <path id="Trazado_204965" data-name="Trazado 204965" d="M352.253,503.028c-.1,0-.21.007-.314,0a.609.609,0,0,1-.6-.641.6.6,0,0,1,.589-.614,5.349,5.349,0,0,1,.628,0,.63.63,0,1,1,.014,1.259c-.1.007-.209,0-.314,0" transform="translate(-19.234 -27.469)"/>
              <path id="Trazado_204966" data-name="Trazado 204966" d="M352.288,504.443c.347-.013.7-.025.853.383a.625.625,0,0,1-.181.747,1.687,1.687,0,0,1-1.39,0,.624.624,0,0,1-.175-.748c.165-.427.537-.391.893-.383" transform="translate(-19.234 -27.615)"/>
              <path id="Trazado_204967" data-name="Trazado 204967" d="M368.045,490.132v-3.907l3.906,3.907Z" transform="translate(-20.148 -26.618)" fill="#fff"/>
              <rect id="Rectángulo_297320" data-name="Rectángulo 297320" width="1.22" height="3.132" transform="translate(356.758 481.896)" fill="#fff"/>
              <path id="Trazado_204968" data-name="Trazado 204968" d="M382.233,500.834a4.423,4.423,0,1,1-4.429-4.418,4.438,4.438,0,0,1,4.429,4.418m-1.344-.669c-.016-.065-.032-.142-.056-.216a3.067,3.067,0,0,0-2.13-2.132.636.636,0,0,0-.86.386c-.115.346.087.63.473.825a4.071,4.071,0,0,1,.985.676,2.4,2.4,0,0,1,.368.727.6.6,0,0,0,.731.384.634.634,0,0,0,.49-.649" transform="translate(-20.441 -27.176)" fill="#ffb30b"/>
              <rect id="Rectángulo_297321" data-name="Rectángulo 297321" width="1.217" height="6.273" transform="translate(333.369 480.65)" fill="#b9ddfc"/>
              <rect id="Rectángulo_297322" data-name="Rectángulo 297322" width="1.217" height="5.008" transform="translate(348.546 481.901)" fill="#b9ddfc"/>
              <path id="Trazado_204969" data-name="Trazado 204969" d="M362.8,491.557h-2.754v-2.764a5.155,5.155,0,0,1,2.754,2.764" transform="translate(-19.71 -26.759)" fill="#084a93"/>
              <path id="Trazado_204970" data-name="Trazado 204970" d="M362.8,495.745a5.219,5.219,0,0,1-2.789,2.8c0-.465-.012-.876.009-1.286,0-.089.126-.177.2-.254.34-.343.678-.691,1.033-1.018a.837.837,0,0,1,.437-.228c.348-.033.7-.01,1.106-.01" transform="translate(-19.708 -27.139)" fill="#084a93"/>
              <rect id="Rectángulo_297323" data-name="Rectángulo 297323" width="1.214" height="2.494" transform="translate(338.427 484.43)" fill="#b9ddfc"/>
              <path id="Trazado_204971" data-name="Trazado 204971" d="M381.145,500.243a.634.634,0,0,1-.49.649.6.6,0,0,1-.731-.384,2.4,2.4,0,0,0-.368-.727,4.071,4.071,0,0,0-.985-.676c-.386-.2-.588-.479-.473-.825a.636.636,0,0,1,.86-.386,3.067,3.067,0,0,1,2.13,2.132c.024.075.04.151.056.216" transform="translate(-20.697 -27.255)"/>
              <path id="Trazado_204972" data-name="Trazado 204972" d="M29.288,533.734c.3-1.209.581-2.357.89-3.614H28.821q-10.949,0-21.9,0c-4.346,0-6.922-2.594-6.922-6.966q0-22.859,0-45.719c0-4.351,2.588-6.923,6.962-6.923q28.274,0,56.548,0H65.02V469.27c0-3.387-.009-6.774,0-10.161a6.317,6.317,0,0,1,6.658-6.659q16.818-.011,33.635,0a6.309,6.309,0,0,1,6.659,6.659q.01,38.494,0,76.988a6.316,6.316,0,0,1-6.656,6.665q-16.818.013-33.635,0a6.323,6.323,0,0,1-6.663-6.658c-.008-1.95,0-3.9,0-5.915h-12.1l.875,3.546c1.265,0,2.464-.012,3.665,0,1.473.018,2.124.668,2.138,2.145.016,1.618.023,3.237,0,4.854a1.815,1.815,0,0,1-2.032,2.023q-16.026.017-32.055,0a1.813,1.813,0,0,1-2.023-2.03q-.034-2.484,0-4.967a1.819,1.819,0,0,1,2.029-2.023c1.236-.023,2.475,0,3.773,0m39.344-3.614c0,2.066-.008,3.979,0,5.894.01,2.078,1.05,3.134,3.118,3.135q16.758.01,33.516,0a2.756,2.756,0,0,0,3.093-3.047q.009-38.487,0-76.974a2.753,2.753,0,0,0-3.074-3.065q-16.815-.011-33.629,0a2.734,2.734,0,0,0-3.022,3c-.016,3.5-.006,7,0,10.5,0,.288.035.578.059.949,2.581,0,5.095,0,7.607,0,4.131.009,6.777,2.639,6.777,6.767q.009,23.025,0,46.049c0,4.136-2.64,6.781-6.756,6.792-2.514.007-5.029,0-7.691,0m-27.114-56q-17.209,0-34.417,0c-2.548,0-3.488.926-3.488,3.445q0,22.74,0,45.48c0,2.527.937,3.459,3.477,3.459H75.922c2.624,0,3.547-.91,3.547-3.5q0-22.685,0-45.368c0-2.6-.917-3.513-3.534-3.514H41.518m-8.471,59.544H50.039c-.31-1.233-.6-2.378-.881-3.5H33.913c-.288,1.162-.566,2.286-.866,3.5m-5.9,5.414H55.9V537.4H27.148Z" transform="translate(0 -24.769)"/>
              <path id="Trazado_204973" data-name="Trazado 204973" d="M72.607,530.331c2.661,0,5.176,0,7.691,0,4.116-.01,6.755-2.654,6.756-6.792q.009-23.024,0-46.049c0-4.127-2.647-6.758-6.778-6.766-2.512-.006-5.025,0-7.606,0-.024-.372-.059-.661-.059-.95,0-3.5-.014-7,0-10.5a2.733,2.733,0,0,1,3.022-3q16.815-.014,33.629,0a2.752,2.752,0,0,1,3.074,3.064q.009,38.487,0,76.975a2.754,2.754,0,0,1-3.092,3.047q-16.758.01-33.517,0c-2.067,0-3.107-1.058-3.118-3.135-.01-1.913,0-3.827,0-5.893m19.865-61.417c4.7,0,9.405.008,14.109,0,1.474,0,2.133-.667,2.144-2.141q.024-3.273,0-6.547c-.01-1.476-.666-2.14-2.141-2.142q-14.109-.011-28.218,0c-1.478,0-2.132.663-2.142,2.138-.016,2.107-.009,4.215,0,6.322,0,1.771.6,2.371,2.367,2.373q6.942.007,13.884,0m5.415,61.392a5.412,5.412,0,1,0-5.448,5.435,5.432,5.432,0,0,0,5.448-5.435" transform="translate(-3.975 -24.978)" fill="#b9ddfc"/>
              <path id="Trazado_204974" data-name="Trazado 204974" d="M41.728,475.379H76.144c2.618,0,3.534.91,3.534,3.514q0,22.683,0,45.368c0,2.593-.923,3.5-3.547,3.5H7.3c-2.54,0-3.477-.932-3.477-3.459q0-22.74,0-45.48c0-2.518.94-3.445,3.489-3.445q17.207,0,34.416,0m.02,1.806H8.223c-2.075,0-2.595.521-2.595,2.6q0,21.789,0,43.577c0,2.073.524,2.6,2.6,2.6H75.275c2.07,0,2.6-.527,2.6-2.6q0-21.789,0-43.577c0-2.071-.525-2.594-2.6-2.595H41.748" transform="translate(-0.209 -26.024)" fill="#fff"/>
              <path id="Trazado_204975" data-name="Trazado 204975" d="M34.961,538.168c.3-1.212.578-2.336.866-3.5H51.072c.283,1.119.571,2.266.882,3.5Z" transform="translate(-1.914 -29.27)" fill="#fff"/>
              <rect id="Rectángulo_297324" data-name="Rectángulo 297324" width="28.756" height="1.683" transform="translate(27.148 512.63)" fill="#fff"/>
              <path id="Trazado_204976" data-name="Trazado 204976" d="M92.68,469.018q-6.942,0-13.883,0c-1.769,0-2.363-.6-2.368-2.372-.006-2.107-.012-4.215,0-6.322.01-1.476.665-2.137,2.142-2.138q14.109-.013,28.218,0c1.475,0,2.131.665,2.141,2.141q.024,3.274,0,6.548c-.01,1.473-.669,2.136-2.144,2.14-4.7.011-9.406,0-14.109,0M80.09,465.325h25.182v-3.472H80.09Z" transform="translate(-4.184 -25.083)"/>
              <path id="Trazado_204977" data-name="Trazado 204977" d="M98.724,534.281a5.412,5.412,0,1,1-5.377-5.39,5.435,5.435,0,0,1,5.377,5.39M93.291,536.1a1.8,1.8,0,1,0-1.779-1.789,1.823,1.823,0,0,0,1.779,1.789" transform="translate(-4.812 -28.954)"/>
              <path id="Trazado_204978" data-name="Trazado 204978" d="M41.852,477.29H75.377c2.075,0,2.6.524,2.6,2.595q0,21.789,0,43.577c0,2.072-.527,2.6-2.6,2.6H8.331c-2.074,0-2.6-.524-2.6-2.6q0-21.789,0-43.577c0-2.077.52-2.6,2.595-2.6H41.852m32.464,3.7H9.437v41.4H74.316Z" transform="translate(-0.314 -26.129)"/>
              <rect id="Rectángulo_297325" data-name="Rectángulo 297325" width="25.182" height="3.472" transform="translate(75.906 436.77)" fill="#ffb30b"/>
              <path id="Trazado_204979" data-name="Trazado 204979" d="M93.5,536.313a1.8,1.8,0,1,1,1.818-1.754,1.813,1.813,0,0,1-1.818,1.754" transform="translate(-5.021 -29.163)" fill="#ffb30b"/>
              <rect id="Rectángulo_297326" data-name="Rectángulo 297326" width="64.879" height="41.403" transform="translate(9.124 454.855)" fill="#00defc"/>
              <path id="Trazado_204980" data-name="Trazado 204980" d="M56.425,515.7h-.01a.559.559,0,0,1-.534-.54c-.018-.208,0-.419,0-.654H53.344v.979q0,1.955,0,3.911a1.27,1.27,0,1,0,2.528.019c0-.567,0-1.133,0-1.7a.6.6,0,0,1,.551-.674Z" transform="translate(-2.92 -28.166)" fill="#fff"/>
              <path id="Trazado_204981" data-name="Trazado 204981" d="M48.353,493.54a.648.648,0,0,0,.338-.635c-.028-.5-.008-.994-.008-1.537h-.452q-2.51,0-5.017,0c-.648,0-.851-.2-.852-.847v-5.443H25.955v31.557H48.684v-6.727c0-.119-.007-.238,0-.355a.613.613,0,0,1,.633-.576.735.735,0,0,1,.139.015v-1.426a8.457,8.457,0,0,1-1.212-.732,8.2,8.2,0,0,1,.1-13.293m-13.573-5.7c0-.584.344-.862.9-.705a6.277,6.277,0,0,1,4.593,4.591c.157.551-.123.9-.7.906q-2.03.009-4.064,0a.642.642,0,0,1-.73-.727c-.007-.683,0-1.368,0-2.052s0-1.341,0-2.012m.429,7.721a2.526,2.526,0,0,0,1.23-1.23.717.717,0,0,1,.725-.436c.8.009,1.605,0,2.409,0,.581,0,.86.346.7.9a6.282,6.282,0,0,1-4.592,4.595c-.553.157-.9-.122-.9-.7-.006-.407,0-.816,0-1.223s.009-.789,0-1.184a.706.706,0,0,1,.434-.725m-1.693,6.556c-.8,0-1.6,0-2.4,0-.474,0-.738-.231-.739-.628s.262-.633.733-.634q2.4-.006,4.809,0c.475,0,.738.231.74.627s-.263.632-.734.635c-.8,0-1.6,0-2.4,0m1.875,1.894a.617.617,0,0,1-.7.632q-1.811.009-3.624,0a.633.633,0,1,1,0-1.26c.616-.007,1.234,0,1.851,0,.592,0,1.183,0,1.773,0a.619.619,0,0,1,.7.628m-6.686-13.947c.268-.442.583-.557.937-.341s.406.541.149.99a5.05,5.05,0,0,0,2,7.024c.135.072.279.129.458.211,0-.434.016-.814-.009-1.191a.524.524,0,0,0-.2-.332,3.8,3.8,0,0,1,.009-6.323.444.444,0,0,0,.194-.259c.02-.4.009-.805.009-1.272-.3.153-.536.281-.777.4a.6.6,0,0,1-.88-.225.57.57,0,0,1,.26-.862,15.08,15.08,0,0,1,1.771-.748c.527-.179.882.113.888.669.009.83,0,1.659,0,2.488a.681.681,0,0,1-.407.662,2.538,2.538,0,0,0,0,4.615.682.682,0,0,1,.407.662c0,.829.006,1.659,0,2.488a.647.647,0,0,1-.892.68,6.32,6.32,0,0,1-3.912-9.338m.368,12.051c-.1.007-.208,0-.313,0s-.21.006-.315,0a.611.611,0,0,1-.6-.642.6.6,0,0,1,.59-.614,5.561,5.561,0,0,1,.628,0,.63.63,0,1,1,.013,1.26m.393,2.4a1.682,1.682,0,0,1-1.389,0,.625.625,0,0,1-.177-.748c.166-.427.538-.391.893-.383.347-.012.7-.025.853.383a.622.622,0,0,1-.181.747m2.15,9.458c0,.567-.223.787-.79.789q-1.124.006-2.252,0c-.515,0-.747-.233-.749-.751q0-3.675,0-7.349c0-.517.233-.745.751-.749q1.144-.009,2.291,0c.516,0,.746.233.749.75,0,1.224,0,2.449,0,3.674s0,2.424,0,3.635m5.056.038c0,.517-.232.748-.748.752q-1.146.007-2.291,0c-.517,0-.749-.233-.75-.749q-.009-1.778,0-3.556c0-.518.23-.747.746-.751q1.146-.009,2.291,0c.518,0,.747.232.751.748.006.593,0,1.185,0,1.778s0,1.185,0,1.778m5.054.065a.624.624,0,0,1-.692.684q-1.2.013-2.408,0a.629.629,0,0,1-.686-.691c-.009-.4-.011-.79,0-1.185a.593.593,0,0,1,.62-.623.608.608,0,0,1,.637.612c.012.194,0,.389,0,.618h1.235v-8.815H39.2v.423c0,1.712,0,3.423,0,5.135,0,.552-.425.881-.873.642a.8.8,0,0,1-.371-.573c-.026-2.08-.02-4.159-.013-6.24a.615.615,0,0,1,.66-.675q1.224-.017,2.448,0a.623.623,0,0,1,.678.7q.007,5,0,9.991m5.06-.064c0,.516-.234.747-.75.751q-1.146.007-2.291,0c-.517,0-.747-.233-.75-.75,0-1.014,0-2.029,0-3.043s0-2,0-3c0-.568.22-.786.788-.789q1.126-.006,2.252,0c.516,0,.749.232.751.749q0,3.043,0,6.085" transform="translate(-1.421 -26.555)" fill="#fff"/>
              <path id="Trazado_204982" data-name="Trazado 204982" d="M60.064,496.829a.932.932,0,0,1-.2-.639.792.792,0,0,1,.323-.391,7.542,7.542,0,0,0-1.061-.906c-.226.289-.544.309-.941.052a6.792,6.792,0,0,0-6.622-.647,6.942,6.942,0,1,0,8.5,2.531m-5.81,9.553a5.69,5.69,0,1,1,5.714-5.685,5.7,5.7,0,0,1-5.714,5.685" transform="translate(-2.591 -27.029)" fill="#fff"/>
              <path id="Trazado_204983" data-name="Trazado 204983" d="M54.931,508.156c0,1.13,0,2.236.007,3.341a.472.472,0,0,0,.167.319,1.836,1.836,0,0,1,.4,1.833c-.074.312-.365.4-.665.361a.56.56,0,0,1-.535-.541c-.018-.208,0-.418,0-.654H51.77v.979c0,1.3,0,2.608,0,3.912a1.269,1.269,0,1,0,2.527.018c0-.566,0-1.132,0-1.7a.6.6,0,0,1,.6-.681.614.614,0,0,1,.656.674c.008.645.018,1.291,0,1.936a2.523,2.523,0,0,1-5.042-.019c-.025-1.712-.008-3.425-.007-5.137a1.3,1.3,0,0,1,.448-.975.52.52,0,0,0,.175-.317c.012-1.118.008-2.237.008-3.371a8.587,8.587,0,0,1-2.963-1.38,8.2,8.2,0,0,1,.1-13.293.646.646,0,0,0,.337-.634c-.027-.5-.008-1-.008-1.538H43.141c-.648,0-.852-.2-.852-.848,0-1.8,0-3.607,0-5.443H25.88V516.56H48.609v-.406q0-3.16,0-6.322a3.183,3.183,0,0,1,0-.355.612.612,0,0,1,.633-.576.6.6,0,0,1,.618.589c.021.341.008.684.008,1.027q0,2.944,0,5.888a1.285,1.285,0,0,1-1.434,1.442H26.04a1.291,1.291,0,0,1-1.45-1.465q0-15.607,0-31.215a1.294,1.294,0,0,1,1.457-1.459q8.314,0,16.631-.006a1.133,1.133,0,0,1,.872.363q2.98,3,5.978,5.98a1.051,1.051,0,0,1,.352.837c-.02.539,0,1.079,0,1.587.766-.164,1.511-.383,2.271-.476a7.886,7.886,0,0,1,5.508,1.36c.406.273.5.6.281.928-.229.352-.562.394-.989.118a6.794,6.794,0,0,0-6.623-.647,6.942,6.942,0,1,0,8.5,2.531.932.932,0,0,1-.2-.639.624.624,0,0,1,1.121-.206,7.334,7.334,0,0,1,1.424,3.591,8.178,8.178,0,0,1-6.021,9.05c-.063.018-.124.044-.216.079M43.562,489.993h3.906l-3.906-3.906Zm10.082,18.381h-1.22v3.132h1.22Z" transform="translate(-1.346 -26.48)"/>
              <path id="Trazado_204984" data-name="Trazado 204984" d="M54.377,495.077a5.69,5.69,0,1,1-5.713,5.644,5.7,5.7,0,0,1,5.713-5.644m4.4,5.684a4.423,4.423,0,1,0-4.418,4.43,4.436,4.436,0,0,0,4.418-4.43" transform="translate(-2.664 -27.103)"/>
              <path id="Trazado_204985" data-name="Trazado 204985" d="M32.358,498.063c0-.434.016-.814-.009-1.192a.522.522,0,0,0-.2-.331,3.8,3.8,0,0,1,.01-6.323.441.441,0,0,0,.193-.259c.021-.4.009-.805.009-1.272-.295.153-.535.28-.778.4a.6.6,0,0,1-.88-.225A.571.571,0,0,1,30.96,488a15.06,15.06,0,0,1,1.771-.748c.527-.179.883.113.889.669.009.829,0,1.659,0,2.488a.683.683,0,0,1-.409.662,2.539,2.539,0,0,0,0,4.615.682.682,0,0,1,.409.662c0,.829,0,1.659,0,2.488a.647.647,0,0,1-.893.68,6.32,6.32,0,0,1-3.912-9.338c.268-.442.582-.557.936-.341s.406.54.15.989a5.049,5.049,0,0,0,2,7.025c.135.072.278.129.458.211" transform="translate(-1.529 -26.672)"/>
              <path id="Trazado_204986" data-name="Trazado 204986" d="M39.895,514.547h1.235v-8.815H39.9v.423c0,1.711,0,3.422,0,5.134,0,.552-.426.881-.874.642a.8.8,0,0,1-.371-.573c-.027-2.08-.021-4.159-.014-6.24a.613.613,0,0,1,.66-.674q1.224-.018,2.448,0a.624.624,0,0,1,.678.7q.007,5,0,9.991a.624.624,0,0,1-.693.684q-1.2.014-2.409,0a.629.629,0,0,1-.685-.691c-.009-.4-.011-.79,0-1.184a.592.592,0,0,1,.619-.624.609.609,0,0,1,.638.612c.011.194,0,.389,0,.618" transform="translate(-2.115 -27.615)"/>
              <path id="Trazado_204987" data-name="Trazado 204987" d="M31.725,511.541c0,1.212,0,2.424,0,3.635,0,.567-.222.787-.789.79-.751,0-1.5,0-2.252,0-.516,0-.748-.233-.749-.751q-.006-3.674,0-7.348c0-.517.232-.746.749-.75q1.146-.007,2.291,0c.516,0,.747.233.75.75,0,1.225,0,2.45,0,3.674m-1.291-3.129H29.218v6.273h1.217Z" transform="translate(-1.529 -27.762)"/>
              <path id="Trazado_204988" data-name="Trazado 204988" d="M43.982,512.246c0-1,0-2,0-3,0-.568.221-.787.788-.79.751,0,1.5,0,2.252,0,.517,0,.749.233.75.749q.006,3.043,0,6.085c0,.517-.233.747-.749.751q-1.146.009-2.291,0c-.516,0-.747-.233-.749-.75-.006-1.014,0-2.029,0-3.043m1.291,2.5H46.49v-5.008H45.273Z" transform="translate(-2.408 -27.835)"/>
              <path id="Trazado_204989" data-name="Trazado 204989" d="M35.289,489.968c0-.671,0-1.342,0-2.012.006-.585.345-.863.9-.706a6.28,6.28,0,0,1,4.594,4.591c.157.552-.123.9-.7.906q-2.032.009-4.064,0a.643.643,0,0,1-.731-.727c-.007-.684,0-1.369,0-2.052m4.05,1.5a5.155,5.155,0,0,0-2.754-2.764v2.764Z" transform="translate(-1.932 -26.672)"/>
              <path id="Trazado_204990" data-name="Trazado 204990" d="M35.289,497.979c0-.394.009-.789,0-1.183a.709.709,0,0,1,.435-.726,2.526,2.526,0,0,0,1.23-1.23.717.717,0,0,1,.725-.436c.8.009,1.6,0,2.407,0,.583,0,.861.346.7.9a6.286,6.286,0,0,1-4.592,4.6c-.553.156-.9-.123-.9-.7-.006-.408,0-.816,0-1.224m4.054-2.307c-.406,0-.758-.023-1.106.01a.837.837,0,0,0-.437.228c-.355.327-.693.675-1.033,1.018-.078.078-.2.165-.2.254-.022.41-.009.821-.009,1.286a5.219,5.219,0,0,0,2.789-2.8" transform="translate(-1.932 -27.066)"/>
              <path id="Trazado_204991" data-name="Trazado 204991" d="M37.075,513.656c0,.593,0,1.185,0,1.778,0,.517-.233.748-.748.752q-1.146.008-2.291,0c-.517,0-.748-.233-.751-.749q-.007-1.778,0-3.556c0-.518.232-.747.748-.751q1.146-.007,2.291,0c.517,0,.746.233.751.748.007.593,0,1.185,0,1.778m-1.293-1.244H34.568v2.494h1.214Z" transform="translate(-1.822 -27.981)"/>
              <path id="Trazado_204992" data-name="Trazado 204992" d="M33.772,503.029c-.8,0-1.6,0-2.4,0-.475,0-.738-.231-.74-.628s.262-.633.734-.634q2.4-.006,4.809,0c.475,0,.738.231.74.627s-.263.632-.734.635c-.8,0-1.6,0-2.4,0" transform="translate(-1.677 -27.469)"/>
              <path id="Trazado_204993" data-name="Trazado 204993" d="M33.175,504.44c.591,0,1.183,0,1.773,0,.44,0,.7.242.7.628a.616.616,0,0,1-.695.632q-1.812.009-3.625,0a.633.633,0,1,1,0-1.26c.617-.007,1.234,0,1.852,0" transform="translate(-1.677 -27.615)"/>
              <path id="Trazado_204994" data-name="Trazado 204994" d="M28.869,503.028c-.1,0-.21.007-.314,0a.609.609,0,0,1-.6-.641.6.6,0,0,1,.589-.614,5.349,5.349,0,0,1,.628,0,.63.63,0,1,1,.014,1.259c-.1.007-.209,0-.314,0" transform="translate(-1.53 -27.469)"/>
              <path id="Trazado_204995" data-name="Trazado 204995" d="M28.905,504.443c.347-.013.7-.025.853.383a.625.625,0,0,1-.181.747,1.687,1.687,0,0,1-1.39,0,.624.624,0,0,1-.175-.748c.165-.427.537-.391.893-.383" transform="translate(-1.53 -27.615)"/>
              <path id="Trazado_204996" data-name="Trazado 204996" d="M44.661,490.132v-3.907l3.906,3.907Z" transform="translate(-2.445 -26.618)" fill="#fff"/>
              <rect id="Rectángulo_297327" data-name="Rectángulo 297327" width="1.22" height="3.132" transform="translate(51.078 481.896)" fill="#fff"/>
              <path id="Trazado_204997" data-name="Trazado 204997" d="M58.849,500.834a4.423,4.423,0,1,1-4.429-4.418,4.438,4.438,0,0,1,4.429,4.418m-1.344-.669c-.016-.065-.032-.142-.056-.216a3.067,3.067,0,0,0-2.13-2.132.636.636,0,0,0-.86.386c-.115.346.087.63.473.825a4.07,4.07,0,0,1,.985.676,2.4,2.4,0,0,1,.368.727.6.6,0,0,0,.731.384.634.634,0,0,0,.49-.649" transform="translate(-2.737 -27.176)" fill="#ffb30b"/>
              <rect id="Rectángulo_297328" data-name="Rectángulo 297328" width="1.217" height="6.273" transform="translate(27.688 480.65)" fill="#b9ddfc"/>
              <rect id="Rectángulo_297329" data-name="Rectángulo 297329" width="1.217" height="5.008" transform="translate(42.865 481.901)" fill="#b9ddfc"/>
              <path id="Trazado_204998" data-name="Trazado 204998" d="M39.414,491.557H36.66v-2.764a5.155,5.155,0,0,1,2.754,2.764" transform="translate(-2.007 -26.759)" fill="#084a93"/>
              <path id="Trazado_204999" data-name="Trazado 204999" d="M39.416,495.745a5.219,5.219,0,0,1-2.789,2.8c0-.465-.012-.876.009-1.286,0-.089.126-.177.2-.254.34-.343.678-.691,1.033-1.018a.837.837,0,0,1,.437-.228c.348-.033.7-.01,1.106-.01" transform="translate(-2.005 -27.139)" fill="#084a93"/>
              <rect id="Rectángulo_297330" data-name="Rectángulo 297330" width="1.214" height="2.494" transform="translate(32.746 484.43)" fill="#b9ddfc"/>
              <path id="Trazado_205000" data-name="Trazado 205000" d="M57.761,500.243a.634.634,0,0,1-.49.649.6.6,0,0,1-.731-.384,2.4,2.4,0,0,0-.368-.727,4.07,4.07,0,0,0-.985-.676c-.386-.2-.588-.479-.473-.825a.636.636,0,0,1,.86-.386,3.067,3.067,0,0,1,2.13,2.132c.024.075.04.151.056.216" transform="translate(-2.994 -27.255)"/>
              <path id="Trazado_205001" data-name="Trazado 205001" d="M227.2,0c1.715.122,3.43.233,5.143.369a81.492,81.492,0,0,1,18.618,3.266,22.114,22.114,0,0,1,7.119,3.5,5.916,5.916,0,0,1,2.579,4.391c.028.543-.019,1.088-.019,1.632q0,21.825,0,43.651c0,7.925-.041,15.85.026,23.774a6.142,6.142,0,0,1-2.431,5.1,21.017,21.017,0,0,1-6.743,3.446,73.975,73.975,0,0,1-16.872,3.249,124.45,124.45,0,0,1-18.761.388c-7.773-.438-15.486-1.258-22.9-3.824a19.389,19.389,0,0,1-6.367-3.381,6.026,6.026,0,0,1-2.289-4.892q.064-21.463.021-42.924-.006-12.976-.033-25.952a5.577,5.577,0,0,1,2.178-4.309A20.977,20.977,0,0,1,194,3.637,75.236,75.236,0,0,1,210.538.558c2.137-.193,4.283-.28,6.425-.424A7.879,7.879,0,0,0,217.757,0ZM187.624,16.711v1.1c0,5.384.045,10.769-.031,16.153a3.085,3.085,0,0,0,1.611,3.008,32.149,32.149,0,0,0,5.056,2.394c7.278,2.472,14.847,3.27,22.474,3.653a121.071,121.071,0,0,0,17.131-.377,69.876,69.876,0,0,0,16.258-3.085,39.7,39.7,0,0,0,5.58-2.55,3.112,3.112,0,0,0,1.66-3.074c-.077-5.383-.031-10.768-.031-16.153v-.922c-1.666.759-3.215,1.58-4.844,2.186-6.319,2.351-12.939,3.245-19.606,3.776a123.324,123.324,0,0,1-29.576-1.059c-5.412-.876-10.739-2.081-15.682-5.055m0,23.234v1.079c0,5.385.044,10.77-.03,16.153a3.083,3.083,0,0,0,1.588,3.019,32.324,32.324,0,0,0,5.053,2.4c7.278,2.472,14.846,3.276,22.473,3.66a121.369,121.369,0,0,0,17.132-.374,70.55,70.55,0,0,0,16.347-3.1,38.394,38.394,0,0,0,5.421-2.467,3.233,3.233,0,0,0,1.758-3.206c-.085-5.353-.034-10.709-.034-16.063v-.96c-.141,0-.211-.022-.251,0a36.467,36.467,0,0,1-11.7,4.221,104.072,104.072,0,0,1-18.449,2.081,118.709,118.709,0,0,1-25.293-1.681c-4.854-.885-9.611-2.085-14.012-4.764m0,23.268v1.008c0,5.475.022,10.951-.019,16.426a2.624,2.624,0,0,0,1.192,2.481,28.708,28.708,0,0,0,4.465,2.353c5.843,2.211,11.974,3.091,18.157,3.657a122.532,122.532,0,0,0,20.12.164,75.311,75.311,0,0,0,18.608-3.279,38.337,38.337,0,0,0,5.649-2.61,2.993,2.993,0,0,0,1.563-2.94c-.065-5.413-.026-10.829-.028-16.244,0-.313-.027-.627-.045-1.043a29.532,29.532,0,0,1-8.176,3.443,98.079,98.079,0,0,1-23.774,3.043,118.959,118.959,0,0,1-19.275-1.036c-6.364-.877-12.64-2.061-18.437-5.423M221.342,3.283c-1.847.081-4.81.156-7.765.355a80.066,80.066,0,0,0-18.361,3.115A18.427,18.427,0,0,0,188.787,9.8c-1.557,1.271-1.62,2.447.019,3.6a20.371,20.371,0,0,0,4.45,2.368A66.359,66.359,0,0,0,211.042,19.4a118.288,118.288,0,0,0,30.994-1.079,42.966,42.966,0,0,0,11.782-3.447,13.012,13.012,0,0,0,2.89-1.986,1.557,1.557,0,0,0,.008-2.539,7.7,7.7,0,0,0-2.251-1.64,55.432,55.432,0,0,0-6.772-2.515c-8.254-2.259-16.723-2.8-26.351-2.908" transform="translate(-10.089)" fill="#084a93"/>
              <path id="Trazado_205002" data-name="Trazado 205002" d="M187.815,17.679c4.944,2.975,10.27,4.179,15.683,5.055a123.267,123.267,0,0,0,29.575,1.058c6.668-.53,13.287-1.424,19.606-3.775,1.629-.606,3.177-1.427,4.844-2.187v.922c0,5.385-.046,10.77.03,16.153a3.109,3.109,0,0,1-1.66,3.073,39.487,39.487,0,0,1-5.58,2.55,69.818,69.818,0,0,1-16.258,3.085,121.212,121.212,0,0,1-17.131.378c-7.626-.385-15.2-1.183-22.474-3.654a32.267,32.267,0,0,1-5.056-2.393,3.085,3.085,0,0,1-1.611-3.009c.077-5.383.031-10.768.031-16.153Zm66.39,11.541a1.708,1.708,0,0,0-1.643-1.7A1.679,1.679,0,0,0,250.9,29.1a1.645,1.645,0,0,0,1.583,1.73,1.678,1.678,0,0,0,1.72-1.607" transform="translate(-10.28 -0.968)" fill="#b9ddfc"/>
              <path id="Trazado_205003" data-name="Trazado 205003" d="M187.814,42.259c4.4,2.679,9.16,3.88,14.012,4.764A118.71,118.71,0,0,0,227.12,48.7a104.238,104.238,0,0,0,18.449-2.081,36.484,36.484,0,0,0,11.7-4.222c.042-.026.112,0,.252,0v.959c0,5.355-.052,10.71.033,16.063a3.233,3.233,0,0,1-1.757,3.206,38.4,38.4,0,0,1-5.422,2.467,70.531,70.531,0,0,1-16.347,3.1,121.359,121.359,0,0,1-17.131.374c-7.627-.384-15.2-1.187-22.473-3.66a32.354,32.354,0,0,1-5.052-2.4,3.087,3.087,0,0,1-1.589-3.02c.075-5.383.03-10.768.03-16.153Zm64.7,9.845A1.682,1.682,0,0,0,250.9,53.82a1.645,1.645,0,0,0,1.727,1.586,1.677,1.677,0,0,0,1.58-1.655A1.71,1.71,0,0,0,252.51,52.1" transform="translate(-10.28 -2.313)" fill="#b9ddfc"/>
              <path id="Trazado_205004" data-name="Trazado 205004" d="M187.816,66.873c5.8,3.363,12.073,4.546,18.437,5.424a119.073,119.073,0,0,0,19.276,1.036A98.113,98.113,0,0,0,249.3,70.29a29.476,29.476,0,0,0,8.176-3.443c.019.417.045.73.045,1.044,0,5.414-.037,10.83.029,16.244a3,3,0,0,1-1.563,2.939,38.393,38.393,0,0,1-5.65,2.61,75.26,75.26,0,0,1-18.608,3.279,122.427,122.427,0,0,1-20.12-.164c-6.182-.566-12.314-1.446-18.156-3.657a28.675,28.675,0,0,1-4.466-2.353,2.625,2.625,0,0,1-1.192-2.481c.042-5.475.019-10.95.019-16.426Zm66.39,11.512a1.707,1.707,0,0,0-1.641-1.7A1.679,1.679,0,0,0,250.9,78.26a1.644,1.644,0,0,0,1.581,1.731,1.678,1.678,0,0,0,1.722-1.605" transform="translate(-10.281 -3.66)" fill="#b9ddfc"/>
              <path id="Trazado_205005" data-name="Trazado 205005" d="M221.534,3.473c9.627.11,18.1.648,26.351,2.908A55.432,55.432,0,0,1,254.656,8.9a7.7,7.7,0,0,1,2.251,1.64,1.557,1.557,0,0,1-.008,2.539,13.012,13.012,0,0,1-2.89,1.986,42.966,42.966,0,0,1-11.782,3.447,118.288,118.288,0,0,1-30.994,1.079,66.359,66.359,0,0,1-17.786-3.626A20.371,20.371,0,0,1,189,13.593c-1.639-1.155-1.576-2.331-.019-3.6a18.427,18.427,0,0,1,6.429-3.048,80.066,80.066,0,0,1,18.361-3.115c2.955-.2,5.918-.274,7.765-.355" transform="translate(-10.28 -0.19)" fill="#ecf2f9"/>
              <path id="Trazado_205006" data-name="Trazado 205006" d="M257.861,29.79a1.678,1.678,0,0,1-1.72,1.607,1.645,1.645,0,0,1-1.583-1.73,1.679,1.679,0,0,1,1.661-1.576,1.708,1.708,0,0,1,1.643,1.7" transform="translate(-13.935 -1.538)" fill="#084a93"/>
              <path id="Trazado_205007" data-name="Trazado 205007" d="M256.166,52.674a1.71,1.71,0,0,1,1.695,1.648,1.677,1.677,0,0,1-1.58,1.655,1.645,1.645,0,0,1-1.727-1.586,1.682,1.682,0,0,1,1.613-1.717" transform="translate(-13.935 -2.884)" fill="#084a93"/>
              <path id="Trazado_205008" data-name="Trazado 205008" d="M257.861,78.956a1.678,1.678,0,0,1-1.722,1.605,1.644,1.644,0,0,1-1.581-1.731,1.679,1.679,0,0,1,1.663-1.574,1.707,1.707,0,0,1,1.641,1.7" transform="translate(-13.935 -4.229)" fill="#084a93"/>
              <rect id="Rectángulo_297331" data-name="Rectángulo 297331" width="56.44" height="34.732" transform="translate(184.159 35.809)" fill="#b9ddfc"/>
            </g>
          </g>
          <text id="Externos" transform="translate(180.914 41.057)" fill="#12263f" font-size="16" font-family="Roboto-Regular, Roboto"><tspan x="-31.172" y="15">Externos</tspan></text>
          <g id="Grupo_140813" data-name="Grupo 140813">
            <g id="Grupo_140812" data-name="Grupo 140812" clip-path="url(#clip-path)">
              <path id="Trazado_205009" data-name="Trazado 205009" d="M224.637,241.808c2.535.181,5.071.344,7.6.546,9.326.744,18.575,1.947,27.526,4.827a32.708,32.708,0,0,1,10.525,5.173c2.1,1.661,3.666,3.677,3.812,6.492.042.8-.028,1.608-.028,2.412q0,32.268,0,64.537c0,11.716-.06,23.435.039,35.15a9.082,9.082,0,0,1-3.594,7.545,31.091,31.091,0,0,1-9.969,5.1c-8.094,2.738-16.481,4-24.945,4.8a184.125,184.125,0,0,1-27.739.572c-11.491-.647-22.9-1.859-33.861-5.653a28.679,28.679,0,0,1-9.414-5,8.912,8.912,0,0,1-3.384-7.232q.094-31.731.03-63.463-.007-19.185-.048-38.37a8.248,8.248,0,0,1,3.22-6.372c3.239-2.814,7.132-4.39,11.142-5.689A111.231,111.231,0,0,1,200,242.633c3.16-.285,6.334-.415,9.5-.628a11.384,11.384,0,0,0,1.176-.2Zm-58.509,24.707v1.631c0,7.961.067,15.923-.046,23.882a4.563,4.563,0,0,0,2.381,4.448,47.678,47.678,0,0,0,7.476,3.539c10.761,3.654,21.952,4.834,33.228,5.4a179.087,179.087,0,0,0,25.328-.559c8.157-.745,16.256-1.913,24.038-4.561a58.612,58.612,0,0,0,8.249-3.771,4.6,4.6,0,0,0,2.455-4.544c-.113-7.96-.045-15.922-.045-23.883v-1.362c-2.465,1.123-4.755,2.337-7.162,3.233-9.343,3.476-19.13,4.8-28.988,5.583a182.281,182.281,0,0,1-43.728-1.564c-8-1.3-15.877-3.077-23.185-7.475m0,34.352v1.595c0,7.961.065,15.923-.045,23.883a4.562,4.562,0,0,0,2.349,4.464,47.849,47.849,0,0,0,7.47,3.55c10.76,3.655,21.95,4.843,33.226,5.412a179.676,179.676,0,0,0,25.329-.554c8.2-.747,16.341-1.936,24.169-4.587a56.579,56.579,0,0,0,8.016-3.648,4.779,4.779,0,0,0,2.6-4.74c-.126-7.914-.049-15.831-.049-23.748v-1.42c-.209,0-.312-.032-.372,0-5.335,3.281-11.256,4.944-17.3,6.241A154,154,0,0,1,224.24,310.4a175.5,175.5,0,0,1-37.4-2.486c-7.176-1.307-14.211-3.082-20.717-7.043m0,34.4v1.49c0,8.1.032,16.19-.028,24.286a3.88,3.88,0,0,0,1.762,3.669,42.411,42.411,0,0,0,6.6,3.479c8.638,3.269,17.7,4.57,26.844,5.407a181.1,181.1,0,0,0,29.747.244c9.334-.682,18.6-1.859,27.512-4.848a56.728,56.728,0,0,0,8.352-3.859,4.426,4.426,0,0,0,2.31-4.345c-.1-8-.039-16.011-.043-24.017,0-.463-.04-.926-.067-1.542a43.638,43.638,0,0,1-12.087,5.09c-11.5,3.171-23.285,4.2-35.149,4.5a175.956,175.956,0,0,1-28.5-1.531c-9.411-1.3-18.688-3.047-27.259-8.019m49.852-88.607c-2.731.121-7.112.232-11.481.525a118.443,118.443,0,0,0-27.147,4.606c-3.372,1.042-6.714,2.229-9.5,4.505-2.3,1.88-2.4,3.617.027,5.326a30.114,30.114,0,0,0,6.58,3.5c8.459,3.215,17.341,4.552,26.3,5.361a174.852,174.852,0,0,0,45.824-1.6c5.991-1.041,11.92-2.39,17.418-5.1a19.253,19.253,0,0,0,4.273-2.936c1.313-1.176,1.282-2.518.011-3.754a11.4,11.4,0,0,0-3.328-2.425,81.646,81.646,0,0,0-10.011-3.72c-12.2-3.341-24.726-4.136-38.96-4.3" transform="translate(-8.824 -13.238)" fill="#12263f"/>
              <path id="Trazado_205010" data-name="Trazado 205010" d="M166.409,267.947c7.309,4.4,15.186,6.178,23.186,7.474a182.281,182.281,0,0,0,43.728,1.564c9.858-.785,19.645-2.107,28.988-5.583,2.408-.9,4.7-2.11,7.162-3.233v1.362c0,7.961-.068,15.923.044,23.883a4.6,4.6,0,0,1-2.454,4.544,58.658,58.658,0,0,1-8.249,3.771c-7.782,2.648-15.882,3.816-24.038,4.561a179.09,179.09,0,0,1-25.328.559c-11.276-.568-22.468-1.748-33.228-5.4a47.638,47.638,0,0,1-7.476-3.539,4.563,4.563,0,0,1-2.381-4.448c.112-7.959.045-15.921.045-23.882Zm98.157,17.063a2.524,2.524,0,0,0-2.429-2.511,2.48,2.48,0,0,0-2.455,2.329,2.43,2.43,0,0,0,2.34,2.557,2.48,2.48,0,0,0,2.545-2.375" transform="translate(-9.107 -14.669)" fill="#ffb30b"/>
              <path id="Trazado_205011" data-name="Trazado 205011" d="M166.41,304.288c6.506,3.961,13.542,5.736,20.717,7.043a175.508,175.508,0,0,0,37.4,2.486,154.089,154.089,0,0,0,27.276-3.076c6.046-1.3,11.967-2.961,17.3-6.242.06-.037.164,0,.372,0v1.42c0,7.917-.077,15.834.049,23.749a4.778,4.778,0,0,1-2.6,4.74,56.739,56.739,0,0,1-8.016,3.648c-7.829,2.651-15.967,3.84-24.169,4.586a179.525,179.525,0,0,1-25.328.554c-11.276-.568-22.467-1.756-33.226-5.412a47.858,47.858,0,0,1-7.471-3.55,4.56,4.56,0,0,1-2.348-4.464c.11-7.96.044-15.922.044-23.883Zm95.652,14.555a2.487,2.487,0,0,0-2.384,2.537,2.43,2.43,0,0,0,2.552,2.345,2.48,2.48,0,0,0,2.338-2.447,2.527,2.527,0,0,0-2.506-2.435" transform="translate(-9.108 -16.658)" fill="#ffb30b"/>
              <path id="Trazado_205012" data-name="Trazado 205012" d="M166.411,340.68c8.572,4.971,17.848,6.721,27.259,8.019a176.063,176.063,0,0,0,28.5,1.531c11.864-.3,23.648-1.327,35.149-4.5a43.634,43.634,0,0,0,12.087-5.089c.027.614.067,1.079.067,1.542,0,8.005-.055,16.012.043,24.016a4.427,4.427,0,0,1-2.31,4.346,56.826,56.826,0,0,1-8.352,3.859c-8.912,2.988-18.177,4.166-27.512,4.847a181.1,181.1,0,0,1-29.747-.243c-9.141-.837-18.207-2.139-26.844-5.408a42.409,42.409,0,0,1-6.6-3.478,3.881,3.881,0,0,1-1.762-3.669c.061-8.1.028-16.19.028-24.286Zm98.156,17.02a2.523,2.523,0,0,0-2.426-2.512,2.481,2.481,0,0,0-2.458,2.326,2.43,2.43,0,0,0,2.338,2.559,2.479,2.479,0,0,0,2.547-2.373" transform="translate(-9.109 -18.648)" fill="#ffb30b"/>
              <path id="Trazado_205013" data-name="Trazado 205013" d="M216.263,246.943c14.234.163,26.756.958,38.96,4.3a81.646,81.646,0,0,1,10.011,3.72,11.4,11.4,0,0,1,3.328,2.425c1.27,1.235,1.3,2.578-.011,3.754a19.253,19.253,0,0,1-4.273,2.936c-5.5,2.706-11.427,4.055-17.418,5.1a174.852,174.852,0,0,1-45.824,1.6c-8.956-.808-17.838-2.146-26.3-5.361a30.111,30.111,0,0,1-6.58-3.5c-2.424-1.708-2.33-3.445-.027-5.326,2.789-2.276,6.132-3.463,9.5-4.505a118.443,118.443,0,0,1,27.147-4.606c4.369-.293,8.75-.4,11.481-.525" transform="translate(-9.108 -13.519)" fill="#ffb30b" opacity="0.35"/>
              <path id="Trazado_205014" data-name="Trazado 205014" d="M269.971,285.853a2.48,2.48,0,0,1-2.545,2.375,2.43,2.43,0,0,1-2.34-2.557,2.48,2.48,0,0,1,2.455-2.329,2.524,2.524,0,0,1,2.429,2.511" transform="translate(-14.512 -15.511)" fill="#12263f"/>
              <path id="Trazado_205015" data-name="Trazado 205015" d="M267.467,319.686a2.527,2.527,0,0,1,2.506,2.435,2.48,2.48,0,0,1-2.338,2.447,2.43,2.43,0,0,1-2.552-2.345,2.487,2.487,0,0,1,2.384-2.537" transform="translate(-14.512 -17.501)" fill="#12263f"/>
              <path id="Trazado_205016" data-name="Trazado 205016" d="M269.971,358.542a2.479,2.479,0,0,1-2.547,2.373,2.43,2.43,0,0,1-2.338-2.559,2.481,2.481,0,0,1,2.458-2.326,2.523,2.523,0,0,1,2.426,2.512" transform="translate(-14.512 -19.491)" fill="#12263f"/>
              <rect id="Rectángulo_297333" data-name="Rectángulo 297333" width="78.148" height="60.746" transform="translate(169.762 276.817)" fill="#ffb30b"/>
            </g>
          </g>
          <text id="Data" transform="translate(193.499 286.736)" fill="#12263f" font-size="16" font-family="Roboto-Regular, Roboto"><tspan x="-16.563" y="15">Data</tspan></text>
          <text id="Warehouse" transform="translate(171.901 304.885)" fill="#12263f" font-size="16" font-family="Roboto-Regular, Roboto"><tspan x="-39.934" y="15">Warehouse</tspan></text>
          <g id="Grupo_140815" data-name="Grupo 140815">
            <g id="Grupo_140814" data-name="Grupo 140814" clip-path="url(#clip-path)">
              <path id="Trazado_205017" data-name="Trazado 205017" d="M79.993,0c1.715.122,3.43.233,5.143.369a81.491,81.491,0,0,1,18.618,3.266,22.113,22.113,0,0,1,7.119,3.5,5.916,5.916,0,0,1,2.579,4.391c.028.543-.019,1.088-.019,1.632q0,21.825,0,43.651c0,7.925-.041,15.85.026,23.774a6.143,6.143,0,0,1-2.431,5.1,21.017,21.017,0,0,1-6.743,3.446A73.974,73.974,0,0,1,87.412,92.38a124.451,124.451,0,0,1-18.761.388c-7.773-.438-15.486-1.258-22.9-3.824a19.389,19.389,0,0,1-6.367-3.381,6.026,6.026,0,0,1-2.289-4.892q.064-21.463.021-42.924-.006-12.976-.033-25.952a5.577,5.577,0,0,1,2.178-4.309,20.977,20.977,0,0,1,7.536-3.848A75.236,75.236,0,0,1,63.333.558c2.136-.193,4.283-.28,6.425-.424A7.88,7.88,0,0,0,70.552,0ZM40.419,16.711v1.1c0,5.384.045,10.769-.031,16.153A3.085,3.085,0,0,0,42,36.976a32.15,32.15,0,0,0,5.056,2.394c7.278,2.472,14.847,3.27,22.474,3.653a121.071,121.071,0,0,0,17.131-.377,69.876,69.876,0,0,0,16.258-3.085,39.7,39.7,0,0,0,5.58-2.55,3.112,3.112,0,0,0,1.66-3.074c-.077-5.383-.031-10.768-.031-16.153v-.922c-1.666.759-3.215,1.58-4.843,2.186-6.319,2.351-12.939,3.245-19.606,3.776A123.324,123.324,0,0,1,56.1,21.766c-5.412-.876-10.739-2.081-15.682-5.055m0,23.234v1.079c0,5.385.044,10.77-.03,16.153A3.083,3.083,0,0,0,41.976,60.2a32.324,32.324,0,0,0,5.053,2.4c7.278,2.472,14.846,3.276,22.473,3.66a121.369,121.369,0,0,0,17.132-.374,70.549,70.549,0,0,0,16.347-3.1,38.392,38.392,0,0,0,5.421-2.467,3.233,3.233,0,0,0,1.758-3.206c-.085-5.353-.034-10.709-.034-16.063v-.96c-.141,0-.211-.022-.251,0a36.468,36.468,0,0,1-11.7,4.221A104.072,104.072,0,0,1,79.724,46.39,118.709,118.709,0,0,1,54.431,44.71c-4.854-.885-9.611-2.085-14.012-4.764m0,23.268v1.008c0,5.475.022,10.951-.019,16.426a2.624,2.624,0,0,0,1.192,2.481,28.707,28.707,0,0,0,4.465,2.353c5.843,2.211,11.974,3.091,18.157,3.657a122.532,122.532,0,0,0,20.12.164,75.311,75.311,0,0,0,18.608-3.279,38.338,38.338,0,0,0,5.649-2.61,2.993,2.993,0,0,0,1.563-2.94c-.065-5.413-.026-10.829-.028-16.244,0-.313-.027-.627-.045-1.043A29.532,29.532,0,0,1,101.9,66.63a98.079,98.079,0,0,1-23.774,3.043,118.959,118.959,0,0,1-19.275-1.036c-6.364-.877-12.64-2.061-18.437-5.423M74.137,3.283c-1.847.081-4.81.156-7.765.355A80.065,80.065,0,0,0,48.011,6.753,18.427,18.427,0,0,0,41.582,9.8c-1.557,1.271-1.62,2.447.019,3.6a20.371,20.371,0,0,0,4.45,2.368A66.359,66.359,0,0,0,63.837,19.4a118.288,118.288,0,0,0,30.994-1.079,42.975,42.975,0,0,0,11.782-3.447,13.012,13.012,0,0,0,2.89-1.986,1.557,1.557,0,0,0,.008-2.539,7.7,7.7,0,0,0-2.251-1.64,55.432,55.432,0,0,0-6.772-2.515c-8.254-2.259-16.723-2.8-26.351-2.908" transform="translate(-2.03)" fill="#084a93"/>
              <path id="Trazado_205018" data-name="Trazado 205018" d="M40.61,17.679c4.944,2.975,10.27,4.179,15.683,5.055a123.267,123.267,0,0,0,29.575,1.058c6.668-.53,13.287-1.424,19.606-3.775,1.629-.606,3.177-1.427,4.844-2.187v.922c0,5.385-.046,10.77.03,16.153a3.109,3.109,0,0,1-1.66,3.073,39.488,39.488,0,0,1-5.58,2.55,69.818,69.818,0,0,1-16.258,3.085,121.212,121.212,0,0,1-17.131.378c-7.626-.385-15.2-1.183-22.474-3.654a32.268,32.268,0,0,1-5.056-2.393,3.085,3.085,0,0,1-1.611-3.009c.077-5.383.031-10.768.031-16.153ZM107,29.22a1.708,1.708,0,0,0-1.643-1.7A1.679,1.679,0,0,0,103.7,29.1a1.645,1.645,0,0,0,1.583,1.73A1.678,1.678,0,0,0,107,29.22" transform="translate(-2.221 -0.968)" fill="#b9ddfc"/>
              <path id="Trazado_205019" data-name="Trazado 205019" d="M40.609,42.259c4.4,2.679,9.16,3.88,14.012,4.764A118.71,118.71,0,0,0,79.915,48.7a104.238,104.238,0,0,0,18.449-2.081,36.484,36.484,0,0,0,11.7-4.222c.042-.026.112,0,.252,0v.959c0,5.355-.052,10.71.033,16.063a3.233,3.233,0,0,1-1.757,3.206,38.4,38.4,0,0,1-5.422,2.467,70.531,70.531,0,0,1-16.347,3.1,121.359,121.359,0,0,1-17.131.374c-7.627-.384-15.2-1.187-22.473-3.66a32.354,32.354,0,0,1-5.052-2.4,3.087,3.087,0,0,1-1.589-3.02c.075-5.383.03-10.768.03-16.153Zm64.7,9.845a1.682,1.682,0,0,0-1.613,1.717,1.645,1.645,0,0,0,1.727,1.586A1.677,1.677,0,0,0,107,53.751a1.71,1.71,0,0,0-1.695-1.648" transform="translate(-2.221 -2.313)" fill="#b9ddfc"/>
              <path id="Trazado_205020" data-name="Trazado 205020" d="M40.611,66.873c5.8,3.363,12.073,4.546,18.437,5.424a119.073,119.073,0,0,0,19.276,1.036A98.113,98.113,0,0,0,102.1,70.29a29.476,29.476,0,0,0,8.176-3.443c.019.417.045.73.045,1.044,0,5.414-.037,10.83.029,16.244a3,3,0,0,1-1.563,2.939,38.394,38.394,0,0,1-5.65,2.61,75.26,75.26,0,0,1-18.608,3.279,122.427,122.427,0,0,1-20.12-.164c-6.182-.566-12.314-1.446-18.156-3.657a28.674,28.674,0,0,1-4.466-2.353,2.625,2.625,0,0,1-1.192-2.481c.042-5.475.019-10.95.019-16.426ZM107,78.386a1.707,1.707,0,0,0-1.641-1.7A1.679,1.679,0,0,0,103.7,78.26a1.644,1.644,0,0,0,1.581,1.731A1.678,1.678,0,0,0,107,78.386" transform="translate(-2.222 -3.66)" fill="#b9ddfc"/>
              <path id="Trazado_205021" data-name="Trazado 205021" d="M74.329,3.473c9.627.11,18.1.648,26.351,2.908A55.432,55.432,0,0,1,107.451,8.9a7.7,7.7,0,0,1,2.251,1.64,1.557,1.557,0,0,1-.008,2.539,13.012,13.012,0,0,1-2.89,1.986,42.975,42.975,0,0,1-11.782,3.447,118.288,118.288,0,0,1-30.994,1.079,66.359,66.359,0,0,1-17.786-3.626,20.371,20.371,0,0,1-4.45-2.368c-1.639-1.155-1.576-2.331-.019-3.6A18.427,18.427,0,0,1,48.2,6.943,80.065,80.065,0,0,1,66.563,3.828c2.955-.2,5.918-.274,7.765-.355" transform="translate(-2.222 -0.19)" fill="#ecf2f9"/>
              <path id="Trazado_205022" data-name="Trazado 205022" d="M110.656,29.79a1.678,1.678,0,0,1-1.72,1.607,1.645,1.645,0,0,1-1.583-1.73,1.679,1.679,0,0,1,1.661-1.576,1.708,1.708,0,0,1,1.643,1.7" transform="translate(-5.877 -1.538)" fill="#084a93"/>
              <path id="Trazado_205023" data-name="Trazado 205023" d="M108.961,52.674a1.71,1.71,0,0,1,1.695,1.648,1.677,1.677,0,0,1-1.58,1.655,1.645,1.645,0,0,1-1.727-1.586,1.682,1.682,0,0,1,1.613-1.717" transform="translate(-5.877 -2.884)" fill="#084a93"/>
              <path id="Trazado_205024" data-name="Trazado 205024" d="M110.656,78.956a1.678,1.678,0,0,1-1.722,1.605,1.644,1.644,0,0,1-1.581-1.731,1.679,1.679,0,0,1,1.663-1.574,1.707,1.707,0,0,1,1.641,1.7" transform="translate(-5.877 -4.229)" fill="#084a93"/>
              <rect id="Rectángulo_297335" data-name="Rectángulo 297335" width="56.44" height="34.732" transform="translate(45.02 35.809)" fill="#b9ddfc"/>
            </g>
          </g>
          <text id="Internos" transform="translate(44.592 41.057)" fill="#12263f" font-size="16" font-family="Roboto-Regular, Roboto"><tspan x="-29.25" y="15">Internos</tspan></text>
          <g id="Grupo_140817" data-name="Grupo 140817">
            <g id="Grupo_140816" data-name="Grupo 140816" clip-path="url(#clip-path)">
              <path id="Trazado_205025" data-name="Trazado 205025" d="M366.879,0c1.715.122,3.43.233,5.143.369A81.491,81.491,0,0,1,390.64,3.635a22.114,22.114,0,0,1,7.119,3.5,5.916,5.916,0,0,1,2.579,4.391c.028.543-.019,1.088-.019,1.632q0,21.825,0,43.651c0,7.925-.041,15.85.026,23.774a6.142,6.142,0,0,1-2.431,5.1,21.017,21.017,0,0,1-6.743,3.446A73.974,73.974,0,0,1,374.3,92.38a124.451,124.451,0,0,1-18.761.388c-7.773-.438-15.486-1.258-22.9-3.824a19.389,19.389,0,0,1-6.367-3.381,6.026,6.026,0,0,1-2.289-4.892q.064-21.463.021-42.924-.006-12.976-.033-25.952a5.577,5.577,0,0,1,2.178-4.309,20.978,20.978,0,0,1,7.536-3.848A75.235,75.235,0,0,1,350.219.558c2.137-.193,4.283-.28,6.425-.424A7.881,7.881,0,0,0,357.438,0ZM327.3,16.711v1.1c0,5.384.045,10.769-.031,16.153a3.085,3.085,0,0,0,1.611,3.008,32.15,32.15,0,0,0,5.056,2.394c7.278,2.472,14.847,3.27,22.474,3.653a121.071,121.071,0,0,0,17.131-.377A69.876,69.876,0,0,0,389.8,39.561a39.7,39.7,0,0,0,5.58-2.55,3.112,3.112,0,0,0,1.66-3.074c-.077-5.383-.031-10.768-.031-16.153v-.922c-1.667.759-3.215,1.58-4.844,2.186-6.319,2.351-12.939,3.245-19.606,3.776a123.324,123.324,0,0,1-29.576-1.059c-5.412-.876-10.739-2.081-15.682-5.055m0,23.234v1.079c0,5.385.044,10.77-.03,16.153a3.083,3.083,0,0,0,1.588,3.019,32.325,32.325,0,0,0,5.053,2.4c7.278,2.472,14.846,3.276,22.473,3.66a121.369,121.369,0,0,0,17.132-.374,70.549,70.549,0,0,0,16.347-3.1,38.393,38.393,0,0,0,5.421-2.467,3.233,3.233,0,0,0,1.758-3.206c-.085-5.353-.034-10.709-.034-16.063v-.96c-.141,0-.211-.022-.251,0a36.467,36.467,0,0,1-11.7,4.221A104.071,104.071,0,0,1,366.61,46.39a118.709,118.709,0,0,1-25.293-1.681c-4.854-.885-9.611-2.085-14.012-4.764m0,23.268v1.008c0,5.475.022,10.951-.019,16.426a2.624,2.624,0,0,0,1.192,2.481,28.706,28.706,0,0,0,4.465,2.353c5.843,2.211,11.974,3.091,18.157,3.657a122.532,122.532,0,0,0,20.12.164,75.312,75.312,0,0,0,18.608-3.279,38.337,38.337,0,0,0,5.649-2.61,2.993,2.993,0,0,0,1.563-2.94c-.065-5.413-.026-10.829-.028-16.244,0-.313-.027-.627-.045-1.043a29.532,29.532,0,0,1-8.175,3.443,98.079,98.079,0,0,1-23.774,3.043,118.959,118.959,0,0,1-19.275-1.036c-6.364-.877-12.64-2.061-18.437-5.423M361.023,3.283c-1.847.081-4.81.156-7.765.355A80.065,80.065,0,0,0,334.9,6.753,18.427,18.427,0,0,0,328.468,9.8c-1.557,1.271-1.62,2.447.019,3.6a20.371,20.371,0,0,0,4.45,2.368A66.359,66.359,0,0,0,350.723,19.4a118.288,118.288,0,0,0,30.994-1.079A42.975,42.975,0,0,0,393.5,14.871a13.012,13.012,0,0,0,2.89-1.986,1.557,1.557,0,0,0,.008-2.539,7.7,7.7,0,0,0-2.251-1.64,55.432,55.432,0,0,0-6.772-2.515c-8.254-2.259-16.723-2.8-26.351-2.908" transform="translate(-17.735)" fill="#084a93"/>
              <path id="Trazado_205026" data-name="Trazado 205026" d="M327.5,17.679c4.944,2.975,10.27,4.179,15.683,5.055a123.267,123.267,0,0,0,29.575,1.058c6.668-.53,13.287-1.424,19.606-3.775,1.629-.606,3.177-1.427,4.844-2.187v.922c0,5.385-.046,10.77.03,16.153a3.109,3.109,0,0,1-1.66,3.073,39.486,39.486,0,0,1-5.58,2.55,69.817,69.817,0,0,1-16.258,3.085,121.212,121.212,0,0,1-17.131.378c-7.626-.385-15.2-1.183-22.474-3.654a32.268,32.268,0,0,1-5.056-2.393,3.085,3.085,0,0,1-1.611-3.009c.077-5.383.031-10.768.031-16.153Zm66.39,11.541a1.708,1.708,0,0,0-1.643-1.7,1.679,1.679,0,0,0-1.661,1.576,1.645,1.645,0,0,0,1.583,1.73,1.678,1.678,0,0,0,1.72-1.607" transform="translate(-17.927 -0.968)" fill="#b9ddfc"/>
              <path id="Trazado_205027" data-name="Trazado 205027" d="M327.5,42.259c4.4,2.679,9.16,3.88,14.012,4.764A118.71,118.71,0,0,0,366.8,48.7a104.238,104.238,0,0,0,18.449-2.081,36.484,36.484,0,0,0,11.7-4.222c.042-.026.112,0,.252,0v.959c0,5.355-.052,10.71.033,16.063a3.233,3.233,0,0,1-1.757,3.206,38.4,38.4,0,0,1-5.422,2.467,70.531,70.531,0,0,1-16.347,3.1,121.359,121.359,0,0,1-17.131.374c-7.627-.384-15.2-1.187-22.473-3.66a32.353,32.353,0,0,1-5.052-2.4,3.087,3.087,0,0,1-1.589-3.02c.075-5.383.03-10.768.03-16.153Zm64.7,9.845a1.682,1.682,0,0,0-1.613,1.717,1.645,1.645,0,0,0,1.727,1.586,1.677,1.677,0,0,0,1.58-1.655,1.71,1.71,0,0,0-1.695-1.648" transform="translate(-17.927 -2.313)" fill="#b9ddfc"/>
              <path id="Trazado_205028" data-name="Trazado 205028" d="M327.5,66.873c5.8,3.363,12.073,4.546,18.437,5.424a119.073,119.073,0,0,0,19.276,1.036,98.113,98.113,0,0,0,23.773-3.044,29.475,29.475,0,0,0,8.176-3.443c.019.417.045.73.045,1.044,0,5.414-.037,10.83.029,16.244a3,3,0,0,1-1.563,2.939,38.394,38.394,0,0,1-5.65,2.61,75.26,75.26,0,0,1-18.608,3.279,122.427,122.427,0,0,1-20.12-.164c-6.182-.566-12.314-1.446-18.156-3.657a28.674,28.674,0,0,1-4.466-2.353,2.625,2.625,0,0,1-1.192-2.481c.042-5.475.019-10.95.019-16.426Zm66.39,11.512a1.707,1.707,0,0,0-1.641-1.7,1.679,1.679,0,0,0-1.663,1.574,1.644,1.644,0,0,0,1.581,1.731,1.678,1.678,0,0,0,1.722-1.605" transform="translate(-17.928 -3.66)" fill="#b9ddfc"/>
              <path id="Trazado_205029" data-name="Trazado 205029" d="M361.215,3.473c9.627.11,18.1.648,26.351,2.908A55.432,55.432,0,0,1,394.337,8.9a7.7,7.7,0,0,1,2.251,1.64,1.557,1.557,0,0,1-.008,2.539,13.012,13.012,0,0,1-2.89,1.986,42.975,42.975,0,0,1-11.782,3.447,118.288,118.288,0,0,1-30.994,1.079,66.359,66.359,0,0,1-17.786-3.626,20.371,20.371,0,0,1-4.45-2.368c-1.639-1.155-1.576-2.331-.019-3.6a18.427,18.427,0,0,1,6.429-3.048,80.065,80.065,0,0,1,18.361-3.115c2.955-.2,5.918-.274,7.765-.355" transform="translate(-17.927 -0.19)" fill="#ecf2f9"/>
              <path id="Trazado_205030" data-name="Trazado 205030" d="M397.541,29.79a1.678,1.678,0,0,1-1.72,1.607,1.645,1.645,0,0,1-1.583-1.73,1.679,1.679,0,0,1,1.661-1.576,1.708,1.708,0,0,1,1.643,1.7" transform="translate(-21.582 -1.538)" fill="#084a93"/>
              <path id="Trazado_205031" data-name="Trazado 205031" d="M395.847,52.674a1.71,1.71,0,0,1,1.695,1.648,1.677,1.677,0,0,1-1.58,1.655,1.645,1.645,0,0,1-1.727-1.586,1.682,1.682,0,0,1,1.613-1.717" transform="translate(-21.582 -2.884)" fill="#084a93"/>
              <path id="Trazado_205032" data-name="Trazado 205032" d="M397.541,78.956a1.678,1.678,0,0,1-1.722,1.605,1.644,1.644,0,0,1-1.581-1.731,1.679,1.679,0,0,1,1.663-1.574,1.707,1.707,0,0,1,1.641,1.7" transform="translate(-21.582 -4.229)" fill="#084a93"/>
              <rect id="Rectángulo_297337" data-name="Rectángulo 297337" width="56.44" height="34.732" transform="translate(316.2 35.809)" fill="#b9ddfc"/>
            </g>
          </g>
          <text id="Otras_Fuentes" data-name="Otras
Fuentes" transform="translate(315.6 33.87)" fill="#12263f" font-size="16" font-family="Roboto-Regular, Roboto"><tspan x="-19.141" y="15">Otras</tspan><tspan x="-28.375" y="39">Fuentes</tspan></text>
          <g id="Grupo_140819" data-name="Grupo 140819">
            <g id="Grupo_140818" data-name="Grupo 140818" clip-path="url(#clip-path)">
              <path id="Trazado_205033" data-name="Trazado 205033" d="M305.293,196.232H124.587a12.976,12.976,0,0,1-12.976-12.977V156.242a12.977,12.977,0,0,1,12.976-12.977H305.293a12.978,12.978,0,0,1,12.977,12.977v27.013a12.977,12.977,0,0,1-12.977,12.977" transform="translate(-6.11 -7.843)" fill="#fff"/>
              <path id="Rectángulo_297339" data-name="Rectángulo 297339" d="M13.729,0h179.2a13.728,13.728,0,0,1,13.728,13.728V39.239a13.728,13.728,0,0,1-13.728,13.728H13.729A13.729,13.729,0,0,1,0,39.238V13.729A13.729,13.729,0,0,1,13.729,0Z" transform="translate(105.501 135.422)" fill="none" stroke="#00defc" stroke-miterlimit="10" stroke-width="4"/>
            </g>
          </g>
          <text id="Extracción_transformación_y_carga_de_los_datos" data-name="Extracción, transformación
y carga de los datos" transform="translate(113 141.823)" fill="#12263f" font-size="16" font-family="Roboto-Regular, Roboto"><tspan x="-95.441" y="15">Extracción, transformación</tspan><tspan x="-71.184" y="39">y carga de los datos</tspan></text>
          <g id="Grupo_140821" data-name="Grupo 140821">
            <g id="Grupo_140820" data-name="Grupo 140820" clip-path="url(#clip-path)">
              <line id="Línea_369" data-name="Línea 369" y2="42.467" transform="translate(212.379 92.956)" fill="none" stroke="#084a93" stroke-miterlimit="10" stroke-width="1"/>
              <line id="Línea_370" data-name="Línea 370" x1="43.6" y2="42.467" transform="translate(300.82 92.956)" fill="none" stroke="#084a93" stroke-miterlimit="10" stroke-width="1"/>
              <line id="Línea_371" data-name="Línea 371" x2="43.6" y2="42.467" transform="translate(73.24 92.956)" fill="none" stroke="#084a93" stroke-miterlimit="10" stroke-width="1"/>
              <line id="Línea_372" data-name="Línea 372" y2="72.207" transform="translate(208.83 373.79)" fill="none" stroke="#084a93" stroke-miterlimit="10" stroke-width="1"/>
              <line id="Línea_373" data-name="Línea 373" x2="104.069" y2="79.999" transform="translate(257.602 365.998)" fill="none" stroke="#084a93" stroke-miterlimit="10" stroke-width="1"/>
              <line id="Línea_374" data-name="Línea 374" x1="100.463" y2="79.999" transform="translate(55.99 365.998)" fill="none" stroke="#084a93" stroke-miterlimit="10" stroke-width="1"/>
              <path id="Trazado_205034" data-name="Trazado 205034" d="M225.282,221.97v-15.2H216.6v15.2h-6.513l10.854,10.854,10.854-10.854Z" transform="translate(-11.501 -11.32)" fill="#084a93"/>
              <path id="Trazado_205035" data-name="Trazado 205035" d="M322.333,143.014a4.342,4.342,0,1,1-4.342-4.342,4.341,4.341,0,0,1,4.342,4.342" transform="translate(-17.171 -7.592)" fill="#084a93"/>
              <path id="Trazado_205036" data-name="Trazado 205036" d="M386.834,471.576a4.342,4.342,0,1,1-4.342-4.342,4.341,4.341,0,0,1,4.342,4.342" transform="translate(-20.702 -25.578)" fill="#084a93"/>
              <path id="Trazado_205037" data-name="Trazado 205037" d="M225.143,471.576a4.342,4.342,0,1,1-4.342-4.342,4.341,4.341,0,0,1,4.342,4.342" transform="translate(-11.85 -25.578)" fill="#084a93"/>
              <path id="Trazado_205038" data-name="Trazado 205038" d="M63.2,471.576a4.342,4.342,0,1,1-4.342-4.342,4.341,4.341,0,0,1,4.342,4.342" transform="translate(-2.984 -25.578)" fill="#084a93"/>
              <path id="Trazado_205039" data-name="Trazado 205039" d="M228.777,143.014a4.342,4.342,0,1,1-4.342-4.342,4.341,4.341,0,0,1,4.342,4.342" transform="translate(-12.049 -7.592)" fill="#084a93"/>
              <path id="Trazado_205040" data-name="Trazado 205040" d="M127.7,143.014a4.342,4.342,0,1,1-4.342-4.342,4.341,4.341,0,0,1,4.342,4.342" transform="translate(-6.515 -7.592)" fill="#084a93"/>
            </g>
          </g>
        </g>
        <text id="Data_Warehouse_Arquitectura" data-name="Data Warehouse Arquitectura" transform="translate(431 7703)" fill="#12263f" font-size="18" font-family="Roboto-Regular, Roboto"><tspan x="-118.978" y="0">Data Warehouse</tspan><tspan y="0" xml:space="preserve" font-family="Roboto-Black, Roboto" font-weight="800"> Arquitectura</tspan></text>
      </g>
    </g>
  </g>
</svg>
