<svg xmlns="http://www.w3.org/2000/svg" xmlns:xlink="http://www.w3.org/1999/xlink" width="264.807" height="217" viewBox="0 0 264.807 217">
  <defs>
    <filter id="Rectángulo_298393" x="-9" y="-6" width="282.807" height="235" filterUnits="userSpaceOnUse">
      <feOffset dy="3" input="SourceAlpha"/>
      <feGaussianBlur stdDeviation="3" result="blur"/>
      <feFlood flood-opacity="0.161"/>
      <feComposite operator="in" in2="blur"/>
      <feComposite in="SourceGraphic"/>
    </filter>
    <clipPath id="clip-path">
      <g transform="matrix(1, 0, 0, 1, 0, 0)" filter="url(#Rectángulo_298393)">
        <rect id="Rectángulo_298393-2" data-name="Rectángulo 298393" width="217" height="264.807" rx="4" transform="translate(315.19 13355) rotate(-90)" fill="none" stroke="#004b89" stroke-width="2" stroke-dasharray="10"/>
      </g>
    </clipPath>
    <clipPath id="clip-path-2">
      <rect id="Rectángulo_297246" data-name="Rectángulo 297246" width="251.179" height="364.633" fill="none"/>
    </clipPath>
    <clipPath id="clip-path-4">
      <rect id="Rectángulo_297219" data-name="Rectángulo 297219" width="72.512" height="41.864" fill="none"/>
    </clipPath>
    <clipPath id="clip-path-5">
      <rect id="Rectángulo_297225" data-name="Rectángulo 297225" width="126.924" height="164.502" fill="none"/>
    </clipPath>
    <clipPath id="clip-path-6">
      <rect id="Rectángulo_297220" data-name="Rectángulo 297220" width="52.167" height="35.07" fill="none"/>
    </clipPath>
    <clipPath id="clip-path-7">
      <rect id="Rectángulo_297221" data-name="Rectángulo 297221" width="45.876" height="31.441" fill="none"/>
    </clipPath>
    <clipPath id="clip-path-8">
      <rect id="Rectángulo_297222" data-name="Rectángulo 297222" width="104.336" height="65.186" fill="none"/>
    </clipPath>
    <clipPath id="clip-path-9">
      <rect id="Rectángulo_297223" data-name="Rectángulo 297223" width="104.336" height="65.191" fill="none"/>
    </clipPath>
    <clipPath id="clip-path-11">
      <rect id="Rectángulo_297231" data-name="Rectángulo 297231" width="126.923" height="164.502" fill="none"/>
    </clipPath>
    <clipPath id="clip-path-12">
      <rect id="Rectángulo_297226" data-name="Rectángulo 297226" width="52.168" height="35.07" fill="none"/>
    </clipPath>
    <clipPath id="clip-path-14">
      <rect id="Rectángulo_297228" data-name="Rectángulo 297228" width="104.334" height="65.187" fill="none"/>
    </clipPath>
    <clipPath id="clip-path-15">
      <rect id="Rectángulo_297229" data-name="Rectángulo 297229" width="104.334" height="65.191" fill="none"/>
    </clipPath>
    <clipPath id="clip-path-17">
      <rect id="Rectángulo_297237" data-name="Rectángulo 297237" width="126.922" height="164.502" fill="none"/>
    </clipPath>
    <clipPath id="clip-path-18">
      <rect id="Rectángulo_297232" data-name="Rectángulo 297232" width="52.164" height="35.069" fill="none"/>
    </clipPath>
    <clipPath id="clip-path-19">
      <rect id="Rectángulo_297233" data-name="Rectángulo 297233" width="45.876" height="31.439" fill="none"/>
    </clipPath>
    <clipPath id="clip-path-29">
      <rect id="Rectángulo_297244" data-name="Rectángulo 297244" width="52.863" height="157.642" fill="none"/>
    </clipPath>
  </defs>
  <g id="Enmascarar_grupo_140" data-name="Enmascarar grupo 140" transform="translate(-315.193 -13138)" clip-path="url(#clip-path)">
    <g id="Grupo_140608" data-name="Grupo 140608" transform="translate(320.821 13146)">
      <g id="Grupo_140607" data-name="Grupo 140607" clip-path="url(#clip-path-2)">
        <g id="Grupo_140606" data-name="Grupo 140606">
          <g id="Grupo_140605" data-name="Grupo 140605" clip-path="url(#clip-path-2)">
            <g id="Grupo_140529" data-name="Grupo 140529" transform="translate(0 322.769)" opacity="0.15" style="mix-blend-mode: multiply;isolation: isolate">
              <g id="Grupo_140528" data-name="Grupo 140528">
                <g id="Grupo_140527" data-name="Grupo 140527" clip-path="url(#clip-path-4)">
                  <path id="Trazado_204611" data-name="Trazado 204611" d="M60.962,204.343,42.849,193.887c-12.285-7.094-29.252-8.8-37.894-3.808s-5.689,14.785,6.594,21.878L29.66,222.414c12.285,7.091,29.252,8.8,37.9,3.8s5.691-14.784-6.594-21.876" transform="translate(0 -187.217)" fill="#6b99d1"/>
                </g>
              </g>
            </g>
            <g id="Grupo_140547" data-name="Grupo 140547" transform="translate(124.256)" opacity="0.3">
              <g id="Grupo_140546" data-name="Grupo 140546">
                <g id="Grupo_140545" data-name="Grupo 140545" clip-path="url(#clip-path-5)">
                  <path id="Trazado_204612" data-name="Trazado 204612" d="M191.1,65.989,79.247,1.412c-3.686-2.129-6.674-.4-6.674,3.851V86.231a14.752,14.752,0,0,0,6.672,11.558L191.1,162.366c3.684,2.129,6.672.4,6.672-3.851l0-80.967A14.754,14.754,0,0,0,191.1,65.989" transform="translate(-71.71 0.362)" fill="#57f7e0"/>
                  <path id="Trazado_204613" data-name="Trazado 204613" d="M191.1,65.989,79.247,1.412c-3.686-2.129-6.674-.4-6.674,3.851V86.231a14.752,14.752,0,0,0,6.672,11.558L191.1,162.366c3.684,2.129,6.672.4,6.672-3.851l0-80.967A14.754,14.754,0,0,0,191.1,65.989Z" transform="translate(-71.71 0.362)" fill="none" stroke="#e9fffb" stroke-miterlimit="10" stroke-width="1"/>
                  <g id="Grupo_140532" data-name="Grupo 140532" transform="translate(63.462 51.731)" opacity="0.8">
                    <g id="Grupo_140531" data-name="Grupo 140531">
                      <g id="Grupo_140530" data-name="Grupo 140530" clip-path="url(#clip-path-6)">
                        <path id="Trazado_204614" data-name="Trazado 204614" d="M157.712,56.727,112.22,30.461c-1.843-1.064-3.336-.2-3.336,1.927v.188a7.368,7.368,0,0,0,3.336,5.779L157.712,64.62c1.843,1.064,3.338.2,3.338-1.927v-.186a7.376,7.376,0,0,0-3.338-5.779" transform="translate(-108.882 -30.006)" fill="#0b3fa5"/>
                      </g>
                    </g>
                  </g>
                  <g id="Grupo_140535" data-name="Grupo 140535" transform="translate(11.294 21.614)" opacity="0.8">
                    <g id="Grupo_140534" data-name="Grupo 140534">
                      <g id="Grupo_140533" data-name="Grupo 140533" clip-path="url(#clip-path-7)">
                        <path id="Trazado_204615" data-name="Trazado 204615" d="M121.163,35.629l-39.2-22.637c-1.845-1.064-3.339-.2-3.339,1.927v.19a7.375,7.375,0,0,0,3.339,5.779l39.2,22.635c1.843,1.062,3.336.2,3.336-1.927v-.188a7.374,7.374,0,0,0-3.336-5.779" transform="translate(-78.624 -12.537)" fill="#0b3fa5"/>
                      </g>
                    </g>
                  </g>
                  <g id="Grupo_140538" data-name="Grupo 140538" transform="translate(11.294 58.745)" opacity="0.8">
                    <g id="Grupo_140537" data-name="Grupo 140537">
                      <g id="Grupo_140536" data-name="Grupo 140536" clip-path="url(#clip-path-8)">
                        <path id="Trazado_204616" data-name="Trazado 204616" d="M157.712,78.264,112.22,52c-1.843-1.064-3.336-.2-3.336,1.927v.188a7.374,7.374,0,0,0,3.336,5.781l45.492,26.264c1.843,1.064,3.338.2,3.338-1.927v-.188a7.376,7.376,0,0,0-3.338-5.779" transform="translate(-56.714 -21.426)" fill="#0b3fa5"/>
                        <path id="Trazado_204617" data-name="Trazado 204617" d="M121.163,57.166l-39.2-22.637c-1.845-1.064-3.339-.2-3.339,1.927v.19a7.378,7.378,0,0,0,3.339,5.779l39.2,22.633c1.843,1.064,3.336.2,3.336-1.926v-.188a7.374,7.374,0,0,0-3.336-5.779" transform="translate(-78.624 -34.074)" fill="#0b3fa5"/>
                      </g>
                    </g>
                  </g>
                  <g id="Grupo_140541" data-name="Grupo 140541" transform="translate(11.294 40.175)" opacity="0.8">
                    <g id="Grupo_140540" data-name="Grupo 140540">
                      <g id="Grupo_140539" data-name="Grupo 140539" clip-path="url(#clip-path-9)">
                        <path id="Trazado_204618" data-name="Trazado 204618" d="M148.95,62.436,124.322,48.218c-1.841-1.065-3.336-.2-3.336,1.926v.19a7.375,7.375,0,0,0,3.338,5.779L148.95,70.33c1.843,1.062,3.338.2,3.338-1.927v-.188a7.378,7.378,0,0,0-3.338-5.779" transform="translate(-47.952 -5.594)" fill="#0b3fa5"/>
                        <path id="Trazado_204619" data-name="Trazado 204619" d="M126.68,49.609l-20.888-12.13c-1.841-1.067-3.334-.209-3.334,1.919v.19a7.394,7.394,0,0,0,3.334,5.786L126.68,57.5c1.841,1.067,3.334.209,3.334-1.919V55.4a7.4,7.4,0,0,0-3.334-5.788" transform="translate(-61.367 -13.371)" fill="#0b3fa5"/>
                        <path id="Trazado_204620" data-name="Trazado 204620" d="M111.2,40.555l-29.24-16.8c-1.843-1.062-3.339-.2-3.339,1.933v.188a7.357,7.357,0,0,0,3.339,5.772l29.24,16.8c1.846,1.06,3.341.195,3.341-1.933v-.188a7.352,7.352,0,0,0-3.341-5.772" transform="translate(-78.623 -23.302)" fill="#0b3fa5"/>
                      </g>
                    </g>
                  </g>
                  <g id="Grupo_140544" data-name="Grupo 140544" transform="translate(11.294 77.509)" opacity="0.8">
                    <g id="Grupo_140543" data-name="Grupo 140543">
                      <g id="Grupo_140542" data-name="Grupo 140542" clip-path="url(#clip-path-9)">
                        <path id="Trazado_204621" data-name="Trazado 204621" d="M155.271,87.722,115.593,64.858c-1.843-1.064-3.338-.2-3.338,1.929v.19a7.372,7.372,0,0,0,3.338,5.776l39.679,22.862c1.843,1.064,3.338.2,3.338-1.927V93.5a7.372,7.372,0,0,0-3.338-5.777" transform="translate(-54.273 -30.879)" fill="#0b3fa5"/>
                        <path id="Trazado_204622" data-name="Trazado 204622" d="M117.949,66.252,97.057,54.122c-1.841-1.067-3.331-.209-3.331,1.919v.19a7.391,7.391,0,0,0,3.331,5.786l20.892,12.13c1.841,1.067,3.331.209,3.331-1.919v-.188a7.4,7.4,0,0,0-3.331-5.788" transform="translate(-67.689 -38.655)" fill="#0b3fa5"/>
                        <path id="Trazado_204623" data-name="Trazado 204623" d="M96.151,53.568,81.964,45.412c-1.843-1.062-3.341-.2-3.341,1.933v.188a7.364,7.364,0,0,0,3.341,5.774l14.187,8.155c1.843,1.06,3.341.195,3.341-1.933V59.34a7.361,7.361,0,0,0-3.341-5.772" transform="translate(-78.624 -44.958)" fill="#0b3fa5"/>
                      </g>
                    </g>
                  </g>
                </g>
              </g>
            </g>
            <g id="Grupo_140565" data-name="Grupo 140565" transform="translate(103.387 12.048)" opacity="0.5">
              <g id="Grupo_140564" data-name="Grupo 140564">
                <g id="Grupo_140563" data-name="Grupo 140563" clip-path="url(#clip-path-11)">
                  <path id="Trazado_204624" data-name="Trazado 204624" d="M178.993,72.977,67.142,8.4c-3.684-2.127-6.67-.4-6.67,3.851l0,80.967a14.751,14.751,0,0,0,6.674,11.558l111.852,64.579c3.688,2.127,6.674.4,6.674-3.853V84.535a14.745,14.745,0,0,0-6.674-11.558" transform="translate(-59.606 -6.626)" fill="#57f7e0"/>
                  <path id="Trazado_204625" data-name="Trazado 204625" d="M178.993,72.977,67.142,8.4c-3.684-2.127-6.67-.4-6.67,3.851l0,80.967a14.751,14.751,0,0,0,6.674,11.558l111.852,64.579c3.688,2.127,6.674.4,6.674-3.853V84.535A14.745,14.745,0,0,0,178.993,72.977Z" transform="translate(-59.606 -6.626)" fill="none" stroke="#e9fffb" stroke-miterlimit="10" stroke-width="1"/>
                  <g id="Grupo_140550" data-name="Grupo 140550" transform="translate(63.463 51.731)" opacity="0.8">
                    <g id="Grupo_140549" data-name="Grupo 140549">
                      <g id="Grupo_140548" data-name="Grupo 140548" clip-path="url(#clip-path-12)">
                        <path id="Trazado_204626" data-name="Trazado 204626" d="M145.611,63.715,100.117,37.449c-1.843-1.064-3.339-.2-3.339,1.927v.188a7.378,7.378,0,0,0,3.339,5.781l45.494,26.264c1.841,1.062,3.334.2,3.334-1.927v-.188a7.377,7.377,0,0,0-3.334-5.779" transform="translate(-96.78 -36.994)" fill="#0b3fa5"/>
                      </g>
                    </g>
                  </g>
                  <g id="Grupo_140553" data-name="Grupo 140553" transform="translate(11.296 21.614)" opacity="0.8">
                    <g id="Grupo_140552" data-name="Grupo 140552">
                      <g id="Grupo_140551" data-name="Grupo 140551" clip-path="url(#clip-path-7)">
                        <path id="Trazado_204627" data-name="Trazado 204627" d="M109.06,42.617,69.856,19.98c-1.843-1.064-3.336-.2-3.336,1.927v.19a7.374,7.374,0,0,0,3.336,5.779l39.2,22.633c1.841,1.064,3.336.2,3.336-1.926V48.4a7.381,7.381,0,0,0-3.336-5.779" transform="translate(-66.521 -19.525)" fill="#0b3fa5"/>
                      </g>
                    </g>
                  </g>
                  <g id="Grupo_140556" data-name="Grupo 140556" transform="translate(11.296 58.743)" opacity="0.8">
                    <g id="Grupo_140555" data-name="Grupo 140555">
                      <g id="Grupo_140554" data-name="Grupo 140554" clip-path="url(#clip-path-14)">
                        <path id="Trazado_204628" data-name="Trazado 204628" d="M145.611,85.25,100.117,58.986c-1.843-1.064-3.339-.2-3.339,1.927V61.1a7.372,7.372,0,0,0,3.339,5.781l45.494,26.262c1.841,1.065,3.334.2,3.334-1.924v-.188a7.385,7.385,0,0,0-3.334-5.781" transform="translate(-44.613 -28.412)" fill="#0b3fa5"/>
                        <path id="Trazado_204629" data-name="Trazado 204629" d="M109.06,64.154l-39.2-22.637c-1.843-1.064-3.336-.2-3.336,1.927v.19a7.376,7.376,0,0,0,3.336,5.779l39.2,22.633c1.841,1.064,3.336.2,3.336-1.926v-.188a7.378,7.378,0,0,0-3.336-5.779" transform="translate(-66.521 -41.06)" fill="#0b3fa5"/>
                      </g>
                    </g>
                  </g>
                  <g id="Grupo_140559" data-name="Grupo 140559" transform="translate(11.296 40.175)" opacity="0.8">
                    <g id="Grupo_140558" data-name="Grupo 140558">
                      <g id="Grupo_140557" data-name="Grupo 140557" clip-path="url(#clip-path-15)">
                        <path id="Trazado_204630" data-name="Trazado 204630" d="M136.848,69.425l-24.63-14.22c-1.845-1.064-3.336-.2-3.336,1.927v.188a7.372,7.372,0,0,0,3.336,5.781l24.63,14.216c1.841,1.064,3.334.2,3.334-1.926V75.2a7.377,7.377,0,0,0-3.334-5.779" transform="translate(-35.849 -12.582)" fill="#0b3fa5"/>
                        <path id="Trazado_204631" data-name="Trazado 204631" d="M114.577,56.6,93.685,44.467c-1.841-1.069-3.331-.209-3.331,1.919v.19a7.391,7.391,0,0,0,3.331,5.786L114.577,64.49c1.838,1.067,3.331.21,3.331-1.919v-.186a7.406,7.406,0,0,0-3.331-5.788" transform="translate(-49.264 -20.36)" fill="#0b3fa5"/>
                        <path id="Trazado_204632" data-name="Trazado 204632" d="M99.1,47.542l-29.238-16.8c-1.846-1.062-3.341-.195-3.341,1.933v.188a7.353,7.353,0,0,0,3.341,5.774L99.1,55.434c1.843,1.06,3.341.195,3.341-1.933v-.188A7.361,7.361,0,0,0,99.1,47.542" transform="translate(-66.52 -30.291)" fill="#0b3fa5"/>
                      </g>
                    </g>
                  </g>
                  <g id="Grupo_140562" data-name="Grupo 140562" transform="translate(11.296 77.509)" opacity="0.8">
                    <g id="Grupo_140561" data-name="Grupo 140561">
                      <g id="Grupo_140560" data-name="Grupo 140560" clip-path="url(#clip-path-15)">
                        <path id="Trazado_204633" data-name="Trazado 204633" d="M143.166,94.712,103.488,71.846c-1.843-1.064-3.338-.2-3.338,1.929v.19a7.372,7.372,0,0,0,3.338,5.777L143.166,102.6c1.843,1.062,3.338.2,3.338-1.929v-.188a7.367,7.367,0,0,0-3.338-5.775" transform="translate(-42.172 -37.867)" fill="#0b3fa5"/>
                        <path id="Trazado_204634" data-name="Trazado 204634" d="M105.845,73.238,84.953,61.11c-1.838-1.069-3.331-.209-3.331,1.919v.19A7.394,7.394,0,0,0,84.956,69l20.888,12.129c1.841,1.067,3.333.21,3.333-1.919v-.186a7.4,7.4,0,0,0-3.333-5.789" transform="translate(-55.586 -45.644)" fill="#0b3fa5"/>
                        <path id="Trazado_204635" data-name="Trazado 204635" d="M84.046,60.556,69.859,52.4c-1.843-1.06-3.338-.195-3.338,1.933v.19a7.358,7.358,0,0,0,3.338,5.772l14.187,8.155c1.846,1.06,3.341.195,3.341-1.931v-.19a7.352,7.352,0,0,0-3.341-5.772" transform="translate(-66.52 -51.946)" fill="#0b3fa5"/>
                      </g>
                    </g>
                  </g>
                </g>
              </g>
            </g>
            <g id="Grupo_140583" data-name="Grupo 140583" transform="translate(82.521 24.095)" opacity="0.7">
              <g id="Grupo_140582" data-name="Grupo 140582">
                <g id="Grupo_140581" data-name="Grupo 140581" clip-path="url(#clip-path-17)">
                  <path id="Trazado_204636" data-name="Trazado 204636" d="M166.89,79.965,55.037,15.388c-3.684-2.127-6.672-.4-6.672,3.851v80.969a14.755,14.755,0,0,0,6.672,11.558L166.89,176.343c3.684,2.127,6.672.4,6.672-3.853V91.523a14.752,14.752,0,0,0-6.672-11.558" transform="translate(-47.503 -13.614)" fill="#57f7e0"/>
                  <path id="Trazado_204637" data-name="Trazado 204637" d="M166.89,79.965,55.037,15.388c-3.684-2.127-6.672-.4-6.672,3.851v80.969a14.755,14.755,0,0,0,6.672,11.558L166.89,176.343c3.684,2.127,6.672.4,6.672-3.853V91.523A14.752,14.752,0,0,0,166.89,79.965Z" transform="translate(-47.503 -13.614)" fill="none" stroke="#e9fffb" stroke-miterlimit="10" stroke-width="1"/>
                  <g id="Grupo_140568" data-name="Grupo 140568" transform="translate(63.463 51.731)" opacity="0.8">
                    <g id="Grupo_140567" data-name="Grupo 140567" transform="translate(0 0)">
                      <g id="Grupo_140566" data-name="Grupo 140566" clip-path="url(#clip-path-18)">
                        <path id="Trazado_204638" data-name="Trazado 204638" d="M133.5,70.7,88.012,44.437c-1.843-1.064-3.336-.2-3.336,1.926v.19a7.374,7.374,0,0,0,3.336,5.779L133.5,78.6c1.843,1.064,3.336.2,3.336-1.927v-.186A7.374,7.374,0,0,0,133.5,70.7" transform="translate(-84.676 -43.982)" fill="#0b3fa5"/>
                      </g>
                    </g>
                  </g>
                  <g id="Grupo_140571" data-name="Grupo 140571" transform="translate(11.294 21.614)" opacity="0.8">
                    <g id="Grupo_140570" data-name="Grupo 140570">
                      <g id="Grupo_140569" data-name="Grupo 140569" clip-path="url(#clip-path-19)">
                        <path id="Trazado_204639" data-name="Trazado 204639" d="M96.955,49.6l-39.2-22.637c-1.845-1.064-3.338-.2-3.338,1.927v.19a7.371,7.371,0,0,0,3.338,5.779L96.955,57.5c1.843,1.064,3.336.2,3.336-1.926v-.188A7.376,7.376,0,0,0,96.955,49.6" transform="translate(-54.416 -26.513)" fill="#0b3fa5"/>
                      </g>
                    </g>
                  </g>
                  <g id="Grupo_140574" data-name="Grupo 140574" transform="translate(11.294 58.743)" opacity="0.8">
                    <g id="Grupo_140573" data-name="Grupo 140573">
                      <g id="Grupo_140572" data-name="Grupo 140572" clip-path="url(#clip-path-14)">
                        <path id="Trazado_204640" data-name="Trazado 204640" d="M133.5,92.239,88.012,65.973c-1.843-1.064-3.336-.2-3.336,1.927v.188a7.374,7.374,0,0,0,3.336,5.781L133.5,100.131c1.843,1.064,3.336.2,3.336-1.926v-.188a7.376,7.376,0,0,0-3.336-5.779" transform="translate(-32.506 -35.401)" fill="#0b3fa5"/>
                        <path id="Trazado_204641" data-name="Trazado 204641" d="M96.955,71.141,57.754,48.5c-1.845-1.062-3.338-.2-3.338,1.927v.19A7.371,7.371,0,0,0,57.754,56.4l39.2,22.635c1.843,1.062,3.336.2,3.336-1.927V76.92a7.376,7.376,0,0,0-3.336-5.779" transform="translate(-54.416 -48.049)" fill="#0b3fa5"/>
                      </g>
                    </g>
                  </g>
                  <g id="Grupo_140577" data-name="Grupo 140577" transform="translate(11.294 40.175)" opacity="0.8">
                    <g id="Grupo_140576" data-name="Grupo 140576">
                      <g id="Grupo_140575" data-name="Grupo 140575" clip-path="url(#clip-path-15)">
                        <path id="Trazado_204642" data-name="Trazado 204642" d="M124.742,76.413l-24.628-14.22c-1.841-1.064-3.336-.2-3.336,1.927v.188a7.379,7.379,0,0,0,3.336,5.781l24.628,14.216c1.843,1.064,3.336.2,3.336-1.927v-.186a7.374,7.374,0,0,0-3.336-5.779" transform="translate(-23.744 -19.57)" fill="#0b3fa5"/>
                        <path id="Trazado_204643" data-name="Trazado 204643" d="M102.472,63.585,81.58,51.455c-1.838-1.067-3.331-.209-3.331,1.919v.19a7.4,7.4,0,0,0,3.331,5.786l20.892,12.129c1.841,1.069,3.333.21,3.333-1.917v-.188a7.4,7.4,0,0,0-3.333-5.788" transform="translate(-37.16 -27.347)" fill="#0b3fa5"/>
                        <path id="Trazado_204644" data-name="Trazado 204644" d="M87,54.531l-29.238-16.8c-1.845-1.06-3.341-.195-3.341,1.933v.19a7.357,7.357,0,0,0,3.341,5.772L87,62.424c1.846,1.06,3.341.193,3.341-1.933V60.3A7.349,7.349,0,0,0,87,54.531" transform="translate(-54.416 -37.279)" fill="#0b3fa5"/>
                      </g>
                    </g>
                  </g>
                  <g id="Grupo_140580" data-name="Grupo 140580" transform="translate(11.294 77.509)" opacity="0.8">
                    <g id="Grupo_140579" data-name="Grupo 140579">
                      <g id="Grupo_140578" data-name="Grupo 140578" clip-path="url(#clip-path-15)">
                        <path id="Trazado_204645" data-name="Trazado 204645" d="M131.063,101.7,91.383,78.834c-1.843-1.062-3.336-.2-3.336,1.929v.19a7.368,7.368,0,0,0,3.338,5.777l39.679,22.862c1.843,1.064,3.336.2,3.336-1.929v-.186a7.365,7.365,0,0,0-3.336-5.777" transform="translate(-30.066 -44.855)" fill="#0b3fa5"/>
                        <path id="Trazado_204646" data-name="Trazado 204646" d="M93.741,80.227,72.849,68.1c-1.84-1.069-3.331-.21-3.331,1.917v.19a7.393,7.393,0,0,0,3.331,5.786L93.741,88.119c1.84,1.069,3.331.21,3.331-1.917v-.188a7.4,7.4,0,0,0-3.331-5.788" transform="translate(-43.481 -52.632)" fill="#0b3fa5"/>
                        <path id="Trazado_204647" data-name="Trazado 204647" d="M71.943,67.544,57.756,59.387c-1.843-1.06-3.341-.195-3.341,1.933v.19a7.361,7.361,0,0,0,3.341,5.772l14.187,8.156c1.843,1.059,3.338.193,3.338-1.933v-.19a7.358,7.358,0,0,0-3.338-5.772" transform="translate(-54.416 -58.934)" fill="#0b3fa5"/>
                      </g>
                    </g>
                  </g>
                </g>
              </g>
            </g>
            <g id="Grupo_140601" data-name="Grupo 140601" transform="translate(61.652 36.143)" opacity="0.9">
              <g id="Grupo_140600" data-name="Grupo 140600">
                <g id="Grupo_140599" data-name="Grupo 140599" clip-path="url(#clip-path-5)">
                  <path id="Trazado_204648" data-name="Trazado 204648" d="M154.785,86.953,42.935,22.376c-3.686-2.129-6.675-.405-6.675,3.851V107.2a14.746,14.746,0,0,0,6.675,11.558l111.85,64.577c3.684,2.127,6.672.4,6.672-3.851l0-80.967a14.744,14.744,0,0,0-6.675-11.558" transform="translate(-35.399 -20.602)" fill="#57f7e0"/>
                  <path id="Trazado_204649" data-name="Trazado 204649" d="M154.785,86.953,42.935,22.376c-3.686-2.129-6.675-.405-6.675,3.851V107.2a14.746,14.746,0,0,0,6.675,11.558l111.85,64.577c3.684,2.127,6.672.4,6.672-3.851l0-80.967A14.744,14.744,0,0,0,154.785,86.953Z" transform="translate(-35.399 -20.602)" fill="none" stroke="#e9fffb" stroke-miterlimit="10" stroke-width="1"/>
                  <g id="Grupo_140586" data-name="Grupo 140586" transform="translate(63.463 51.73)" opacity="0.8">
                    <g id="Grupo_140585" data-name="Grupo 140585">
                      <g id="Grupo_140584" data-name="Grupo 140584" clip-path="url(#clip-path-6)">
                        <path id="Trazado_204650" data-name="Trazado 204650" d="M121.4,77.691l-45.5-26.267c-1.841-1.062-3.336-.2-3.336,1.927v.19a7.378,7.378,0,0,0,3.336,5.779l45.5,26.264c1.841,1.064,3.336.2,3.336-1.927V83.47a7.378,7.378,0,0,0-3.336-5.779" transform="translate(-72.571 -50.969)" fill="#0b3fa5"/>
                      </g>
                    </g>
                  </g>
                  <g id="Grupo_140589" data-name="Grupo 140589" transform="translate(11.296 21.614)" opacity="0.8">
                    <g id="Grupo_140588" data-name="Grupo 140588">
                      <g id="Grupo_140587" data-name="Grupo 140587" clip-path="url(#clip-path-19)">
                        <path id="Trazado_204651" data-name="Trazado 204651" d="M84.852,56.593l-39.2-22.637c-1.843-1.064-3.336-.2-3.336,1.926v.19a7.374,7.374,0,0,0,3.336,5.779l39.2,22.635c1.843,1.064,3.338.2,3.338-1.926v-.188a7.378,7.378,0,0,0-3.336-5.779" transform="translate(-42.313 -33.501)" fill="#0b3fa5"/>
                      </g>
                    </g>
                  </g>
                  <g id="Grupo_140592" data-name="Grupo 140592" transform="translate(11.296 58.743)" opacity="0.8">
                    <g id="Grupo_140591" data-name="Grupo 140591">
                      <g id="Grupo_140590" data-name="Grupo 140590" clip-path="url(#clip-path-14)">
                        <path id="Trazado_204652" data-name="Trazado 204652" d="M121.4,99.228l-45.5-26.266c-1.841-1.064-3.336-.2-3.336,1.926v.19a7.378,7.378,0,0,0,3.336,5.779l45.5,26.264c1.841,1.064,3.336.2,3.336-1.926v-.188a7.378,7.378,0,0,0-3.336-5.779" transform="translate(-20.405 -42.388)" fill="#0b3fa5"/>
                        <path id="Trazado_204653" data-name="Trazado 204653" d="M84.852,78.129l-39.2-22.637c-1.843-1.062-3.336-.2-3.336,1.927v.19a7.374,7.374,0,0,0,3.336,5.779l39.2,22.633c1.843,1.065,3.338.2,3.338-1.926v-.188a7.381,7.381,0,0,0-3.336-5.779" transform="translate(-42.313 -55.037)" fill="#0b3fa5"/>
                      </g>
                    </g>
                  </g>
                  <g id="Grupo_140595" data-name="Grupo 140595" transform="translate(11.296 40.175)" opacity="0.8">
                    <g id="Grupo_140594" data-name="Grupo 140594">
                      <g id="Grupo_140593" data-name="Grupo 140593" clip-path="url(#clip-path-15)">
                        <path id="Trazado_204654" data-name="Trazado 204654" d="M112.64,83.4,88.012,69.181c-1.845-1.064-3.339-.2-3.339,1.927V71.3a7.373,7.373,0,0,0,3.339,5.781L112.64,91.294c1.841,1.064,3.336.2,3.336-1.926V89.18A7.378,7.378,0,0,0,112.64,83.4" transform="translate(-11.642 -26.558)" fill="#0b3fa5"/>
                        <path id="Trazado_204655" data-name="Trazado 204655" d="M90.369,70.573,69.477,58.444c-1.841-1.069-3.331-.21-3.331,1.917v.19a7.394,7.394,0,0,0,3.331,5.788L90.369,78.467c1.838,1.067,3.331.209,3.331-1.919V76.36a7.406,7.406,0,0,0-3.331-5.788" transform="translate(-25.057 -34.335)" fill="#0b3fa5"/>
                        <path id="Trazado_204656" data-name="Trazado 204656" d="M74.889,61.519,45.652,44.72c-1.845-1.06-3.339-.195-3.339,1.934v.19a7.354,7.354,0,0,0,3.339,5.77l29.236,16.8c1.846,1.059,3.341.193,3.341-1.934v-.188a7.352,7.352,0,0,0-3.341-5.772" transform="translate(-42.312 -44.267)" fill="#0b3fa5"/>
                      </g>
                    </g>
                  </g>
                  <g id="Grupo_140598" data-name="Grupo 140598" transform="translate(11.296 77.509)" opacity="0.8">
                    <g id="Grupo_140597" data-name="Grupo 140597">
                      <g id="Grupo_140596" data-name="Grupo 140596" clip-path="url(#clip-path-15)">
                        <path id="Trazado_204657" data-name="Trazado 204657" d="M118.958,108.687,79.28,85.821c-1.843-1.062-3.338-.2-3.338,1.929v.19a7.372,7.372,0,0,0,3.338,5.777l39.679,22.864c1.843,1.062,3.338.2,3.338-1.931v-.186a7.367,7.367,0,0,0-3.338-5.777" transform="translate(-17.964 -51.844)" fill="#0b3fa5"/>
                        <path id="Trazado_204658" data-name="Trazado 204658" d="M81.637,87.216,60.745,75.086c-1.838-1.067-3.331-.209-3.331,1.917v.19a7.4,7.4,0,0,0,3.331,5.788L81.637,95.109c1.841,1.069,3.334.209,3.334-1.917V93a7.4,7.4,0,0,0-3.334-5.788" transform="translate(-31.379 -59.619)" fill="#0b3fa5"/>
                        <path id="Trazado_204659" data-name="Trazado 204659" d="M59.838,74.53,45.651,66.376c-1.843-1.062-3.338-.2-3.338,1.931v.19a7.363,7.363,0,0,0,3.338,5.774l14.187,8.155c1.846,1.059,3.341.193,3.341-1.933V80.3a7.355,7.355,0,0,0-3.341-5.772" transform="translate(-42.312 -65.922)" fill="#0b3fa5"/>
                      </g>
                    </g>
                  </g>
                </g>
              </g>
            </g>
            <path id="Trazado_204660" data-name="Trazado 204660" d="M25.618,204.066c-1.8-1.941-3.614-10.8-3.614-10.8a18.461,18.461,0,0,1-.838-4.7c.15-1.388,1.574-10.787,1.574-10.787l-9.186-.895s.507,7.734.553,10.218a26.247,26.247,0,0,1-1.1,8.35c.452,1.31,5.507,10.441,5.5,10.47s5.451,1.4,5.451,1.4l2.646-1.1Z" transform="translate(9.418 128.069)" fill="#ffa8a7"/>
            <path id="Trazado_204661" data-name="Trazado 204661" d="M24.862,201.38c1.269-.293,5.386-3.143,2.869-4.429a5.242,5.242,0,0,0-3.939-.428s.534,1-.324.915c-1.643-.153-2.912-7.365-2.912-9.787l-4.57,1.652,1.824,9.96,2.105,1.357,3.5.76Z" transform="translate(11.574 135.866)" fill="#2d2979"/>
            <path id="Trazado_204662" data-name="Trazado 204662" d="M21.067,191c.1,5.681,1.046,6.443,1.665,7.708a3.95,3.95,0,0,0,3.85,2.215c-1.783.905-10.775.688-12.646-.678-1.041-.759-.357-2.841-.329-5.339.028-2.536-.757-5.3-.707-6.648S21.067,191,21.067,191" transform="translate(9.338 136.108)" fill="#291d51"/>
            <path id="Trazado_204663" data-name="Trazado 204663" d="M18.022,184.829c2.8.107,4.653,2.71,4.8,5.165.141,2.388-2.277,2.664-4.157,7.236-.984,2.4-1.265,6.046-1.3,9.424a1.144,1.144,0,0,1-1.586-.066s.019-2.714-.162-5.338a42,42,0,0,0-.688-5.457c-.728-2.469-2.224-3.591-2.012-6.081a7.576,7.576,0,0,1,1.453-3.9,5.526,5.526,0,0,1,3.657-.979" transform="translate(9.334 133.818)" fill="#2d2979"/>
            <path id="Trazado_204664" data-name="Trazado 204664" d="M30.857,208.631s-.822,1.443-5.272-.428a10.616,10.616,0,0,1-3.7-2.322A41.326,41.326,0,0,0,20.159,201s.881-5.826,3.634-3.577,7.063,11.208,7.063,11.208" transform="translate(14.596 142.567)" fill="#291d51"/>
            <path id="Trazado_204665" data-name="Trazado 204665" d="M22.246,185.412c-.522,3.269-.779,5.544-1.134,7.581a8.359,8.359,0,0,1-1.341,3.479,9.723,9.723,0,0,0-1.931,4.219s5.295.747,7.984,4.388,2.536,7.286,5.031,7.889,6.66-2.264,6.66-2.264-2.641-.107-3.672-3.415-3.722-10.494-3.955-12.344c-.328-2.571,1.986-7.9,1.986-7.9Z" transform="translate(12.916 134.244)" fill="#ffa8a7"/>
            <path id="Trazado_204666" data-name="Trazado 204666" d="M21.65,191.914c2.3.143,5.789,3.789,6.965,6.456s3.124,6.415,4.62,7.255,4.151-.384,6.413-.4,3.864,1.034,3.991,2.683c0,0-7.246,3.433-9.418,4.464s-4.007,1.062-5.712-3.452-3.286-8.406-5.438-5.241c-1.886,2.772-2.664,8.213-2.664,8.213s-.872.7-1.891-.414a21.725,21.725,0,0,0,.534-4.748c.084-6.051-2.084-7.522-1.543-9.906.793-3.5,1.643-5.067,4.141-4.912" transform="translate(12.614 138.945)" fill="#2d2979"/>
            <path id="Trazado_204667" data-name="Trazado 204667" d="M43.293,63.952s6.01-3.489,5.408-8.7S40.122,37.278,25.9,43.469c-13.339,2.9,17.4,20.483,17.4,20.483" transform="translate(16.321 30.273)" fill="#543354"/>
            <path id="Trazado_204668" data-name="Trazado 204668" d="M21.925,68.031c-4.088,1.181-6.431,5.71-10.024,15.4S4.568,107.232,5.04,110.965c1.155,9.129,6.827,16.923,16.6,23.4l4.364-7.994s-9.587-7.713-10.5-16.842c-.514-5.129,6.141-22.578,6.141-23.047s.283-18.445.283-18.445" transform="translate(3.62 49.257)" fill="#ffa8a7"/>
            <g id="Grupo_140604" data-name="Grupo 140604" transform="translate(15.46 169.759)" style="isolation: isolate">
              <g id="Grupo_140603" data-name="Grupo 140603">
                <g id="Grupo_140602" data-name="Grupo 140602" clip-path="url(#clip-path-29)">
                  <path id="Trazado_204669" data-name="Trazado 204669" d="M14.875,203.633c1.333-10.22,1.114-14.9,1.114-14.9s-1.6-15.482-2.889-28.759c-1.9-19.583-5.634-24.019-3.486-35.837,1.86-10.227,8.675-18.163,11.715-25.673l31.962,2.521s2.774,9.065,6.365,27.105,2.24,42.522-.486,67.722c-.791,7.286-5.4,17.063-10.573,29.436-4.739,11.325-11.918,29.962-11.918,29.962-4.936,2.869-8.9-2.055-8.9-2.055S31.45,228.612,32.94,220.3c2.524-14.109,9.113-21,9.113-21s-1.491-10.28-2.539-19.382c-1.136-9.865-4.464-26.241-4.464-26.241s-.159,25.343-.667,32.655-.8,8.236-3.329,22.381c-2.1,11.715-6.729,34.889-6.729,34.889a9.3,9.3,0,0,1-7.363-.248s-3.417-29.505-2.086-39.729" transform="translate(-8.968 -98.467)" fill="#063b75"/>
                </g>
              </g>
            </g>
            <path id="Trazado_204670" data-name="Trazado 204670" d="M13.04,120.1c6.325,6.524,17.566,7.9,17.566,7.9L32.1,138.02c.431,8.21-.636,17.913-.429,27.3,0,0-2.29-24.5-5.336-28.555S15.085,125.726,13.04,120.1" transform="translate(9.441 86.956)" fill="#597bc6"/>
            <path id="Trazado_204671" data-name="Trazado 204671" d="M16.829,86.132c6.8-.412,7.46.715,8-1.7.195-.864.574-6.856.574-6.856a21.027,21.027,0,0,1-1.7-2.512,17.419,17.419,0,0,1,7.325-32.2c9.027-.941,15.668,5.4,17.444,14.113.953,4.3,1.941,13.089-.729,20.126-1.51,3.984-2.91,6.774-6.517,6.631a21.964,21.964,0,0,1-3.555-.628,32.642,32.642,0,0,0-.2,4.995c.095,1.741-.2,2.617,3.21,4.717s-5.157,6.415-10.751,5.991-11.885-3.8-13.611-7.419c-1.924-4.034-2.7-5.067.5-5.26" transform="translate(10.609 30.969)" fill="#ffa8a7"/>
            <path id="Trazado_204672" data-name="Trazado 204672" d="M21.691,61.531l5.872.314,6.393-.105,1.972-2.3s.414,7.375,2.422,9.174a17.425,17.425,0,0,0,4.631,2.817,5.215,5.215,0,0,1-1.752.234,21.952,21.952,0,0,1-3.553-.628,32.646,32.646,0,0,0-.2,5c.095,1.741-.2,2.615,3.21,4.715s-5.157,6.417-10.749,5.991-11.887-3.8-13.613-7.419c-1.924-4.034-2.7-5.067.5-5.26,6.8-.41,7.46.717,8-1.7.195-.864.574-6.856.574-6.856A20.951,20.951,0,0,1,23.708,63a18.141,18.141,0,0,1-2.017-1.467" transform="translate(10.609 43.037)" fill="#f28f8f"/>
            <path id="Trazado_204673" data-name="Trazado 204673" d="M21.507,75.661c-4.377-4-5.758-7.974-6.346-13.591a17.48,17.48,0,0,1,15.571-19.2c6.224-.648,12.747,1.576,15.87,9.33A2.756,2.756,0,0,1,44.49,53.55a4.419,4.419,0,0,1-.95,3.629,8.823,8.823,0,0,0-2.165,4.984c-.128,1.65.155,4.07-.319,5.81A2.914,2.914,0,0,1,38.072,70s-.159-3.62-.517-7.084c-1.076-2.443-5.434-2.984-6.243.159-.733,2.855-.029,4.62.988,6.688.759,1.536,2.11,2.348,3.329,1.752,0,4.288-1.605,6.248-5.4,7.315s-4.148-.336-6.093-1.345a17.023,17.023,0,0,1-2.631-1.826" transform="translate(10.908 30.964)" fill="#543354"/>
            <path id="Trazado_204674" data-name="Trazado 204674" d="M25.678,67.894c-1.253,1.565-1.4,3.541,3.464,4.764a15.325,15.325,0,0,0,10.627-.819,71.427,71.427,0,0,1,11,5.827C61.629,85.211,64.25,98.308,53.3,102.822c-.667,4.922-1.483,17.594-1.691,20.476-9.263,6.469-28.083,4.264-32.3-2.6a55.814,55.814,0,0,0-.645-6.846c-4.422-16.39-7.875-20.744-6.641-33.1.707-7.075,1.248-10.63,5.008-12.52,2.271-.712,7.282-.422,8.651-.333" transform="translate(8.518 49.06)" fill="#ffb30b"/>
            <path id="Trazado_204675" data-name="Trazado 204675" d="M35.629,64.292v42.987s-4.455,3.071-12.225-.641-8.337-5.975-8.337-10.089l0-43.808s8.865,10.5,15.24,12.673c4.941,1.729,5.32-1.122,5.32-1.122" transform="translate(10.908 38.186)" fill="#543354"/>
            <path id="Trazado_204676" data-name="Trazado 204676" d="M105.992,117.969c-2.107.781-4.224.667-7.1,2a23.379,23.379,0,0,1-6.794,2.272c-2.569.412-6.572-.912-13.485-4.179-8.156-3.853-16.9-11.427-20.237-15.218A175.819,175.819,0,0,1,40.7,77.615c-2.984-5.457-6.784-6.839-10.1-5.757-3.945,1.291-4.427,5.215-.05,12.579s11.9,18.308,20.232,26.49A75.868,75.868,0,0,0,71.872,125.8a65.005,65.005,0,0,0,17.749,6.167c2.155.479,3.634,1.371,7.632,2.771s8.953,2.057,12.432,1.376,4.627-1.478,4.795-2.238c.214-.96-.569-1.464-2.195-1.334a21.521,21.521,0,0,1-7.7-.2s3.567-.1,5.7-.357a21.25,21.25,0,0,0,5.524-1.4c1.695-.721,2.257-3.4.619-3.307s-2.889.6-6.048.929a21.2,21.2,0,0,1-5.034-.053,40.1,40.1,0,0,0,6.174-1.522,8.936,8.936,0,0,0,4.286-2.641c.583-.676.422-2.307-1.6-1.926-1.815.343-3.964,1.555-7.527,1.669-2.591.083-4.429-.215-4.1-.617s1.857-.345,3.827-1.446c1.884-1.052,3.107-3.208,2.433-4.219s-.731-.255-2.836.524" transform="translate(19.878 51.781)" fill="#ffa8a7"/>
          </g>
        </g>
      </g>
    </g>
  </g>
</svg>
