<svg xmlns="http://www.w3.org/2000/svg" width="1240" height="618.455" viewBox="0 0 1240 618.455">
  <g id="Grupo_141059" data-name="Grupo 141059" transform="translate(-180 -782)">
    <path id="Trazado_205212" data-name="Trazado 205212" d="M563.226,23h-279.4a6,6,0,0,1-6-6V6a6,6,0,0,1,6-6h279.4a6,6,0,0,1,6,6V17a6,6,0,0,1-6,6" transform="translate(180.174 782)" fill="#084a93"/>
    <text id="ARQUITECTURA_DE_UNA_BODEGA_DE_DATOS" data-name="ARQUITECTURA DE UNA BODEGA DE DATOS" transform="translate(488 797.592)" fill="#fff" font-size="14" font-family="Roboto-Black, Roboto" font-weight="800"><tspan x="0" y="0">Arqu</tspan><tspan y="0" letter-spacing="-0.013em">i</tspan><tspan y="0">te</tspan><tspan y="0" letter-spacing="-0.014em">c</tspan><tspan y="0">tura de u</tspan><tspan y="0" letter-spacing="0.008em">n</tspan><tspan y="0">a bodega de </tspan><tspan y="0" letter-spacing="-0.009em">d</tspan><tspan y="0" letter-spacing="-0.058em">a</tspan><tspan y="0" letter-spacing="-0.013em">t</tspan><tspan y="0">os</tspan></text>
    <path id="Trazado_205213" data-name="Trazado 205213" d="M213.6,156.263V70.739H633.451V292.97" transform="translate(180 782)" fill="none" stroke="#12263f" stroke-miterlimit="10" stroke-width="1"/>
    <path id="Trazado_205214" data-name="Trazado 205214" d="M427.147,451.25V201.475H1072V471.514" transform="translate(180 782)" fill="none" stroke="#12263f" stroke-miterlimit="10" stroke-width="1"/>
    <path id="Trazado_205215" data-name="Trazado 205215" d="M45.25,156.263v-21.4h359.4v21.4" transform="translate(180 782)" fill="none" stroke="#12263f" stroke-miterlimit="10" stroke-width="1"/>
    <path id="Trazado_205216" data-name="Trazado 205216" d="M135.9,156.263v-21.4H301.3v21.4" transform="translate(180 782)" fill="none" stroke="#12263f" stroke-miterlimit="10" stroke-width="1"/>
    <path id="Trazado_205217" data-name="Trazado 205217" d="M543.9,451.25V292.971h202.23V471.514" transform="translate(180 782)" fill="none" stroke="#12263f" stroke-miterlimit="10" stroke-width="1"/>
    <path id="Trazado_205218" data-name="Trazado 205218" d="M633.451,508.929V471.514h236.3v37.415" transform="translate(180 782)" fill="none" stroke="#12263f" stroke-miterlimit="10" stroke-width="1"/>
    <path id="Trazado_205219" data-name="Trazado 205219" d="M945.55,508.929V471.514H1202.9v37.415" transform="translate(180 782)" fill="none" stroke="#12263f" stroke-miterlimit="10" stroke-width="1"/>
    <path id="Trazado_205220" data-name="Trazado 205220" d="M719.851,500.429V471.514h79V595.455" transform="translate(180 782)" fill="none" stroke="#12263f" stroke-miterlimit="10" stroke-width="1"/>
    <path id="Trazado_205221" data-name="Trazado 205221" d="M1026.466,508.929V471.514h93.284v37.415" transform="translate(180 782)" fill="none" stroke="#12263f" stroke-miterlimit="10" stroke-width="1"/>
    <path id="Trazado_205222" data-name="Trazado 205222" d="M464.172,268.245H390.121a5.474,5.474,0,0,1-5.474-5.475V250.72a5.474,5.474,0,0,1,5.474-5.475h74.051a5.475,5.475,0,0,1,5.475,5.475v12.05a5.475,5.475,0,0,1-5.475,5.475" transform="translate(180 782)" fill="#00defc"/>
    <text id="De_una_capa" data-name="De una capa" transform="translate(568.646 1042.837)" fill="#12263f" font-size="14" font-family="Roboto-Regular, Roboto"><tspan x="0" y="0">De una capa</tspan></text>
    <path id="Trazado_205223" data-name="Trazado 205223" d="M668.424,268.245h-80.2a6,6,0,0,1-6-6v-11a6,6,0,0,1,6-6h80.2a6,6,0,0,1,6,6v11a6,6,0,0,1-6,6" transform="translate(180 782)" fill="#94b0c9"/>
    <text id="De_dos_capas" data-name="De dos capas" transform="translate(766.193 1042.837)" fill="#12263f" font-size="14" font-family="Roboto-Regular, Roboto"><tspan x="0" y="0">De dos capas</tspan></text>
    <path id="Trazado_205224" data-name="Trazado 205224" d="M1114.6,268.245h-80.9a6,6,0,0,1-6-6v-11a6,6,0,0,1,6-6h80.9a6,6,0,0,1,6,6v11a6,6,0,0,1-6,6" transform="translate(180 782)" fill="#ffb30b"/>
    <text id="De_tres_capas" data-name="De tres capas" transform="translate(1211.661 1042.837)" fill="#12263f" font-size="14" font-family="Roboto-Regular, Roboto"><tspan x="0" y="0">De t</tspan><tspan y="0" letter-spacing="-0.01em">r</tspan><tspan y="0">es capas</tspan></text>
    <path id="Trazado_205225" data-name="Trazado 205225" d="M596.847,388.115h-105.9a6,6,0,0,1-6-6v-28a6,6,0,0,1,6-6h105.9a6,6,0,0,1,6,6v28a6,6,0,0,1-6,6" transform="translate(180 782)" fill="#94b0c9"/>
    <text id="Fuente_de" data-name="Fuente de" transform="translate(693.29 1145.808)" fill="#12263f" font-size="14" font-family="Roboto-Regular, Roboto"><tspan x="0" y="0" letter-spacing="-0.01em">F</tspan><tspan y="0">uente de</tspan></text>
    <text id="datos_disponibles" data-name="datos disponibles" transform="translate(668.916 1162.607)" fill="#12263f" font-size="14" font-family="Roboto-Regular, Roboto"><tspan x="0" y="0">da</tspan><tspan y="0" letter-spacing="-0.009em">t</tspan><tspan y="0">os disponibles</tspan></text>
    <path id="Trazado_205226" data-name="Trazado 205226" d="M765.7,388.115H727.5a6,6,0,0,1-6-6v-28a6,6,0,0,1,6-6h38.2a6,6,0,0,1,6,6v28a6,6,0,0,1-6,6" transform="translate(180 782)" fill="#94b0c9"/>
    <text id="Cuatro" transform="translate(905.799 1145.807)" fill="#12263f" font-size="14" font-family="Roboto-Regular, Roboto"><tspan x="0" y="0">Cuat</tspan><tspan y="0" letter-spacing="-0.009em">r</tspan><tspan y="0">o</tspan></text>
    <text id="etapas" transform="translate(905.449 1162.606)" fill="#12263f" font-size="14" font-family="Roboto-Regular, Roboto"><tspan x="0" y="0">etapas</tspan></text>
    <path id="Trazado_205227" data-name="Trazado 205227" d="M363.347,371.166h-68.3a6,6,0,0,1-6-6v-11a6,6,0,0,1,6-6h68.3a6,6,0,0,1,6,6v11a6,6,0,0,1-6,6" transform="translate(180 782)" fill="#00defc"/>
    <text id="Middleware" transform="translate(473.004 1145.757)" fill="#12263f" font-size="14" font-family="Roboto-Regular, Roboto"><tspan x="0" y="0">Middlewa</tspan><tspan y="0" letter-spacing="-0.009em">r</tspan><tspan y="0">e</tspan></text>
    <path id="Trazado_205228" data-name="Trazado 205228" d="M468.947,388.115h-83.6a6,6,0,0,1-6-6v-28a6,6,0,0,1,6-6h83.6a6,6,0,0,1,6,6v28a6,6,0,0,1-6,6" transform="translate(180 782)" fill="#00defc"/>
    <text id="Análisis_de" data-name="Análisis de" transform="translate(573.207 1145.808)" fill="#12263f" font-size="14" font-family="Roboto-Regular, Roboto"><tspan x="0" y="0">Análisis de</tspan></text>
    <text id="transacciones" transform="translate(563.337 1162.607)" fill="#12263f" font-size="14" font-family="Roboto-Regular, Roboto"><tspan x="0" y="0">t</tspan><tspan y="0" letter-spacing="-0.019em">r</tspan><tspan y="0">ansacciones</tspan></text>
    <path id="Trazado_205229" data-name="Trazado 205229" d="M583.9,491.25h-80a6,6,0,0,1-6-6v-28a6,6,0,0,1,6-6h80a6,6,0,0,1,6,6v28a6,6,0,0,1-6,6" transform="translate(180 782)" fill="#94b0c9"/>
    <text id="La_bodega_de" data-name="La bodega de" transform="translate(681.89 1248.941)" fill="#12263f" font-size="14" font-family="Roboto-Regular, Roboto"><tspan x="0" y="0">La bodega de</tspan></text>
    <text id="datos" transform="translate(706.319 1265.741)" fill="#12263f" font-size="14" font-family="Roboto-Regular, Roboto"><tspan x="0" y="0">da</tspan><tspan y="0" letter-spacing="-0.009em">t</tspan><tspan y="0">os</tspan></text>
    <path id="Trazado_205230" data-name="Trazado 205230" d="M461.347,491.25h-68.4a6,6,0,0,1-6-6v-28a6,6,0,0,1,6-6h68.4a6,6,0,0,1,6,6v28a6,6,0,0,1-6,6" transform="translate(180 782)" fill="#00defc"/>
    <text id="La_carga_de" data-name="La carga de" transform="translate(570.94 1248.941)" fill="#12263f" font-size="14" font-family="Roboto-Regular, Roboto"><tspan x="0" y="0">La ca</tspan><tspan y="0" letter-spacing="-0.009em">r</tspan><tspan y="0">ga de</tspan></text>
    <text id="trabajo" transform="translate(585.416 1265.741)" fill="#12263f" font-size="14" font-family="Roboto-Regular, Roboto"><tspan x="0" y="0">t</tspan><tspan y="0" letter-spacing="-0.019em">r</tspan><tspan y="0">abajo</tspan></text>
    <path id="Trazado_205231" data-name="Trazado 205231" d="M1113.75,390.916h-79.2a6,6,0,0,1-6-6v-28a6,6,0,0,1,6-6h79.2a6,6,0,0,1,6,6v28a6,6,0,0,1-6,6" transform="translate(180 782)" fill="#ffb30b"/>
    <text id="Datos-2" data-name="Datos" transform="translate(1235.934 1148.607)" fill="#12263f" font-size="14" font-family="Roboto-Regular, Roboto"><tspan x="0" y="0">Da</tspan><tspan y="0" letter-spacing="-0.01em">t</tspan><tspan y="0">os</tspan></text>
    <text id="reconciliados" transform="translate(1212.497 1165.407)" fill="#12263f" font-size="14" font-family="Roboto-Regular, Roboto"><tspan x="0" y="0" letter-spacing="-0.009em">r</tspan><tspan y="0">econciliados</tspan></text>
    <path id="Trazado_205232" data-name="Trazado 205232" d="M830.7,618.455H767a6,6,0,0,1-6-6v-11a6,6,0,0,1,6-6h63.7a6,6,0,0,1,6,6v11a6,6,0,0,1-6,6" transform="translate(180 782)" fill="#94b0c9"/>
    <text id="Data_Marts" data-name="Data Marts" transform="translate(944.957 1393.047)" fill="#12263f" font-size="14" font-family="Roboto-Italic, Roboto" font-style="italic"><tspan x="0" y="0">Data Ma</tspan><tspan y="0" letter-spacing="0.023em">r</tspan><tspan y="0">ts</tspan></text>
    <path id="Trazado_205233" data-name="Trazado 205233" d="M976.8,531.929H914.3a6,6,0,0,1-6-6v-11a6,6,0,0,1,6-6h62.5a6,6,0,0,1,6,6v11a6,6,0,0,1-6,6" transform="translate(180 782)" fill="#ffb30b"/>
    <text id="Integrados" transform="translate(1092.273 1306.521)" fill="#12263f" font-size="14" font-family="Roboto-Regular, Roboto"><tspan x="0" y="0">Integ</tspan><tspan y="0" letter-spacing="-0.02em">r</tspan><tspan y="0">ados</tspan></text>
    <path id="Trazado_205234" data-name="Trazado 205234" d="M1060.9,531.929H993.8a6,6,0,0,1-6-6v-11a6,6,0,0,1,6-6h67.1a6,6,0,0,1,6,6v11a6,6,0,0,1-6,6" transform="translate(180 782)" fill="#ffb30b"/>
    <text id="Coherentes" transform="translate(1171.76 1306.521)" fill="#12263f" font-size="14" font-family="Roboto-Regular, Roboto"><tspan x="0" y="0">Cohe</tspan><tspan y="0" letter-spacing="-0.009em">r</tspan><tspan y="0">entes</tspan></text>
    <path id="Trazado_205235" data-name="Trazado 205235" d="M1154.8,531.929H1078a6,6,0,0,1-6-6v-11a6,6,0,0,1,6-6h76.8a6,6,0,0,1,6,6v11a6,6,0,0,1-6,6" transform="translate(180 782)" fill="#ffb30b"/>
    <text id="Actualizados" transform="translate(1255.992 1306.521)" fill="#12263f" font-size="14" font-family="Roboto-Regular, Roboto"><tspan x="0" y="0">Actualizados</tspan></text>
    <path id="Trazado_205236" data-name="Trazado 205236" d="M1234,531.929h-62.2a6,6,0,0,1-6-6v-11a6,6,0,0,1,6-6H1234a6,6,0,0,1,6,6v11a6,6,0,0,1-6,6" transform="translate(180 782)" fill="#ffb30b"/>
    <text id="Detallados" transform="translate(1349.753 1306.521)" fill="#12263f" font-size="14" font-family="Roboto-Regular, Roboto"><tspan x="0" y="0">Detallados</tspan></text>
    <path id="Trazado_205237" data-name="Trazado 205237" d="M449.7,179.263H359.6a6,6,0,0,1-6-6v-11a6,6,0,0,1,6-6h90.1a6,6,0,0,1,6,6v11a6,6,0,0,1-6,6" transform="translate(180 782)" fill="#b9ddfc"/>
    <text id="Administración" transform="translate(537.588 953.854)" fill="#12263f" font-size="14" font-family="Roboto-Regular, Roboto"><tspan x="0" y="0">Administ</tspan><tspan y="0" letter-spacing="-0.02em">r</tspan><tspan y="0">ación</tspan></text>
    <path id="Trazado_205238" data-name="Trazado 205238" d="M84.5,179.263H6a6,6,0,0,1-6-6v-11a6,6,0,0,1,6-6H84.5a6,6,0,0,1,6,6v11a6,6,0,0,1-6,6" transform="translate(180 782)" fill="#b9ddfc"/>
    <text id="Escalabilidad" transform="translate(183.957 953.854)" fill="#12263f" font-size="14" font-family="Roboto-Regular, Roboto"><tspan x="0" y="0">Escalabilidad</tspan></text>
    <path id="Trazado_205239" data-name="Trazado 205239" d="M167.2,179.263H101.5a6,6,0,0,1-6-6v-11a6,6,0,0,1,6-6h65.7a6,6,0,0,1,6,6v11a6,6,0,0,1-6,6" transform="translate(180 782)" fill="#b9ddfc"/>
    <text id="Separación" transform="translate(279.497 953.854)" fill="#12263f" font-size="14" font-family="Roboto-Regular, Roboto"><tspan x="0" y="0">Sepa</tspan><tspan y="0" letter-spacing="-0.019em">r</tspan><tspan y="0">ación</tspan></text>
    <path id="Trazado_205240" data-name="Trazado 205240" d="M243,179.263H184.2a6,6,0,0,1-6-6v-11a6,6,0,0,1,6-6H243a6,6,0,0,1,6,6v11a6,6,0,0,1-6,6" transform="translate(180 782)" fill="#b9ddfc"/>
    <text id="Seguridad" transform="translate(362.183 953.854)" fill="#12263f" font-size="14" font-family="Roboto-Regular, Roboto"><tspan x="0" y="0">Seguridad</tspan></text>
    <path id="Trazado_205241" data-name="Trazado 205241" d="M342.6,179.263H260a6,6,0,0,1-6-6v-11a6,6,0,0,1,6-6h82.6a6,6,0,0,1,6,6v11a6,6,0,0,1-6,6" transform="translate(180 782)" fill="#b9ddfc"/>
    <text id="Extensibilidad" transform="translate(437.961 953.854)" fill="#12263f" font-size="14" font-family="Roboto-Regular, Roboto"><tspan x="0" y="0">Extensibilidad</tspan></text>
    <path id="Trazado_205242" data-name="Trazado 205242" d="M672.2,531.929H600.9a6,6,0,0,1-6-6v-11a6,6,0,0,1,6-6h71.3a6,6,0,0,1,6,6v11a6,6,0,0,1-6,6" transform="translate(180 782)" fill="#94b0c9"/>
    <text id="Capa_fuente" data-name="Capa fuente" transform="translate(778.864 1306.521)" fill="#12263f" font-size="14" font-family="Roboto-Regular, Roboto"><tspan x="0" y="0">Capa fuente</tspan></text>
    <path id="Trazado_205243" data-name="Trazado 205243" d="M750.5,540.429H689.2a6,6,0,0,1-6-6v-28a6,6,0,0,1,6-6h61.3a6,6,0,0,1,6,6v28a6,6,0,0,1-6,6" transform="translate(180 782)" fill="#94b0c9"/>
    <text id="Extracción" transform="translate(867.195 1298.12)" fill="#12263f" font-size="14" font-family="Roboto-Regular, Roboto"><tspan x="0" y="0">Ext</tspan><tspan y="0" letter-spacing="-0.019em">r</tspan><tspan y="0">acción</tspan></text>
    <text id="de_datos" data-name="de datos" transform="translate(872.879 1314.92)" fill="#12263f" font-size="14" font-family="Roboto-Regular, Roboto"><tspan x="0" y="0">de da</tspan><tspan y="0" letter-spacing="-0.01em">t</tspan><tspan y="0">os</tspan></text>
    <path id="Trazado_205244" data-name="Trazado 205244" d="M830.2,540.429H767.5a6,6,0,0,1-6-6v-28a6,6,0,0,1,6-6h62.7a6,6,0,0,1,6,6v28a6,6,0,0,1-6,6" transform="translate(180 782)" fill="#94b0c9"/>
    <text id="Data" transform="translate(964.651 1298.121)" fill="#12263f" font-size="14" font-family="Roboto-Italic, Roboto" font-style="italic"><tspan x="0" y="0">Data</tspan></text>
    <text id="warehouse" transform="translate(945.472 1314.921)" fill="#12263f" font-size="14" font-family="Roboto-Italic, Roboto" font-style="italic"><tspan x="0" y="0">wa</tspan><tspan y="0" letter-spacing="-0.009em">r</tspan><tspan y="0">ehouse</tspan></text>
    <path id="Trazado_205245" data-name="Trazado 205245" d="M892.3,531.929H847.2a6,6,0,0,1-6-6v-11a6,6,0,0,1,6-6h45.1a6,6,0,0,1,6,6v11a6,6,0,0,1-6,6" transform="translate(180 782)" fill="#94b0c9"/>
    <text id="Análisis" transform="translate(1025.199 1306.521)" fill="#12263f" font-size="14" font-family="Roboto-Regular, Roboto"><tspan x="0" y="0">Análisis</tspan></text>
    <line id="Línea_408" data-name="Línea 408" y1="47.739" transform="translate(607.146 805)" fill="none" stroke="#12263f" stroke-miterlimit="10" stroke-width="1"/>
    <g id="Grupo_141047" data-name="Grupo 141047">
      <path id="Trazado_205246" data-name="Trazado 205246" d="M251.558,123.178H175.642a6.743,6.743,0,0,1-6.742-6.742V106.92a6.743,6.743,0,0,1,6.742-6.742h75.916a6.742,6.742,0,0,1,6.742,6.742v9.516a6.742,6.742,0,0,1-6.742,6.742" transform="translate(180 782)" fill="#fff"/>
      <text id="Analiza" transform="translate(370.689 897.769)" fill="#12263f" font-size="14" font-family="Roboto-Regular, Roboto"><tspan x="0" y="0">Analiza</tspan></text>
    </g>
    <g id="Grupo_141048" data-name="Grupo 141048">
      <path id="Trazado_205247" data-name="Trazado 205247" d="M666.281,123.178H590.365a6.743,6.743,0,0,1-6.742-6.742V106.92a6.743,6.743,0,0,1,6.742-6.742h75.916a6.742,6.742,0,0,1,6.742,6.742v9.516a6.742,6.742,0,0,1-6.742,6.742" transform="translate(180 782)" fill="#fff"/>
      <text id="Pueden_ser" data-name="Pueden ser" transform="translate(773.402 897.769)" fill="#12263f" font-size="14" font-family="Roboto-Regular, Roboto"><tspan x="0" y="0">Pueden ser</tspan></text>
    </g>
    <g id="Grupo_141050" data-name="Grupo 141050">
      <path id="Trazado_205248" data-name="Trazado 205248" d="M581.856,332.825H505.94a6.743,6.743,0,0,1-6.742-6.742v-9.516a6.743,6.743,0,0,1,6.742-6.742h75.916a6.742,6.742,0,0,1,6.742,6.742v9.516a6.742,6.742,0,0,1-6.742,6.742" transform="translate(180 782)" fill="#fff"/>
      <text id="separa" transform="translate(702.806 1107.416)" fill="#12263f" font-size="14" font-family="Roboto-Regular, Roboto"><tspan x="0" y="0">sepa</tspan><tspan y="0" letter-spacing="-0.02em">r</tspan><tspan y="0">a</tspan></text>
    </g>
    <g id="Grupo_141051" data-name="Grupo 141051">
      <path id="Trazado_205249" data-name="Trazado 205249" d="M784.558,332.825H708.642a6.743,6.743,0,0,1-6.742-6.742v-9.516a6.743,6.743,0,0,1,6.742-6.742h75.916a6.742,6.742,0,0,1,6.742,6.742v9.516a6.742,6.742,0,0,1-6.742,6.742" transform="translate(180 782)" fill="#fff"/>
      <text id="integra" transform="translate(905.077 1107.416)" fill="#12263f" font-size="14" font-family="Roboto-Regular, Roboto"><tspan x="0" y="0">integ</tspan><tspan y="0" letter-spacing="-0.02em">r</tspan><tspan y="0">a</tspan></text>
    </g>
    <g id="Grupo_141049" data-name="Grupo 141049">
      <path id="Trazado_205250" data-name="Trazado 205250" d="M465.1,332.825H389.188a6.743,6.743,0,0,1-6.742-6.742v-9.516a6.743,6.743,0,0,1,6.742-6.742H465.1a6.742,6.742,0,0,1,6.742,6.742v9.516a6.742,6.742,0,0,1-6.742,6.742" transform="translate(180 782)" fill="#fff"/>
      <text id="no_separa" data-name="no separa" transform="translate(576.467 1107.416)" fill="#12263f" font-size="14" font-family="Roboto-Regular, Roboto"><tspan x="0" y="0">no sepa</tspan><tspan y="0" letter-spacing="-0.02em">r</tspan><tspan y="0">a</tspan></text>
    </g>
    <text id="Impementada" transform="translate(465.965 1099.016)" fill="#12263f" font-size="14" font-family="Roboto-Regular, Roboto"><tspan x="0" y="0">Impementada</tspan></text>
    <text id="por" transform="translate(498.906 1115.816)" fill="#12263f" font-size="14" font-family="Roboto-Regular, Roboto"><tspan x="0" y="0">por</tspan></text>
    <g id="Grupo_141052" data-name="Grupo 141052">
      <path id="Trazado_205251" data-name="Trazado 205251" d="M1112.109,332.825h-75.916a6.743,6.743,0,0,1-6.742-6.742v-9.516a6.743,6.743,0,0,1,6.742-6.742h75.916a6.742,6.742,0,0,1,6.742,6.742v9.516a6.742,6.742,0,0,1-6.742,6.742" transform="translate(180 782)" fill="#fff"/>
      <text id="definida_por" data-name="definida por" transform="translate(1217.028 1107.416)" fill="#12263f" font-size="14" font-family="Roboto-Regular, Roboto"><tspan x="0" y="0">definida por</tspan></text>
    </g>
    <g id="Grupo_141055" data-name="Grupo 141055">
      <path id="Trazado_205252" data-name="Trazado 205252" d="M581.854,435.979H505.938a6.743,6.743,0,0,1-6.742-6.742v-9.516a6.743,6.743,0,0,1,6.742-6.742h75.916a6.742,6.742,0,0,1,6.742,6.742v9.516a6.742,6.742,0,0,1-6.742,6.742" transform="translate(180 782)" fill="#fff"/>
      <text id="de" transform="translate(716.24 1210.57)" fill="#12263f" font-size="14" font-family="Roboto-Regular, Roboto"><tspan x="0" y="0">de</tspan></text>
    </g>
    <g id="Grupo_141054" data-name="Grupo 141054">
      <path id="Trazado_205253" data-name="Trazado 205253" d="M784.558,435.979H708.642a6.743,6.743,0,0,1-6.742-6.742v-9.516a6.743,6.743,0,0,1,6.742-6.742h75.916a6.742,6.742,0,0,1,6.742,6.742v9.516a6.742,6.742,0,0,1-6.742,6.742" transform="translate(180 782)" fill="#fff"/>
      <text id="definidas_por" data-name="definidas por" transform="translate(885.869 1210.57)" fill="#12263f" font-size="14" font-family="Roboto-Regular, Roboto"><tspan x="0" y="0">definidas por</tspan></text>
    </g>
    <g id="Grupo_141057" data-name="Grupo 141057">
      <path id="Trazado_205254" data-name="Trazado 205254" d="M836.807,578.921H760.891a6.743,6.743,0,0,1-6.742-6.742v-9.516a6.743,6.743,0,0,1,6.742-6.742h75.916a6.742,6.742,0,0,1,6.742,6.742v9.516a6.742,6.742,0,0,1-6.742,6.742" transform="translate(180 782)" fill="#fff"/>
      <text id="origina" transform="translate(957.494 1353.513)" fill="#12263f" font-size="14" font-family="Roboto-Regular, Roboto"><tspan x="0" y="0">origina</tspan></text>
    </g>
    <g id="Grupo_141056" data-name="Grupo 141056">
      <path id="Trazado_205255" data-name="Trazado 205255" d="M465.105,435.979H389.189a6.743,6.743,0,0,1-6.742-6.742v-9.516a6.743,6.743,0,0,1,6.742-6.742h75.916a6.742,6.742,0,0,1,6.742,6.742v9.516a6.742,6.742,0,0,1-6.742,6.742" transform="translate(180 782)" fill="#fff"/>
      <text id="afectando" transform="translate(575.723 1210.57)" fill="#12263f" font-size="14" font-family="Roboto-Regular, Roboto"><tspan x="0" y="0">a</tspan><tspan y="0" letter-spacing="-0.011em">f</tspan><tspan y="0">ectando</tspan></text>
    </g>
    <g id="Grupo_141053" data-name="Grupo 141053">
      <path id="Trazado_205256" data-name="Trazado 205256" d="M1112.108,435.979h-75.916a6.743,6.743,0,0,1-6.742-6.742v-9.516a6.743,6.743,0,0,1,6.742-6.742h75.916a6.742,6.742,0,0,1,6.742,6.742v9.516a6.742,6.742,0,0,1-6.742,6.742" transform="translate(180 782)" fill="#fff"/>
      <text id="son" transform="translate(1242.687 1210.57)" fill="#12263f" font-size="14" font-family="Roboto-Regular, Roboto"><tspan x="0" y="0">son</tspan></text>
    </g>
  </g>
</svg>
