<svg xmlns="http://www.w3.org/2000/svg" width="190.5" height="183.427" viewBox="0 0 190.5 183.427">
  <g id="marketing-de-medios-sociales" transform="translate(0 -9.48)">
    <g id="Grupo_174832" data-name="Grupo 174832" transform="translate(0 9.48)">
      <g id="Grupo_174831" data-name="Grupo 174831">
        <path id="Trazado_254625" data-name="Trazado 254625" d="M190.413,149.517c.058,1,.087,1.978.087,2.954a48.274,48.274,0,0,1-6.424,24.51c-3.75,6.334-9.324,11.813-16.319,14.387-3.83,1.409-7.69,1.54-11.869,1.54-7.723,0-15.208-3.414-21.052-9.492l-9.024,4.632c-1.188.759-2.46.778-4.44.806-1.066.016-2.566.029-4.429.041a25.393,25.393,0,0,0-4.084.871q-2.166.408-4.351.709-4.18.576-8.4.764a89.532,89.532,0,0,1-24.62-2.332l-16.839-.025c-3.762-.006-7.4-.015-10.829-.026-3.184,3.419-12.716,3.6-14.643,3.6-7.174,0-12.126-1.846-14.718-5.487a11.415,11.415,0,0,1-1.642-5.5c-.44-3.741-.708-7.483-1.43-11.178q-.7-3.584-1.4-7.169L10.031,142.9,6.6,125.343q-.392-2.006-.784-4.012a5.081,5.081,0,0,1-.094-.974A4.953,4.953,0,0,1,8.1,116.08c-.373-2.277-.654-4.69-.85-7.324-.152-2.053-.233-4.144-.242-6.223C2.943,101.385,0,97.072,0,91.778v-26.5c0-6.2,4.035-11.053,9.188-11.053H20.976c1.34-2.1,2.738-4.111,4.177-5.993,1.453-1.919,2.973-3.766,4.5-5.47A89.273,89.273,0,0,1,69.937,16.887a34.212,34.212,0,0,1,12.974-6.2,47.656,47.656,0,0,1,28.85,2.444,40.3,40.3,0,0,1,4.179,2.015,87.913,87.913,0,0,1,14.393,4.579A89.191,89.191,0,0,1,171.712,54.7q.54.859,1.061,1.73a28.522,28.522,0,0,1,17.135,26.113,28.19,28.19,0,0,1-4.636,15.571c.063,1.372.1,2.723.1,4.032A89.531,89.531,0,0,1,182.36,125.2a45.7,45.7,0,0,1,7.437,18.7A56.1,56.1,0,0,1,190.413,149.517Z" transform="translate(0 -9.48)" fill="#fff"/>
      </g>
    </g>
    <g id="Grupo_174959" data-name="Grupo 174959" transform="translate(5.724 14.614)">
      <g id="Grupo_174958" data-name="Grupo 174958">
        <g id="Grupo_174932" data-name="Grupo 174932">
          <g id="Grupo_174875" data-name="Grupo 174875" transform="translate(7.041)">
            <g id="Grupo_174834" data-name="Grupo 174834" transform="translate(0 3.482)">
              <g id="Grupo_174833" data-name="Grupo 174833">
                <path id="Trazado_254626" data-name="Trazado 254626" d="M127.819,194.087l10.567,3.723.455.39c2.1-.524,4.171-1.125,6.2-1.811a83.683,83.683,0,0,0,31.279-19.035,86.126,86.126,0,0,0,19.82-28.919,83.138,83.138,0,0,0,6.255-31.812A83.882,83.882,0,0,0,138.37,35.006a85.334,85.334,0,0,0-41.521.276A83.551,83.551,0,0,0,73.381,45.5a85.066,85.066,0,0,0-27.571,28.45A84.21,84.21,0,0,0,91.646,196.424q3.015,1.006,6.1,1.776c.144.042.3.076.44.11l8.557-2.842Z" transform="translate(-34.222 -32.578)" fill="#b9ddfc"/>
              </g>
            </g>
            <g id="Grupo_174874" data-name="Grupo 174874" transform="translate(35.356)">
              <g id="Grupo_174871" data-name="Grupo 174871">
                <g id="Grupo_174836" data-name="Grupo 174836" transform="translate(2.642)">
                  <g id="Grupo_174835" data-name="Grupo 174835">
                    <path id="Trazado_254627" data-name="Trazado 254627" d="M178.155,23.251q-1.405.026-2.789.131a32.976,32.976,0,0,0-5.285.87c-9.565,2.327-18.884,9.565-18.813,20.165a46.87,46.87,0,0,0,1.091,8.846c1.059,5.294,2.976,10.394,3.915,15.711a7.017,7.017,0,0,1-.062,3.671c-.87,2.32-3.633,3.18-6.023,3.836-4.188,1.148-8.543,2.741-11.214,6.165a15.488,15.488,0,0,0-2.889,9.331,23.924,23.924,0,0,0,3.61,12.953,11.866,11.866,0,0,0,5.885,5.246c2.977,1.012,6.222.156,9.279-.578,22.561-5.414,46.18-3.821,69.219-1.084a33.806,33.806,0,0,0,7.991-15.321c1.163-5.3.645-10.34-2.944-14.623a26.591,26.591,0,0,0-9.793-6.863c-3.324-1.475-4.341-3.138-4.233-6.8.235-8.028-.045-16.675-3.55-24.054C205.566,28.255,191.412,23.008,178.155,23.251Z" transform="translate(-136.084 -23.243)" fill="#12263f"/>
                  </g>
                </g>
                <g id="Grupo_174841" data-name="Grupo 174841" transform="translate(38.109 41.875)">
                  <g id="Grupo_174838" data-name="Grupo 174838">
                    <g id="Grupo_174837" data-name="Grupo 174837">
                      <path id="Trazado_254628" data-name="Trazado 254628" d="M231.165,148.114l.127,4.893,2.735,2.573-2.614,2.107.212,8.152,24.026-1.081,1.478-29.259Z" transform="translate(-231.165 -135.5)" fill="#ffb4dc"/>
                    </g>
                  </g>
                  <g id="Grupo_174840" data-name="Grupo 174840" transform="translate(0.134 5.993)">
                    <g id="Grupo_174839" data-name="Grupo 174839">
                      <path id="Trazado_254629" data-name="Trazado 254629" d="M231.525,161.028l.106,6.741a20.9,20.9,0,0,0,8.484-.615c7.565-2.237,13.784-7.382,14.856-15.588A51.353,51.353,0,0,1,231.525,161.028Z" transform="translate(-231.525 -151.567)" fill="#040308"/>
                    </g>
                  </g>
                </g>
                <g id="Grupo_174866" data-name="Grupo 174866" transform="translate(22.936 0.793)">
                  <g id="Grupo_174843" data-name="Grupo 174843">
                    <g id="Grupo_174842" data-name="Grupo 174842">
                      <path id="Trazado_254630" data-name="Trazado 254630" d="M199.606,81.879c11.225,6.174,27.77,2.262,31.257-11.826a128.421,128.421,0,0,0,2.771-14.388c.26-2.026.383-3.6.453-4.723a22.367,22.367,0,0,0,.3-4.688,22.015,22.015,0,0,0-42.748-6.19c-1.506,4.3-1.152,8.728-.995,13.189.118,3.338.255,6.659.674,9.98.737,5.833,1.955,13.255,6.571,17.411A9.228,9.228,0,0,0,199.606,81.879Z" transform="translate(-190.489 -25.369)" fill="#ffb4dc"/>
                    </g>
                  </g>
                  <g id="Grupo_174851" data-name="Grupo 174851" transform="translate(4.288 31.162)">
                    <g id="Grupo_174845" data-name="Grupo 174845" transform="translate(17.066 0.609)">
                      <g id="Grupo_174844" data-name="Grupo 174844">
                        <path id="Trazado_254631" data-name="Trazado 254631" d="M247.737,112.558a1.7,1.7,0,1,0,1.6-2.018A1.828,1.828,0,0,0,247.737,112.558Z" transform="translate(-247.735 -110.539)" fill="#040308"/>
                      </g>
                    </g>
                    <g id="Grupo_174847" data-name="Grupo 174847" transform="translate(0 1.376)">
                      <g id="Grupo_174846" data-name="Grupo 174846">
                        <path id="Trazado_254632" data-name="Trazado 254632" d="M201.987,114.616a1.7,1.7,0,1,0,1.6-2.018A1.828,1.828,0,0,0,201.987,114.616Z" transform="translate(-201.985 -112.597)" fill="#040308"/>
                      </g>
                    </g>
                    <g id="Grupo_174850" data-name="Grupo 174850" transform="translate(6.428)">
                      <g id="Grupo_174849" data-name="Grupo 174849">
                        <g id="Grupo_174848" data-name="Grupo 174848">
                          <path id="Trazado_254633" data-name="Trazado 254633" d="M219.551,121.654a.21.21,0,0,1-.209-.206c-.068-4.07-.111-8.219-.126-12.331a.209.209,0,0,1,.208-.21h0a.209.209,0,0,1,.209.208c.015,4.021.056,8.077.122,12.06a11.527,11.527,0,0,0,2.849-1.207.208.208,0,0,1,.213.358,11.98,11.98,0,0,1-3.215,1.32A.2.2,0,0,1,219.551,121.654Z" transform="translate(-219.216 -108.907)" fill="#040308"/>
                        </g>
                      </g>
                    </g>
                  </g>
                  <g id="Grupo_174859" data-name="Grupo 174859" transform="translate(12.833 44.543)">
                    <g id="Grupo_174853" data-name="Grupo 174853" transform="translate(0 0)">
                      <g id="Grupo_174852" data-name="Grupo 174852">
                        <path id="Trazado_254634" data-name="Trazado 254634" d="M226.9,147.438a2.33,2.33,0,0,1-1.978-1.192.19.19,0,0,1,.324-.2,1.833,1.833,0,0,0,3.456-1.068.189.189,0,0,1,.179-.2.182.182,0,0,1,.2.178,2.242,2.242,0,0,1-1.527,2.378A2.173,2.173,0,0,1,226.9,147.438Z" transform="translate(-224.891 -144.779)" fill="#040308"/>
                      </g>
                    </g>
                  </g>
                  <g id="Grupo_174865" data-name="Grupo 174865" transform="translate(39.019 28.784)">
                    <g id="Grupo_174862" data-name="Grupo 174862">
                      <g id="Grupo_174861" data-name="Grupo 174861">
                        <g id="Grupo_174860" data-name="Grupo 174860">
                          <path id="Trazado_254637" data-name="Trazado 254637" d="M303.1,102.572a5.35,5.35,0,0,1,3.967,2.783,7.337,7.337,0,0,1,.657,4.892,9.235,9.235,0,0,1-7.826,7.223,4.748,4.748,0,0,1-2.8-.411,4.158,4.158,0,0,1-1.957-3.154,9.326,9.326,0,0,1,.47-3.8C296.642,106.605,298.57,102.071,303.1,102.572Z" transform="translate(-295.092 -102.534)" fill="#ffb4dc"/>
                        </g>
                      </g>
                    </g>
                    <g id="Grupo_174864" data-name="Grupo 174864" transform="translate(4.353 4.954)">
                      <g id="Grupo_174863" data-name="Grupo 174863">
                        <path id="Trazado_254638" data-name="Trazado 254638" d="M306.993,120.273a.231.231,0,0,1-.2-.351,16.288,16.288,0,0,1,1.666-2.409,5.545,5.545,0,0,1,2.453-1.691.234.234,0,0,1,.289.152.231.231,0,0,1-.151.289,5.084,5.084,0,0,0-2.246,1.555,15.835,15.835,0,0,0-1.617,2.342A.23.23,0,0,1,306.993,120.273Z" transform="translate(-306.762 -115.814)" fill="#040308"/>
                      </g>
                    </g>
                  </g>
                </g>
                <g id="Grupo_174868" data-name="Grupo 174868" transform="translate(38.398 65.124)">
                  <g id="Grupo_174867" data-name="Grupo 174867">
                    <path id="Trazado_254639" data-name="Trazado 254639" d="M231.965,197.827a.025.025,0,0,0-.017.009l-.009-.009Z" transform="translate(-231.94 -197.827)" fill="#fcf2e9"/>
                  </g>
                </g>
                <g id="Grupo_174870" data-name="Grupo 174870" transform="translate(0 61.706)">
                  <g id="Grupo_174869" data-name="Grupo 174869">
                    <path id="Trazado_254640" data-name="Trazado 254640" d="M184.711,298.294c.508-.034,1.015-.085,1.523-.135a83.5,83.5,0,0,0,11.633-2l.4-.1c2.1-.524,4.171-1.125,6.2-1.811a83.146,83.146,0,0,0,9.247-3.731c.889-.414,1.751-.846,2.614-1.294.939-.482,1.87-.99,2.792-1.514,1.625-.922,3.223-1.9,4.78-2.927a81.372,81.372,0,0,0,8.241-6.176c2.048-1.743,4.019-3.587,5.889-5.516.186-.186.364-.372.542-.567a69.051,69.051,0,0,0-.085-8.427c-1.531-22.031-11.227-42.658-18.647-52.108a28.372,28.372,0,0,0-3.2-3.511c-9.992-8.985-20.635-16.591-20.635-16.591l-3.926-3.215-.009-.009s-5.372,9.213-13.613,9.586a11.319,11.319,0,0,1-11.049-6.159c-.009.009-.009.009-.017.009-.77.457-15.957,9.51-26.431,21.726a48.255,48.255,0,0,0-7.386,11.125c-5.609,12.234-4.882,41.465-3.884,58.581,1.7,1.193,3.452,2.31,5.245,3.367.465.279.922.55,1.388.812.33.195.668.381,1.007.567.677.372,1.362.736,2.048,1.083a81.709,81.709,0,0,0,8.376,3.74c.076.034.161.059.245.093a81.812,81.812,0,0,0,9.171,2.868c.144.042.3.076.44.11,2.572.634,5.195,1.142,7.851,1.531A82.1,82.1,0,0,0,184.711,298.294Z" transform="translate(-129.003 -188.662)" fill="#fcf2e9"/>
                  </g>
                </g>
              </g>
              <g id="Grupo_174873" data-name="Grupo 174873" transform="translate(20.46 0.252)">
                <g id="Grupo_174872" data-name="Grupo 174872">
                  <path id="Trazado_254641" data-name="Trazado 254641" d="M230.589,39.106a19.455,19.455,0,0,0-3.562-7.087,19.3,19.3,0,0,0-4.3-3.734,27.214,27.214,0,0,0-21.085-3.638c0,.023,0,.046,0,.069-5.239,2.112-10.459,4.519-13.624,9.2a26.465,26.465,0,0,0-3.747,18.719A113.008,113.008,0,0,0,201.658,25a30.484,30.484,0,0,0,23.887,28.8c.325,1.47.918,2.719,1.243,4.189a15.48,15.48,0,0,0,2.74-3.684,21,21,0,0,0,1.894-6.584A22.109,22.109,0,0,0,230.589,39.106Z" transform="translate(-183.852 -23.918)" fill="#12263f"/>
                </g>
              </g>
            </g>
          </g>
          <g id="Grupo_174888" data-name="Grupo 174888" transform="translate(5.721 105.455)">
            <g id="Grupo_174887" data-name="Grupo 174887">
              <g id="Grupo_174884" data-name="Grupo 174884">
                <g id="Grupo_174877" data-name="Grupo 174877" transform="translate(12.382 55.302)">
                  <g id="Grupo_174876" data-name="Grupo 174876">
                    <path id="Trazado_254642" data-name="Trazado 254642" d="M128.211,462.666c-3.723,0-7.564,0-11.43-.009l-17.429-.025c-5.66-.009-11.049-.025-15.838-.042-11.557-.017-19.637-.042-19.637-.042L75.688,454.2h104.4l-16.27,8.351c-.042.042-2.563.076-6.785.1" transform="translate(-63.877 -454.197)" fill="#0060ff"/>
                  </g>
                </g>
                <g id="Grupo_174879" data-name="Grupo 174879" transform="translate(12.382 55.302)" opacity="0.33">
                  <g id="Grupo_174878" data-name="Grupo 174878">
                    <path id="Trazado_254643" data-name="Trazado 254643" d="M128.211,462.666c-3.723,0-7.564,0-11.43-.009l-17.429-.025c-5.66-.009-11.049-.025-15.838-.042-11.557-.017-19.637-.042-19.637-.042L75.688,454.2h104.4l-16.27,8.351c-.042.042-2.563.076-6.785.1" transform="translate(-63.877 -454.197)" fill="#00defc"/>
                  </g>
                </g>
                <g id="Grupo_174881" data-name="Grupo 174881">
                  <g id="Grupo_174880" data-name="Grupo 174880">
                    <path id="Trazado_254644" data-name="Trazado 254644" d="M43.066,370.062,30.683,306.233c0-.288,105.7-.288,105.7-.288l6.673,64.117H43.066Z" transform="translate(-30.683 -305.945)" fill="#073c77"/>
                  </g>
                </g>
                <g id="Grupo_174883" data-name="Grupo 174883" transform="translate(46.803 23.905)">
                  <g id="Grupo_174882" data-name="Grupo 174882">
                    <circle id="Elipse_5144" data-name="Elipse 5144" cx="7.669" cy="7.669" r="7.669" fill="#fcf2e9"/>
                  </g>
                </g>
              </g>
              <g id="Grupo_174886" data-name="Grupo 174886" transform="translate(10.16 43.692)">
                <g id="Grupo_174885" data-name="Grupo 174885">
                  <path id="Trazado_254645" data-name="Trazado 254645" d="M81.922,440.321a.42.42,0,0,1-.007.095c-.047.554-.1,1.074-.162,1.554-.068.5-.142.953-.223,1.344a3.818,3.818,0,0,1-.473,1.405c-1.175,1.513-17.6,4.161-21.517-1.405a3.725,3.725,0,0,1-.3-.493s-.156-.959-.365-2.432c0-.02-.007-.047-.007-.068-.2-1.439-.446-3.351-.635-5.351-.041-.439-.081-.878-.115-1.317-.345-4.3-.345-8.614.953-9.114,1.594-.621,3.472,4.723,4.722,9.114.493,1.716.885,3.3,1.128,4.3.176.723.27,1.155.27,1.155s-.034-.405-.074-1.081c-.061-1-.149-2.6-.189-4.378-.108-4.4.068-9.89,1.554-10.147,1.588-.277,2.9,5.715,3.641,10.147.432,2.56.676,4.6.676,4.6s.034-2.027.182-4.6c.257-4.466.865-10.58,2.229-10.58,1.318,0,2.506,5.945,3.229,10.58.46,2.952.736,5.371.736,5.371s.547-2.7,1.3-5.371c.77-2.736,1.757-5.452,2.587-5.236.635.169.959,2.439,1.047,5.236A60.4,60.4,0,0,1,81.922,440.321Z" transform="translate(-57.919 -423.073)" fill="#ffb4dc"/>
                </g>
              </g>
            </g>
          </g>
          <g id="Grupo_174904" data-name="Grupo 174904" transform="translate(123.232 102.497)">
            <g id="Grupo_174903" data-name="Grupo 174903">
              <g id="Grupo_174890" data-name="Grupo 174890">
                <g id="Grupo_174889" data-name="Grupo 174889">
                  <ellipse id="Elipse_5145" data-name="Elipse 5145" cx="27.58" cy="35.36" rx="27.58" ry="35.36" fill="#ffb30b"/>
                </g>
              </g>
              <g id="Grupo_174892" data-name="Grupo 174892" transform="translate(4.637)">
                <g id="Grupo_174891" data-name="Grupo 174891">
                  <ellipse id="Elipse_5146" data-name="Elipse 5146" cx="26.239" cy="35.36" rx="26.239" ry="35.36" fill="#00defc"/>
                </g>
              </g>
              <g id="Grupo_174894" data-name="Grupo 174894" transform="translate(9.695 6.817)">
                <g id="Grupo_174893" data-name="Grupo 174893">
                  <ellipse id="Elipse_5147" data-name="Elipse 5147" cx="21.181" cy="28.544" rx="21.181" ry="28.544" fill="#fcf2e9"/>
                </g>
              </g>
              <g id="Grupo_174896" data-name="Grupo 174896" transform="translate(16.017 15.337)">
                <g id="Grupo_174895" data-name="Grupo 174895">
                  <ellipse id="Elipse_5148" data-name="Elipse 5148" cx="14.858" cy="20.023" rx="14.858" ry="20.023" fill="#00defc"/>
                </g>
              </g>
              <g id="Grupo_174898" data-name="Grupo 174898" transform="translate(23.225 25.051)">
                <g id="Grupo_174897" data-name="Grupo 174897">
                  <path id="Trazado_254646" data-name="Trazado 254646" d="M423.268,375.48c0,5.694-3.425,10.31-7.65,10.31s-7.65-4.616-7.65-10.31,3.425-10.31,7.65-10.31S423.268,369.785,423.268,375.48Z" transform="translate(-407.967 -365.17)" fill="#fcf2e9"/>
                </g>
              </g>
              <g id="Grupo_174900" data-name="Grupo 174900" transform="translate(47.282 30.057)">
                <g id="Grupo_174899" data-name="Grupo 174899">
                  <path id="Trazado_254647" data-name="Trazado 254647" d="M472.457,383.167l2.173-4.022,8.149-.555-4.02,4.715,2.716,5.131-6.953-.555Z" transform="translate(-472.457 -378.591)" fill="#ffb30b"/>
                </g>
              </g>
              <g id="Grupo_174902" data-name="Grupo 174902" transform="translate(31.493 34.481)">
                <g id="Grupo_174901" data-name="Grupo 174901">
                  <path id="Trazado_254648" data-name="Trazado 254648" d="M453.8,391.171H430.492a.36.36,0,1,1,0-.721H453.8a.36.36,0,1,1,0,.721Z" transform="translate(-430.131 -390.45)" fill="#040308"/>
                </g>
              </g>
            </g>
          </g>
          <g id="Grupo_174923" data-name="Grupo 174923" transform="translate(0 44.683)">
            <g id="Grupo_174907" data-name="Grupo 174907" transform="translate(0 0)">
              <g id="Grupo_174906" data-name="Grupo 174906">
                <g id="Grupo_174905" data-name="Grupo 174905">
                  <path id="Trazado_254649" data-name="Trazado 254649" d="M19.457,143.029h50.35c2.271,0,4.111,2.676,4.111,5.977v26.5c0,3.3-1.841,5.977-4.111,5.977H59.414l3.377,11.293-11.22-11.293H19.457c-2.271,0-4.111-2.676-4.111-5.977v-26.5C15.346,145.705,17.187,143.029,19.457,143.029Z" transform="translate(-15.346 -143.029)" fill="#084a93"/>
                </g>
              </g>
            </g>
            <g id="Grupo_174922" data-name="Grupo 174922" transform="translate(15.491 4.75)">
              <g id="Grupo_174909" data-name="Grupo 174909" transform="translate(0.006 0.033)">
                <g id="Grupo_174908" data-name="Grupo 174908">
                  <path id="Trazado_254650" data-name="Trazado 254650" d="M70.8,183.662A13.906,13.906,0,1,1,84.7,169.757,13.921,13.921,0,0,1,70.8,183.662Zm0-27.232a13.326,13.326,0,1,0,13.326,13.326A13.341,13.341,0,0,0,70.8,156.431Z" transform="translate(-56.891 -155.851)" fill="#fcf2e9"/>
                </g>
              </g>
              <g id="Grupo_174911" data-name="Grupo 174911" transform="translate(13.622 0.323)">
                <g id="Grupo_174910" data-name="Grupo 174910">
                  <rect id="Rect치ngulo_298577" data-name="Rect치ngulo 298577" width="0.58" height="27.232" fill="#fcf2e9"/>
                </g>
              </g>
              <g id="Grupo_174913" data-name="Grupo 174913" transform="translate(0.296 13.649)">
                <g id="Grupo_174912" data-name="Grupo 174912">
                  <rect id="Rect치ngulo_298578" data-name="Rect치ngulo 298578" width="27.232" height="0.58" fill="#fcf2e9"/>
                </g>
              </g>
              <g id="Grupo_174915" data-name="Grupo 174915" transform="translate(6.792)">
                <g id="Grupo_174914" data-name="Grupo 174914">
                  <path id="Trazado_254651" data-name="Trazado 254651" d="M79.376,183.169a16.741,16.741,0,0,1-3.967-9.061,27.78,27.78,0,0,1-.078-7.957,17.732,17.732,0,0,1,1.744-5.912,10.459,10.459,0,0,1,4.253-4.476l.273.511a9.891,9.891,0,0,0-4.013,4.233,17.188,17.188,0,0,0-1.683,5.723,27.211,27.211,0,0,0,.076,7.79,16.188,16.188,0,0,0,3.818,8.756Z" transform="translate(-75.082 -155.762)" fill="#fcf2e9"/>
                </g>
              </g>
              <g id="Grupo_174917" data-name="Grupo 174917" transform="translate(15.697 0.343)">
                <g id="Grupo_174916" data-name="Grupo 174916">
                  <path id="Trazado_254652" data-name="Trazado 254652" d="M100.394,183.9l-.442-.375c2.474-2.916,3.036-6.969,3.261-10.551.233-3.721.242-8.511-1.763-12.569a9.488,9.488,0,0,0-2.495-3.269l.362-.453a10.047,10.047,0,0,1,2.653,3.466c2.065,4.181,2.058,9.069,1.821,12.862C103.561,176.686,102.978,180.855,100.394,183.9Z" transform="translate(-98.955 -156.682)" fill="#fcf2e9"/>
                </g>
              </g>
              <g id="Grupo_174919" data-name="Grupo 174919" transform="translate(0 7.022)">
                <g id="Grupo_174918" data-name="Grupo 174918">
                  <path id="Trazado_254653" data-name="Trazado 254653" d="M57.392,180.877l-.517-.261a4.735,4.735,0,0,1,1.43-1.54,22.305,22.305,0,0,1,19.006-3.768,13.435,13.435,0,0,1,7.046,4.138l-.445.37a12.869,12.869,0,0,0-6.751-3.948,21.707,21.707,0,0,0-18.5,3.667A4.215,4.215,0,0,0,57.392,180.877Z" transform="translate(-56.875 -174.587)" fill="#fcf2e9"/>
                </g>
              </g>
              <g id="Grupo_174921" data-name="Grupo 174921" transform="translate(0.173 15.66)">
                <g id="Grupo_174920" data-name="Grupo 174920">
                  <path id="Trazado_254654" data-name="Trazado 254654" d="M70,203.147a32.591,32.591,0,0,1-3.395-.178,19.014,19.014,0,0,1-5.539-1.307,6.934,6.934,0,0,1-3.726-3.18l.441-.2a6.469,6.469,0,0,0,3.477,2.936,18.543,18.543,0,0,0,5.4,1.269,29.788,29.788,0,0,0,11.283-.9c3.046-.879,5.359-2.244,6.515-3.843l.392.283c-1.561,2.161-4.545,3.381-6.772,4.025A29.268,29.268,0,0,1,70,203.147Z" transform="translate(-57.34 -197.743)" fill="#fcf2e9"/>
                </g>
              </g>
            </g>
          </g>
          <g id="Grupo_174931" data-name="Grupo 174931" transform="translate(132.984 44.539)">
            <g id="Grupo_174925" data-name="Grupo 174925">
              <g id="Grupo_174924" data-name="Grupo 174924">
                <circle id="Elipse_5149" data-name="Elipse 5149" cx="23.386" cy="23.386" r="23.386" fill="#ffb30b"/>
              </g>
            </g>
            <g id="Grupo_174930" data-name="Grupo 174930" transform="translate(7.668 7.725)">
              <g id="Grupo_174927" data-name="Grupo 174927" transform="translate(19.291 9.23)">
                <g id="Grupo_174926" data-name="Grupo 174926">
                  <path id="Trazado_254655" data-name="Trazado 254655" d="M444.12,206.823l12.609.181.362-18.094-12.847-.814Z" transform="translate(-444.12 -188.096)" fill="#073c77"/>
                </g>
              </g>
              <g id="Grupo_174929" data-name="Grupo 174929">
                <g id="Grupo_174928" data-name="Grupo 174928">
                  <path id="Trazado_254656" data-name="Trazado 254656" d="M404.311,172.673s-1.357-9.137.724-9.318,6.695,9.047,6.695,9.047l4.523.543-.814,18.456s-20.989.724-21.622-1.447a8.773,8.773,0,0,1-.181-4.071s-1.538-2.624-1.176-4.161a13.6,13.6,0,0,1,1.086-2.9,12.127,12.127,0,0,1-.724-4.524c.272-1.719,3.257-1.9,4.886-1.81S404.311,172.673,404.311,172.673Z" transform="translate(-392.404 -163.352)" fill="#fcf2e9"/>
                </g>
              </g>
            </g>
          </g>
        </g>
        <g id="Grupo_174957" data-name="Grupo 174957" transform="translate(17.39 15.379)">
          <g id="Grupo_174935" data-name="Grupo 174935" transform="translate(15.766 14.908)">
            <g id="Grupo_174934" data-name="Grupo 174934">
              <g id="Grupo_174933" data-name="Grupo 174933">
                <path id="Trazado_254657" data-name="Trazado 254657" d="M109.341,107.6l3.164.973-3.164.974-.973,3.164-.973-3.164-3.164-.974,3.164-.973.973-3.164Z" transform="translate(-104.23 -104.434)" fill="#fcf2e9"/>
              </g>
            </g>
          </g>
          <g id="Grupo_174938" data-name="Grupo 174938" transform="translate(32.184 14.908)">
            <g id="Grupo_174937" data-name="Grupo 174937" transform="translate(0)">
              <g id="Grupo_174936" data-name="Grupo 174936">
                <path id="Trazado_254658" data-name="Trazado 254658" d="M153.352,107.6l3.164.973-3.164.974-.974,3.164-.973-3.164-3.164-.974,3.164-.973.973-3.164Z" transform="translate(-148.241 -104.434)" fill="#fcf2e9"/>
              </g>
            </g>
          </g>
          <g id="Grupo_174941" data-name="Grupo 174941" transform="translate(32.184)">
            <g id="Grupo_174940" data-name="Grupo 174940" transform="translate(0)">
              <g id="Grupo_174939" data-name="Grupo 174939">
                <path id="Trazado_254659" data-name="Trazado 254659" d="M153.352,67.634l3.164.974-3.164.973-.974,3.164-.973-3.164-3.164-.973,3.164-.974.973-3.164Z" transform="translate(-148.241 -64.47)" fill="#fcf2e9"/>
              </g>
            </g>
          </g>
          <g id="Grupo_174944" data-name="Grupo 174944" transform="translate(122.909 17.068)">
            <g id="Grupo_174943" data-name="Grupo 174943">
              <g id="Grupo_174942" data-name="Grupo 174942">
                <path id="Trazado_254660" data-name="Trazado 254660" d="M396.567,113.389l3.164.974-3.164.973-.974,3.164-.973-3.164-3.164-.973,3.164-.974.973-3.164Z" transform="translate(-391.456 -110.225)" fill="#fcf2e9"/>
              </g>
            </g>
          </g>
          <g id="Grupo_174947" data-name="Grupo 174947" transform="translate(124.022 74.919)">
            <g id="Grupo_174946" data-name="Grupo 174946">
              <g id="Grupo_174945" data-name="Grupo 174945">
                <path id="Trazado_254661" data-name="Trazado 254661" d="M399.552,268.475l3.164.973-3.164.974-.973,3.164-.974-3.164-3.164-.974,3.164-.973.974-3.164Z" transform="translate(-394.441 -265.311)" fill="#fcf2e9"/>
              </g>
            </g>
          </g>
          <g id="Grupo_174950" data-name="Grupo 174950" transform="translate(144.51 77.333)">
            <g id="Grupo_174949" data-name="Grupo 174949">
              <g id="Grupo_174948" data-name="Grupo 174948">
                <path id="Trazado_254662" data-name="Trazado 254662" d="M454.476,274.947l3.164.973-3.164.974-.973,3.164-.974-3.164-3.164-.974,3.164-.973.974-3.164Z" transform="translate(-449.365 -271.783)" fill="#fcf2e9"/>
              </g>
            </g>
          </g>
          <g id="Grupo_174953" data-name="Grupo 174953" transform="translate(16.27 79.515)">
            <g id="Grupo_174952" data-name="Grupo 174952">
              <g id="Grupo_174951" data-name="Grupo 174951">
                <path id="Trazado_254663" data-name="Trazado 254663" d="M110.69,280.8l3.164.973-3.164.974-.974,3.164-.973-3.164-3.164-.974,3.164-.973.973-3.164Z" transform="translate(-105.579 -277.632)" fill="#fcf2e9"/>
              </g>
            </g>
          </g>
          <g id="Grupo_174956" data-name="Grupo 174956" transform="translate(0 71.935)">
            <g id="Grupo_174955" data-name="Grupo 174955">
              <g id="Grupo_174954" data-name="Grupo 174954">
                <path id="Trazado_254664" data-name="Trazado 254664" d="M67.075,260.477l3.164.973-3.164.974-.973,3.164-.974-3.164-3.164-.974,3.164-.973.974-3.164Z" transform="translate(-61.964 -257.313)" fill="#fcf2e9"/>
              </g>
            </g>
          </g>
        </g>
      </g>
    </g>
  </g>
</svg>
