<svg id="Grupo_174686" data-name="Grupo 174686" xmlns="http://www.w3.org/2000/svg" xmlns:xlink="http://www.w3.org/1999/xlink" width="85" height="84.987" viewBox="0 0 85 84.987">
  <defs>
    <clipPath id="clip-path">
      <rect id="Rectángulo_297218" data-name="Rectángulo 297218" width="85" height="84.987" fill="none"/>
    </clipPath>
    <clipPath id="clip-path-2">
      <rect id="Rectángulo_297193" data-name="Rectángulo 297193" width="16.575" height="35.643" fill="none"/>
    </clipPath>
    <clipPath id="clip-path-3">
      <rect id="Rectángulo_297194" data-name="Rectángulo 297194" width="10.959" height="11.005" fill="none"/>
    </clipPath>
  </defs>
  <g id="Grupo_140524" data-name="Grupo 140524" clip-path="url(#clip-path)">
    <path id="Trazado_204599" data-name="Trazado 204599" d="M17.557,27.411A44.852,44.852,0,0,1,18.6,21.834a11.324,11.324,0,0,1,5.5-6.516,1.024,1.024,0,0,0,.6-.986A15.068,15.068,0,0,1,52.472,6.988c.15.237.305.47.48.739a12.425,12.425,0,0,1,16.67,8.717,10.105,10.105,0,0,0,1.578-.014c.945-.155,1.326.255,1.461,1.142a15.372,15.372,0,0,0,.522,1.983.979.979,0,0,0,1.52.624c.775-.425,1.521-.907,2.315-1.291a.931.931,0,0,1,.843.1q2.343,2.258,4.6,4.6a.935.935,0,0,1,.085.847c-.385.793-.868,1.539-1.294,2.314a.982.982,0,0,0,.644,1.51c.849.244,1.716.431,2.549.722a.933.933,0,0,1,.524.671q.06,3.254,0,6.509a.94.94,0,0,1-.545.655c-.8.283-1.643.468-2.465.7a.991.991,0,0,0-.652,1.616c.418.747.883,1.47,1.25,2.24a.956.956,0,0,1-.111.844c-.452.535-1,.995-1.561,1.54,3.068.7,4.109,2,4.109,5q0,15.761,0,31.521c0,3.1-1.6,4.711-4.681,4.711H4.677C1.605,84.987,0,83.369,0,80.274Q0,56.2,0,32.135c0-3.143,1.591-4.724,4.751-4.724H17.557Zm20.826,5.423H52.121V29.108c.965-.269,1.869-.518,2.772-.771,1.181-.332,1.376-.829.757-1.917l-1.417-2.49c1.71-1.7,3.377-3.383,5.075-5.03a.793.793,0,0,1,.719-.045c.764.383,1.494.831,2.239,1.252.828.467,1.407.236,1.663-.666.279-.984.552-1.97.846-3.021h1.973a9.382,9.382,0,0,0-4.657-5.677c-3.583-1.883-7.049-1.386-10.412.751-.267-.577-.5-1.092-.743-1.6a12.312,12.312,0,0,0-23.472,5.925,1.152,1.152,0,0,1-.88,1.349,9.146,9.146,0,0,0-5.733,6.659,26.353,26.353,0,0,0-.342,3.587h1.185c4.167,0,8.335-.012,12.5.005a4.1,4.1,0,0,1,4.188,4.166c.007.4,0,.794,0,1.251M2.742,56.113q0,12.08,0,24.161c0,1.573.4,1.971,1.97,1.971H33.671c1.571,0,1.971-.4,1.971-1.972q0-24.075,0-48.15c0-1.572-.4-1.971-1.972-1.971H4.712c-1.573,0-1.97.4-1.97,1.971q0,11.994,0,23.989M38.4,60.33H60.251v8.239H38.443v2.755H60.268v8.208H38.439c-.062.942-.117,1.79-.178,2.714h.822q11.052,0,22.1,0c1.445,0,1.872-.433,1.872-1.9q0-21.419,0-42.839c0-1.445-.433-1.87-1.9-1.87H38.433V38.4H60.247v8.238h-21.8v2.725H60.264V57.6H38.4ZM65.677,82.245h.813q6.938,0,13.876,0c1.456,0,1.885-.429,1.885-1.885q0-15.932,0-31.863c0-1.463-.426-1.892-1.877-1.893q-6.852,0-13.7,0c-.274,0-.548.024-.8.036v2.737H79.452v8.235H65.85v2.722H79.442V68.57H65.86v2.752h13.6v8.2h-13.6c-.062.94-.119,1.787-.181,2.719m.162-38.385c3.637,0,7.177,0,10.716-.009a.988.988,0,0,0,.612-.207c.782-.7,1.536-1.44,2.31-2.175a11.252,11.252,0,0,0-.8-1.377,2.092,2.092,0,0,1-.135-2.77,2.824,2.824,0,0,0,.433-1.108,1.233,1.233,0,0,1,1.142-1.059c.714-.153,1.413-.379,2.106-.57V31.216a6.133,6.133,0,0,0-.983-.285,2.57,2.57,0,0,1-2.6-2.273,2.087,2.087,0,0,0-.394-.848,1.117,1.117,0,0,1,.031-1.4c.4-.644,1.061-1.4.97-2.009s-1.008-1.092-1.477-1.7a.984.984,0,0,0-1.631-.192,2.531,2.531,0,0,1-3.443.257c-.285-.211-.723-.208-1.027-.4a1.85,1.85,0,0,1-.738-.78c-.291-.766-.471-1.574-.695-2.361H66.854a12.369,12.369,0,0,0-.489,1.758c-.118.912-.681,1.215-1.439,1.631a3.535,3.535,0,0,1-4.405-.32.75.75,0,0,0-.722-.01c-.75.652-1.449,1.363-2.17,2.059.369.654.64,1.224.993,1.738a1.592,1.592,0,0,1,.105,2.013A18.524,18.524,0,0,0,58,29.818a1.5,1.5,0,0,1-.723.684c-.79.29-1.617.482-2.4.7v1.641h5.386A8.325,8.325,0,0,1,69.319,24.7a8.228,8.228,0,0,1,7.425,8.722,7.874,7.874,0,0,1-2.694,5.554A8.244,8.244,0,0,1,65.839,40.7Zm2.692-5.444a5.574,5.574,0,0,0,5.489-5.3,5.487,5.487,0,0,0-10.948-.706.867.867,0,0,0,.53,1.008A3.565,3.565,0,0,1,65.739,36.6c.011,1.129.608,1.4,1.446,1.592.443.1.9.152,1.346.225m-10.994,24.7H38.454v2.638H57.537Zm0-10.981H38.44v2.635h19.1ZM38.422,76.7H57.535V74.066H38.422ZM65.841,65.735H76.7V63.1H65.841Zm0,10.971H76.7V74.061H65.844Zm5.473-21.944h5.407V52.138H71.317ZM52.16,43.818h5.365V41.151H52.16Zm-2.847-2.654H43.921V43.8h5.391ZM65.842,54.78h2.645V52.15H65.842ZM41.086,41.167H38.44V43.8h2.646Z" transform="translate(0 0)"/>
    <path id="Trazado_204600" data-name="Trazado 204600" d="M107.461,42.026c0-.457.006-.854,0-1.251a4.1,4.1,0,0,0-4.188-4.166c-4.167-.018-8.335-.005-12.5-.005H89.586a26.354,26.354,0,0,1,.342-3.587,9.146,9.146,0,0,1,5.733-6.659,1.152,1.152,0,0,0,.88-1.349,12.312,12.312,0,0,1,23.472-5.925c.243.51.476,1.025.743,1.6,3.362-2.137,6.828-2.634,10.412-.751a9.382,9.382,0,0,1,4.657,5.677h-1.973c-.294,1.052-.567,2.037-.846,3.021-.256.9-.835,1.134-1.663.666-.745-.421-1.475-.869-2.239-1.252a.793.793,0,0,0-.719.045c-1.7,1.647-3.365,3.325-5.075,5.03l1.417,2.49c.62,1.088.425,1.585-.757,1.917-.9.254-1.807.5-2.772.771v3.725Zm15.128-13.7h2.63V25.677h-2.63Zm-5.513-.016h2.666V25.7h-2.666Zm-5.449.011h2.621V25.652h-2.621Zm-2.85-2.619h-2.617v2.662h2.617Zm-5.483,0h-2.617v2.662h2.617Z" transform="translate(-69.078 -9.192)" fill="#a6f4fe"/>
    <path id="Trazado_204601" data-name="Trazado 204601" d="M11.977,157.674q0-11.995,0-23.989c0-1.574.4-1.971,1.97-1.971H42.905c1.573,0,1.972.4,1.972,1.971q0,24.075,0,48.15c0,1.572-.4,1.972-1.971,1.972H13.947c-1.572,0-1.97-.4-1.97-1.971q0-12.08,0-24.161m2.782,23.332h27.31V167.4H14.759Zm-.024-38.378H42.074v-8.105H14.735ZM42.1,156.45H14.789v8.119H42.1Zm-27.342-2.864H42.1v-8.117H14.756Z" transform="translate(-9.235 -101.561)" fill="#a8c0d9"/>
    <path id="Trazado_204602" data-name="Trazado 204602" d="M167.277,180.36v-2.725h21.861V169.4H167.32v-2.725h21.8v-8.238H167.307v-2.767h.878q10.924,0,21.848,0c1.467,0,1.9.425,1.9,1.87q0,21.419,0,42.839c0,1.466-.426,1.9-1.872,1.9q-11.052,0-22.1,0h-.822l.178-2.714h21.829v-8.208H167.317V188.6h21.808V180.36Z" transform="translate(-128.874 -120.031)" fill="#00defc"/>
    <g id="Grupo_140520" data-name="Grupo 140520" transform="translate(65.677 46.603)" style="isolation: isolate">
      <g id="Grupo_140519" data-name="Grupo 140519">
        <g id="Grupo_140518" data-name="Grupo 140518" clip-path="url(#clip-path-2)">
          <path id="Trazado_204603" data-name="Trazado 204603" d="M286.9,239.215c.062-.932.118-1.779.181-2.719h13.6v-8.2h-13.6V225.54H300.66V217.3H287.068v-2.722h13.6v-8.235H287.088v-2.737c.251-.012.525-.036.8-.036q6.852,0,13.7,0c1.451,0,1.876.43,1.876,1.893q0,15.932,0,31.863c0,1.456-.43,1.885-1.885,1.885q-6.938,0-13.876,0H286.9" transform="translate(-286.895 -203.572)" fill="#042c58"/>
        </g>
      </g>
    </g>
    <path id="Trazado_204604" data-name="Trazado 204604" d="M250.675,108.617v-3.159a8.244,8.244,0,0,0,8.211-1.724,7.873,7.873,0,0,0,2.694-5.554,8.228,8.228,0,0,0-7.425-8.722A8.325,8.325,0,0,0,245.1,97.6h-5.386v-1.64c.779-.222,1.605-.414,2.4-.7a1.5,1.5,0,0,0,.723-.684,18.517,18.517,0,0,1,.731-1.724,1.592,1.592,0,0,0-.105-2.013c-.353-.514-.624-1.083-.993-1.738.722-.7,1.42-1.407,2.17-2.059a.75.75,0,0,1,.722.01,3.535,3.535,0,0,0,4.405.32c.758-.416,1.321-.719,1.439-1.631a12.4,12.4,0,0,1,.489-1.758h3.381c.224.787.4,1.6.695,2.361a1.848,1.848,0,0,0,.738.78c.3.2.742.192,1.027.4a2.531,2.531,0,0,0,3.443-.257.984.984,0,0,1,1.631.192c.469.6,1.385,1.073,1.477,1.7s-.566,1.365-.97,2.009a1.117,1.117,0,0,0-.031,1.4,2.09,2.09,0,0,1,.394.848,2.57,2.57,0,0,0,2.6,2.273,6.135,6.135,0,0,1,.983.285v3.369c-.694.191-1.392.418-2.106.57a1.233,1.233,0,0,0-1.142,1.059,2.83,2.83,0,0,1-.433,1.108,2.092,2.092,0,0,0,.135,2.77,11.268,11.268,0,0,1,.8,1.377c-.775.735-1.529,1.47-2.31,2.175a.988.988,0,0,1-.612.207c-3.539.012-7.079.009-10.716.009" transform="translate(-184.836 -64.756)" fill="#ffb30b"/>
    <g id="Grupo_140523" data-name="Grupo 140523" transform="translate(63.064 27.412)" style="isolation: isolate">
      <g id="Grupo_140522" data-name="Grupo 140522">
        <g id="Grupo_140521" data-name="Grupo 140521" clip-path="url(#clip-path-3)">
          <path id="Trazado_204605" data-name="Trazado 204605" d="M280.948,130.748c-.449-.073-.9-.124-1.346-.225-.839-.193-1.436-.462-1.446-1.592a3.565,3.565,0,0,0-2.136-3.182.868.868,0,0,1-.53-1.008,5.488,5.488,0,1,1,5.459,6.008" transform="translate(-275.481 -119.743)" fill="#a6f4fe"/>
        </g>
      </g>
    </g>
    <rect id="Rectángulo_297195" data-name="Rectángulo 297195" width="19.083" height="2.638" transform="translate(38.454 63.113)" fill="#fff"/>
    <rect id="Rectángulo_297196" data-name="Rectángulo 297196" width="19.095" height="2.635" transform="translate(38.44 52.132)" fill="#fff"/>
    <rect id="Rectángulo_297197" data-name="Rectángulo 297197" width="19.114" height="2.634" transform="translate(38.422 74.067)" fill="#fff"/>
    <rect id="Rectángulo_297198" data-name="Rectángulo 297198" width="10.859" height="2.637" transform="translate(65.841 63.098)" fill="#fff"/>
    <rect id="Rectángulo_297199" data-name="Rectángulo 297199" width="10.859" height="2.645" transform="translate(65.845 74.061)" fill="#fff"/>
    <rect id="Rectángulo_297200" data-name="Rectángulo 297200" width="5.407" height="2.624" transform="translate(71.317 52.138)" fill="#fff"/>
    <rect id="Rectángulo_297201" data-name="Rectángulo 297201" width="5.365" height="2.667" transform="translate(52.16 41.151)" fill="#fff"/>
    <rect id="Rectángulo_297202" data-name="Rectángulo 297202" width="5.391" height="2.637" transform="translate(43.922 41.164)" fill="#fff"/>
    <rect id="Rectángulo_297203" data-name="Rectángulo 297203" width="2.645" height="2.63" transform="translate(65.842 52.15)" fill="#fff"/>
    <rect id="Rectángulo_297204" data-name="Rectángulo 297204" width="2.646" height="2.631" transform="translate(38.44 41.168)" fill="#fff"/>
    <rect id="Rectángulo_297205" data-name="Rectángulo 297205" width="2.63" height="2.645" transform="translate(53.512 16.485)"/>
    <rect id="Rectángulo_297206" data-name="Rectángulo 297206" width="2.666" height="2.605" transform="translate(47.999 16.509)"/>
    <rect id="Rectángulo_297207" data-name="Rectángulo 297207" width="2.621" height="2.666" transform="translate(42.55 16.459)"/>
    <rect id="Rectángulo_297208" data-name="Rectángulo 297208" width="2.617" height="2.662" transform="translate(37.084 16.506)"/>
    <rect id="Rectángulo_297209" data-name="Rectángulo 297209" width="2.617" height="2.662" transform="translate(31.6 16.506)"/>
    <path id="Trazado_204606" data-name="Trazado 204606" d="M24.13,287.6H51.44v13.607H24.13Zm2.763,10.856H48.719v-8.121H26.893Z" transform="translate(-18.606 -221.761)"/>
    <path id="Trazado_204607" data-name="Trazado 204607" d="M24.026,143.987H51.365v8.105H24.026Zm24.606,2.734H43.27v2.667h5.362Zm-13.6,2.623h5.362v-2.667H35.03Zm-8.24,0h5.376v-2.637H26.79Z" transform="translate(-18.526 -111.025)"/>
    <path id="Trazado_204608" data-name="Trazado 204608" d="M51.57,247.888H24.261v-8.119H51.57Zm-24.6-2.757H48.826V242.5H26.97Z" transform="translate(-18.707 -184.88)"/>
    <path id="Trazado_204609" data-name="Trazado 204609" d="M24.117,191.8h27.34v8.117H24.117Zm24.6,2.756H26.862v2.636H48.717Z" transform="translate(-18.596 -147.892)"/>
    <path id="Trazado_204610" data-name="Trazado 204610" d="M36.2,299.549H58.026v8.121H36.2Zm5.4,2.76H38.943v2.617H41.6Zm5.458,0h-2.64v2.656h2.64Zm2.847,2.622h2.633v-2.636H49.909Z" transform="translate(-27.913 -230.975)" fill="#fff"/>
    <rect id="Rectángulo_297210" data-name="Rectángulo 297210" width="5.362" height="2.667" transform="translate(24.744 35.696)" fill="#fff"/>
    <rect id="Rectángulo_297211" data-name="Rectángulo 297211" width="5.362" height="2.667" transform="translate(16.504 35.651)" fill="#fff"/>
    <rect id="Rectángulo_297212" data-name="Rectángulo 297212" width="5.376" height="2.637" transform="translate(8.264 35.681)" fill="#fff"/>
    <rect id="Rectángulo_297213" data-name="Rectángulo 297213" width="21.855" height="2.636" transform="translate(8.263 57.616)" fill="#fff"/>
    <rect id="Rectángulo_297214" data-name="Rectángulo 297214" width="21.855" height="2.636" transform="translate(8.266 46.664)" fill="#fff"/>
    <rect id="Rectángulo_297215" data-name="Rectángulo 297215" width="2.662" height="2.617" transform="translate(11.03 71.334)"/>
    <rect id="Rectángulo_297216" data-name="Rectángulo 297216" width="2.64" height="2.656" transform="translate(16.509 71.329)"/>
    <rect id="Rectángulo_297217" data-name="Rectángulo 297217" width="2.633" height="2.636" transform="translate(21.996 71.315)"/>
  </g>
</svg>
