<svg xmlns="http://www.w3.org/2000/svg" width="283" height="224.242" viewBox="0 0 283 224.242">
  <g id="Grupo_175157" data-name="Grupo 175157" transform="translate(-1003 -3317)">
    <g id="freepik--Shadow--inject-48" transform="translate(1003 3524.719)">
      <ellipse id="freepik--path--inject-48" cx="141.5" cy="8.261" rx="141.5" ry="8.261" transform="translate(0 0)" fill="#c6daee"/>
    </g>
    <g id="freepik--Server--inject-48" transform="translate(1043.401 3339.22)">
      <path id="Trazado_254421" data-name="Trazado 254421" d="M115,177.21h90.648V350.171a1.46,1.46,0,0,1-1.46,1.46H116.511a1.46,1.46,0,0,1-1.46-1.46V177.21Z" transform="translate(-112.424 -157.892)" fill="#084a93"/>
      <rect id="Rectángulo_298249" data-name="Rectángulo 298249" width="6.305" height="22.981" transform="translate(88.152 160.343)" fill="#084a93"/>
      <rect id="Rectángulo_298250" data-name="Rectángulo 298250" width="1.905" height="22.981" transform="translate(88.152 183.317) rotate(180)" opacity="0.2"/>
      <rect id="Rectángulo_298251" data-name="Rectángulo 298251" width="8.21" height="22.981" transform="translate(86.247 160.343)" opacity="0.1"/>
      <ellipse id="Elipse_5103" data-name="Elipse 5103" cx="2.233" cy="9.86" rx="2.233" ry="9.86" transform="translate(89.072 161.971)" fill="#084a93"/>
      <path id="Trazado_254422" data-name="Trazado 254422" d="M115,177.21h78.818V350.171a1.46,1.46,0,0,1-1.46,1.46H116.511a1.46,1.46,0,0,1-1.46-1.46V177.21Z" transform="translate(-112.424 -157.892)" fill="#fff" opacity="0.15"/>
      <path id="Trazado_254423" data-name="Trazado 254423" d="M223,177.21h.591V351.631h0a.6.6,0,0,1-.591-.6Z" transform="translate(-141.606 -157.892)" opacity="0.2"/>
      <rect id="Rectángulo_298252" data-name="Rectángulo 298252" width="72.396" height="13.392" transform="translate(0 26.535)" fill="#084a93"/>
      <rect id="Rectángulo_298253" data-name="Rectángulo 298253" width="2.635" height="11.093" transform="translate(68.185 27.688)" fill="#fff" opacity="0.3"/>
      <rect id="Rectángulo_298254" data-name="Rectángulo 298254" width="2.635" height="11.093" transform="translate(63.66 27.688)" fill="#fff" opacity="0.3"/>
      <rect id="Rectángulo_298255" data-name="Rectángulo 298255" width="2.635" height="11.093" transform="translate(59.143 27.688)" fill="#fff" opacity="0.3"/>
      <rect id="Rectángulo_298256" data-name="Rectángulo 298256" width="2.635" height="11.093" transform="translate(54.618 27.688)" fill="#fff" opacity="0.3"/>
      <rect id="Rectángulo_298257" data-name="Rectángulo 298257" width="2.635" height="11.093" transform="translate(50.093 27.688)" fill="#fff" opacity="0.3"/>
      <rect id="Rectángulo_298258" data-name="Rectángulo 298258" width="2.635" height="11.093" transform="translate(45.568 27.688)" fill="#fff" opacity="0.3"/>
      <rect id="Rectángulo_298259" data-name="Rectángulo 298259" width="2.635" height="11.093" transform="translate(41.044 27.688)" fill="#fff" opacity="0.3"/>
      <rect id="Rectángulo_298260" data-name="Rectángulo 298260" width="2.635" height="11.093" transform="translate(36.519 27.688)" fill="#fff" opacity="0.3"/>
      <rect id="Rectángulo_298261" data-name="Rectángulo 298261" width="2.635" height="11.093" transform="translate(32.002 27.688)" fill="#fff" opacity="0.3"/>
      <rect id="Rectángulo_298262" data-name="Rectángulo 298262" width="2.635" height="11.093" transform="translate(27.477 27.688)" fill="#fff" opacity="0.3"/>
      <rect id="Rectángulo_298263" data-name="Rectángulo 298263" width="2.635" height="11.093" transform="translate(22.952 27.688)" fill="#fff" opacity="0.3"/>
      <rect id="Rectángulo_298264" data-name="Rectángulo 298264" width="2.635" height="11.093" transform="translate(18.427 27.688)" fill="#fff" opacity="0.3"/>
      <rect id="Rectángulo_298265" data-name="Rectángulo 298265" width="2.635" height="11.093" transform="translate(13.903 27.688)" fill="#fff" opacity="0.3"/>
      <rect id="Rectángulo_298266" data-name="Rectángulo 298266" width="2.635" height="11.093" transform="translate(9.378 27.688)" fill="#fff" opacity="0.3"/>
      <rect id="Rectángulo_298267" data-name="Rectángulo 298267" width="72.396" height="13.392" transform="translate(0 45.167)" fill="#084a93"/>
      <rect id="Rectángulo_298268" data-name="Rectángulo 298268" width="72.396" height="13.392" transform="translate(0 63.791)" fill="#084a93"/>
      <rect id="Rectángulo_298269" data-name="Rectángulo 298269" width="72.396" height="13.392" transform="translate(0 82.416)" fill="#084a93"/>
      <rect id="Rectángulo_298270" data-name="Rectángulo 298270" width="72.396" height="13.392" transform="translate(0 101.04)" fill="#084a93"/>
      <rect id="Rectángulo_298271" data-name="Rectángulo 298271" width="72.396" height="13.392" transform="translate(0 119.665)" fill="#084a93"/>
      <rect id="Rectángulo_298272" data-name="Rectángulo 298272" width="72.396" height="13.392" transform="translate(0 138.296)" fill="#084a93"/>
      <rect id="Rectángulo_298273" data-name="Rectángulo 298273" width="72.396" height="13.392" transform="translate(0 156.921)" fill="#084a93"/>
      <rect id="Rectángulo_298274" data-name="Rectángulo 298274" width="1.795" height="13.392" transform="translate(74.191 39.927) rotate(180)" opacity="0.2"/>
      <rect id="Rectángulo_298275" data-name="Rectángulo 298275" width="1.795" height="13.392" transform="translate(74.191 58.551) rotate(180)" opacity="0.2"/>
      <rect id="Rectángulo_298276" data-name="Rectángulo 298276" width="1.795" height="13.392" transform="translate(74.191 77.176) rotate(180)" opacity="0.2"/>
      <rect id="Rectángulo_298277" data-name="Rectángulo 298277" width="1.795" height="13.392" transform="translate(74.191 95.808) rotate(180)" opacity="0.2"/>
      <rect id="Rectángulo_298278" data-name="Rectángulo 298278" width="1.795" height="13.392" transform="translate(74.191 114.432) rotate(180)" opacity="0.2"/>
      <rect id="Rectángulo_298279" data-name="Rectángulo 298279" width="1.795" height="13.392" transform="translate(74.191 133.064) rotate(180)" opacity="0.2"/>
      <rect id="Rectángulo_298280" data-name="Rectángulo 298280" width="1.795" height="13.392" transform="translate(74.191 151.681) rotate(180)" opacity="0.2"/>
      <rect id="Rectángulo_298281" data-name="Rectángulo 298281" width="1.795" height="13.392" transform="translate(74.191 170.312) rotate(180)" opacity="0.2"/>
      <path id="Trazado_254424" data-name="Trazado 254424" d="M116.76,192.273a1.693,1.693,0,1,0,1.693-1.693,1.693,1.693,0,0,0-1.693,1.693Z" transform="translate(-112.899 -161.505)" fill="#fff"/>
      <path id="Trazado_254425" data-name="Trazado 254425" d="M116.76,199.033a1.693,1.693,0,1,0,1.693-1.693,1.693,1.693,0,0,0-1.693,1.693Z" transform="translate(-112.899 -163.332)" fill="#263238" opacity="0.3"/>
      <rect id="Rectángulo_298282" data-name="Rectángulo 298282" width="2.635" height="11.093" transform="translate(68.185 46.313)" fill="#fff" opacity="0.3"/>
      <rect id="Rectángulo_298283" data-name="Rectángulo 298283" width="2.635" height="11.093" transform="translate(63.66 46.313)" fill="#fff" opacity="0.3"/>
      <rect id="Rectángulo_298284" data-name="Rectángulo 298284" width="2.635" height="11.093" transform="translate(59.143 46.313)" fill="#fff" opacity="0.3"/>
      <rect id="Rectángulo_298285" data-name="Rectángulo 298285" width="2.635" height="11.093" transform="translate(54.618 46.313)" fill="#fff" opacity="0.3"/>
      <rect id="Rectángulo_298286" data-name="Rectángulo 298286" width="2.635" height="11.093" transform="translate(50.093 46.313)" fill="#fff" opacity="0.3"/>
      <rect id="Rectángulo_298287" data-name="Rectángulo 298287" width="2.635" height="11.093" transform="translate(45.568 46.313)" fill="#fff" opacity="0.3"/>
      <rect id="Rectángulo_298288" data-name="Rectángulo 298288" width="2.635" height="11.093" transform="translate(41.044 46.313)" fill="#fff" opacity="0.3"/>
      <rect id="Rectángulo_298289" data-name="Rectángulo 298289" width="2.635" height="11.093" transform="translate(36.519 46.313)" fill="#fff" opacity="0.3"/>
      <rect id="Rectángulo_298290" data-name="Rectángulo 298290" width="2.635" height="11.093" transform="translate(32.002 46.313)" fill="#fff" opacity="0.3"/>
      <rect id="Rectángulo_298291" data-name="Rectángulo 298291" width="2.635" height="11.093" transform="translate(27.477 46.313)" fill="#fff" opacity="0.3"/>
      <rect id="Rectángulo_298292" data-name="Rectángulo 298292" width="2.635" height="11.093" transform="translate(22.952 46.313)" fill="#fff" opacity="0.3"/>
      <rect id="Rectángulo_298293" data-name="Rectángulo 298293" width="2.635" height="11.093" transform="translate(18.427 46.313)" fill="#fff" opacity="0.3"/>
      <rect id="Rectángulo_298294" data-name="Rectángulo 298294" width="2.635" height="11.093" transform="translate(13.903 46.313)" fill="#fff" opacity="0.3"/>
      <rect id="Rectángulo_298295" data-name="Rectángulo 298295" width="2.635" height="11.093" transform="translate(9.378 46.313)" fill="#fff" opacity="0.3"/>
      <path id="Trazado_254426" data-name="Trazado 254426" d="M116.76,217.793a1.693,1.693,0,1,0,1.693-1.693,1.693,1.693,0,0,0-1.693,1.693Z" transform="translate(-112.899 -168.401)" fill="#fff"/>
      <path id="Trazado_254427" data-name="Trazado 254427" d="M116.76,224.553a1.693,1.693,0,1,0,1.693-1.693,1.693,1.693,0,0,0-1.693,1.693Z" transform="translate(-112.899 -170.227)" fill="#263238" opacity="0.3"/>
      <rect id="Rectángulo_298296" data-name="Rectángulo 298296" width="2.635" height="11.093" transform="translate(68.185 64.937)" fill="#fff" opacity="0.3"/>
      <rect id="Rectángulo_298297" data-name="Rectángulo 298297" width="2.635" height="11.093" transform="translate(63.66 64.937)" fill="#fff" opacity="0.3"/>
      <rect id="Rectángulo_298298" data-name="Rectángulo 298298" width="2.635" height="11.093" transform="translate(59.143 64.937)" fill="#fff" opacity="0.3"/>
      <rect id="Rectángulo_298299" data-name="Rectángulo 298299" width="2.635" height="11.093" transform="translate(54.618 64.937)" fill="#fff" opacity="0.3"/>
      <rect id="Rectángulo_298300" data-name="Rectángulo 298300" width="2.635" height="11.093" transform="translate(50.093 64.937)" fill="#fff" opacity="0.3"/>
      <rect id="Rectángulo_298301" data-name="Rectángulo 298301" width="2.635" height="11.093" transform="translate(45.568 64.937)" fill="#fff" opacity="0.3"/>
      <rect id="Rectángulo_298302" data-name="Rectángulo 298302" width="2.635" height="11.093" transform="translate(41.044 64.937)" fill="#fff" opacity="0.3"/>
      <rect id="Rectángulo_298303" data-name="Rectángulo 298303" width="2.635" height="11.093" transform="translate(36.519 64.937)" fill="#fff" opacity="0.3"/>
      <rect id="Rectángulo_298304" data-name="Rectángulo 298304" width="2.635" height="11.093" transform="translate(32.002 64.937)" fill="#fff" opacity="0.3"/>
      <rect id="Rectángulo_298305" data-name="Rectángulo 298305" width="2.635" height="11.093" transform="translate(27.477 64.937)" fill="#fff" opacity="0.3"/>
      <rect id="Rectángulo_298306" data-name="Rectángulo 298306" width="2.635" height="11.093" transform="translate(22.952 64.937)" fill="#fff" opacity="0.3"/>
      <rect id="Rectángulo_298307" data-name="Rectángulo 298307" width="2.635" height="11.093" transform="translate(18.427 64.937)" fill="#fff" opacity="0.3"/>
      <rect id="Rectángulo_298308" data-name="Rectángulo 298308" width="2.635" height="11.093" transform="translate(13.903 64.937)" fill="#fff" opacity="0.3"/>
      <rect id="Rectángulo_298309" data-name="Rectángulo 298309" width="2.635" height="11.093" transform="translate(9.378 64.937)" fill="#fff" opacity="0.3"/>
      <path id="Trazado_254428" data-name="Trazado 254428" d="M116.76,243.313a1.693,1.693,0,1,0,1.693-1.693,1.693,1.693,0,0,0-1.693,1.693Z" transform="translate(-112.899 -175.296)" fill="#fff"/>
      <path id="Trazado_254429" data-name="Trazado 254429" d="M116.76,250.073a1.693,1.693,0,1,0,1.693-1.693,1.693,1.693,0,0,0-1.693,1.693Z" transform="translate(-112.899 -177.123)" fill="#263238" opacity="0.3"/>
      <rect id="Rectángulo_298310" data-name="Rectángulo 298310" width="2.635" height="11.093" transform="translate(68.185 83.562)" fill="#fff" opacity="0.3"/>
      <rect id="Rectángulo_298311" data-name="Rectángulo 298311" width="2.635" height="11.093" transform="translate(63.66 83.562)" fill="#fff" opacity="0.3"/>
      <rect id="Rectángulo_298312" data-name="Rectángulo 298312" width="2.635" height="11.093" transform="translate(59.143 83.562)" fill="#fff" opacity="0.3"/>
      <rect id="Rectángulo_298313" data-name="Rectángulo 298313" width="2.635" height="11.093" transform="translate(54.618 83.562)" fill="#fff" opacity="0.3"/>
      <rect id="Rectángulo_298314" data-name="Rectángulo 298314" width="2.635" height="11.093" transform="translate(50.093 83.562)" fill="#fff" opacity="0.3"/>
      <rect id="Rectángulo_298315" data-name="Rectángulo 298315" width="2.635" height="11.093" transform="translate(45.568 83.562)" fill="#fff" opacity="0.3"/>
      <rect id="Rectángulo_298316" data-name="Rectángulo 298316" width="2.635" height="11.093" transform="translate(41.044 83.562)" fill="#fff" opacity="0.3"/>
      <rect id="Rectángulo_298317" data-name="Rectángulo 298317" width="2.635" height="11.093" transform="translate(36.519 83.562)" fill="#fff" opacity="0.3"/>
      <rect id="Rectángulo_298318" data-name="Rectángulo 298318" width="2.635" height="11.093" transform="translate(32.002 83.562)" fill="#fff" opacity="0.3"/>
      <rect id="Rectángulo_298319" data-name="Rectángulo 298319" width="2.635" height="11.093" transform="translate(27.477 83.562)" fill="#fff" opacity="0.3"/>
      <rect id="Rectángulo_298320" data-name="Rectángulo 298320" width="2.635" height="11.093" transform="translate(22.952 83.562)" fill="#fff" opacity="0.3"/>
      <rect id="Rectángulo_298321" data-name="Rectángulo 298321" width="2.635" height="11.093" transform="translate(18.427 83.562)" fill="#fff" opacity="0.3"/>
      <rect id="Rectángulo_298322" data-name="Rectángulo 298322" width="2.635" height="11.093" transform="translate(13.903 83.562)" fill="#fff" opacity="0.3"/>
      <rect id="Rectángulo_298323" data-name="Rectángulo 298323" width="2.635" height="11.093" transform="translate(9.378 83.562)" fill="#fff" opacity="0.3"/>
      <path id="Trazado_254430" data-name="Trazado 254430" d="M116.76,268.833a1.693,1.693,0,1,0,1.693-1.693,1.693,1.693,0,0,0-1.693,1.693Z" transform="translate(-112.899 -182.192)" fill="#fff"/>
      <path id="Trazado_254431" data-name="Trazado 254431" d="M116.76,275.6a1.693,1.693,0,1,0,1.693-1.693,1.693,1.693,0,0,0-1.693,1.693Z" transform="translate(-112.899 -184.021)" fill="#263238" opacity="0.3"/>
      <rect id="Rectángulo_298324" data-name="Rectángulo 298324" width="2.635" height="11.093" transform="translate(68.185 102.193)" fill="#fff" opacity="0.3"/>
      <rect id="Rectángulo_298325" data-name="Rectángulo 298325" width="2.635" height="11.093" transform="translate(63.66 102.193)" fill="#fff" opacity="0.3"/>
      <rect id="Rectángulo_298326" data-name="Rectángulo 298326" width="2.635" height="11.093" transform="translate(59.143 102.193)" fill="#fff" opacity="0.3"/>
      <rect id="Rectángulo_298327" data-name="Rectángulo 298327" width="2.635" height="11.093" transform="translate(54.618 102.193)" fill="#fff" opacity="0.3"/>
      <rect id="Rectángulo_298328" data-name="Rectángulo 298328" width="2.635" height="11.093" transform="translate(50.093 102.193)" fill="#fff" opacity="0.3"/>
      <rect id="Rectángulo_298329" data-name="Rectángulo 298329" width="2.635" height="11.093" transform="translate(45.568 102.193)" fill="#fff" opacity="0.3"/>
      <rect id="Rectángulo_298330" data-name="Rectángulo 298330" width="2.635" height="11.093" transform="translate(41.044 102.193)" fill="#fff" opacity="0.3"/>
      <rect id="Rectángulo_298331" data-name="Rectángulo 298331" width="2.635" height="11.093" transform="translate(36.519 102.193)" fill="#fff" opacity="0.3"/>
      <rect id="Rectángulo_298332" data-name="Rectángulo 298332" width="2.635" height="11.093" transform="translate(32.002 102.193)" fill="#fff" opacity="0.3"/>
      <rect id="Rectángulo_298333" data-name="Rectángulo 298333" width="2.635" height="11.093" transform="translate(27.477 102.193)" fill="#fff" opacity="0.3"/>
      <rect id="Rectángulo_298334" data-name="Rectángulo 298334" width="2.635" height="11.093" transform="translate(22.952 102.193)" fill="#fff" opacity="0.3"/>
      <rect id="Rectángulo_298335" data-name="Rectángulo 298335" width="2.635" height="11.093" transform="translate(18.427 102.193)" fill="#fff" opacity="0.3"/>
      <rect id="Rectángulo_298336" data-name="Rectángulo 298336" width="2.635" height="11.093" transform="translate(13.903 102.193)" fill="#fff" opacity="0.3"/>
      <rect id="Rectángulo_298337" data-name="Rectángulo 298337" width="2.635" height="11.093" transform="translate(9.378 102.193)" fill="#fff" opacity="0.3"/>
      <path id="Trazado_254432" data-name="Trazado 254432" d="M116.76,294.37a1.693,1.693,0,1,0,.493-1.2,1.693,1.693,0,0,0-.493,1.2Z" transform="translate(-112.899 -189.09)" fill="#fff"/>
      <path id="Trazado_254433" data-name="Trazado 254433" d="M116.76,301.123a1.693,1.693,0,1,0,1.693-1.693,1.693,1.693,0,0,0-1.693,1.693Z" transform="translate(-112.899 -190.917)" fill="#263238" opacity="0.3"/>
      <rect id="Rectángulo_298338" data-name="Rectángulo 298338" width="2.635" height="11.093" transform="translate(68.185 120.818)" fill="#fff" opacity="0.3"/>
      <rect id="Rectángulo_298339" data-name="Rectángulo 298339" width="2.635" height="11.093" transform="translate(63.66 120.818)" fill="#fff" opacity="0.3"/>
      <rect id="Rectángulo_298340" data-name="Rectángulo 298340" width="2.635" height="11.093" transform="translate(59.143 120.818)" fill="#fff" opacity="0.3"/>
      <rect id="Rectángulo_298341" data-name="Rectángulo 298341" width="2.635" height="11.093" transform="translate(54.618 120.818)" fill="#fff" opacity="0.3"/>
      <rect id="Rectángulo_298342" data-name="Rectángulo 298342" width="2.635" height="11.093" transform="translate(50.093 120.818)" fill="#fff" opacity="0.3"/>
      <rect id="Rectángulo_298343" data-name="Rectángulo 298343" width="2.635" height="11.093" transform="translate(45.568 120.818)" fill="#fff" opacity="0.3"/>
      <rect id="Rectángulo_298344" data-name="Rectángulo 298344" width="2.635" height="11.093" transform="translate(41.044 120.818)" fill="#fff" opacity="0.3"/>
      <rect id="Rectángulo_298345" data-name="Rectángulo 298345" width="2.635" height="11.093" transform="translate(36.519 120.818)" fill="#fff" opacity="0.3"/>
      <rect id="Rectángulo_298346" data-name="Rectángulo 298346" width="2.635" height="11.093" transform="translate(32.002 120.818)" fill="#fff" opacity="0.3"/>
      <rect id="Rectángulo_298347" data-name="Rectángulo 298347" width="2.635" height="11.093" transform="translate(27.477 120.818)" fill="#fff" opacity="0.3"/>
      <rect id="Rectángulo_298348" data-name="Rectángulo 298348" width="2.635" height="11.093" transform="translate(22.952 120.818)" fill="#fff" opacity="0.3"/>
      <rect id="Rectángulo_298349" data-name="Rectángulo 298349" width="2.635" height="11.093" transform="translate(18.427 120.818)" fill="#fff" opacity="0.3"/>
      <rect id="Rectángulo_298350" data-name="Rectángulo 298350" width="2.635" height="11.093" transform="translate(13.903 120.818)" fill="#fff" opacity="0.3"/>
      <rect id="Rectángulo_298351" data-name="Rectángulo 298351" width="2.635" height="11.093" transform="translate(9.378 120.818)" fill="#fff" opacity="0.3"/>
      <path id="Trazado_254434" data-name="Trazado 254434" d="M116.76,319.883a1.693,1.693,0,1,0,1.693-1.693,1.693,1.693,0,0,0-1.693,1.693Z" transform="translate(-112.899 -195.986)" fill="#fff"/>
      <path id="Trazado_254435" data-name="Trazado 254435" d="M116.76,326.643a1.693,1.693,0,1,0,1.693-1.693,1.693,1.693,0,0,0-1.693,1.693Z" transform="translate(-112.899 -197.812)" fill="#263238" opacity="0.3"/>
      <rect id="Rectángulo_298352" data-name="Rectángulo 298352" width="2.635" height="11.093" transform="translate(68.185 139.442)" fill="#fff" opacity="0.3"/>
      <rect id="Rectángulo_298353" data-name="Rectángulo 298353" width="2.635" height="11.093" transform="translate(63.66 139.442)" fill="#fff" opacity="0.3"/>
      <rect id="Rectángulo_298354" data-name="Rectángulo 298354" width="2.635" height="11.093" transform="translate(59.143 139.442)" fill="#fff" opacity="0.3"/>
      <rect id="Rectángulo_298355" data-name="Rectángulo 298355" width="2.635" height="11.093" transform="translate(54.618 139.442)" fill="#fff" opacity="0.3"/>
      <rect id="Rectángulo_298356" data-name="Rectángulo 298356" width="2.635" height="11.093" transform="translate(50.093 139.442)" fill="#fff" opacity="0.3"/>
      <rect id="Rectángulo_298357" data-name="Rectángulo 298357" width="2.635" height="11.093" transform="translate(45.568 139.442)" fill="#fff" opacity="0.3"/>
      <rect id="Rectángulo_298358" data-name="Rectángulo 298358" width="2.635" height="11.093" transform="translate(41.044 139.442)" fill="#fff" opacity="0.3"/>
      <rect id="Rectángulo_298359" data-name="Rectángulo 298359" width="2.635" height="11.093" transform="translate(36.519 139.442)" fill="#fff" opacity="0.3"/>
      <rect id="Rectángulo_298360" data-name="Rectángulo 298360" width="2.635" height="11.093" transform="translate(32.002 139.442)" fill="#fff" opacity="0.3"/>
      <rect id="Rectángulo_298361" data-name="Rectángulo 298361" width="2.635" height="11.093" transform="translate(27.477 139.442)" fill="#fff" opacity="0.3"/>
      <rect id="Rectángulo_298362" data-name="Rectángulo 298362" width="2.635" height="11.093" transform="translate(22.952 139.442)" fill="#fff" opacity="0.3"/>
      <rect id="Rectángulo_298363" data-name="Rectángulo 298363" width="2.635" height="11.093" transform="translate(18.427 139.442)" fill="#fff" opacity="0.3"/>
      <rect id="Rectángulo_298364" data-name="Rectángulo 298364" width="2.635" height="11.093" transform="translate(13.903 139.442)" fill="#fff" opacity="0.3"/>
      <rect id="Rectángulo_298365" data-name="Rectángulo 298365" width="2.635" height="11.093" transform="translate(9.378 139.442)" fill="#fff" opacity="0.3"/>
      <path id="Trazado_254436" data-name="Trazado 254436" d="M116.76,345.373a1.693,1.693,0,1,0,1.693-1.693,1.693,1.693,0,0,0-1.693,1.693Z" transform="translate(-112.899 -202.873)" fill="#fff"/>
      <path id="Trazado_254437" data-name="Trazado 254437" d="M116.76,352.163a1.693,1.693,0,1,0,1.693-1.693,1.693,1.693,0,0,0-1.693,1.693Z" transform="translate(-112.899 -204.708)" fill="#263238" opacity="0.3"/>
      <rect id="Rectángulo_298366" data-name="Rectángulo 298366" width="2.635" height="11.093" transform="translate(68.185 158.066)" fill="#fff" opacity="0.3"/>
      <rect id="Rectángulo_298367" data-name="Rectángulo 298367" width="2.635" height="11.093" transform="translate(63.66 158.066)" fill="#fff" opacity="0.3"/>
      <rect id="Rectángulo_298368" data-name="Rectángulo 298368" width="2.635" height="11.093" transform="translate(59.143 158.066)" fill="#fff" opacity="0.3"/>
      <rect id="Rectángulo_298369" data-name="Rectángulo 298369" width="2.635" height="11.093" transform="translate(54.618 158.066)" fill="#fff" opacity="0.3"/>
      <rect id="Rectángulo_298370" data-name="Rectángulo 298370" width="2.635" height="11.093" transform="translate(50.093 158.066)" fill="#fff" opacity="0.3"/>
      <rect id="Rectángulo_298371" data-name="Rectángulo 298371" width="2.635" height="11.093" transform="translate(45.568 158.066)" fill="#fff" opacity="0.3"/>
      <rect id="Rectángulo_298372" data-name="Rectángulo 298372" width="2.635" height="11.093" transform="translate(41.044 158.066)" fill="#fff" opacity="0.3"/>
      <rect id="Rectángulo_298373" data-name="Rectángulo 298373" width="2.635" height="11.093" transform="translate(36.519 158.066)" fill="#fff" opacity="0.3"/>
      <rect id="Rectángulo_298374" data-name="Rectángulo 298374" width="2.635" height="11.093" transform="translate(32.002 158.066)" fill="#fff" opacity="0.3"/>
      <rect id="Rectángulo_298375" data-name="Rectángulo 298375" width="2.635" height="11.093" transform="translate(27.477 158.066)" fill="#fff" opacity="0.3"/>
      <rect id="Rectángulo_298376" data-name="Rectángulo 298376" width="2.635" height="11.093" transform="translate(22.952 158.066)" fill="#fff" opacity="0.3"/>
      <rect id="Rectángulo_298377" data-name="Rectángulo 298377" width="2.635" height="11.093" transform="translate(18.427 158.066)" fill="#fff" opacity="0.3"/>
      <rect id="Rectángulo_298378" data-name="Rectángulo 298378" width="2.635" height="11.093" transform="translate(13.903 158.066)" fill="#fff" opacity="0.3"/>
      <rect id="Rectángulo_298379" data-name="Rectángulo 298379" width="2.635" height="11.093" transform="translate(9.378 158.066)" fill="#fff" opacity="0.3"/>
      <path id="Trazado_254438" data-name="Trazado 254438" d="M116.76,370.923a1.693,1.693,0,1,0,1.693-1.693,1.693,1.693,0,0,0-1.693,1.693Z" transform="translate(-112.899 -209.777)" fill="#fff"/>
      <path id="Trazado_254439" data-name="Trazado 254439" d="M116.76,377.693A1.693,1.693,0,1,0,118.453,376a1.693,1.693,0,0,0-1.693,1.693Z" transform="translate(-112.899 -211.606)" fill="#263238" opacity="0.3"/>
      <path id="Trazado_254443" data-name="Trazado 254443" d="M196.714,156.4H140.652a2.846,2.846,0,0,1-2.832-2.832h0a2.839,2.839,0,0,1,2.832-2.832h56.063a2.839,2.839,0,0,1,2.832,2.832h0a2.846,2.846,0,0,1-2.832,2.832Z" transform="translate(-118.59 -150.74)" fill="#084a93"/>
      <path id="Trazado_254444" data-name="Trazado 254444" d="M140.757,155.97a2.189,2.189,0,1,1,0-4.32h19.814a2.189,2.189,0,0,1,0,4.32Z" transform="translate(-118.696 -150.978)" fill="#00defc"/>
      <path id="Trazado_254445" data-name="Trazado 254445" d="M175.16,163.26l3.612,3.612,3.613-3.612Z" transform="translate(-128.679 -154.123)" fill="#084a93"/>
    </g>
    <g id="freepik--Character--inject-48" transform="translate(1133.429 3317)">
      <path id="Trazado_254446" data-name="Trazado 254446" d="M245.286,366.495h-1.562a3.459,3.459,0,0,1-3.459-3.452V352.3a.657.657,0,0,0-.657-.657H236.58v-.73h3.029A1.387,1.387,0,0,1,241,352.308v10.75a2.722,2.722,0,0,0,2.722,2.715h1.562A2.722,2.722,0,0,0,248,363.058V234.964a1.394,1.394,0,0,1,1.394-1.394h7.984v.73H249.4a.657.657,0,0,0-.657.657v128.1A3.452,3.452,0,0,1,245.286,366.495Z" transform="translate(-235.303 -150.901)" fill="#084a93"/>
      <rect id="Rectángulo_298380" data-name="Rectángulo 298380" width="76.585" height="2.197" transform="translate(0 83.815)" fill="#084a93"/>
      <rect id="Rectángulo_298381" data-name="Rectángulo 298381" width="25.12" height="2.197" transform="translate(0 83.815)" opacity="0.2"/>
      <rect id="Rectángulo_298382" data-name="Rectángulo 298382" width="5.415" height="129.218" transform="translate(37.577 86.012)" fill="#084a93"/>
      <path id="Trazado_254447" data-name="Trazado 254447" d="M291.735,238.15H286.32V367.368h1.773V241.419l3.642-.737Z" transform="translate(-248.743 -152.138)" opacity="0.2"/>
      <path id="Trazado_254448" data-name="Trazado 254448" d="M299.784,191.66H257.769a2.328,2.328,0,0,0-2.35,2.693l3.167,24.871a3.16,3.16,0,0,0,3.036,2.693h42.022a2.328,2.328,0,0,0,2.35-2.693l-3.175-24.871a3.16,3.16,0,0,0-3.036-2.693Z" transform="translate(-240.386 -139.576)" fill="#084a93"/>
      <path id="Trazado_254449" data-name="Trazado 254449" d="M314.327,233H261.7a1.35,1.35,0,0,0-1.357,1.562h55.742A1.839,1.839,0,0,0,314.327,233Z" transform="translate(-241.719 -150.747)" fill="#084a93"/>
      <path id="Trazado_254450" data-name="Trazado 254450" d="M274.188,233H261.7a1.35,1.35,0,0,0-1.357,1.562h15.6A1.839,1.839,0,0,0,274.188,233Z" transform="translate(-241.719 -150.747)" opacity="0.2"/>
      <path id="Trazado_254451" data-name="Trazado 254451" d="M262.512,220.987a1.678,1.678,0,0,1-1.569-1.4l-3.167-24.871a.927.927,0,0,1,.2-.73.868.868,0,0,1,.686-.285h42.014a1.679,1.679,0,0,1,1.569,1.4l3.167,24.871a.89.89,0,0,1-.2.73.854.854,0,0,1-.686.285Z" transform="translate(-241.027 -140.128)" fill="#fff"/>
      <g id="Grupo_149460" data-name="Grupo 149460" transform="translate(27.265 57.477)">
        <path id="Trazado_254452" data-name="Trazado 254452" d="M288.778,205.531l.474,2.766-1.649.409a5.326,5.326,0,0,1-.365,1.357l1.16,1.46-1.751,1.941-1.664-.861a5.947,5.947,0,0,1-1.321.562l-.146,1.635H280.6l-.73-1.635a7.976,7.976,0,0,1-1.511-.555l-1.372.876-2.386-1.949.664-1.46a7.679,7.679,0,0,1-.817-1.343l-1.788-.4-.467-2.766,1.649-.409a5.191,5.191,0,0,1,.358-1.35l-1.16-1.46,1.722-1.963,1.664.868a5.641,5.641,0,0,1,1.321-.569l.153-1.635h2.919l.73,1.627a8.38,8.38,0,0,1,1.518.555l1.365-.876,2.394,1.949-.671,1.46a7.251,7.251,0,0,1,.817,1.343ZM280.3,204.3a2.24,2.24,0,0,0-2.328,2.656A3.35,3.35,0,0,0,281.2,209.6a2.248,2.248,0,0,0,2.335-2.664,3.342,3.342,0,0,0-3.24-2.635Z" transform="translate(-272.19 -199.05)" fill="#ffb30b"/>
      </g>
      <path id="Trazado_254453" data-name="Trazado 254453" d="M304.4,215.649l-.379,1.46-.993-.139a2.7,2.7,0,0,1-.5.577l.307.92-1.387.591-.73-.73a3.648,3.648,0,0,1-.847,0l-.46.73-1.584-.577v-.927a4.381,4.381,0,0,1-.693-.569l-.949.139-.854-1.408.693-.562a3.364,3.364,0,0,1-.139-.81l-.883-.591.372-1.416.992.131a3.122,3.122,0,0,1,.5-.569l-.3-.927,1.387-.591.73.73a3.707,3.707,0,0,1,.854,0l.453-.73,1.591.584v.92a4.868,4.868,0,0,1,.73.569l.949-.139.854,1.409-.693.562a3.929,3.929,0,0,1,.139.81Z" transform="translate(-251.088 -144.635)" fill="#00defc"/>
      <path id="Trazado_254454" data-name="Trazado 254454" d="M351.88,147.34c-.555,3.861-.941,10.9,1.861,13.311a19.471,19.471,0,0,1-8.816,8.247c-5.276-2.919-3.065-7.641-3.065-7.641,4.211-1.233,3.941-4.379,3.05-7.3Z" transform="translate(-263.626 -127.601)" fill="#ffc3bd"/>
      <path id="Trazado_254455" data-name="Trazado 254455" d="M353.514,162.347a2.189,2.189,0,0,0-.5.088,12.537,12.537,0,0,1-4.806-.962,2.255,2.255,0,0,1-3.151.341,3.289,3.289,0,0,1-3.384,1.226,2.026,2.026,0,1,0,2.926,2.591,1.919,1.919,0,0,0,.912.19,2.029,2.029,0,0,0,1.547-.817,2.007,2.007,0,0,0,2.8-.124,2.043,2.043,0,0,0,1.46.54,2.189,2.189,0,0,0,.5-.088,2.022,2.022,0,1,0,1.708-2.985Z" transform="translate(-263.458 -131.391)" fill="#fff"/>
      <path id="Trazado_254456" data-name="Trazado 254456" d="M353.514,162.347a2.189,2.189,0,0,0-.5.088,12.537,12.537,0,0,1-4.806-.962,2.255,2.255,0,0,1-3.151.341,3.289,3.289,0,0,1-3.384,1.226,2.026,2.026,0,1,0,2.926,2.591,1.919,1.919,0,0,0,.912.19,2.029,2.029,0,0,0,1.547-.817,2.007,2.007,0,0,0,2.8-.124,2.043,2.043,0,0,0,1.46.54,2.189,2.189,0,0,0,.5-.088,2.022,2.022,0,1,0,1.708-2.985Z" transform="translate(-263.458 -131.391)" fill="#084a93" opacity="0.5"/>
      <path id="Trazado_254457" data-name="Trazado 254457" d="M332.657,143.584c.153.5,0,.978-.321,1.073s-.73-.226-.854-.73,0-.978.321-1.073S332.511,143.08,332.657,143.584Z" transform="translate(-260.933 -126.385)" fill="#263238"/>
      <path id="Trazado_254458" data-name="Trazado 254458" d="M331.669,142.84h-1.3S331.26,143.6,331.669,142.84Z" transform="translate(-260.645 -126.385)" fill="#263238"/>
      <path id="Trazado_254459" data-name="Trazado 254459" d="M330.764,139.424a.306.306,0,0,1-.277-.489,3.007,3.007,0,0,1,2.489-1.255.307.307,0,0,1,.285.328.314.314,0,0,1-.328.285,2.408,2.408,0,0,0-1.963,1.007.307.307,0,0,1-.2.124Z" transform="translate(-260.66 -124.991)" fill="#263238"/>
      <path id="Trazado_254460" data-name="Trazado 254460" d="M333.779,145.94a13.864,13.864,0,0,1-.839,3.707,2.189,2.189,0,0,0,1.876-.19Z" transform="translate(-261.34 -127.223)" fill="#ed847e"/>
      <path id="Trazado_254461" data-name="Trazado 254461" d="M348.934,131.69c1.46,6.24,2.189,8.852,0,12.91-3.262,6.108-11.239,6.5-14.5.817-2.919-5.109-4.795-14.457.482-18.668a8.758,8.758,0,0,1,14.019,4.941Z" transform="translate(-260.972 -121.519)" fill="#ffc3bd"/>
      <path id="Trazado_254462" data-name="Trazado 254462" d="M336.514,136.419c.343-2.372-2.919.591-3.729-3.021-.489-2.094-2.985-1.693-2.379-4.984s3.255-3.029,3.561-4.291c.518-2.116,1.934-3.175,4.109-3.693,3.437-.817,4.138,2.335,6.838,1.554,2.525-.73,6.108-.175,7.393,2.445s-.73,5.583.606,6.8a6.911,6.911,0,0,1,.365,9.8c-2.189,2.306,1.117,3.831-1.343,5.109s-5.5,1.19-6.7-2.058C344.41,141.842,335.441,143.951,336.514,136.419Z" transform="translate(-260.629 -120.293)" fill="#263238"/>
      <path id="Trazado_254463" data-name="Trazado 254463" d="M338.661,141.891a4.671,4.671,0,0,1-.387,3.547c-.8,1.46-2.365,1-3.109-.358-.679-1.226-1.073-3.452.2-4.423a2.1,2.1,0,0,1,3.3,1.233Z" transform="translate(-261.77 -125.685)" fill="#ffc3bd"/>
      <path id="Trazado_254464" data-name="Trazado 254464" d="M353.472,177.373c-1.131,4.43-2.467,8.685-3.963,12.947-.73,2.131-1.533,4.247-2.394,6.349-.431,1.044-.861,2.094-1.321,3.138l-.73,1.554-.73,1.6-.379.8-.569.956a17.833,17.833,0,0,1-1.219,1.627A21.6,21.6,0,0,1,339.394,209a33.424,33.424,0,0,1-6.116,3.8,55.3,55.3,0,0,1-13.136,4.328l-.832-3.16c1.97-.73,4-1.613,5.926-2.532a51.591,51.591,0,0,0,5.612-3.029c3.54-2.189,6.831-4.817,8.028-8.028l.591-1.46.584-1.511c.394-1.007.766-2.022,1.131-3.043.73-2.043,1.46-4.1,2.116-6.174,1.328-4.145,2.6-8.378,3.758-12.516Z" transform="translate(-257.657 -135.259)" fill="#ffc3bd"/>
      <path id="Trazado_254465" data-name="Trazado 254465" d="M319.351,227.171l-5.641-.941.861,5.182s5,.321,6.612-1.824Z" transform="translate(-256.144 -148.918)" fill="#ffc3bd"/>
      <path id="Trazado_254466" data-name="Trazado 254466" d="M307.677,228.609l-.547,2.562,5.663.241-.861-5.182Z" transform="translate(-254.366 -148.918)" fill="#ffc3bd"/>
      <path id="Trazado_254467" data-name="Trazado 254467" d="M328.448,170.639c-.1,4.671,1.007,15.326,5.619,35.271l24.39-1.525c-1-9.283-1.343-14.676,1.138-30.856a7.67,7.67,0,0,0-7.13-8.838h-.46a82.88,82.88,0,0,0-11.9,0c-2.562.234-5.3.65-7.385,1a5.16,5.16,0,0,0-4.277,4.948Z" transform="translate(-260.124 -132.232)" fill="#084a93"/>
      <path id="Trazado_254468" data-name="Trazado 254468" d="M355.361,157c2.817,4.948-12.042,10.794-2.138,13.2s.73,4.131,2.766,10.947c1.773,5.9,9.487-1.927,6.918-8.911-2.919-8.028,3.269-8.028-4.065-15.326C356.04,154.072,355.361,157,355.361,157Z" transform="translate(-265.888 -129.852)" fill="#263238"/>
      <path id="Trazado_254469" data-name="Trazado 254469" d="M359.7,156.692l-1.912.161a2.773,2.773,0,0,1-2.715-1.591h0a1.409,1.409,0,0,1,1.372-1.934l1.912-.161a2.773,2.773,0,0,1,2.715,1.591h0a1.409,1.409,0,0,1-1.372,1.934Z" transform="translate(-267.292 -129.174)" fill="#084a93"/>
      <path id="Trazado_254470" data-name="Trazado 254470" d="M333.816,175.41l-4.466,7.3c.343,2.708.839,5.948,1.533,9.772l3.2-1.9C335.663,179.066,333.816,175.41,333.816,175.41Z" transform="translate(-260.37 -135.186)" opacity="0.2"/>
      <path id="Trazado_254471" data-name="Trazado 254471" d="M324.285,177.389c-1.109,4.335-2.408,8.5-3.868,12.684-.73,2.08-1.46,4.167-2.328,6.218-.409,1.029-.847,2.051-1.277,3.08s-.89,2.014-1.409,3.072l-.372.781a7.462,7.462,0,0,1-.423.825c-.182.307-.372.642-.562.912l-.584.81a19.266,19.266,0,0,1-2.642,2.744,29,29,0,0,1-5.984,3.883,48.766,48.766,0,0,1-12.939,4.145l-.766-3.182c1.919-.693,3.919-1.518,5.8-2.408a46.374,46.374,0,0,0,5.452-2.919,26.757,26.757,0,0,0,4.642-3.612,14.484,14.484,0,0,0,1.722-2.073l.336-.533c.109-.182.175-.328.263-.5a4.985,4.985,0,0,0,.285-.635l.285-.73c1.576-3.839,2.985-7.918,4.313-11.961s2.54-8.2,3.649-12.253Z" transform="translate(-250.043 -135.275)" fill="#ffc3bd"/>
      <path id="Trazado_254472" data-name="Trazado 254472" d="M333.171,171.518a15.537,15.537,0,0,0-3.649-4.868c-4.335,1.956-5.838,4.094-8.342,16.428,3.605,3.145,9.582,3.145,9.582,3.145l3.218-8.29A16.573,16.573,0,0,0,333.171,171.518Z" transform="translate(-258.162 -132.819)" fill="#084a93"/>
      <path id="Trazado_254473" data-name="Trazado 254473" d="M289.818,227.25l-5.568-.73,1.7,4.656s4.094.635,5.707-1.511Z" transform="translate(-248.184 -148.996)" fill="#ffc3bd"/>
      <path id="Trazado_254474" data-name="Trazado 254474" d="M279.664,228.688l-1.584,2.562,6.2-.073-1.7-4.656Z" transform="translate(-246.516 -148.996)" fill="#ffc3bd"/>
      <path id="Trazado_254475" data-name="Trazado 254475" d="M335.906,220.775s-3.094,45.116-3.6,66.864a18.617,18.617,0,0,0,1.5,7.729c9.7,22.813,29.279,47.977,29.279,47.977l3.919-3.97s-12.99-29.119-21.894-50.976c5.291-21.573,8.612-68.718,8.612-68.718Z" transform="translate(-261.168 -147.148)" fill="#ffc3bd"/>
      <path id="Trazado_254476" data-name="Trazado 254476" d="M368.436,357.672c-3.211-7.349-7.51-17.252-11.633-27l-.073,23.8a2.4,2.4,0,0,0,.38,1.087c5.67,8.648,10.6,15.224,12.107,17.194Z" transform="translate(-267.768 -177.138)" opacity="0.2"/>
      <path id="Trazado_254477" data-name="Trazado 254477" d="M343.11,220.437s4.24,46.5,7.816,65.842c3.758,20.317,6.568,68.732,6.6,70.214H362s6.116-54.421.409-72.644c-.941-22.244,0-64.689,0-64.689Z" transform="translate(-264.088 -147.007)" fill="#ffc3bd"/>
      <path id="Trazado_254478" data-name="Trazado 254478" d="M370.85,386l4.744-4.189a.525.525,0,0,1,.686,0l4.306,3.773a1.073,1.073,0,0,1-.066,1.576c-1.992,1.7-2.153,1.642-4.627,3.831-1.525,1.343-3.919,3.554-6.021,5.408s-3.934-.073-3.211-1.029c3.233-4.284,3.189-6.065,3.6-8.32A1.839,1.839,0,0,1,370.85,386Z" transform="translate(-270.408 -190.922)" fill="#263238"/>
      <path id="Trazado_254479" data-name="Trazado 254479" d="M358.629,406.09h5.109a.511.511,0,0,1,.511.453l.73,5.838a1.066,1.066,0,0,1-1.065,1.16c-2.562-.044-1.533-.2-4.766-.2-1.985,0-4.89.212-7.634.212s-2.854-2.715-1.708-2.963c5.109-1.1,5.97-2.62,7.714-4.072a1.766,1.766,0,0,1,1.109-.431Z" transform="translate(-265.711 -197.517)" fill="#263238"/>
      <path id="Trazado_254480" data-name="Trazado 254480" d="M334.34,220.685l-4.89,67.272,31.7-8.546c-2.759-27.769,7.444-46.393-2.416-60.252Z" transform="translate(-260.397 -147.007)" fill="#263238"/>
      <path id="Trazado_254481" data-name="Trazado 254481" d="M360.762,220.05l-24.959,1.8a.431.431,0,0,1-.452-.394l-.08-1.138a.431.431,0,0,1,.394-.452l24.777-1.781a.416.416,0,0,1,.438.328l.27,1.124a.431.431,0,0,1-.387.518Z" transform="translate(-261.969 -146.715)" fill="#084a93"/>
      <path id="Trazado_254482" data-name="Trazado 254482" d="M360.762,220.05l-24.959,1.8a.431.431,0,0,1-.452-.394l-.08-1.138a.431.431,0,0,1,.394-.452l24.777-1.781a.416.416,0,0,1,.438.328l.27,1.124a.431.431,0,0,1-.387.518Z" transform="translate(-261.969 -146.715)" fill="#fff" opacity="0.7"/>
      <path id="Trazado_254483" data-name="Trazado 254483" d="M360.763,239.66a40.9,40.9,0,0,1-12.713,9.392C356.238,248.016,359.69,244.666,360.763,239.66Z" transform="translate(-265.423 -152.546)" opacity="0.2"/>
    </g>
  </g>
</svg>
